<svg xmlns="http://www.w3.org/2000/svg" width="623.283" height="756.423" viewBox="0 0 623.283 756.423">
  <g id="education" transform="translate(-196.788 -177.35)">
    <g id="background">
      <path id="Path_1" data-name="Path 1" d="M780.8,319.18a288.035,288.035,0,0,0-24.42-34.08c-151.54-182.55-342.81-63.7-371.92,4.1s-18.95,109.37,22.01,139.22c30.3,22.07,112.53-16.12,126.05,12.84s-36.6-1.17-53.01,49.38c-5.79,17.83,41.84,13.57,58.91,63.53,32.85,96.16-10.87,127.38-43.29,145.12-22.18,12.14-73.74,51.07-40.07,92.84,30.22,37.49,128.73,20.02,214.09-49.42,12.84-10.45,29.21-26.58,46.35-47.1C784.53,612.99,866.17,459.23,780.8,319.18Z" fill="#f1f0f0"/>
      <circle id="Ellipse_1" data-name="Ellipse 1" cx="22.71" cy="22.71" r="22.71" transform="translate(408.31 233.08)" fill="none" stroke="#ff3f3f" stroke-miterlimit="10" stroke-width="3"/>
      <circle id="Ellipse_2" data-name="Ellipse 2" cx="54.49" cy="54.49" r="54.49" transform="translate(688.39 214.3)" fill="#ff3f3f"/>
      <circle id="Ellipse_3" data-name="Ellipse 3" cx="18.77" cy="18.77" r="18.77" transform="translate(757.85 207.95)" fill="none" stroke="#292e34" stroke-miterlimit="10" stroke-width="3"/>
      <g id="Group_1" data-name="Group 1">
        <path id="Path_2" data-name="Path 2" d="M640.55,362.08a13.486,13.486,0,0,0,6.56-6.45l-2.28-.96c-.6,3.57,2.12,6.4,5.38,7.31l-.3-2.28c-3.69,2.05-4.29,4.97-5.49,8.71l2.41.66a7.109,7.109,0,0,0-7.09-8.48,1.251,1.251,0,0,0,0,2.5,4.572,4.572,0,0,1,4.68,5.32,1.25,1.25,0,0,0,2.41.66c.99-3.08,1.22-5.48,4.35-7.22a1.26,1.26,0,0,0-.3-2.28c-1.78-.5-4-2.07-3.64-4.24.21-1.27-1.69-2.37-2.28-.96a11.428,11.428,0,0,1-5.66,5.56c-1.47.66-.2,2.81,1.25,2.15Z" fill="#292e34"/>
      </g>
      <g id="Group_2" data-name="Group 2">
        <path id="Path_3" data-name="Path 3" d="M580.81,247.05a13.486,13.486,0,0,0,6.56-6.45l-2.28-.96c-.6,3.57,2.12,6.4,5.38,7.31l-.3-2.28c-3.69,2.05-4.29,4.97-5.49,8.71l2.41.66a7.109,7.109,0,0,0-7.09-8.48,1.251,1.251,0,0,0,0,2.5,4.572,4.572,0,0,1,4.68,5.32,1.25,1.25,0,0,0,2.41.66c.99-3.08,1.22-5.48,4.35-7.22a1.26,1.26,0,0,0-.3-2.28c-1.78-.5-4-2.07-3.64-4.24.21-1.27-1.69-2.37-2.28-.96a11.428,11.428,0,0,1-5.66,5.56c-1.48.66-.21,2.81,1.25,2.15Z" fill="#292e34"/>
      </g>
      <g id="Group_3" data-name="Group 3">
        <path id="Path_4" data-name="Path 4" d="M726.09,185.72a13.486,13.486,0,0,0,6.56-6.45l-2.28-.96c-.6,3.57,2.12,6.4,5.38,7.31l-.3-2.28c-3.69,2.05-4.29,4.97-5.49,8.71l2.41.66a7.109,7.109,0,0,0-7.09-8.48,1.251,1.251,0,0,0,0,2.5,4.572,4.572,0,0,1,4.68,5.32,1.25,1.25,0,0,0,2.41.66c.99-3.08,1.22-5.48,4.35-7.22a1.26,1.26,0,0,0-.3-2.28c-1.78-.5-4-2.07-3.64-4.24.21-1.27-1.69-2.37-2.28-.96a11.428,11.428,0,0,1-5.66,5.56c-1.47.65-.21,2.81,1.25,2.15Z" fill="#292e34"/>
      </g>
    </g>
    <g id="character">
      <path id="Path_5" data-name="Path 5" d="M481.29,408.17s3.84,2.28,12.23,2.56,21.48,1.56,27.74,9.25,20.77,18.64,29.02,25.75,13.09,10.81,18.21,19.21,13.09,26.89,20.2,36.42a235.462,235.462,0,0,0,16.93,19.63s-14.51,17.5-18.21,32.15-6.69,37.27-12.09,47.94-19.06,30.02-19.06,30.02,9.1,45.1,11.95,55.48,6.83,21.34,6.83,21.34-9.1,15.36-21.77,13.66-23.33-12.09-26.32-17.07-22.62-40.54-25.61-47.52-10.1-20.49-11.24-27.74-3.41-34.43-5.69-38.98-22.34-40.26-27.46-48.23-12.52-26.18-14.51-32.72a46.749,46.749,0,0,0-3.53-9.14s7.66-11.25,6.21-32.87-4.95-29.48-4.95-29.48,3.1-10.47,9.41-12.02,14.35-1.16,18.23-3.49a72.593,72.593,0,0,0,11.25-9.21C480.14,411.84,481.29,408.17,481.29,408.17Z" fill="#ff3f3f"/>
      <g id="Group_4" data-name="Group 4">
        <path id="Path_6" data-name="Path 6" d="M445.13,360.69c5.02-11.72,9.99-23.46,15.69-34.87l-2.28-.3c3.61,18.32,3.7,37.08,6.37,55.53.23,1.59,2.64.91,2.41-.66-2.67-18.45-2.76-37.21-6.37-55.53a1.26,1.26,0,0,0-2.28-.3c-5.7,11.41-10.66,23.16-15.69,34.87-.63,1.46,1.52,2.74,2.15,1.26Z" fill="#292e34"/>
      </g>
      <g id="Group_5" data-name="Group 5">
        <path id="Path_7" data-name="Path 7" d="M352.07,311.85q-10.32,17.745-20.77,35.41a1.257,1.257,0,0,0,1.08,1.88c9.92-1.04,19.53,1.05,29.23,2.88q13.755,2.61,27.62,4.58,27.345,3.885,54.95,5.26c1.61.08,1.6-2.42,0-2.5-19.44-1.01-38.83-2.86-58.09-5.72-9.22-1.37-18.4-2.99-27.56-4.75-8.67-1.66-17.29-3.18-26.15-2.25.36.63.72,1.25,1.08,1.88q10.455-17.67,20.77-35.41a1.251,1.251,0,0,0-2.16-1.26Z" fill="#292e34"/>
      </g>
      <g id="Group_6" data-name="Group 6">
        <path id="Path_8" data-name="Path 8" d="M353.51,312.88c17.85,1.34,35.37,4.58,53.01,7.44,17.32,2.81,34.78,4.48,52.27,5.84,1.6.12,1.6-2.38,0-2.5-18.53-1.44-37.01-3.24-55.34-6.37-16.59-2.83-33.14-5.65-49.94-6.91-1.6-.12-1.6,2.38,0,2.5Z" fill="#292e34"/>
      </g>
      <g id="Group_7" data-name="Group 7">
        <path id="Path_9" data-name="Path 9" d="M457.5,336.08c-.09,6.96.6,13.99,1.15,20.91.63,7.85,1.13,15.91,2.88,23.61.29-.51.58-1.03.87-1.54a29.748,29.748,0,0,1-9.46.58c-1.6-.14-1.59,2.36,0,2.5a31.639,31.639,0,0,0,10.13-.67,1.267,1.267,0,0,0,.87-1.54c-1.79-7.87-2.27-16.12-2.89-24.15-.5-6.53-1.14-13.15-1.05-19.7a1.251,1.251,0,0,0-2.5,0Z" fill="#292e34"/>
      </g>
      <g id="Group_8" data-name="Group 8">
        <path id="Path_10" data-name="Path 10" d="M457.45,335.02c-3.13,10.9-7.76,21.12-12.91,31.2-.73,1.43,1.42,2.7,2.16,1.26,5.26-10.27,9.97-20.68,13.17-31.79a1.257,1.257,0,0,0-2.42-.67Z" fill="#292e34"/>
      </g>
      <g id="Group_9" data-name="Group 9">
        <path id="Path_11" data-name="Path 11" d="M334.22,354.22c10.38-2.1,20.53,1.59,30.57,3.85q12.135,2.73,24.48,4.4c18.61,2.52,37.5,1.75,56,5.02,1.57.28,2.25-2.13.66-2.41-19.23-3.4-38.87-2.57-58.2-5.33-9.35-1.33-18.62-3.16-27.79-5.4-8.77-2.14-17.35-4.37-26.38-2.55-1.58.32-.91,2.73.66,2.42Z" fill="#292e34"/>
      </g>
      <g id="Group_10" data-name="Group 10">
        <path id="Path_12" data-name="Path 12" d="M331.6,349.15c.13.11-.08-.29.02.06.05.17.1.34.14.52a15.138,15.138,0,0,1,.25,1.5,19.589,19.589,0,0,0,.35,2.42,1.25,1.25,0,0,0,2.41-.66,27.563,27.563,0,0,1-.42-2.87c-.13-.86-.26-2.14-.99-2.73-1.24-1-3.02.76-1.76,1.76Z" fill="#292e34"/>
      </g>
      <g id="Group_11" data-name="Group 11">
        <path id="Path_13" data-name="Path 13" d="M443.16,369.41c10.5,15.72,19.69,33.58,35.31,44.88,1.31.94,2.55-1.22,1.26-2.16-15.19-10.99-24.2-28.69-34.41-43.98-.89-1.34-3.06-.09-2.16,1.26Z" fill="#292e34"/>
      </g>
      <g id="Group_12" data-name="Group 12">
        <path id="Path_14" data-name="Path 14" d="M378.97,381.1c-3.7,5.05,1.17,10.37,6.52,10.73,7.7.52,12.95-6.02,16.93-11.65.93-1.32-1.24-2.57-2.16-1.26-2.17,3.07-4.48,6.4-7.74,8.43a12.436,12.436,0,0,1-5.7,2c-3.57.2-8.87-2.65-5.7-6.98.96-1.3-1.21-2.55-2.15-1.27Z" fill="#292e34"/>
      </g>
      <g id="Group_13" data-name="Group 13">
        <path id="Path_15" data-name="Path 15" d="M374.47,360.26a16.632,16.632,0,0,1,8.99,6.11,11.964,11.964,0,0,1,2.61,6.06c.19,2.76-2.32,4.49-4.19,6.28-1.17,1.11.6,2.88,1.77,1.77,1.73-1.65,4.34-3.38,4.96-5.81.63-2.46-.64-5.68-1.81-7.81a19.012,19.012,0,0,0-11.66-9.01c-1.58-.36-2.24,2.05-.67,2.41Z" fill="#292e34"/>
      </g>
      <g id="Group_14" data-name="Group 14">
        <path id="Path_16" data-name="Path 16" d="M345.62,352.24c-8.89,7.04-15.78,18.92-19.49,29.46-4.02,11.43-4.95,25.11-1.9,36.82,7.6,29.17,33.55,47.76,46.7,73.93a49.959,49.959,0,0,1,5.64,24.53c-.12,4.04-.56,8.06-.62,12.1-.03,1.68-.27,3.67.99,4.99,1.73,1.81,5.79,1.77,8.08,2.16a41.866,41.866,0,0,0,10.71.78,53.6,53.6,0,0,0,16.64-4.24c15.04-6.51,24.98-21.51,30.81-36.37,2.75-7.02,3.04-15.39,3.24-22.83a110.7,110.7,0,0,0-2.1-24.37c-1.7-8.56-4.73-16.49-7.9-24.59-1.8-4.62-3.26-9.42-2.21-14.41.81-3.84,2.42-7.3,2.65-11.27.07-1.2-1.36-1.49-2.13-.88-14.01,11.04-35.44,7.75-43.92-8.22-.76-1.42-2.91-.16-2.16,1.26,9.29,17.49,32.67,20.68,47.85,8.72-.71-.29-1.42-.59-2.13-.88-.36,6.28-3.77,11.53-2.81,17.98,1.04,6.96,4.75,13.34,6.94,19.96a108.606,108.606,0,0,1,5.15,42.05c-.51,6.91-1.13,13.77-4.44,19.98-1.4,2.62-2.71,5.28-4.1,7.9-3.59,6.74-7.95,13.08-13.98,17.87a45.625,45.625,0,0,1-35.43,9.13c-1.4-.23-4.44-.32-5.63-1.06-2.3-1.44-1.63-3.32-1.54-5.54.12-3.11.41-6.2.52-9.31a50.28,50.28,0,0,0-2.76-19.43c-9.25-25.47-32.34-42.7-44.3-66.67-7.18-14.41-8.32-28.74-4.85-44.33,2.65-11.94,10.56-25.79,20.25-33.47,1.26-.99-.52-2.74-1.77-1.75Z" fill="#292e34"/>
      </g>
      <g id="Group_15" data-name="Group 15">
        <path id="Path_17" data-name="Path 17" d="M442.43,437.42c1.97-5.65,5.28-10.02,11.22-11.61,2.87-.77,5.87-.66,8.75-1.32,5.41-1.24,10.56-4.44,14.96-7.7,3.19-2.36,6.07-5.29,4.83-9.49l-1.54,1.54c10.19,4.26,21.99,2.41,32.19,7,6.55,2.94,10.43,9.1,15.56,13.84a167.607,167.607,0,0,0,15.2,12c12.28,8.98,22.23,18.19,29.22,31.92,4.67,9.18,8.63,18.29,14.49,26.78,2.99,4.33,6.1,8.59,9.43,12.67,2.3,2.82,4.8,6.23,8.09,7.98,1.42.76,2.68-1.4,1.26-2.16-3.06-1.63-5.44-4.96-7.58-7.59-3.31-4.06-6.39-8.31-9.35-12.62-6.05-8.8-10.01-18.39-14.94-27.82-6.35-12.12-15.23-20.89-26.13-28.97-6.08-4.5-12.33-8.82-17.9-13.97-4.48-4.15-8.02-9.58-13.29-12.8-10.86-6.65-24.21-3.94-35.56-8.68-.9-.38-1.78.71-1.54,1.54,1.87,6.35-13.39,13-17.76,14.05-2.54.61-5.2.59-7.76,1.11-7.47,1.5-11.82,6.63-14.25,13.64-.54,1.52,1.87,2.17,2.4.66Z" fill="#292e34"/>
      </g>
      <g id="Group_16" data-name="Group 16">
        <path id="Path_18" data-name="Path 18" d="M604.12,519.43c-5.1,8.99-11.01,17.59-15.4,26.96-4.28,9.14-5.6,18.37-7.32,28.18-3.52,20.04-12.02,41.12-26.5,55.76a1.252,1.252,0,0,0,1.77,1.77c13.83-13.98,22.18-33.6,26.3-52.6,2.26-10.39,2.89-20.68,7.3-30.54,4.42-9.89,10.67-18.88,16.01-28.27a1.251,1.251,0,0,0-2.16-1.26Z" fill="#292e34"/>
      </g>
      <g id="Group_17" data-name="Group 17">
        <path id="Path_19" data-name="Path 19" d="M465.66,559.85a213.554,213.554,0,0,1-2.47,41.81c-2.08,13.58-5.12,27.53-11.49,39.81a1.274,1.274,0,0,0,.75,1.84c6.78,2.39,14.23,3.09,21.38,3.39s14.61.22,21.57-1.64a1.25,1.25,0,0,0-.66-2.41c-12.64,3.38-29.3,2.59-41.61-1.75.25.61.5,1.22.75,1.84,6.48-12.48,9.63-26.6,11.74-40.41a216.55,216.55,0,0,0,2.56-42.48c-.09-1.6-2.59-1.61-2.52,0Z" fill="#292e34"/>
      </g>
      <g id="Group_18" data-name="Group 18">
        <path id="Path_20" data-name="Path 20" d="M496.41,457.26c4.31,18.75,7.75,37.99,13.33,56.41,5.42,17.9,15.8,34.2,23.02,51.42,7.29,17.38,14.26,35.35,18.86,53.65,3.79,15.08,6.06,30.54,9.73,45.67,3.45,14.23,6.72,28.9,12.31,42.48.6,1.47,3.02.82,2.41-.66-4.89-11.89-7.89-24.63-10.98-37.08-3.6-14.46-6.44-28.95-9.37-43.55-3.73-18.56-10.65-36.62-17.67-54.15-3.33-8.32-6.89-16.56-10.71-24.66-4.25-9.01-9.32-17.72-12.9-27.03-3.72-9.7-5.7-20-8.02-30.09q-3.795-16.53-7.6-33.07c-.36-1.57-2.77-.91-2.41.66Z" fill="#292e34"/>
      </g>
      <g id="Group_19" data-name="Group 19">
        <path id="Path_21" data-name="Path 21" d="M439.4,499.83c2.74,21.65,15.18,40.42,26.2,58.7,6.19,10.27,12.4,20.68,16.72,31.91,4.42,11.49,4.66,22.85,6.19,34.91,1.92,15.1,9.98,29.62,16.77,43,7.15,14.07,14.58,28.7,24.25,41.25,5.41,7.02,13.63,13.56,22.77,14.12,9.97.61,18.02-8.09,23.69-15.32.98-1.25-.77-3.03-1.77-1.77-5.99,7.64-14.3,16.55-24.91,14.13-8.38-1.91-15.01-8.59-19.8-15.42-8.68-12.35-15.83-25.91-22.62-39.36-6.76-13.39-14.54-27.68-16.12-42.82-1.1-10.55-1.48-20.58-5.03-30.69-3.35-9.53-8.15-18.49-13.21-27.21-11.95-20.56-27.56-41.21-30.62-65.45-.21-1.55-2.71-1.57-2.51.02Z" fill="#292e34"/>
      </g>
      <g id="Group_20" data-name="Group 20">
        <path id="Path_22" data-name="Path 22" d="M573.73,711.67q4.815,8.055,9.64,16.12c3.46,5.79,8.34,11.81,6.24,18.92-3.09,10.47-14.32,18.69-23.76,22.97-1.29.58-.38,2.72.96,2.28l.66-.21c1.52-.5.87-2.91-.66-2.41l-.66.21.96,2.28c10.13-4.59,21.5-13.35,24.91-24.46,1.71-5.57-.14-10.08-2.94-14.9-4.31-7.4-8.8-14.71-13.19-22.06a1.251,1.251,0,0,0-2.16,1.26Z" fill="#292e34"/>
      </g>
      <g id="Group_21" data-name="Group 21">
        <path id="Path_23" data-name="Path 23" d="M574.35,757.5c-3.92,6.89-11.11,10.16-18.09,13.2-1.47.64-.2,2.8,1.26,2.16,7.41-3.23,14.83-6.81,18.98-14.1a1.247,1.247,0,0,0-2.15-1.26Z" fill="#292e34"/>
      </g>
      <g id="Group_22" data-name="Group 22">
        <path id="Path_24" data-name="Path 24" d="M567.06,758.85a28.544,28.544,0,0,1-14.23,11.2l1.54,1.54c.02-.04.04-.09.06-.13,1.17-1.11-.6-2.87-1.77-1.77a2.028,2.028,0,0,0-.7,1.23c-.18.86.58,1.88,1.54,1.54a31.335,31.335,0,0,0,15.72-12.35c.89-1.35-1.27-2.6-2.16-1.26Z" fill="#292e34"/>
      </g>
      <g id="Group_23" data-name="Group 23">
        <path id="Path_25" data-name="Path 25" d="M553.95,727.38c.41,6.71,2.6,12.86,5.65,18.8,3.74,7.28-.21,17.47-6.25,22.61-1.23,1.04.55,2.8,1.77,1.77,4.94-4.2,8.57-11.87,8.96-18.38.2-3.39-1.67-5.86-3.11-8.82a42.06,42.06,0,0,1-4.52-15.98c-.1-1.6-2.6-1.61-2.5,0Z" fill="#292e34"/>
      </g>
      <g id="Group_24" data-name="Group 24">
        <path id="Path_26" data-name="Path 26" d="M662.9,422.11c-15.22-.4-30.48-4.65-44.38-10.73-12.95-5.66-24.88-14.36-38.98-17.06-5.05-.97-7.59.1-8.4,5.46-.94,6.18,1.77,12.21,4.35,17.66,6.31,13.31,14.3,25.72,22.23,38.1,9.39,14.64,18.61,29.41,25.07,45.63.59,1.48,3.01.83,2.41-.66-6.34-15.9-15.22-30.44-24.42-44.81-9.32-14.56-20.43-29.72-25.97-46.23a22.844,22.844,0,0,1-1.39-6.94c-.05-4.52,1.52-6.1,6.28-5.63,4.7.46,9.83,2.94,14.03,4.88,7.73,3.56,15.03,7.99,22.8,11.45,14.5,6.47,30.41,10.96,46.35,11.38a1.251,1.251,0,0,0,.02-2.5Z" fill="#292e34"/>
      </g>
      <g id="Group_25" data-name="Group 25">
        <path id="Path_27" data-name="Path 27" d="M672.62,397.12c-16.65,13.27-8.75,36.89-9.43,54.82.71-.29,1.42-.59,2.13-.88-6.64-5.68-13.6-6.59-22.05-6.47-2.1.03-7.21.5-8.22-1.83-.5-1.15.23-4.16.18-5.51-.2-5.25-1.35-10.4-1.73-15.63-.85-11.44,4.15-20.18,11.55-28.47,1.92-2.15,2.91-4.06,5.88-3.49,2.66.51,5.43,1.95,7.97,2.86q7.98,2.85,15.95,5.71c1.52.54,2.17-1.87.66-2.41q-13.29-4.755-26.58-9.52a1.254,1.254,0,0,0-1.22.32c-6.53,6.87-13.47,14.27-15.92,23.7-2.89,11.12,2.14,22.3.61,33.5a1.3,1.3,0,0,0,.57,1.41c4.1,1.94,8.19,1.9,12.65,1.81,6.79-.13,12.66,1.31,17.92,5.8a1.265,1.265,0,0,0,2.13-.88c.66-17.22-7.28-40.33,8.7-53.06,1.28-1.02-.5-2.78-1.75-1.78Z" fill="#292e34"/>
      </g>
      <g id="Group_26" data-name="Group 26">
        <path id="Path_28" data-name="Path 28" d="M645.48,386.56a297.223,297.223,0,0,0-41.56-20.66c-11.44-4.6-25.76-11.95-38.12-6.95-9.08,3.67-18.7,12.08-21.11,21.92-1.58,6.45-.26,13.36.68,19.82a177.039,177.039,0,0,0,3.8,19.36c3.63,13.93,9.67,27.03,15.65,40.08.67,1.46,2.82.19,2.16-1.26-6.08-13.28-12.18-26.61-15.74-40.83a190.243,190.243,0,0,1-4.13-22.97c-1.07-8.77-.6-16.19,5.31-23.19,4.47-5.3,10.87-10.19,17.76-11.74,8.43-1.89,17.68,2.35,25.48,5.24a292.184,292.184,0,0,1,48.56,23.34,1.251,1.251,0,0,0,1.26-2.16Z" fill="#292e34"/>
      </g>
      <g id="Group_27" data-name="Group 27">
        <path id="Path_29" data-name="Path 29" d="M607.39,430.3c14.5,15.7,28.55,31.66,41.11,48.97.94,1.29,3.11.04,2.16-1.26-12.69-17.48-26.86-33.63-41.51-49.48-1.08-1.18-2.85.59-1.76,1.77Z" fill="#292e34"/>
      </g>
      <g id="Group_28" data-name="Group 28">
        <path id="Path_30" data-name="Path 30" d="M611.27,434c6.56,5.52,14.18,7.53,22.25,9.91a1.25,1.25,0,0,0,.66-2.41c-7.59-2.23-14.96-4.06-21.15-9.26-1.22-1.03-3,.73-1.76,1.76Z" fill="#292e34"/>
      </g>
      <g id="Group_29" data-name="Group 29">
        <path id="Path_31" data-name="Path 31" d="M673.23,400.1c22.74,8.24,45.44,17.24,69.38,21.35,1.57.27,2.25-2.14.66-2.41-23.94-4.11-46.64-13.11-69.38-21.35-1.51-.55-2.16,1.87-.66,2.41Z" fill="#292e34"/>
      </g>
      <g id="Group_30" data-name="Group 30">
        <path id="Path_32" data-name="Path 32" d="M759.85,427.08c9.46,4.03,19.11,7.64,28.87,10.9,5.07,1.7,10.19,3.31,15.37,4.62,1.94.49,4.46.62,6.3,1.37,1.77.73,1.99.77,1.93,2.96-.13,4.78-5.13,6.62-9.04,5.7-1.56-.37-2.23,2.04-.66,2.41,5.67,1.34,11.63-1.73,12.31-7.93.73-6.62-5.9-5.82-10.73-7.07a305.892,305.892,0,0,1-43.07-15.12c-1.48-.62-2.76,1.53-1.28,2.16Z" fill="#292e34"/>
      </g>
      <g id="Group_31" data-name="Group 31">
        <path id="Path_33" data-name="Path 33" d="M814.48,448.86c.81.83,4.8,2.91,2.31,3.98-1.53.66-3.75.91-5.07-.28-1.19-1.07-2.97.69-1.77,1.77,2.23,2.01,5.92,1.96,8.46.49a3.522,3.522,0,0,0,1.6-3.66c-.41-2.15-2.41-2.67-3.77-4.07-1.12-1.15-2.89.62-1.76,1.77Z" fill="#292e34"/>
      </g>
      <g id="Group_32" data-name="Group 32">
        <path id="Path_34" data-name="Path 34" d="M801.98,451.89c-6.42,2.03-13.02,3.76-19.22,6.43-1.47.64-.2,2.79,1.26,2.16,5.99-2.59,12.41-4.22,18.62-6.18,1.53-.48.88-2.89-.66-2.41Z" fill="#292e34"/>
      </g>
      <g id="Group_33" data-name="Group 33">
        <path id="Path_35" data-name="Path 35" d="M664.84,442.24a62.35,62.35,0,0,1,28.66,4.6c1.49.61,2.13-1.8.66-2.41a63.951,63.951,0,0,0-29.32-4.69c-1.6.12-1.61,2.62,0,2.5Z" fill="#292e34"/>
      </g>
      <g id="Group_34" data-name="Group 34">
        <path id="Path_36" data-name="Path 36" d="M603.01,526.54a449.659,449.659,0,0,1,125.2-98.56c7.8-4.14,15.62-9.88,24.41-5.11a74.026,74.026,0,0,1,17.1,12.65c10.16,10.29,12.6,24.89,15.13,38.56,5.37,29,8.18,59.71,5.69,89.19-.78,9.23-17.34,16.07-25.25,18.46-13.29,4.01-27.41,2.75-40.83.1-1.57-.31-2.24,2.1-.66,2.41,12.22,2.41,24.9,3.72,37.21,1.15,8.76-1.83,16.69-5.79,24.05-10.78,3.87-2.62,7.22-4.93,7.87-9.86,1.09-8.27.73-17.06.66-25.39a378.1,378.1,0,0,0-3.47-48.01c-2.02-14.89-3.81-31.38-10.08-45.19a45.462,45.462,0,0,0-12.85-16.29c-4.9-4.04-10.68-8.55-16.64-10.83-6.05-2.31-11.43.48-16.81,3.22q-10.275,5.22-20.27,10.98a446.462,446.462,0,0,0-38.01,24.52,453.659,453.659,0,0,0-74.24,67c-1.04,1.21.72,2.99,1.79,1.78Z" fill="#292e34"/>
      </g>
      <g id="Group_35" data-name="Group 35">
        <path id="Path_37" data-name="Path 37" d="M722.24,583.57c2.2,11.81,3.36,23.79,5.56,35.6a1.267,1.267,0,0,0,1.54.87c13.86-3.57,28.1,1.42,42.15.73a113.9,113.9,0,0,0,36.54-8.09c1.48-.59.83-3.01-.66-2.41a110,110,0,0,1-39.13,8.1c-13.27.17-26.41-4.13-39.56-.74.51.29,1.03.58,1.54.87-2.2-11.81-3.36-23.79-5.56-35.6-.3-1.57-2.71-.9-2.42.67Z" fill="#292e34"/>
      </g>
      <g id="Group_36" data-name="Group 36">
        <path id="Path_38" data-name="Path 38" d="M792.28,561.37c8.24,15.09,12.53,33.09,15.12,49.98l2.28-.96c-.17-.4-.35-.8-.52-1.2-.64-1.47-2.8-.2-2.16,1.26.17.4.35.8.52,1.2.61,1.41,2.48.31,2.28-.96-2.62-17.13-7.01-35.27-15.37-50.58-.76-1.42-2.92-.16-2.15,1.26Z" fill="#292e34"/>
      </g>
      <g id="Group_37" data-name="Group 37">
        <path id="Path_39" data-name="Path 39" d="M577.55,597.96c19.04,2.7,39.74-6.65,52.37-20.83,16.09-18.06,27.59-40.08,42.14-59.36q11.865-15.705,25.01-30.39,6.015-6.72,12.28-13.21c4.45-4.61,9.8-11.75,16.4-13.15,13.17-2.8,16.45,24.04,17.78,32.79,1.88,12.38,3.33,24.82,5.42,37.17,3.04,17.9,6.79,35.98,14.67,52.45.69,1.45,2.85.18,2.16-1.26-7.33-15.31-10.95-32.11-13.88-48.73-2.15-12.2-3.75-24.47-5.45-36.73-1.52-10.95-3.13-24.37-9.9-33.55-6.17-8.36-15.2-4.11-21.49,1.7-9.18,8.48-17.56,18.08-25.71,27.54-16.73,19.42-31.08,40.32-45.34,61.57-7.66,11.41-15.44,23.16-27,30.97-11.27,7.62-25.09,12.56-38.81,10.62-1.56-.23-2.24,2.17-.65,2.4Z" fill="#292e34"/>
      </g>
      <g id="Group_38" data-name="Group 38">
        <path id="Path_40" data-name="Path 40" d="M561.46,625.19c8,3.88,17.84,4.52,26.56,5.17a182.242,182.242,0,0,0,37.36-.73c26.91-3.56,50.37-24.31,66.7-44.86,11.76-14.79,21.5-31.55,31.37-47.63.84-1.37-1.32-2.63-2.16-1.26-16.76,27.3-33.21,55.35-59.44,74.68-9.81,7.23-20.39,13.8-32.52,15.96-11.35,2.02-23.1,2.21-34.59,1.74-10.28-.42-22.56-.62-32.03-5.22-1.43-.71-2.7,1.45-1.25,2.15Z" fill="#292e34"/>
      </g>
      <g id="Group_39" data-name="Group 39">
        <path id="Path_41" data-name="Path 41" d="M724.4,495.74c-2.88,16.95-3.99,33.75-1.53,50.83,1.86,12.89,4.7,26.8,11.28,38.22a1.251,1.251,0,0,0,2.16-1.26c-6.17-10.7-8.9-23.73-10.76-35.8-2.66-17.23-1.66-34.19,1.26-51.32.27-1.58-2.14-2.25-2.41-.67Z" fill="#292e34"/>
      </g>
      <g id="Group_40" data-name="Group 40">
        <path id="Path_42" data-name="Path 42" d="M742.62,617.76c2.91,7.66,3.98,15.67,5.21,23.73,1.3,8.54,4.37,18.92-.9,26.64a14.532,14.532,0,0,1-4.47,4.63c-1.24.67-2.73.73-3.98,1.38a8.723,8.723,0,0,0-3.95,4.68c-2.14,5.27-.68,11.94,1.4,16.96,2.46,5.93,6.48,11.09,10.89,15.68a117.963,117.963,0,0,1,15.24,19.24c4.3,6.83,7.91,14.21,12.47,20.86,5.01,7.31,13.61,15.42,9.5,25.17-.62,1.46,1.53,2.74,2.16,1.26,2.59-6.14,1.06-12.27-2.32-17.79-2.13-3.48-4.88-6.53-7.17-9.9-2.37-3.48-4.18-7.29-6.33-10.89a209.437,209.437,0,0,0-13.02-20.04c-4.98-6.51-11.48-11.64-15.93-18.58-4.31-6.7-9.75-20.49-.04-25a18.369,18.369,0,0,0,10.22-11.28c2.22-6.76.02-15.05-1.06-21.88-1.37-8.65-2.37-17.3-5.49-25.54-.59-1.49-3-.84-2.43.67Z" fill="#292e34"/>
      </g>
      <g id="Group_41" data-name="Group 41">
        <path id="Path_43" data-name="Path 43" d="M782.35,776.31a6.938,6.938,0,0,0,6.23,5.49c3.86.23,5.47-2.43,7.51-5.13.97-1.29-1.2-2.53-2.16-1.26-1.3,1.72-2.14,3.66-4.57,3.87a4.335,4.335,0,0,1-4.59-3.63c-.38-1.57-2.79-.9-2.42.66Z" fill="#292e34"/>
      </g>
      <g id="Group_42" data-name="Group 42">
        <path id="Path_44" data-name="Path 44" d="M795.72,780.03c8.34-.68,7.6-16,5.74-21.57-.51-1.52-2.92-.87-2.41.66,1.19,3.57,2.37,17.94-3.33,18.4-1.6.14-1.61,2.64,0,2.51Z" fill="#292e34"/>
      </g>
      <g id="Group_43" data-name="Group 43">
        <path id="Path_45" data-name="Path 45" d="M801.7,759.11c-5.07-13.01-2.49-26.86-1.95-40.39a194.683,194.683,0,0,0-2.92-42.23c-2.02-11.28-4.68-22.13-5.49-33.61-.6-8.59-.86-17.22-.84-25.84a1.251,1.251,0,0,0-2.5,0c-.02,8.85.24,17.72.89,26.54.79,10.83,3.18,21.06,5.18,31.7a192.869,192.869,0,0,1,3.08,45.38c-.66,13.14-2.79,26.49,2.12,39.1.6,1.49,3.02.85,2.43-.65Z" fill="#292e34"/>
      </g>
      <g id="Group_44" data-name="Group 44">
        <path id="Path_46" data-name="Path 46" d="M709.11,559.85c.91.45,3.7,1.42,4.19,2.3,1.04,1.88-2.61,9.66-3.17,11.49q-3.45,11.43-6.79,22.89c-4.63,15.79-9.23,31.58-14.09,47.3-.48,1.54,1.94,2.2,2.41.66,5.59-18.08,10.83-36.26,16.18-54.41,2.56-8.69,5.29-17.33,7.82-26.03,1.15-3.96-2-4.74-5.3-6.37-1.42-.71-2.69,1.45-1.25,2.17Z" fill="#292e34"/>
      </g>
      <g id="Group_45" data-name="Group 45">
        <path id="Path_47" data-name="Path 47" d="M556.98,633.43q67.065,5.01,133.93,12.29c-.4-.53-.8-1.05-1.21-1.58-4.07,12.81-24.43,6.75-33.96,5.49-10.74-1.42-21.47-2.86-32.22-4.17-21.57-2.61-43.2-4.45-64.94-4.93a1.251,1.251,0,0,0,0,2.5,706.944,706.944,0,0,1,73.68,6.02c12.29,1.56,24.55,3.31,36.85,4.82,8.75,1.08,19.8.98,23-9.07a1.263,1.263,0,0,0-1.21-1.58q-66.87-7.185-133.93-12.29c-1.59-.12-1.59,2.38.01,2.5Z" fill="#292e34"/>
      </g>
      <g id="Group_46" data-name="Group 46">
        <path id="Path_48" data-name="Path 48" d="M521.14,696.73c-2.48,28.45-3.7,57-6.22,85.45.71-.29,1.42-.59,2.13-.88-1.4-1.09-3.66-.71-5.31-.67-1.57.04-7.22,1.14-8.4.23-1.26-.97-3.04.78-1.77,1.77,1.4,1.09,3.66.71,5.31.67,1.57-.04,7.22-1.14,8.4-.23a1.266,1.266,0,0,0,2.13-.88c2.52-28.45,3.73-57,6.22-85.45.15-1.62-2.35-1.61-2.49-.01Z" fill="#292e34"/>
      </g>
      <g id="Group_47" data-name="Group 47">
        <path id="Path_49" data-name="Path 49" d="M509.59,678.02c-3.51,34.51-5.01,69.2-8.38,103.72-.16,1.6,2.35,1.59,2.5,0,3.36-34.53,4.87-69.21,8.38-103.72.16-1.6-2.34-1.59-2.5,0Z" fill="#292e34"/>
      </g>
      <g id="Group_48" data-name="Group 48">
        <path id="Path_50" data-name="Path 50" d="M516.69,782.43a77.238,77.238,0,0,1,9.63-3.34,1.25,1.25,0,0,0-.66-2.41,76.122,76.122,0,0,0-9.63,3.34c-1.49.58-.84,3,.66,2.41Z" fill="#292e34"/>
      </g>
      <g id="Group_49" data-name="Group 49">
        <path id="Path_51" data-name="Path 51" d="M529.58,711.34c-2.92,21.98-4.15,44.09-4.88,66.24-.05,1.61,2.45,1.61,2.5,0,.73-22.15,1.96-44.25,4.88-66.24.21-1.59-2.29-1.57-2.5,0Z" fill="#292e34"/>
      </g>
      <g id="Group_50" data-name="Group 50">
        <path id="Path_52" data-name="Path 52" d="M670.36,653.25c1.03,43.64.76,87.62,4.59,131.14a1.262,1.262,0,0,0,2.13.88c2.53-2.36,7.76-.86,10.41-3.34,1.18-1.1-.59-2.87-1.77-1.77-2.53,2.36-7.76.86-10.41,3.34.71.29,1.42.59,2.13.88-3.83-43.51-3.55-87.49-4.59-131.14a1.246,1.246,0,0,0-2.49.01Z" fill="#292e34"/>
      </g>
      <g id="Group_51" data-name="Group 51">
        <path id="Path_53" data-name="Path 53" d="M679.79,652.86c1,42.68,1.44,85.68,5.56,128.19.15,1.59,2.66,1.6,2.5,0-4.12-42.51-4.57-85.51-5.56-128.19a1.251,1.251,0,0,0-2.5,0Z" fill="#292e34"/>
      </g>
      <g id="Group_52" data-name="Group 52">
        <path id="Path_54" data-name="Path 54" d="M676.35,782.23c-4.14-1.41-8.81-.42-13.05-1.28-1.57-.32-2.24,2.09-.66,2.41,4.24.86,8.94-.12,13.05,1.28,1.52.52,2.17-1.89.66-2.41Z" fill="#292e34"/>
      </g>
      <g id="Group_53" data-name="Group 53">
        <path id="Path_55" data-name="Path 55" d="M656.6,652.86c-.48,3.84.13,8.06.28,11.91.34,8.84.74,17.68,1.14,26.52.99,21.75,2.05,43.49,3.04,65.24.38,8.28.77,16.56,1.04,24.85.05,1.6,2.55,1.61,2.5,0-1.25-37.93-3.6-75.82-5.11-113.74-.19-4.76-.98-10.01-.39-14.77.2-1.6-2.3-1.59-2.5-.01Z" fill="#292e34"/>
      </g>
      <g id="Group_54" data-name="Group 54">
        <path id="Path_56" data-name="Path 56" d="M537.48,531.77a2.6,2.6,0,0,0,.68,2.63,7.772,7.772,0,0,0,1.33.77,2.656,2.656,0,0,1,1.64,1.56,2.236,2.236,0,0,0-.22.87,2.085,2.085,0,0,0,1.16,2.13c1.52.95,2.7,1.51,3.33,3.37.51,1.52,2.93.87,2.41-.66a8.017,8.017,0,0,0-1.84-3.15,7.539,7.539,0,0,0-1.45-1.13,4.455,4.455,0,0,0-.81-.42c-.44-.06-.49-.17-.16-.34-.15-1.17.25-1.92-.58-3.02-.31-.41-3.09-1.86-3.07-1.93.37-1.57-2.04-2.24-2.42-.68Z" fill="#292e34"/>
      </g>
      <g id="Group_55" data-name="Group 55">
        <path id="Path_57" data-name="Path 57" d="M546.2,577.56a2.227,2.227,0,0,0,.54,3.04,3.071,3.071,0,0,0,2.19.52c1.36-.09,1.82.13,1.95,1.46a2.649,2.649,0,0,0,1.93,2.53c1.01.32,1.14.32,1.38,1.41a2.573,2.573,0,0,0,.84,1.71c1.21,1.05,2.99-.72,1.77-1.77-.31-.27-.16-1.35-.28-1.74a2.49,2.49,0,0,0-.77-1.19,3.306,3.306,0,0,0-1.27-.6c-.9-.25-1.04.02-1.13-1.06a3.66,3.66,0,0,0-1.17-2.86c-.66-.5-3.21-1.04-3.81-.18.91-1.33-1.25-2.58-2.17-1.27Z" fill="#292e34"/>
      </g>
      <g id="Group_56" data-name="Group 56">
        <path id="Path_58" data-name="Path 58" d="M521.65,525.16c-.38-.83,2.92-1.07,3.44-1.49.97-.77.8-2.16,1.73-2.82.96-.68,2.24-.04,3.31-.73,1.31-.85,1.75-2.56,3.04-3.52s.03-3.12-1.26-2.16a9.886,9.886,0,0,0-1.93,1.78,7.814,7.814,0,0,1-1.12,1.47c-.6.45-.78.3-1.5.29a3.059,3.059,0,0,0-3.33,2.05c-.1.26-.09.85-.25,1.05-.71.87-.92.21-1.7.38a4.184,4.184,0,0,0-1.83.7,3.354,3.354,0,0,0-.74,4.25c.64,1.48,2.8.21,2.14-1.25Z" fill="#292e34"/>
      </g>
      <g id="Group_57" data-name="Group 57">
        <path id="Path_59" data-name="Path 59" d="M546.11,561.26c-.38-.83,2.92-1.07,3.44-1.49.97-.77.8-2.16,1.73-2.82.96-.68,2.24-.04,3.31-.73,1.31-.85,1.75-2.56,3.04-3.52s.03-3.12-1.26-2.16a9.886,9.886,0,0,0-1.93,1.78,7.814,7.814,0,0,1-1.12,1.47c-.6.45-.78.3-1.5.29a3.059,3.059,0,0,0-3.33,2.05c-.1.26-.09.85-.25,1.05-.71.87-.92.21-1.7.38a4.184,4.184,0,0,0-1.83.7,3.354,3.354,0,0,0-.74,4.25c.64,1.48,2.79.21,2.14-1.25Z" fill="#292e34"/>
      </g>
      <g id="Group_58" data-name="Group 58">
        <path id="Path_60" data-name="Path 60" d="M540.61,505.65c-.58,2.45,1.3,3.07,2.98,4.2,1.04.7.72,1.64,1.2,2.7.55,1.23,2.86,2.73,2.49,4.16a1.25,1.25,0,0,0,2.41.66c.8-3.08-2.25-4.02-2.76-6.66a3.681,3.681,0,0,0-.95-2.27c-.5-.49-3.13-1.43-2.96-2.13.37-1.55-2.04-2.22-2.41-.66Z" fill="#292e34"/>
      </g>
      <g id="Group_59" data-name="Group 59">
        <path id="Path_61" data-name="Path 61" d="M518.76,497.06c-.96-1.9,1.15-3.28,2.76-2.22a1.24,1.24,0,0,0,1.51-.2,2.71,2.71,0,0,0,.75-1.66c.1-1.27-.49-1.74.86-2.45,1.57-.83,3.1-1.58,2.97-3.6-.1-1.6-2.6-1.61-2.5,0,.07,1.09-2.72,1.82-3.36,2.68a2.9,2.9,0,0,0-.55,1.33c-.06.39.28,1.66.06,1.93.5-.07,1.01-.13,1.51-.2a4.286,4.286,0,0,0-6.18,5.64c.74,1.45,2.9.19,2.17-1.25Z" fill="#292e34"/>
      </g>
      <g id="Group_60" data-name="Group 60">
        <path id="Path_62" data-name="Path 62" d="M536.12,483.11c.02.5.04.99.06,1.49a1.275,1.275,0,0,0,.92,1.21c.88.21,2.17-.2,2.92.08,1.14.43.71,2.4,1.21,3.33a2.3,2.3,0,0,0,1.71,1.28c.91.14,3.13-1.37,2.98.4-.13,1.6,2.37,1.59,2.5,0a3.247,3.247,0,0,0-1.61-3.1,3.111,3.111,0,0,0-1.71-.4c-.69.05-1.43.75-1.78.04-.24-.49.06-1.47-.12-2.06a2.849,2.849,0,0,0-1.05-1.46c-1.34-.95-2.91-.17-4.38-.52.31.4.61.8.92,1.21-.02-.5-.04-.99-.06-1.49-.08-1.61-2.58-1.62-2.51-.01Z" fill="#292e34"/>
      </g>
      <g id="Group_61" data-name="Group 61">
        <path id="Path_63" data-name="Path 63" d="M503.81,467.5c.02.5.04.99.06,1.49a1.275,1.275,0,0,0,.92,1.21c.88.21,2.17-.2,2.92.08,1.14.43.71,2.4,1.21,3.33a2.3,2.3,0,0,0,1.71,1.28c.91.14,3.13-1.37,2.98.4-.13,1.6,2.37,1.59,2.5,0a3.247,3.247,0,0,0-1.61-3.1,3.111,3.111,0,0,0-1.71-.4c-.69.05-1.43.75-1.78.04-.24-.49.06-1.47-.12-2.06a2.849,2.849,0,0,0-1.05-1.46c-1.34-.95-2.91-.17-4.38-.52.31.4.61.8.92,1.21-.02-.5-.04-.99-.06-1.49-.08-1.61-2.58-1.62-2.51-.01Z" fill="#292e34"/>
      </g>
      <g id="Group_62" data-name="Group 62">
        <path id="Path_64" data-name="Path 64" d="M479.18,420.6c.02.5.04.99.06,1.49a1.275,1.275,0,0,0,.92,1.21c.88.21,2.17-.2,2.92.08,1.14.43.71,2.4,1.21,3.33a2.3,2.3,0,0,0,1.71,1.28c.91.14,3.13-1.37,2.98.4-.13,1.6,2.37,1.59,2.5,0a3.247,3.247,0,0,0-1.61-3.1,3.111,3.111,0,0,0-1.71-.4c-.69.05-1.43.75-1.78.04-.24-.49.06-1.47-.12-2.06a2.849,2.849,0,0,0-1.05-1.46c-1.34-.95-2.91-.17-4.38-.52.31.4.61.8.92,1.21-.02-.5-.04-.99-.06-1.49-.08-1.62-2.58-1.62-2.51-.01Z" fill="#292e34"/>
      </g>
      <g id="Group_63" data-name="Group 63">
        <path id="Path_65" data-name="Path 65" d="M509.3,424.76c.02.5.04.99.06,1.49a1.275,1.275,0,0,0,.92,1.21c.88.21,2.17-.2,2.92.08,1.14.43.71,2.4,1.21,3.33a2.3,2.3,0,0,0,1.71,1.28c.91.14,3.13-1.37,2.98.4-.13,1.6,2.37,1.59,2.5,0a3.247,3.247,0,0,0-1.61-3.1,3.111,3.111,0,0,0-1.71-.4c-.69.05-1.43.75-1.78.04-.24-.49.06-1.47-.12-2.06a2.849,2.849,0,0,0-1.05-1.46c-1.34-.95-2.91-.17-4.38-.52.31.4.61.8.92,1.21-.02-.5-.04-.99-.06-1.49-.08-1.61-2.58-1.62-2.51-.01Z" fill="#292e34"/>
      </g>
      <g id="Group_64" data-name="Group 64">
        <path id="Path_66" data-name="Path 66" d="M470.06,453.95c.02.5.04.99.06,1.49a1.275,1.275,0,0,0,.92,1.21c.88.21,2.17-.2,2.92.08,1.14.43.71,2.4,1.21,3.33a2.3,2.3,0,0,0,1.71,1.28c.91.14,3.13-1.37,2.98.4-.13,1.6,2.37,1.59,2.5,0a3.247,3.247,0,0,0-1.61-3.1,3.111,3.111,0,0,0-1.71-.4c-.69.05-1.43.75-1.78.04-.24-.49.06-1.47-.12-2.06a2.849,2.849,0,0,0-1.05-1.46c-1.34-.95-2.91-.17-4.38-.52.31.4.61.8.92,1.21-.02-.5-.04-.99-.06-1.49-.07-1.62-2.58-1.62-2.51-.01Z" fill="#292e34"/>
      </g>
      <g id="Group_65" data-name="Group 65">
        <path id="Path_67" data-name="Path 67" d="M518.84,460.83a2.762,2.762,0,0,1,.94-3.41c.96-.67,1.91-.3,2.97-.41a2.74,2.74,0,0,0,2.59-2.22,13.119,13.119,0,0,0-.03-2.08c.09-1.33.39-1.04,1.58-1.08a2.761,2.761,0,0,0,2.93-2.09c.35-1.57-2.06-2.24-2.41-.66-.1.44-2.34.16-2.79.31a2.527,2.527,0,0,0-1.57,1.41,4.839,4.839,0,0,0-.21,2.39c.12,1.76-.55,1.36-2.03,1.46-3.72.26-5.68,4.44-4.12,7.62.7,1.47,2.85.2,2.15-1.24Z" fill="#292e34"/>
      </g>
      <g id="Group_66" data-name="Group 66">
        <path id="Path_68" data-name="Path 68" d="M490.72,450.12a2.763,2.763,0,0,1,.94-3.41c.96-.67,1.91-.3,2.97-.41a2.74,2.74,0,0,0,2.59-2.22,13.116,13.116,0,0,0-.03-2.08c.09-1.33.39-1.04,1.58-1.08a2.761,2.761,0,0,0,2.93-2.09c.35-1.57-2.06-2.24-2.41-.66-.1.44-2.34.16-2.79.31a2.527,2.527,0,0,0-1.57,1.41,4.838,4.838,0,0,0-.21,2.39c.12,1.76-.55,1.36-2.03,1.46-3.72.26-5.68,4.44-4.12,7.62.7,1.47,2.86.2,2.15-1.24Z" fill="#292e34"/>
      </g>
      <g id="Group_67" data-name="Group 67">
        <path id="Path_69" data-name="Path 69" d="M456.65,449a2.763,2.763,0,0,1,.94-3.41c.96-.67,1.91-.3,2.97-.41a2.74,2.74,0,0,0,2.59-2.22,13.116,13.116,0,0,0-.03-2.08c.09-1.33.39-1.04,1.58-1.08a2.761,2.761,0,0,0,2.93-2.09c.35-1.57-2.06-2.24-2.41-.66-.1.44-2.34.16-2.79.31a2.527,2.527,0,0,0-1.57,1.41,4.838,4.838,0,0,0-.21,2.39c.12,1.76-.55,1.36-2.03,1.46-3.72.26-5.68,4.44-4.12,7.62.7,1.47,2.85.2,2.15-1.24Z" fill="#292e34"/>
      </g>
      <g id="Group_68" data-name="Group 68">
        <path id="Path_70" data-name="Path 70" d="M471.98,518.36c.02.5.04.99.06,1.49a1.275,1.275,0,0,0,.92,1.21c.88.21,2.17-.2,2.92.08,1.14.43.71,2.4,1.21,3.33a2.3,2.3,0,0,0,1.71,1.28c.91.14,3.13-1.37,2.98.4-.13,1.6,2.37,1.59,2.5,0a3.246,3.246,0,0,0-1.61-3.1,3.112,3.112,0,0,0-1.71-.4c-.69.05-1.43.75-1.78.04-.24-.49.06-1.47-.12-2.06a2.85,2.85,0,0,0-1.05-1.46c-1.34-.95-2.91-.17-4.38-.52.31.4.61.8.92,1.21-.02-.5-.04-.99-.06-1.49-.08-1.62-2.58-1.62-2.51-.01Z" fill="#292e34"/>
      </g>
      <g id="Group_69" data-name="Group 69">
        <path id="Path_71" data-name="Path 71" d="M478.63,477.07c.02.5.04.99.06,1.49a1.275,1.275,0,0,0,.92,1.21c.88.21,2.17-.2,2.92.08,1.14.43.71,2.4,1.21,3.33a2.3,2.3,0,0,0,1.71,1.28c.91.14,3.13-1.37,2.98.4-.13,1.6,2.37,1.59,2.5,0a3.247,3.247,0,0,0-1.61-3.1,3.111,3.111,0,0,0-1.71-.4c-.69.05-1.43.75-1.78.04-.24-.49.06-1.47-.12-2.06a2.849,2.849,0,0,0-1.05-1.46c-1.34-.95-2.91-.17-4.38-.52.31.4.61.8.92,1.21-.02-.5-.04-.99-.06-1.49-.08-1.61-2.58-1.62-2.51-.01Z" fill="#292e34"/>
      </g>
      <g id="Group_70" data-name="Group 70">
        <path id="Path_72" data-name="Path 72" d="M497.28,517.78c.02.5.04.99.06,1.49a1.275,1.275,0,0,0,.92,1.21c.88.21,2.17-.2,2.92.08,1.14.43.71,2.4,1.21,3.33a2.3,2.3,0,0,0,1.71,1.28c.91.14,3.13-1.37,2.98.4-.13,1.6,2.37,1.59,2.5,0a3.246,3.246,0,0,0-1.61-3.1,3.112,3.112,0,0,0-1.71-.4c-.69.05-1.43.75-1.78.04-.24-.49.06-1.47-.12-2.06a2.85,2.85,0,0,0-1.05-1.46c-1.34-.95-2.91-.17-4.38-.52.31.4.61.8.92,1.21-.02-.5-.04-.99-.06-1.49-.08-1.61-2.58-1.62-2.51-.01Z" fill="#292e34"/>
      </g>
      <g id="Group_71" data-name="Group 71">
        <path id="Path_73" data-name="Path 73" d="M458.99,538.3c.02.5.04.99.06,1.49a1.275,1.275,0,0,0,.92,1.21c.88.21,2.17-.2,2.92.08,1.14.43.71,2.4,1.21,3.33a2.3,2.3,0,0,0,1.71,1.28c.91.14,3.13-1.37,2.98.4-.13,1.6,2.37,1.59,2.5,0a3.246,3.246,0,0,0-1.61-3.1,3.112,3.112,0,0,0-1.71-.4c-.69.05-1.43.75-1.78.04-.24-.49.06-1.47-.12-2.06a2.85,2.85,0,0,0-1.05-1.46c-1.34-.95-2.91-.17-4.38-.52.31.4.61.8.92,1.21-.02-.5-.04-.99-.06-1.49-.07-1.61-2.57-1.62-2.51-.01Z" fill="#292e34"/>
      </g>
      <g id="Group_72" data-name="Group 72">
        <path id="Path_74" data-name="Path 74" d="M482.19,506.57a2.763,2.763,0,0,1,.94-3.41c.96-.67,1.91-.3,2.97-.41a2.74,2.74,0,0,0,2.59-2.22,13.116,13.116,0,0,0-.03-2.08c.09-1.33.39-1.04,1.58-1.08a2.761,2.761,0,0,0,2.93-2.09c.35-1.57-2.06-2.24-2.41-.66-.1.44-2.34.16-2.79.31a2.527,2.527,0,0,0-1.57,1.41,4.838,4.838,0,0,0-.21,2.39c.12,1.76-.55,1.36-2.03,1.46-3.72.26-5.68,4.44-4.12,7.62.7,1.47,2.86.2,2.15-1.24Z" fill="#292e34"/>
      </g>
      <g id="Group_73" data-name="Group 73">
        <path id="Path_75" data-name="Path 75" d="M457.49,495.19a2.763,2.763,0,0,1,.94-3.41c.96-.67,1.91-.3,2.97-.41a2.74,2.74,0,0,0,2.59-2.22,13.116,13.116,0,0,0-.03-2.08c.09-1.33.39-1.04,1.58-1.08a2.761,2.761,0,0,0,2.93-2.09c.35-1.57-2.06-2.24-2.41-.66-.1.44-2.34.16-2.79.31a2.527,2.527,0,0,0-1.57,1.41,4.838,4.838,0,0,0-.21,2.39c.12,1.76-.55,1.36-2.03,1.46-3.72.26-5.68,4.44-4.12,7.62.7,1.46,2.86.2,2.15-1.24Z" fill="#292e34"/>
      </g>
      <g id="Group_74" data-name="Group 74">
        <path id="Path_76" data-name="Path 76" d="M453.92,520.69a2.762,2.762,0,0,1,.94-3.41c.96-.67,1.91-.3,2.97-.41a2.74,2.74,0,0,0,2.59-2.22,13.116,13.116,0,0,0-.03-2.08c.09-1.33.39-1.04,1.58-1.08a2.761,2.761,0,0,0,2.93-2.09c.35-1.57-2.06-2.24-2.41-.66-.1.44-2.34.16-2.79.31a2.527,2.527,0,0,0-1.57,1.41,4.838,4.838,0,0,0-.21,2.39c.12,1.76-.55,1.36-2.03,1.46-3.72.26-5.68,4.44-4.12,7.62.7,1.47,2.85.2,2.15-1.24Z" fill="#292e34"/>
      </g>
      <g id="Group_75" data-name="Group 75">
        <path id="Path_77" data-name="Path 77" d="M495.71,571.59c.02.5.04.99.06,1.49a1.275,1.275,0,0,0,.92,1.21c.88.21,2.17-.2,2.92.08,1.14.43.71,2.4,1.21,3.33a2.3,2.3,0,0,0,1.71,1.28c.91.14,3.13-1.37,2.98.4-.13,1.6,2.37,1.59,2.5,0a3.246,3.246,0,0,0-1.61-3.1,3.112,3.112,0,0,0-1.71-.4c-.69.05-1.43.75-1.78.04-.24-.49.06-1.47-.12-2.06a2.85,2.85,0,0,0-1.05-1.46c-1.34-.95-2.91-.17-4.38-.52.31.4.61.8.92,1.21-.02-.5-.04-.99-.06-1.49-.08-1.62-2.58-1.62-2.51-.01Z" fill="#292e34"/>
      </g>
      <g id="Group_76" data-name="Group 76">
        <path id="Path_78" data-name="Path 78" d="M521,571.01c.02.5.04.99.06,1.49a1.275,1.275,0,0,0,.92,1.21c.88.21,2.17-.2,2.92.08,1.14.43.71,2.4,1.21,3.33a2.3,2.3,0,0,0,1.71,1.28c.91.14,3.13-1.37,2.98.4-.13,1.6,2.37,1.59,2.5,0a3.247,3.247,0,0,0-1.61-3.1,3.112,3.112,0,0,0-1.71-.4c-.69.05-1.43.75-1.78.04-.24-.49.06-1.47-.12-2.06a2.85,2.85,0,0,0-1.05-1.46c-1.34-.95-2.91-.17-4.38-.52.31.4.61.8.92,1.21-.02-.5-.04-.99-.06-1.49-.08-1.61-2.58-1.62-2.51-.01Z" fill="#292e34"/>
      </g>
      <g id="Group_77" data-name="Group 77">
        <path id="Path_79" data-name="Path 79" d="M505.92,559.8a2.762,2.762,0,0,1,.94-3.41c.96-.67,1.91-.3,2.97-.41a2.741,2.741,0,0,0,2.59-2.22,13.12,13.12,0,0,0-.03-2.08c.09-1.33.39-1.04,1.58-1.08a2.761,2.761,0,0,0,2.93-2.09c.35-1.57-2.06-2.24-2.41-.66-.1.44-2.34.16-2.79.31a2.527,2.527,0,0,0-1.57,1.41,4.838,4.838,0,0,0-.21,2.39c.12,1.76-.55,1.36-2.03,1.46-3.72.26-5.68,4.44-4.12,7.62.7,1.47,2.85.2,2.15-1.24Z" fill="#292e34"/>
      </g>
      <g id="Group_78" data-name="Group 78">
        <path id="Path_80" data-name="Path 80" d="M481.21,548.42a2.762,2.762,0,0,1,.94-3.41c.96-.67,1.91-.3,2.97-.41a2.74,2.74,0,0,0,2.59-2.22,13.116,13.116,0,0,0-.03-2.08c.09-1.33.39-1.04,1.58-1.08a2.761,2.761,0,0,0,2.93-2.09c.35-1.57-2.06-2.24-2.41-.66-.1.44-2.34.16-2.79.31a2.527,2.527,0,0,0-1.57,1.41,4.838,4.838,0,0,0-.21,2.39c.12,1.76-.55,1.36-2.03,1.46-3.72.26-5.68,4.44-4.12,7.62.7,1.46,2.86.2,2.15-1.24Z" fill="#292e34"/>
      </g>
      <g id="Group_79" data-name="Group 79">
        <path id="Path_81" data-name="Path 81" d="M477.64,573.92a2.762,2.762,0,0,1,.94-3.41c.96-.67,1.91-.3,2.97-.41a2.74,2.74,0,0,0,2.59-2.22,13.116,13.116,0,0,0-.03-2.08c.09-1.33.39-1.04,1.58-1.08a2.761,2.761,0,0,0,2.93-2.09c.35-1.57-2.06-2.24-2.41-.66-.1.44-2.34.16-2.79.31a2.527,2.527,0,0,0-1.57,1.41,4.838,4.838,0,0,0-.21,2.39c.12,1.76-.55,1.36-2.03,1.46-3.72.26-5.68,4.44-4.12,7.62.7,1.47,2.86.2,2.15-1.24Z" fill="#292e34"/>
      </g>
      <g id="Group_80" data-name="Group 80">
        <path id="Path_82" data-name="Path 82" d="M513.51,623.08c.02.5.04.99.06,1.49a1.275,1.275,0,0,0,.92,1.21c.88.21,2.17-.2,2.92.08,1.14.43.71,2.4,1.21,3.33a2.3,2.3,0,0,0,1.71,1.28c.91.14,3.13-1.37,2.98.4-.13,1.6,2.37,1.59,2.5,0a3.247,3.247,0,0,0-1.61-3.1,3.112,3.112,0,0,0-1.71-.4c-.69.05-1.43.75-1.78.04-.24-.49.06-1.47-.12-2.06a2.85,2.85,0,0,0-1.05-1.46c-1.34-.95-2.91-.17-4.38-.52.31.4.61.8.92,1.21-.02-.5-.04-.99-.06-1.49-.08-1.62-2.58-1.63-2.51-.01Z" fill="#292e34"/>
      </g>
      <g id="Group_81" data-name="Group 81">
        <path id="Path_83" data-name="Path 83" d="M538.81,622.5c.02.5.04.99.06,1.49a1.275,1.275,0,0,0,.92,1.21c.88.21,2.17-.2,2.92.08,1.14.43.71,2.4,1.21,3.33a2.3,2.3,0,0,0,1.71,1.28c.91.14,3.13-1.37,2.98.4-.13,1.6,2.37,1.59,2.5,0a3.247,3.247,0,0,0-1.61-3.1,3.112,3.112,0,0,0-1.71-.4c-.69.05-1.43.75-1.78.04-.24-.49.06-1.47-.12-2.06a2.85,2.85,0,0,0-1.05-1.46c-1.34-.95-2.91-.17-4.38-.52.31.4.61.8.92,1.21-.02-.5-.04-.99-.06-1.49-.08-1.61-2.58-1.62-2.51-.01Z" fill="#292e34"/>
      </g>
      <g id="Group_82" data-name="Group 82">
        <path id="Path_84" data-name="Path 84" d="M523.72,611.29a2.762,2.762,0,0,1,.94-3.41c.96-.67,1.91-.3,2.97-.41a2.74,2.74,0,0,0,2.59-2.22,13.12,13.12,0,0,0-.03-2.08c.09-1.33.39-1.04,1.58-1.08A2.761,2.761,0,0,0,534.7,600c.35-1.57-2.06-2.24-2.41-.66-.1.44-2.34.16-2.79.31a2.527,2.527,0,0,0-1.57,1.41,4.839,4.839,0,0,0-.21,2.39c.12,1.76-.55,1.36-2.03,1.46-3.72.26-5.68,4.44-4.12,7.62.7,1.47,2.86.2,2.15-1.24Z" fill="#292e34"/>
      </g>
      <g id="Group_83" data-name="Group 83">
        <path id="Path_85" data-name="Path 85" d="M499.02,599.9a2.762,2.762,0,0,1,.94-3.41c.96-.67,1.91-.3,2.97-.41a2.74,2.74,0,0,0,2.59-2.22,13.116,13.116,0,0,0-.03-2.08c.09-1.33.39-1.04,1.58-1.08a2.761,2.761,0,0,0,2.93-2.09c.35-1.57-2.06-2.24-2.41-.66-.1.44-2.34.16-2.79.31a2.527,2.527,0,0,0-1.57,1.41,4.838,4.838,0,0,0-.21,2.39c.12,1.76-.55,1.36-2.03,1.46-3.72.26-5.68,4.44-4.12,7.62.7,1.47,2.86.2,2.15-1.24Z" fill="#292e34"/>
      </g>
      <g id="Group_84" data-name="Group 84">
        <path id="Path_86" data-name="Path 86" d="M495.45,625.41a2.762,2.762,0,0,1,.94-3.41c.96-.67,1.91-.3,2.97-.41a2.74,2.74,0,0,0,2.59-2.22,13.116,13.116,0,0,0-.03-2.08c.09-1.33.39-1.04,1.58-1.08a2.761,2.761,0,0,0,2.93-2.09c.35-1.57-2.06-2.24-2.41-.66-.1.44-2.34.16-2.79.31a2.527,2.527,0,0,0-1.57,1.41,4.838,4.838,0,0,0-.21,2.39c.12,1.76-.55,1.36-2.03,1.46-3.72.26-5.68,4.44-4.12,7.62.7,1.47,2.85.2,2.15-1.24Z" fill="#292e34"/>
      </g>
      <g id="Group_85" data-name="Group 85">
        <path id="Path_87" data-name="Path 87" d="M504.87,648c.02.5.04.99.06,1.49a1.275,1.275,0,0,0,.92,1.21c.88.21,2.17-.2,2.92.08,1.14.43.71,2.4,1.21,3.33a2.3,2.3,0,0,0,1.71,1.28c.91.14,3.13-1.37,2.98.4-.13,1.6,2.37,1.59,2.5,0a3.247,3.247,0,0,0-1.61-3.1,3.112,3.112,0,0,0-1.71-.4c-.69.05-1.43.75-1.78.04-.24-.49.06-1.47-.12-2.06a2.85,2.85,0,0,0-1.05-1.46c-1.34-.95-2.91-.17-4.38-.52.31.4.61.8.92,1.21-.02-.5-.04-.99-.06-1.49-.08-1.61-2.58-1.62-2.51-.01Z" fill="#292e34"/>
      </g>
      <g id="Group_86" data-name="Group 86">
        <path id="Path_88" data-name="Path 88" d="M534.2,645.5c.02.5.04.99.06,1.49a1.275,1.275,0,0,0,.92,1.21c.88.21,2.17-.2,2.92.08,1.14.43.71,2.4,1.21,3.33a2.3,2.3,0,0,0,1.71,1.28c.91.14,3.13-1.37,2.98.4-.13,1.6,2.37,1.59,2.5,0a3.247,3.247,0,0,0-1.61-3.1,3.112,3.112,0,0,0-1.71-.4c-.69.05-1.43.75-1.78.04-.24-.49.06-1.47-.12-2.06a2.85,2.85,0,0,0-1.05-1.46c-1.34-.95-2.91-.17-4.38-.52.31.4.61.8.92,1.21-.02-.5-.04-.99-.06-1.49-.08-1.61-2.58-1.62-2.51-.01Z" fill="#292e34"/>
      </g>
      <g id="Group_87" data-name="Group 87">
        <path id="Path_89" data-name="Path 89" d="M527.73,693.78c.02.5.04.99.06,1.49a1.275,1.275,0,0,0,.92,1.21c.88.21,2.17-.2,2.92.08,1.14.43.71,2.4,1.21,3.33a2.3,2.3,0,0,0,1.71,1.28c.91.14,3.13-1.37,2.98.4-.13,1.6,2.37,1.59,2.5,0a3.247,3.247,0,0,0-1.61-3.1,3.112,3.112,0,0,0-1.71-.4c-.69.05-1.43.75-1.78.04-.24-.49.06-1.47-.12-2.06a2.85,2.85,0,0,0-1.05-1.46c-1.34-.95-2.91-.17-4.38-.52.31.4.61.8.92,1.21-.02-.5-.04-.99-.06-1.49-.08-1.61-2.58-1.62-2.51-.01Z" fill="#292e34"/>
      </g>
      <g id="Group_88" data-name="Group 88">
        <path id="Path_90" data-name="Path 90" d="M551.28,700.39c.02.5.04.99.06,1.49a1.275,1.275,0,0,0,.92,1.21c.88.21,2.17-.2,2.92.08,1.14.43.71,2.4,1.21,3.33a2.3,2.3,0,0,0,1.71,1.28c.91.14,3.13-1.37,2.98.4-.13,1.6,2.37,1.59,2.5,0a3.247,3.247,0,0,0-1.61-3.1,3.112,3.112,0,0,0-1.71-.4c-.69.05-1.43.75-1.78.04-.24-.49.06-1.47-.12-2.06a2.85,2.85,0,0,0-1.05-1.46c-1.34-.95-2.91-.17-4.38-.52.31.4.61.8.92,1.21-.02-.5-.04-.99-.06-1.49-.07-1.62-2.57-1.63-2.51-.01Z" fill="#292e34"/>
      </g>
      <g id="Group_89" data-name="Group 89">
        <path id="Path_91" data-name="Path 91" d="M544.31,685.49a2.762,2.762,0,0,1,.94-3.41c.96-.67,1.91-.3,2.97-.41a2.74,2.74,0,0,0,2.59-2.22,13.12,13.12,0,0,0-.03-2.08c.09-1.33.39-1.04,1.58-1.08a2.761,2.761,0,0,0,2.93-2.09c.35-1.57-2.06-2.24-2.41-.66-.1.44-2.34.16-2.79.31a2.527,2.527,0,0,0-1.57,1.41,4.839,4.839,0,0,0-.21,2.39c.12,1.76-.55,1.36-2.03,1.46-3.72.26-5.68,4.44-4.12,7.62.7,1.47,2.86.2,2.15-1.24Z" fill="#292e34"/>
      </g>
      <g id="Group_90" data-name="Group 90">
        <path id="Path_92" data-name="Path 92" d="M516.66,684.06a2.762,2.762,0,0,1,.94-3.41c.96-.67,1.91-.3,2.97-.41a2.74,2.74,0,0,0,2.59-2.22,13.12,13.12,0,0,0-.03-2.08c.09-1.33.39-1.04,1.58-1.08a2.761,2.761,0,0,0,2.93-2.09c.35-1.57-2.06-2.24-2.41-.66-.1.44-2.34.16-2.79.31a2.527,2.527,0,0,0-1.57,1.41,4.839,4.839,0,0,0-.21,2.39c.12,1.76-.55,1.36-2.03,1.46-3.72.26-5.68,4.44-4.12,7.62.7,1.46,2.85.2,2.15-1.24Z" fill="#292e34"/>
      </g>
      <g id="Group_91" data-name="Group 91">
        <path id="Path_93" data-name="Path 93" d="M542.93,468.61a1.085,1.085,0,0,1,1.23-1.49,13.652,13.652,0,0,0,1.94.43,2.329,2.329,0,0,0,2.23-1.87c.15-.74.09-.61.84-.89a3.1,3.1,0,0,0,1.37-.94,1.952,1.952,0,0,0-.06-2.78c-1.16-1.11-2.93.65-1.77,1.77-.44-.42-.04-.44-.8-.29a3.161,3.161,0,0,0-.72.28,2.681,2.681,0,0,0-1.14.97,4.624,4.624,0,0,0-.25.8.826.826,0,0,0-.01.35c.06.24.01.25-.16.03-.53.04-1.2-.42-1.78-.43a3.625,3.625,0,0,0-3.36,4.71c.54,1.53,2.96.88,2.44-.65Z" fill="#292e34"/>
      </g>
      <g id="Group_92" data-name="Group 92">
        <path id="Path_94" data-name="Path 94" d="M565.54,484.48c.04,1.4-.04,2.97.81,4.17,1.21,1.71,3.26,1.24,4.79,2.38,1.5,1.13.98,1.43,1,3.11a7.338,7.338,0,0,0,.25,2.14c.37,1.12,4.18,3.8,4.05,4.25a1.25,1.25,0,0,0,2.41.66,3.175,3.175,0,0,0-1.34-3.68c-1.29-.97-2.67-1.54-2.87-3.37-.1-.86.15-1.76.07-2.64a3.916,3.916,0,0,0-1.59-3.11,5.888,5.888,0,0,0-2.2-.65c-2.43-.58-2.81-.84-2.87-3.26-.06-1.61-2.56-1.62-2.51,0Z" fill="#292e34"/>
      </g>
      <g id="Group_93" data-name="Group 93">
        <path id="Path_95" data-name="Path 95" d="M570.08,517.3c-.09-1.43,1.4-1.4,2.43-1.69a5.612,5.612,0,0,0,1.83-.99c1.61-1.2,3.17-2.47,4.75-3.71,1.27-.99-.51-2.75-1.77-1.77-1.12.88-2.25,1.76-3.37,2.64a10.837,10.837,0,0,1-1.68,1.26,8.95,8.95,0,0,1-1.91.43,3.615,3.615,0,0,0-2.79,3.84c.11,1.59,2.61,1.6,2.51-.01Z" fill="#292e34"/>
      </g>
      <g id="Group_94" data-name="Group 94">
        <path id="Path_96" data-name="Path 96" d="M562.18,540.36a4.317,4.317,0,0,0,.83,3.95,4.132,4.132,0,0,0,1.45,1.14c.71.33,1.87.04,2.42.32,1.27.66.23,3.75.93,4.98a3.038,3.038,0,0,0,1.61,1.32c.35.13,2.98.4,2.95.54a1.25,1.25,0,0,0,2.41.66,2.449,2.449,0,0,0-1-2.8,4.822,4.822,0,0,0-1.72-.63,2.345,2.345,0,0,1-2.19-1.01,10.847,10.847,0,0,1,.11-1.39,4.281,4.281,0,0,0-1.01-3.51c-1.35-1.22-5.1.08-4.37-2.92.37-1.55-2.04-2.22-2.42-.65Z" fill="#292e34"/>
      </g>
      <g id="Group_95" data-name="Group 95">
        <path id="Path_97" data-name="Path 97" d="M578.78,542.21c.02-.76.04-1.52.07-2.28l-1.25,1.25a5.959,5.959,0,0,0,3.3-.64,2.95,2.95,0,0,0,1.08-1.11c.2-.38.11-1.38.29-1.61s1.17-.02,1.6-.05a4.01,4.01,0,0,0,1.68-.48,4.126,4.126,0,0,0,2.02-2.85c.3-1.57-2.11-2.25-2.41-.66-.47,2.44-3,.8-4.47,1.91a2.67,2.67,0,0,0-.9,1.74c-.33,1.27-.93,1.29-2.19,1.25a1.263,1.263,0,0,0-1.25,1.25c-.02.76-.04,1.52-.07,2.28-.05,1.61,2.45,1.61,2.5,0Z" fill="#292e34"/>
      </g>
      <g id="Group_96" data-name="Group 96">
        <path id="Path_98" data-name="Path 98" d="M569.57,580.74c.02-.76.04-1.52.07-2.28l-1.25,1.25a5.959,5.959,0,0,0,3.3-.64,2.95,2.95,0,0,0,1.08-1.11c.2-.38.11-1.38.29-1.61s1.17-.02,1.6-.05a4.01,4.01,0,0,0,1.68-.48,4.126,4.126,0,0,0,2.02-2.85c.3-1.57-2.11-2.25-2.41-.66-.47,2.44-3,.8-4.47,1.91a2.67,2.67,0,0,0-.9,1.74c-.33,1.27-.93,1.29-2.19,1.25a1.263,1.263,0,0,0-1.25,1.25c-.02.76-.04,1.52-.07,2.28a1.251,1.251,0,0,0,2.5,0Z" fill="#292e34"/>
      </g>
      <g id="Group_97" data-name="Group 97">
        <path id="Path_99" data-name="Path 99" d="M561.53,611.58c.02-.76.04-1.52.07-2.28l-1.25,1.25a5.959,5.959,0,0,0,3.3-.64,2.95,2.95,0,0,0,1.08-1.11c.2-.38.11-1.38.29-1.61s1.17-.02,1.6-.05a4.01,4.01,0,0,0,1.68-.48,4.126,4.126,0,0,0,2.02-2.85c.3-1.57-2.11-2.25-2.41-.66-.47,2.44-3,.8-4.47,1.91a2.67,2.67,0,0,0-.9,1.74c-.33,1.27-.93,1.29-2.19,1.25a1.263,1.263,0,0,0-1.25,1.25c-.02.76-.04,1.52-.07,2.28-.05,1.61,2.45,1.61,2.5,0Z" fill="#292e34"/>
      </g>
    </g>
    <g id="details">
      <g id="Group_98" data-name="Group 98">
        <path id="Path_100" data-name="Path 100" d="M741.25,835.3c-10-4.72-20.9-5.98-31.87-5.36-5.87.33-11.7,1.16-17.51,2.06-3.51.55-7.01,1.13-10.52,1.67-1.28.19-2.55.39-3.83.56-3.71.49-5.58-.73-8.56-2.78-9.65-6.64-20.83-11.63-31.4-16.63q-17.115-8.085-34.82-14.81v2.41a180.98,180.98,0,0,1,40.4-6.1c3.14-.11,6.64-.44,9.72.3,3.5.84,6.35,3.14,9.29,5.1a165.986,165.986,0,0,0,14.68,8.64c20.36,10.7,42.23,18.14,63.65,26.37,1.5.58,2.15-1.84.66-2.41-23.24-8.93-47.12-16.89-68.83-29.27-5.2-2.97-9.99-7-15.35-9.61-4.81-2.34-10.52-1.77-15.7-1.54a184.371,184.371,0,0,0-39.19,6.11,1.261,1.261,0,0,0,0,2.41q18.255,6.975,35.91,15.37,8.46,4.05,16.76,8.42c2.76,1.46,5.53,2.92,8.25,4.46,2.54,1.43,4.57,3.45,6.97,4.97,3.74,2.36,7.85,1.07,12.04.44,6.59-1,13.14-2.18,19.76-2.96,12.92-1.52,26.24-1.3,38.21,4.34,1.47.68,2.74-1.48,1.28-2.16Z" fill="#292e34"/>
      </g>
      <g id="Group_99" data-name="Group 99">
        <path id="Path_101" data-name="Path 101" d="M743.13,837.86c2.59-4.51,8.12-5.19,12.68-6.7,5.65-1.87,11.29-3.77,16.93-5.66q16.935-5.655,33.86-11.32c1.52-.51.87-2.92-.66-2.41q-19.755,6.6-39.5,13.21c-5.66,1.89-11.33,3.76-17.02,5.57-3.66,1.17-6.48,2.64-8.44,6.05a1.246,1.246,0,0,0,2.15,1.26Z" fill="#292e34"/>
      </g>
      <g id="Group_100" data-name="Group 100">
        <path id="Path_102" data-name="Path 102" d="M666.8,801.52a128.786,128.786,0,0,1,34.57-13.22c6.14-1.36,12.66-2.72,18.97-2.22,7.3.58,13.34,4.77,19.61,8.12,20.33,10.88,43.12,16.29,65.76,19.74,1.57.24,2.25-2.17.66-2.41a262.23,262.23,0,0,1-37.4-8.18c-12.6-3.85-23.87-9.51-35.48-15.58-10.72-5.61-21.33-4.43-32.8-1.89a131.052,131.052,0,0,0-35.17,13.48c-1.39.78-.13,2.94,1.28,2.16Z" fill="#292e34"/>
      </g>
      <g id="Group_101" data-name="Group 101">
        <path id="Path_103" data-name="Path 103" d="M740.12,836.49c-12.83,1.35-24.15,5.54-35.73,10.99-6.46,3.04-13.4,4.51-20.03,7.11-6.21,2.44-12.27,5.3-18.37,8-1.47.65-.2,2.8,1.26,2.16,6.18-2.74,12.32-5.67,18.64-8.09,5.48-2.1,11.25-3.32,16.66-5.62,5.84-2.48,11.36-5.55,17.38-7.63a91.142,91.142,0,0,1,20.19-4.42c1.58-.17,1.6-2.67,0-2.5Z" fill="#292e34"/>
      </g>
      <g id="Group_102" data-name="Group 102">
        <path id="Path_104" data-name="Path 104" d="M585.65,819.36c6.95,3.15,14.48,4.77,21.38,8.03,7.06,3.33,13.46,7.97,19.89,12.35q10.35,7.035,20.69,14.08c5.9,4.01,12.06,7.34,18.08,11.12,1.37.86,2.62-1.3,1.26-2.16-6.02-3.78-12.19-7.11-18.08-11.12q-10.35-7.035-20.69-14.08c-6.44-4.38-12.84-8.98-19.89-12.35-6.9-3.29-14.43-4.88-21.38-8.03-1.45-.66-2.72,1.5-1.26,2.16Z" fill="#292e34"/>
      </g>
      <g id="Group_103" data-name="Group 103">
        <path id="Path_105" data-name="Path 105" d="M668.91,877.04c3.48-5.3,12.94-7.57,18.47-9.86q9.435-3.915,18.96-7.63,19.5-7.605,39.3-14.35a1.278,1.278,0,0,0,.75-1.84c-1.14-2.26-2.12-4.6-3.26-6.87-.72-1.44-2.88-.17-2.16,1.26,1.14,2.26,2.12,4.6,3.26,6.87.25-.61.5-1.22.75-1.84q-22.56,7.71-44.74,16.49-10.095,4.02-20.1,8.26c-4.83,2.04-10.37,3.66-13.38,8.25-.89,1.35,1.27,2.61,2.15,1.26Z" fill="#292e34"/>
      </g>
      <g id="Group_104" data-name="Group 104">
        <path id="Path_106" data-name="Path 106" d="M745.88,845.48c2.99-1.29,6.6-1.74,9.75-2.43,6.19-1.36,12.41-2.59,18.64-3.78,13.86-2.65,27.79-5.21,41.8-6.95a1.278,1.278,0,0,0,1.21-1.58c-.92-4.14-1.4-8.36-2.4-12.49-.38-1.56-2.79-.9-2.41.66,1,4.13,1.49,8.34,2.4,12.49.4-.53.8-1.05,1.21-1.58-14.24,1.77-28.38,4.35-42.47,7.04-6.37,1.22-12.74,2.48-19.08,3.88-3.27.72-6.81,1.25-9.91,2.59-1.48.63-.2,2.78,1.26,2.15Z" fill="#292e34"/>
      </g>
      <g id="Group_105" data-name="Group 105">
        <path id="Path_107" data-name="Path 107" d="M755.62,831.04c19.19-3.96,38.57-6.93,57.76-10.89,1.57-.33.91-2.74-.66-2.41-19.19,3.96-38.57,6.93-57.76,10.89-1.58.33-.91,2.74.66,2.41Z" fill="#292e34"/>
      </g>
      <g id="Group_106" data-name="Group 106">
        <path id="Path_108" data-name="Path 108" d="M585.47,819.57c-.23,3.76-.58,7.49-1.06,11.22a1.207,1.207,0,0,0,.62,1.08c14.83,6.52,28.62,14.98,42.1,23.91,12.48,8.27,24.83,18.58,39.76,21.9a1.263,1.263,0,0,0,1.54-1.54c-1.24-3.9-.11-8.38-1.35-12.29-.48-1.53-2.9-.88-2.41.66,1.24,3.9.11,8.38,1.35,12.29l1.54-1.54c-16.59-3.68-30.56-16.11-44.53-25.16-7.17-4.64-14.44-9.13-21.96-13.18-3.67-1.98-8-3.42-11.44-5.72-2.15-1.44-2.15-1.32-2.27-4.14-.1-2.42.46-5.06.61-7.49.09-1.61-2.41-1.61-2.5,0Z" fill="#292e34"/>
      </g>
      <g id="Group_107" data-name="Group 107">
        <path id="Path_109" data-name="Path 109" d="M586.95,819.35c11.94-2.69,23.76-5.84,35.7-8.53,1.57-.35.9-2.76-.66-2.41-11.94,2.69-23.76,5.84-35.7,8.53-1.58.36-.91,2.77.66,2.41Z" fill="#292e34"/>
      </g>
      <g id="Group_108" data-name="Group 108">
        <path id="Path_110" data-name="Path 110" d="M608.44,847.7q-.48,9.36-.49,18.71a1.264,1.264,0,0,0,1.25,1.25c13.9-.28,28.85,1.73,42.47,4.43,1.57.31,2.24-2.1.66-2.41-6.94-1.37-14.04-2.1-21.06-2.87-7.29-.8-14.73-1.79-22.07-1.64l1.25,1.25q.015-9.36.49-18.71c.08-1.61-2.42-1.61-2.5-.01Z" fill="#292e34"/>
      </g>
      <g id="Group_109" data-name="Group 109">
        <path id="Path_111" data-name="Path 111" d="M671.36,875.36a348.086,348.086,0,0,1,68.26,8.87c1.56.37,2.23-2.04.66-2.41a351.792,351.792,0,0,0-68.92-8.96c-1.61-.05-1.61,2.45,0,2.5Z" fill="#292e34"/>
      </g>
      <g id="Group_110" data-name="Group 110">
        <path id="Path_112" data-name="Path 112" d="M737.97,860.71q.8,10.26,1.28,20.55a1.259,1.259,0,0,0,2.46.33c.11-.34.23-.68.34-1.02.51-1.53-1.9-2.19-2.41-.66-.11.34-.23.68-.34,1.02l2.46.33q-.5-10.29-1.28-20.55c-.13-1.59-2.63-1.6-2.51,0Z" fill="#292e34"/>
      </g>
      <g id="Group_111" data-name="Group 111">
        <path id="Path_113" data-name="Path 113" d="M741.56,883.17c12.82-10.89,27.04-19.87,41.06-29.09,1.34-.88.09-3.05-1.26-2.16-14.2,9.34-28.59,18.46-41.57,29.48-1.22,1.05.55,2.81,1.77,1.77Z" fill="#292e34"/>
      </g>
      <g id="Group_112" data-name="Group 112">
        <path id="Path_114" data-name="Path 114" d="M740.12,861.72c11.98-9.17,26.21-14.96,39.12-22.64a1.251,1.251,0,0,0-1.26-2.16c-12.91,7.68-27.14,13.47-39.12,22.64-1.26.97-.02,3.14,1.26,2.16Z" fill="#292e34"/>
      </g>
      <g id="Group_113" data-name="Group 113">
        <path id="Path_115" data-name="Path 115" d="M707.79,859.04c10.15.49,20.23,1.91,30.28,3.33,1.57.22,2.25-2.19.66-2.41-10.28-1.44-20.57-2.91-30.95-3.42-1.59-.07-1.59,2.43.01,2.5Z" fill="#292e34"/>
      </g>
      <g id="Group_114" data-name="Group 114">
        <path id="Path_116" data-name="Path 116" d="M738.75,892.05c.09,5.01,1.1,9.95,1.22,14.96a1.251,1.251,0,0,0,2.5,0c-.12-5.01-1.14-9.95-1.22-14.96a1.251,1.251,0,0,0-2.5,0Z" fill="#292e34"/>
      </g>
      <g id="Group_115" data-name="Group 115">
        <path id="Path_117" data-name="Path 117" d="M608.78,889.21c3.12-.73,10.33,1.32,14.08,1.9,10.12,1.57,20.23,3.25,30.33,4.93,22.83,3.81,45.63,7.74,68.45,11.59,6.48,1.09,12.97,2.32,19.49,3.16,1.59.2,1.58-2.3,0-2.5-16.41-2.11-32.74-5.43-49.05-8.21-22.61-3.84-45.21-7.76-67.87-11.28-3.66-.57-7.32-1.14-10.99-1.62-1.55-.2-3.53-.76-5.1-.39s-.91,2.79.66,2.42Z" fill="#292e34"/>
      </g>
      <g id="Group_116" data-name="Group 116">
        <path id="Path_118" data-name="Path 118" d="M742.7,910.2a279.322,279.322,0,0,1,25.89-24.07c1.23-1.04-.54-2.8-1.77-1.77a279.33,279.33,0,0,0-25.89,24.07c-1.09,1.18.67,2.95,1.77,1.77Z" fill="#292e34"/>
      </g>
      <g id="Group_117" data-name="Group 117">
        <path id="Path_119" data-name="Path 119" d="M766.46,863.66c.12,7.05.31,14.11.18,21.16a1.251,1.251,0,0,0,2.5,0c.14-7.05-.05-14.11-.18-21.16a1.251,1.251,0,0,0-2.5,0Z" fill="#292e34"/>
      </g>
      <g id="Group_118" data-name="Group 118">
        <path id="Path_120" data-name="Path 120" d="M604.07,868.66a110.689,110.689,0,0,0,2.77,19.86,1.25,1.25,0,0,0,2.41-.66,107.078,107.078,0,0,1-2.68-19.2c-.1-1.6-2.6-1.61-2.5,0Z" fill="#292e34"/>
      </g>
      <g id="Group_119" data-name="Group 119">
        <path id="Path_121" data-name="Path 121" d="M609.75,887.97c-.05,4-.3,8.1-.08,12.09.23,4.09,3.13,4.13,6.78,5.09,13.24,3.49,26.82,5.28,40.21,8.04,30.15,6.21,59.85,14.45,90.04,20.55a1.271,1.271,0,0,0,1.22-.32c9.85-12.29,18.47-25.54,28.88-37.39,1.06-1.2-.7-2.98-1.77-1.77-5.26,5.98-10.09,12.3-14.81,18.71-2.51,3.41-4.99,6.83-7.53,10.22-1.43,1.91-3.37,6.02-5.39,7.02s-3.5.4-5.66-.04q-26.685-5.49-53.15-12c-17.63-4.34-35.2-8.36-53.1-11.46-6.68-1.16-14.91-1.94-21.15-4.74-2.92-1.31-2.07-3.63-2.05-6.45.01-2.52.02-5.04.05-7.55a1.245,1.245,0,0,0-2.49,0Z" fill="#292e34"/>
      </g>
      <g id="Group_120" data-name="Group 120">
        <path id="Path_122" data-name="Path 122" d="M775.58,879.44a34,34,0,0,1,.09,7.68,41.871,41.871,0,0,1-.63,7.67c-.36,1.57,2.05,2.23,2.41.66a45.571,45.571,0,0,0,.72-8.33,36.911,36.911,0,0,0-.18-8.34c-.3-1.58-2.71-.91-2.41.66Z" fill="#292e34"/>
      </g>
      <g id="Group_135" data-name="Group 135">
        <g id="Group_121" data-name="Group 121">
          <path id="Path_123" data-name="Path 123" d="M201.97,419.35a111.148,111.148,0,0,0,9.72,20.96c22.3,37.41,61.52,55.13,87.6,39.58a39.282,39.282,0,0,0,9.26-7.69c-10.06-6.57-23.09-16.59-18.49-22.01,5.16-6.07,20.18-.16,28.35,3.72,5.86-19.83,2-45.99-12.25-69.9-.94-1.58-1.92-3.11-2.93-4.62-3.86,9.12-11.74,26.04-16.27,23.99-4.72-2.13,1.3-27.28,4.38-38.95a92.6,92.6,0,0,0-22.6-17.58c.57,10.76.45,27.58-5.73,28.47-6.48.94-18.2-22.7-24.45-36.49a40.7,40.7,0,0,0-20.01,5.6,40.043,40.043,0,0,0-12.84,12.34c10.2,8.35,32.51,27.2,31.09,31.1-1.44,3.97-27.19-8.89-38.14-14.58a73.383,73.383,0,0,0-1.5,24.11c12.78,4.13,41.11,13.89,40.84,19.17C237.76,421.57,214.38,420.35,201.97,419.35Zm37.12,22.79c9.14-1.62,16.98-.54,17.5,2.41s-6.46,6.66-15.6,8.28-16.98.54-17.5-2.41S229.95,443.77,239.09,442.14Z" fill="#292e34"/>
        </g>
        <g id="Group_122" data-name="Group 122">
          <path id="Path_124" data-name="Path 124" d="M408.93,517.31c-3.33-4.11,13.77-28.71,21.65-39.59a73.393,73.393,0,0,0-15.44-18.57c-5.49,11.06-18.67,36.64-22.18,34.29-3.45-2.31,3.43-30.69,6.74-43.46a40.017,40.017,0,0,0-17.65-2.38,40.609,40.609,0,0,0-19.45,7.29c3.09,14.83,7.58,40.83,1.8,43.89-5.52,2.93-15.54-10.58-21.43-19.6a92.47,92.47,0,0,0-7.87,27.54c9.38,7.6,29.08,24.34,26.53,28.85-2.45,4.32-18.79-4.68-27.29-9.76.08,1.81.19,3.63.37,5.46,2.61,27.71,14.93,51.11,31.37,63.65,4.31-7.95,12.94-21.58,20.69-19.73,6.91,1.65,2.32,17.43-1.93,28.68a39.338,39.338,0,0,0,12.02.75c30.24-2.85,51.43-40.31,47.35-83.66a110.82,110.82,0,0,0-4.53-22.66C430.24,506.42,412.09,521.2,408.93,517.31Zm31.72,18.76c1.32,2.69-4.37,8.19-12.7,12.27s-16.16,5.22-17.48,2.52,4.37-8.19,12.7-12.27S439.33,533.38,440.65,536.07Z" fill="#292e34"/>
        </g>
        <g id="Group_126" data-name="Group 126">
          <path id="Path_125" data-name="Path 125" d="M385.86,932.42h67.86a30.109,30.109,0,0,0,30.11-30.11V839.73H355.74v62.58A30.111,30.111,0,0,0,385.86,932.42Z" fill="#f8bab4"/>
          <g id="Group_123" data-name="Group 123">
            <path id="Path_126" data-name="Path 126" d="M454.86,762.47c-1.85,12.86.6,24.2,11.14,32.38,7.66,5.95,10.14,13.44,12.1,22.66a166.6,166.6,0,0,1,3,27.28c.7,15.67,1.44,31.43,1.55,47.11.05,6.88.08,14.21-2.26,20.76-2.04,5.7-6.26,9.69-10.96,13.3-1.26.97-.01,3.14,1.26,2.16,8.81-6.79,13.11-14.09,14.11-25.27,1.43-16.08-.33-32.68-.87-48.78-.56-16.74-.59-35.34-7.56-50.93-3.01-6.73-8.81-9.05-13.49-14.23-6.31-6.98-6.9-16.9-5.62-25.77.23-1.58-2.18-2.26-2.4-.67Z" fill="#292e34"/>
          </g>
          <g id="Group_124" data-name="Group 124">
            <path id="Path_127" data-name="Path 127" d="M455.71,761.53q-23.55-.21-47.09-.4-5.76-.045-11.52-.1c-3.37-.03-7.52-.65-10.85-.07-2.22.39-3.44,1.86-1.89,3.85.98,1.27,2.74-.51,1.77-1.77.85,1.09,5.72.43,7.17.45,2.86.02,5.73.05,8.59.07l18.35.15q17.745.15,35.49.3a1.241,1.241,0,0,0-.02-2.48Z" fill="#292e34"/>
          </g>
          <g id="Group_125" data-name="Group 125">
            <path id="Path_128" data-name="Path 128" d="M382.94,764.71c1.87,5.84,2.66,12.24.02,17.98-2.28,4.96-6.73,8.36-10.62,12.02-7.07,6.65-11.08,14.91-13.44,24.24-2.7,10.65-3.3,21.69-3.74,32.63q-.765,18.6-1.32,37.21c-.05,1.61,2.45,1.61,2.5,0q.585-18.6,1.32-37.21c.51-12.42,1.18-25.05,5.09-36.95a41.4,41.4,0,0,1,8.55-15.36c3.39-3.7,7.51-6.67,10.74-10.54,5.95-7.14,6.05-16.14,3.32-24.68-.5-1.53-2.91-.88-2.42.66Z" fill="#292e34"/>
          </g>
        </g>
        <g id="Group_127" data-name="Group 127">
          <path id="Path_129" data-name="Path 129" d="M275.3,446.87c5.92,12.34,11.04,25.11,16.31,37.74q15.435,36.96,29.98,74.27c24.31,62.16,47.49,124.96,66.44,188.98,8.82,29.78,17.21,60.13,21.23,91,.21,1.57,2.71,1.59,2.5,0-3.51-26.91-10.36-53.37-17.77-79.43-9.15-32.16-19.64-63.94-30.69-95.5-20.44-58.4-42.81-116.16-66.51-173.31-6.24-15.06-12.29-30.31-19.35-45.01-.67-1.45-2.83-.18-2.14,1.26Z" fill="#292e34"/>
        </g>
        <g id="Group_128" data-name="Group 128">
          <path id="Path_130" data-name="Path 130" d="M391.86,538.38c12.27,78.28,19.71,157.41,24,236.51q1.74,32.145,2.57,64.34a1.251,1.251,0,0,0,2.5,0c-1.98-79.61-8.13-159.24-17.86-238.27q-3.9-31.7-8.8-63.24c-.25-1.59-2.66-.92-2.41.66Z" fill="#292e34"/>
        </g>
        <g id="Group_129" data-name="Group 129">
          <path id="Path_131" data-name="Path 131" d="M293.29,482.3c-13.99-38.71-31.44-76.09-50.91-112.32-.76-1.42-2.92-.16-2.16,1.26,19.37,36.05,36.74,73.22,50.66,111.72.54,1.51,2.96.86,2.41-.66Z" fill="#ffecdd"/>
        </g>
        <g id="Group_130" data-name="Group 130">
          <path id="Path_132" data-name="Path 132" d="M295.21,414.19a45.036,45.036,0,0,0-18.19,33.41c-.11,1.61,2.39,1.6,2.5,0a42.329,42.329,0,0,1,16.95-31.25c1.27-.95.03-3.12-1.26-2.16Z" fill="#ffecdd"/>
        </g>
        <g id="Group_131" data-name="Group 131">
          <path id="Path_133" data-name="Path 133" d="M265.23,416.33a78.242,78.242,0,0,0-30.68-19.25c-1.53-.52-2.18,1.89-.66,2.41a75.356,75.356,0,0,1,29.58,18.61c1.12,1.14,2.89-.63,1.76-1.77Z" fill="#ffecdd"/>
        </g>
        <g id="Group_132" data-name="Group 132">
          <path id="Path_134" data-name="Path 134" d="M381.32,472.95c-.61,23.13,3.66,46.18,8.26,68.75,4.15,20.35,9.83,40.89,11.13,61.68.1,1.6,2.6,1.61,2.5,0-1.25-19.98-6.55-39.7-10.58-59.23-4.83-23.38-9.43-47.22-8.81-71.2a1.251,1.251,0,0,0-2.5,0Z" fill="#ffecdd"/>
        </g>
        <g id="Group_133" data-name="Group 133">
          <path id="Path_135" data-name="Path 135" d="M391.87,542.64c-7.88-13-19.67-22.51-31.6-31.61-1.28-.97-2.53,1.2-1.26,2.16,11.59,8.83,23.05,18.09,30.71,30.71a1.247,1.247,0,0,0,2.15-1.26Z" fill="#ffecdd"/>
        </g>
        <g id="Group_134" data-name="Group 134">
          <path id="Path_136" data-name="Path 136" d="M421.66,560.39c-13.1,2.41-23.99,15.72-22.45,29.11.18,1.58,2.68,1.6,2.5,0-1.42-12.37,8.5-24.46,20.61-26.7,1.58-.29.91-2.7-.66-2.41Z" fill="#ffecdd"/>
        </g>
      </g>
      <g id="Group_136" data-name="Group 136">
        <path id="Path_137" data-name="Path 137" d="M779.8,837.78q.6,7.26,1.21,14.53c.13,1.59,2.63,1.61,2.5,0q-.6-7.26-1.21-14.53c-.13-1.59-2.63-1.61-2.5,0Z" fill="#292e34"/>
      </g>
      <g id="Group_137" data-name="Group 137">
        <path id="Path_138" data-name="Path 138" d="M768.56,878.37a59.957,59.957,0,0,0,7.44,2.21c1.57.36,2.23-2.05.66-2.41a62.264,62.264,0,0,1-7.44-2.21c-1.51-.56-2.16,1.85-.66,2.41Z" fill="#292e34"/>
      </g>
      <g id="Group_138" data-name="Group 138">
        <path id="Path_139" data-name="Path 139" d="M741.44,891.46q13.575-12.075,26.35-24.99a1.252,1.252,0,0,0-1.77-1.77q-12.78,12.915-26.35,24.99c-1.21,1.07.57,2.84,1.77,1.77Z" fill="#292e34"/>
      </g>
      <g id="Group_139" data-name="Group 139">
        <path id="Path_140" data-name="Path 140" d="M606.89,868.81c22.22,5.02,44.45,10.06,66.85,14.24,21.65,4.04,43.54,6.61,65.31,9.89,1.57.24,2.25-2.17.66-2.41-21.77-3.28-43.66-5.85-65.31-9.89-22.4-4.18-44.63-9.22-66.85-14.24-1.56-.35-2.23,2.06-.66,2.41Z" fill="#292e34"/>
      </g>
      <g id="Group_140" data-name="Group 140">
        <path id="Path_141" data-name="Path 141" d="M743.88,916.9q1.3,7.53,2.01,15.14c.15,1.59,2.65,1.6,2.5,0q-.735-7.95-2.1-15.8c-.27-1.59-2.68-.92-2.41.66Z" fill="#292e34"/>
      </g>
      <g id="Group_141" data-name="Group 141">
        <path id="Path_142" data-name="Path 142" d="M746.26,917.13c11.13-11.57,21.22-24.07,31.53-36.36,1.03-1.22-.73-3-1.77-1.77-10.31,12.29-20.4,24.79-31.53,36.36-1.12,1.16.65,2.93,1.77,1.77Z" fill="#292e34"/>
      </g>
    </g>
  </g>
</svg>
