<svg xmlns="http://www.w3.org/2000/svg" width="67.1" height="19.778" viewBox="0 0 67.1 19.778">
  <path id="_12" data-name="12" d="M-20.053,0V-15.6h-3.036V-5.28L-29.579-15.6h-3.784V0h3.036V-11.066L-23.243,0Zm5.412-6.644a2.342,2.342,0,0,1,2.42-2.134A2.177,2.177,0,0,1-9.8-6.644Zm5.126,2.816a2.39,2.39,0,0,1-2.464,1.65,2.636,2.636,0,0,1-2.728-2.464h7.744c0-.044.044-.484.044-.9,0-3.476-2-5.61-5.346-5.61a5.434,5.434,0,0,0-5.324,5.7A5.483,5.483,0,0,0-12,.33,4.875,4.875,0,0,0-7.073-3.1ZM-1.683,4.18V-1.056A3.8,3.8,0,0,0,1.441.264c3.058,0,5.1-2.42,5.1-5.7,0-3.212-1.826-5.632-4.994-5.632A3.785,3.785,0,0,0-1.771-9.5v-1.32H-4.609v15ZM3.663-5.412c0,1.936-1.188,3.058-2.684,3.058A2.764,2.764,0,0,1-1.727-5.412,2.745,2.745,0,0,1,.979-8.448,2.729,2.729,0,0,1,3.663-5.412Zm11.792-5.456a6.663,6.663,0,0,0-.682-.044,3.219,3.219,0,0,0-3.08,1.694v-1.606H8.855V0h2.926V-4.95c0-2.332,1.3-3.058,2.794-3.058a4.406,4.406,0,0,1,.88.088Zm6.82,8.536a2.79,2.79,0,0,1-2.75-3.08,2.778,2.778,0,0,1,2.75-3.08,2.778,2.778,0,0,1,2.75,3.08A2.778,2.778,0,0,1,22.275-2.332Zm0-8.822A5.544,5.544,0,0,0,16.6-5.412,5.557,5.557,0,0,0,22.275.33a5.557,5.557,0,0,0,5.676-5.742A5.544,5.544,0,0,0,22.275-11.154Zm7.436,9.306a2.009,2.009,0,0,0,2,2,2.014,2.014,0,0,0,2.024-2,2.014,2.014,0,0,0-2.024-2A2.009,2.009,0,0,0,29.711-1.848Z" transform="translate(33.363 15.598)" fill="#fff"/>
</svg>
