<svg xmlns="http://www.w3.org/2000/svg" xmlns:xlink="http://www.w3.org/1999/xlink" width="116.739" height="46.18" viewBox="0 0 116.739 46.18">
  <defs>
    <linearGradient id="linear-gradient" x1="0.967" y1="0.5" x2="0.015" y2="0.5" gradientUnits="objectBoundingBox">
      <stop offset="0" stop-color="#5065da"/>
      <stop offset="0.194" stop-color="#556fff"/>
      <stop offset="0.398" stop-color="#c557ad"/>
      <stop offset="0.693" stop-color="#e65f9a"/>
      <stop offset="1" stop-color="#e66176"/>
    </linearGradient>
  </defs>
  <g id="logo_splash" transform="translate(-129 -389)">
    <path id="_12" data-name="12" d="M-10.207,11.539V-15.6h-5.282V2.353L-26.78-15.6h-6.583V11.539h5.282V-7.713l12.325,19.252ZM-.791-.02a4.075,4.075,0,0,1,4.21-3.713C6.328-3.733,7.553-1.9,7.63-.02Zm8.918,4.9A4.158,4.158,0,0,1,3.84,7.75,4.586,4.586,0,0,1-.906,3.463H12.567c0-.077.077-.842.077-1.569,0-6.047-3.483-9.76-9.3-9.76-4.823,0-9.263,3.9-9.263,9.913C-5.92,8.4-1.365,12.113,3.8,12.113c4.631,0,7.617-2.718,8.574-5.971ZM21.753,18.811V9.7A6.617,6.617,0,0,0,27.188,12c5.32,0,8.88-4.21,8.88-9.913,0-5.588-3.177-9.8-8.688-9.8C24.547-7.713,22.442-6.45,21.6-5v-2.3H16.663v26.1Zm9.3-16.688c0,3.368-2.067,5.32-4.67,5.32s-4.708-1.99-4.708-5.32,2.105-5.282,4.708-5.282S31.054-1.207,31.054,2.123ZM51.57-7.369a11.591,11.591,0,0,0-1.187-.077c-1.608,0-4.21.459-5.359,2.947V-7.292H40.087V11.539h5.091V2.927c0-4.057,2.258-5.32,4.861-5.32a7.665,7.665,0,0,1,1.531.153ZM63.435,7.482c-2.488,0-4.784-1.837-4.784-5.359,0-3.56,2.3-5.359,4.784-5.359s4.784,1.8,4.784,5.359S65.923,7.482,63.435,7.482Zm0-15.348a9.645,9.645,0,0,0-9.875,9.99,9.876,9.876,0,1,0,19.75,0A9.645,9.645,0,0,0,63.435-7.866ZM76.372,8.324a3.5,3.5,0,1,0,3.483-3.483A3.5,3.5,0,0,0,76.372,8.324Z" transform="translate(162.363 404.598)" fill="url(#linear-gradient)"/>
    <path id="Path_1776" data-name="Path 1776" d="M2.64-6.726a3.3,3.3,0,0,0-.9,2.466,3.316,3.316,0,0,0,.9,2.472A2.98,2.98,0,0,0,4.812-.9a2.98,2.98,0,0,0,2.172-.888,3.316,3.316,0,0,0,.9-2.472,3.3,3.3,0,0,0-.9-2.466,2.99,2.99,0,0,0-2.172-.882A2.99,2.99,0,0,0,2.64-6.726ZM.54-4.26A4.725,4.725,0,0,1,.906-6.144a3.942,3.942,0,0,1,.972-1.4A4.5,4.5,0,0,1,3.24-8.388a4.224,4.224,0,0,1,1.572-.3,4.224,4.224,0,0,1,1.572.3,4.5,4.5,0,0,1,1.362.846,3.942,3.942,0,0,1,.972,1.4A4.725,4.725,0,0,1,9.084-4.26a4.514,4.514,0,0,1-.63,2.4A4.085,4.085,0,0,1,6.864-.324a4.35,4.35,0,0,1-2.052.5,4.35,4.35,0,0,1-2.052-.5A4.085,4.085,0,0,1,1.17-1.86,4.514,4.514,0,0,1,.54-4.26ZM13.788-5.832v1.2a3.477,3.477,0,0,0-.492-.036q-1.584,0-1.584,1.776V0H10.584V-5.772h1.1v1.008a1.789,1.789,0,0,1,1.728-1.1A1.893,1.893,0,0,1,13.788-5.832ZM16.1,0H14.988V-5.772H16.1ZM14.97-7.386a.776.776,0,0,1-.234-.57.8.8,0,0,1,.234-.576.766.766,0,0,1,.57-.24.8.8,0,0,1,.576.234.78.78,0,0,1,.24.582.766.766,0,0,1-.24.57.8.8,0,0,1-.576.234A.776.776,0,0,1,14.97-7.386Zm4.182,4.05V0H18.024V-5.772h1.1v.828a1.912,1.912,0,0,1,1.776-1,1.886,1.886,0,0,1,1.53.636,2.47,2.47,0,0,1,.534,1.644V0H21.84V-3.468q0-1.452-1.344-1.452a1.188,1.188,0,0,0-.99.45A1.778,1.778,0,0,0,19.152-3.336Zm6.81,1.962a1.7,1.7,0,0,0,1.278.546,1.7,1.7,0,0,0,1.278-.546,2.107,2.107,0,0,0,.522-1.518A2.09,2.09,0,0,0,28.518-4.4a1.7,1.7,0,0,0-1.278-.546,1.7,1.7,0,0,0-1.278.546,2.09,2.09,0,0,0-.522,1.506A2.107,2.107,0,0,0,25.962-1.374Zm-.84-3.708a2.808,2.808,0,0,1,2.118-.87,2.808,2.808,0,0,1,2.118.87,3.038,3.038,0,0,1,.834,2.19,3.066,3.066,0,0,1-.828,2.2A2.8,2.8,0,0,1,27.24.18a2.8,2.8,0,0,1-2.124-.87,3.066,3.066,0,0,1-.828-2.2A3.038,3.038,0,0,1,25.122-5.082ZM37.176-6.576,36.12-6.2a1.768,1.768,0,0,0-.54-1,1.716,1.716,0,0,0-1.26-.45,1.725,1.725,0,0,0-1.176.408,1.285,1.285,0,0,0-.468,1.008,1.164,1.164,0,0,0,.282.792,1.467,1.467,0,0,0,.81.444l1.272.276a3,3,0,0,1,1.632.858,2.186,2.186,0,0,1,.576,1.53,2.323,2.323,0,0,1-.816,1.776A3.03,3.03,0,0,1,34.308.18,3.167,3.167,0,0,1,32.07-.57a2.869,2.869,0,0,1-.942-1.782l1.128-.36a2.046,2.046,0,0,0,.6,1.3,1.946,1.946,0,0,0,1.44.528,1.957,1.957,0,0,0,1.3-.384,1.216,1.216,0,0,0,.456-.972,1.2,1.2,0,0,0-.324-.834,1.729,1.729,0,0,0-.948-.486l-1.212-.264a2.828,2.828,0,0,1-1.512-.8,2.137,2.137,0,0,1-.564-1.524,2.347,2.347,0,0,1,.822-1.77A2.817,2.817,0,0,1,34.3-8.688a2.87,2.87,0,0,1,2,.636A2.755,2.755,0,0,1,37.176-6.576ZM40.14-7.6v1.824h1.248v1.02H40.14v3a.836.836,0,0,0,.186.6.835.835,0,0,0,.618.192,1.841,1.841,0,0,0,.444-.048v.96A2.238,2.238,0,0,1,40.62.06a1.589,1.589,0,0,1-1.176-.432,1.639,1.639,0,0,1-.432-1.212V-4.752h-1.1v-1.02h.312a.852.852,0,0,0,.666-.246.922.922,0,0,0,.222-.642V-7.6ZM46.692-.7a1.476,1.476,0,0,1-.7.654A2.322,2.322,0,0,1,44.988.18a2.01,2.01,0,0,1-1.572-.654,2.392,2.392,0,0,1-.588-1.662V-5.772h1.128V-2.3a1.72,1.72,0,0,0,.318,1.068,1.162,1.162,0,0,0,.99.42,1.276,1.276,0,0,0,1.02-.4,1.584,1.584,0,0,0,.348-1.074v-3.48H47.76v4.7A9.044,9.044,0,0,0,47.82,0H46.74A4.045,4.045,0,0,1,46.692-.7Z" transform="translate(197 435)" fill="#9498ac"/>
  </g>
</svg>
