<svg xmlns="http://www.w3.org/2000/svg" xmlns:xlink="http://www.w3.org/1999/xlink" width="22.989" height="21.496" viewBox="0 0 22.989 21.496">
  <defs>
    <linearGradient id="linear-gradient" x1="0.497" y1="-0.302" x2="0.497" y2="-0.838" gradientUnits="objectBoundingBox">
      <stop offset="0" stop-color="#ff4c54"/>
      <stop offset="1" stop-color="#be3f45"/>
    </linearGradient>
    <linearGradient id="linear-gradient-2" x1="0.377" y1="-0.695" x2="1.373" y2="-1.474" xlink:href="#linear-gradient"/>
    <linearGradient id="linear-gradient-3" x1="0.394" y1="-0.695" x2="1.39" y2="-1.474" xlink:href="#linear-gradient"/>
    <linearGradient id="linear-gradient-4" x1="0.399" y1="-0.716" x2="1.395" y2="-1.495" xlink:href="#linear-gradient"/>
    <linearGradient id="linear-gradient-5" x1="0.407" y1="-0.716" x2="1.403" y2="-1.495" xlink:href="#linear-gradient"/>
    <linearGradient id="linear-gradient-6" x1="0.497" y1="-0.605" x2="0.497" y2="0.65" gradientUnits="objectBoundingBox">
      <stop offset="0" stop-color="#be3f45" stop-opacity="0"/>
      <stop offset="1" stop-color="#be3f45"/>
    </linearGradient>
    <linearGradient id="linear-gradient-7" x1="0.498" y1="1.494" x2="0.498" y2="0.547" gradientUnits="objectBoundingBox">
      <stop offset="0" stop-color="#ffb92d"/>
      <stop offset="1" stop-color="#f59500"/>
    </linearGradient>
    <linearGradient id="linear-gradient-8" x1="0.596" y1="1.396" x2="-0.136" y2="2.129" xlink:href="#linear-gradient-7"/>
    <linearGradient id="linear-gradient-9" x1="0.383" y1="1.782" x2="1.115" y2="1.049" gradientUnits="objectBoundingBox">
      <stop offset="0" stop-color="#f2f2f2"/>
      <stop offset="1" stop-color="#c3c3c3"/>
    </linearGradient>
    <linearGradient id="linear-gradient-10" x1="0.618" y1="0.812" x2="-0.524" y2="2.722" xlink:href="#linear-gradient-6"/>
    <linearGradient id="linear-gradient-11" x1="1.349" y1="1.017" x2="0.1" y2="2.029" gradientUnits="objectBoundingBox">
      <stop offset="0" stop-color="#c3c3c3" stop-opacity="0"/>
      <stop offset="1" stop-color="#777"/>
    </linearGradient>
    <linearGradient id="linear-gradient-12" x1="0.415" y1="1.666" x2="0.604" y2="1.605" gradientUnits="objectBoundingBox">
      <stop offset="0" stop-color="#fff465"/>
      <stop offset="1" stop-color="#ffe600"/>
    </linearGradient>
    <linearGradient id="linear-gradient-13" x1="0.368" y1="1.396" x2="1.1" y2="2.129" xlink:href="#linear-gradient-7"/>
    <linearGradient id="linear-gradient-14" x1="0.702" y1="0.849" x2="-0.455" y2="2.523" xlink:href="#linear-gradient-6"/>
    <linearGradient id="linear-gradient-15" x1="0.575" y1="1.782" x2="-0.157" y2="1.049" xlink:href="#linear-gradient-9"/>
    <linearGradient id="linear-gradient-16" x1="1.192" y1="1.124" x2="0.084" y2="2.167" xlink:href="#linear-gradient-11"/>
    <linearGradient id="linear-gradient-17" x1="0.567" y1="1.666" x2="0.377" y2="1.605" gradientUnits="objectBoundingBox">
      <stop offset="0" stop-color="#ffe600"/>
      <stop offset="1" stop-color="#fff465"/>
    </linearGradient>
    <linearGradient id="linear-gradient-18" x1="0.222" y1="3.261" x2="1.29" y2="2.193" gradientUnits="objectBoundingBox">
      <stop offset="0" stop-color="#a7f3ce"/>
      <stop offset="1" stop-color="#61db99"/>
    </linearGradient>
    <linearGradient id="linear-gradient-19" x1="0.795" y1="3.325" x2="0.021" y2="4.097" gradientUnits="objectBoundingBox">
      <stop offset="0" stop-color="#61db99" stop-opacity="0"/>
      <stop offset="1" stop-color="#009e74"/>
    </linearGradient>
  </defs>
  <g id="add-to-cart" transform="translate(0 -16.626)">
    <path id="Path_1805" data-name="Path 1805" d="M52.2,239.15h-13a1.171,1.171,0,0,1-1.148-.94L35.811,227.1H55.584l-2.238,11.106A1.171,1.171,0,0,1,52.2,239.15Z" transform="translate(-34.203 -201.028)" fill="url(#linear-gradient)"/>
    <path id="Path_1806" data-name="Path 1806" d="M349.743,290.994a.735.735,0,0,1-.727-.844l1.021-6.806a.735.735,0,0,1,1.453.218l-1.021,6.806A.735.735,0,0,1,349.743,290.994Z" transform="translate(-333.337 -254.145)" fill="url(#linear-gradient-2)"/>
    <path id="Path_1807" data-name="Path 1807" d="M109.28,291a.735.735,0,0,1-.725-.626l-1.021-6.806a.734.734,0,0,1,1.453-.218l1.021,6.806a.735.735,0,0,1-.727.844Z" transform="translate(-102.697 -254.146)" fill="url(#linear-gradient-3)"/>
    <path id="Path_1808" data-name="Path 1808" d="M277.684,291h-.038a.735.735,0,0,1-.7-.771l.348-6.806a.734.734,0,0,1,1.467.075l-.348,6.806A.734.734,0,0,1,277.684,291Z" transform="translate(-264.513 -254.149)" fill="url(#linear-gradient-4)"/>
    <path id="Path_1809" data-name="Path 1809" d="M195.663,291a.734.734,0,0,1-.733-.7l-.348-6.806a.735.735,0,0,1,1.467-.075l.348,6.806a.734.734,0,0,1-.7.771Z" transform="translate(-185.844 -254.148)" fill="url(#linear-gradient-5)"/>
    <path id="Path_1810" data-name="Path 1810" d="M36.158,228.827,46.481,239.15H52.2a1.171,1.171,0,0,0,1.148-.94L55.584,227.1H35.811Z" transform="translate(-34.203 -201.028)" fill="url(#linear-gradient-6)"/>
    <path id="Path_1811" data-name="Path 1811" d="M21.153,187.156H1.836A1.836,1.836,0,0,1,0,185.32H0a1.836,1.836,0,0,1,1.836-1.836H21.153a1.836,1.836,0,0,1,1.836,1.836h0A1.836,1.836,0,0,1,21.153,187.156Z" transform="translate(0 -159.366)" fill="url(#linear-gradient-7)"/>
    <circle id="Ellipse_632" data-name="Ellipse 632" cx="1.493" cy="1.493" r="1.493" transform="translate(3.709 24.461)" fill="url(#linear-gradient-8)"/>
    <circle id="Ellipse_633" data-name="Ellipse 633" cx="1.273" cy="1.273" r="1.273" transform="translate(3.929 24.681)" fill="url(#linear-gradient-9)"/>
    <path id="Path_1812" data-name="Path 1812" d="M100.915,183.484h-1.63l-.288.584h0l-.478.969a.734.734,0,0,0,.163.866l1.253,1.253h4.652Z" transform="translate(-94.024 -159.366)" fill="url(#linear-gradient-10)"/>
    <path id="Path_1813" data-name="Path 1813" d="M98.683,197.88l.682.682A1.273,1.273,0,1,0,99,196.045l-.478.969A.735.735,0,0,0,98.683,197.88Z" transform="translate(-94.024 -171.343)" fill="url(#linear-gradient-11)"/>
    <path id="Path_1814" data-name="Path 1814" d="M99.175,26.734a.735.735,0,0,1-.658-1.06l4.259-8.635a.734.734,0,0,1,1.317.65l-4.259,8.635A.735.735,0,0,1,99.175,26.734Z" transform="translate(-94.021 -0.003)" fill="url(#linear-gradient-12)"/>
    <circle id="Ellipse_634" data-name="Ellipse 634" cx="1.493" cy="1.493" r="1.493" transform="translate(16.293 24.461)" fill="url(#linear-gradient-13)"/>
    <path id="Path_1815" data-name="Path 1815" d="M363.257,187.141l-2.567-2.567a1.28,1.28,0,0,0-.285-.285l-.8-.8h-1.656l.611,1.2.493,1a.731.731,0,0,0,.178.23l1.239,1.239h2.56A1.858,1.858,0,0,0,363.257,187.141Z" transform="translate(-341.872 -159.366)" fill="url(#linear-gradient-14)"/>
    <circle id="Ellipse_635" data-name="Ellipse 635" cx="1.273" cy="1.273" r="1.273" transform="translate(16.514 24.681)" fill="url(#linear-gradient-15)"/>
    <path id="Path_1816" data-name="Path 1816" d="M373.919,197.3a1.273,1.273,0,0,0-2.377-.633l.493,1a.731.731,0,0,0,.178.23l.656.656A1.273,1.273,0,0,0,373.919,197.3Z" transform="translate(-354.859 -171.344)" fill="url(#linear-gradient-16)"/>
    <path id="Path_1817" data-name="Path 1817" d="M290.981,26.734a.735.735,0,0,0,.658-1.06l-4.259-8.635a.734.734,0,0,0-1.317.65l4.259,8.635A.734.734,0,0,0,290.981,26.734Z" transform="translate(-273.146 -0.003)" fill="url(#linear-gradient-17)"/>
    <circle id="Ellipse_636" data-name="Ellipse 636" cx="3.092" cy="3.092" r="3.092" transform="translate(16.806 16.626)" fill="url(#linear-gradient-18)"/>
    <path id="Path_1818" data-name="Path 1818" d="M413.769,54.15l-2.433-2.489h-1.008v1.015h-1.015v1.008l2.454,2.444A3.1,3.1,0,0,0,413.769,54.15Z" transform="translate(-390.935 -33.462)" fill="url(#linear-gradient-19)"/>
    <path id="Path_1819" data-name="Path 1819" d="M412.352,52.676h-1.015V51.661h-1.008v1.015h-1.015v1.008h1.015V54.7h1.008V53.684h1.015Z" transform="translate(-390.936 -33.462)" fill="#fff"/>
  </g>
</svg>
