<svg xmlns="http://www.w3.org/2000/svg" width="38.021" height="13" viewBox="0 0 38.021 13">
  <g id="symbols_1_" data-name="symbols (1)" transform="translate(0 -15.762)">
    <g id="Group_7553" data-name="Group 7553" transform="translate(26.727 17.189)">
      <g id="Group_7552" data-name="Group 7552">
        <path id="Path_1679" data-name="Path 1679" d="M34.372,17.56l-.7,1.7h1.406Z" transform="translate(-33.673 -17.56)" fill="#fff"/>
      </g>
    </g>
    <g id="Group_7555" data-name="Group 7555" transform="translate(2.567 17.189)">
      <g id="Group_7554" data-name="Group 7554">
        <path id="Path_1680" data-name="Path 1680" d="M3.925,17.56l-.691,1.7H4.622Z" transform="translate(-3.234 -17.56)" fill="#fff"/>
      </g>
    </g>
    <g id="Group_7557" data-name="Group 7557" transform="translate(17.567 17.353)">
      <g id="Group_7556" data-name="Group 7556" transform="translate(0 0)">
        <path id="Path_1681" data-name="Path 1681" d="M23.869,17.843a1.055,1.055,0,0,0-.483-.077H22.132v.945h1.237a.958.958,0,0,0,.5-.087.438.438,0,0,0,.21-.4A.389.389,0,0,0,23.869,17.843Z" transform="translate(-22.132 -17.766)" fill="#fff"/>
      </g>
    </g>
    <g id="Group_7559" data-name="Group 7559" transform="translate(21.926 24.679)">
      <g id="Group_7558" data-name="Group 7558" transform="translate(0 0)">
        <path id="Path_1682" data-name="Path 1682" d="M29.364,27.073A1,1,0,0,0,28.878,27H27.624v.956h1.237a.991.991,0,0,0,.5-.087.461.461,0,0,0,.21-.41A.41.41,0,0,0,29.364,27.073Z" transform="translate(-27.624 -26.996)" fill="#fff"/>
      </g>
    </g>
    <g id="Group_7561" data-name="Group 7561" transform="translate(17.382 24.677)">
      <g id="Group_7560" data-name="Group 7560">
        <path id="Path_1683" data-name="Path 1683" d="M23.226,26.994H21.9v1.085h1.314c.391,0,.635-.194.635-.561S23.594,26.994,23.226,26.994Z" transform="translate(-21.899 -26.994)" fill="#fff"/>
      </g>
    </g>
    <g id="Group_7563" data-name="Group 7563" transform="translate(8.109 23.094)">
      <g id="Group_7562" data-name="Group 7562" transform="translate(0 0)">
        <path id="Path_1684" data-name="Path 1684" d="M39.621,27.222A.264.264,0,0,0,39.6,27.2a.7.7,0,0,0,.321-.591V25.7a.7.7,0,0,0-.7-.7h-2.04a2.261,2.261,0,0,0-1.464.47.7.7,0,0,0-.656-.47h-2.04a2.336,2.336,0,0,0-1.34.367A.692.692,0,0,0,31.07,25h-3.4a.7.7,0,0,0-.621.387c-.048-.034-.084-.074-.135-.1A3.168,3.168,0,0,0,25.36,25H23.009a.7.7,0,0,0-.621.391A2.818,2.818,0,0,0,20.816,25H17.564a.7.7,0,0,0-.517.224l-.771.831-.74-.822A.69.69,0,0,0,15.013,25H10.919a.7.7,0,0,0-.7.7v4.26a.7.7,0,0,0,.7.7h4.033a.7.7,0,0,0,.516-.226l.777-.841.737.829a.7.7,0,0,0,.526.236h1.979a.7.7,0,0,0,.7-.7v-.727h.566a2.98,2.98,0,0,0,1.548-.356v1.083a.7.7,0,0,0,.7.7h1.023a.7.7,0,0,0,.7-.7v-.854h.383c.094,0,.16,0,.207.006,0,.076,0,.167,0,.228v.62a.7.7,0,0,0,.7.7h1.022a.67.67,0,0,0,.311-.079.7.7,0,0,0,.31.079h3.4a.7.7,0,0,0,.306-.076.688.688,0,0,0,.306.076h1.983a2.6,2.6,0,0,0,1.53-.428.7.7,0,0,0,.646.428h1.983c1.442,0,2.3-.766,2.3-2.048A1.879,1.879,0,0,0,39.621,27.222Zm-18.862,1.31h-1.27v1.43H17.51l-1.254-1.41-1.3,1.41H10.919V25.7h4.094l1.254,1.4,1.3-1.4h3.253c.807,0,1.716.226,1.716,1.406S21.649,28.534,20.758,28.532Zm5.63-.548a1.081,1.081,0,0,1,.5.358,1.233,1.233,0,0,1,.169.777v.845H26.032V29.43c0-.256.025-.636-.166-.834-.146-.152-.372-.187-.745-.187H24.033v1.555H23.01V25.7h2.352a2.523,2.523,0,0,1,1.225.2,1,1,0,0,1,.523.945A1.2,1.2,0,0,1,26.388,27.983Zm4.684-1.4H28.688v.775h2.326v.87H28.688v.846l2.384,0v.883h-3.4V25.7h3.4Zm2.6,3.375H31.686v-.915H33.66a.588.588,0,0,0,.415-.106.378.378,0,0,0,.119-.279.36.36,0,0,0-.124-.281.536.536,0,0,0-.363-.094c-.951-.031-2.144.029-2.144-1.318,0-.62.387-1.268,1.456-1.268h2.04V26.6H33.191a.686.686,0,0,0-.408.078.357.357,0,0,0,.068.625,1.18,1.18,0,0,0,.4.048l.547.016a1.65,1.65,0,0,1,1.161.343,1.183,1.183,0,0,1,.306.9C35.262,29.535,34.691,29.963,33.668,29.958Zm4.16,0H35.846v-.915H37.82a.585.585,0,0,0,.414-.106.378.378,0,0,0,.119-.279.36.36,0,0,0-.124-.281.533.533,0,0,0-.363-.094c-.952-.031-2.144.029-2.144-1.318,0-.62.387-1.268,1.456-1.268h2.04V26.6H37.352a.686.686,0,0,0-.409.078.358.358,0,0,0,.068.625,1.183,1.183,0,0,0,.4.048l.547.016a1.653,1.653,0,0,1,1.163.343,1.189,1.189,0,0,1,.306.9C39.424,29.535,38.851,29.963,37.828,29.958Z" transform="translate(-10.216 -24.999)" fill="#fff"/>
      </g>
    </g>
    <g id="Group_7565" data-name="Group 7565" transform="translate(0 15.762)">
      <g id="Group_7564" data-name="Group 7564">
        <path id="Path_1685" data-name="Path 1685" d="M34.318,15.762H33.276a.7.7,0,0,0-.7.7v.44l-.483-.8a.707.707,0,0,0-.6-.34H29.935a.7.7,0,0,0-.7.7v.6l-.374-.875a.7.7,0,0,0-.645-.426H26.687a.7.7,0,0,0-.42.14.7.7,0,0,0-.421-.14h-.983a2.793,2.793,0,0,0-1.911.6.694.694,0,0,0-.682-.6h-1.04a.7.7,0,0,0-.626.4,1.443,1.443,0,0,0-.126-.1,2.993,2.993,0,0,0-1.586-.3H16.549a.688.688,0,0,0-.353.109.678.678,0,0,0-.352-.109h-3.4a.685.685,0,0,0-.379.126.689.689,0,0,0-.379-.126h-1.7a.7.7,0,0,0-.646.429l-.6,1.426-.666-1.446a.706.706,0,0,0-.639-.409H5.77a.7.7,0,0,0-.7.7v.612l-.382-.891a.7.7,0,0,0-.647-.425H2.526a.7.7,0,0,0-.647.426L.057,20.448a.7.7,0,0,0,.646.98H1.81A.7.7,0,0,0,2.457,21l.215-.518H3.852l.212.514a.7.7,0,0,0,.651.436H6.786a.7.7,0,0,0,.7-.7v-.017l.133.3a.7.7,0,0,0,.643.418l.895,0a.7.7,0,0,0,.643-.419l.135-.3v.017a.7.7,0,0,0,.7.7h1.044a.7.7,0,0,0,.379-.126.691.691,0,0,0,.379.126h3.4a.678.678,0,0,0,.352-.109.686.686,0,0,0,.353.109h1.019a.7.7,0,0,0,.7-.7V19.88h.389c.088,0,.151,0,.2.006,0,.072,0,.158,0,.215l0,.094,0,.537a.7.7,0,0,0,.7.7h1.027a.686.686,0,0,0,.315-.085.692.692,0,0,0,.318.085h1.04a.694.694,0,0,0,.677-.567,2.952,2.952,0,0,0,1.842.567H25.98a.7.7,0,0,0,.648-.441l.207-.51h1.173l.215.518a.7.7,0,0,0,.649.433h2.072a.7.7,0,0,0,.7-.7v-.672l.625,1.036a.705.705,0,0,0,.6.34h1.441a.7.7,0,0,0,.7-.7v-4.26A.7.7,0,0,0,34.318,15.762ZM11.684,20.724H10.64l0-3.336L9.16,20.724H8.265L6.786,17.385v3.339H4.714l-.391-.95H2.2l-.4.95H.7l1.823-4.26H4.036L5.769,20.5V16.464H7.431l1.333,2.89,1.223-2.89h1.7S11.684,20.724,11.684,20.724Zm4.159-3.373H13.46v.768h2.326v.873H13.46v.851h2.383v.881h-3.4v-4.26h3.4Zm4.077,1.4a1.19,1.19,0,0,1,.5.359,1.219,1.219,0,0,1,.169.781v.836H19.566l0-.537a1.281,1.281,0,0,0-.16-.829,1,1,0,0,0-.742-.182H17.568v1.549h-1.02V16.465h2.342a2.393,2.393,0,0,1,1.233.2.994.994,0,0,1,.515.944A1.2,1.2,0,0,1,19.92,18.748Zm2.349,1.976h-1.04v-4.26h1.04Zm12.049,0H32.876l-1.931-3.2v3.2H28.873l-.4-.95H26.36l-.383.95H24.785a2.134,2.134,0,0,1-1.473-.471,2.136,2.136,0,0,1-.546-1.626,2.286,2.286,0,0,1,.545-1.667,2.063,2.063,0,0,1,1.546-.5h.983v.913h-.964a.977.977,0,0,0-.783.252,1.405,1.405,0,0,0-.292.965,1.469,1.469,0,0,0,.281,1,.985.985,0,0,0,.71.22h.456l1.438-3.35h1.526l1.722,4.029V16.464h1.552l1.789,2.967V16.464h1.042Zm-9.087-2.643-.442,1.031a.817.817,0,0,1-.2-.021,1.082,1.082,0,0,1-.081-.5,1.034,1.034,0,0,1,.081-.462c.029-.029.054-.053.293-.053Z" transform="translate(0 -15.762)" fill="#fff"/>
      </g>
    </g>
    <g id="Group_7567" data-name="Group 7567" transform="translate(14.804 24.256)">
      <g id="Group_7566" data-name="Group 7566">
        <path id="Path_1686" data-name="Path 1686" d="M18.651,28.142l1.564,1.737V26.463Z" transform="translate(-18.651 -26.463)" fill="#fff"/>
      </g>
    </g>
    <g id="Group_7569" data-name="Group 7569" transform="translate(9.829 24.679)">
      <g id="Group_7568" data-name="Group 7568" transform="translate(0 0)">
        <path id="Path_1687" data-name="Path 1687" d="M14.934,27H12.383v.774h2.234v.87H12.383v.848h2.5l1.163-1.252Z" transform="translate(-12.383 -26.996)" fill="#fff"/>
      </g>
    </g>
  </g>
</svg>
