<svg xmlns="http://www.w3.org/2000/svg" xmlns:xlink="http://www.w3.org/1999/xlink" width="16.277" height="16.277" viewBox="0 0 16.277 16.277">
  <defs>
    <linearGradient id="linear-gradient" x1="0.084" y1="0.916" x2="0.916" y2="0.084" gradientUnits="objectBoundingBox">
      <stop offset="0" stop-color="#ffd600"/>
      <stop offset="0.5" stop-color="#ff0100"/>
      <stop offset="1" stop-color="#d800b9"/>
    </linearGradient>
    <linearGradient id="linear-gradient-2" x1="0.146" y1="0.854" x2="0.854" y2="0.146" gradientUnits="objectBoundingBox">
      <stop offset="0" stop-color="#ff6400"/>
      <stop offset="0.5" stop-color="#ff0100"/>
      <stop offset="1" stop-color="#fd0056"/>
    </linearGradient>
    <linearGradient id="linear-gradient-3" x1="0.146" y1="0.854" x2="0.854" y2="0.146" gradientUnits="objectBoundingBox">
      <stop offset="0" stop-color="#f30072"/>
      <stop offset="1" stop-color="#e50097"/>
    </linearGradient>
  </defs>
  <g id="instagram" transform="translate(0 0)">
    <path id="Path_54" data-name="Path 54" d="M16.228,4.783a5.975,5.975,0,0,0-.378-1.976,3.989,3.989,0,0,0-.939-1.442A3.99,3.99,0,0,0,13.469.427,5.974,5.974,0,0,0,11.494.049C10.626.009,10.349,0,8.138,0S5.651.009,4.783.049A5.976,5.976,0,0,0,2.807.427a3.989,3.989,0,0,0-1.442.939A3.989,3.989,0,0,0,.427,2.807,5.974,5.974,0,0,0,.049,4.783C.009,5.651,0,5.928,0,8.138s.009,2.488.049,3.356a5.973,5.973,0,0,0,.378,1.976,3.988,3.988,0,0,0,.939,1.441,3.988,3.988,0,0,0,1.442.939,5.972,5.972,0,0,0,1.976.378c.868.04,1.145.049,3.355.049s2.488-.009,3.355-.049a5.972,5.972,0,0,0,1.976-.378,4.161,4.161,0,0,0,2.38-2.38,5.973,5.973,0,0,0,.378-1.976c.039-.868.049-1.145.049-3.355s-.009-2.488-.049-3.355Zm-1.465,6.644a4.5,4.5,0,0,1-.28,1.511,2.7,2.7,0,0,1-1.545,1.545,4.5,4.5,0,0,1-1.511.28c-.858.039-1.115.047-3.289.047S5.708,14.8,4.85,14.763a4.5,4.5,0,0,1-1.511-.28,2.522,2.522,0,0,1-.936-.609,2.521,2.521,0,0,1-.609-.936,4.5,4.5,0,0,1-.28-1.511c-.039-.858-.047-1.116-.047-3.289s.008-2.431.047-3.289a4.506,4.506,0,0,1,.28-1.511A2.523,2.523,0,0,1,2.4,2.4a2.52,2.52,0,0,1,.936-.609,4.5,4.5,0,0,1,1.511-.28c.858-.039,1.116-.047,3.289-.047h0c2.173,0,2.431.008,3.289.048a4.5,4.5,0,0,1,1.511.28,2.523,2.523,0,0,1,.936.609,2.52,2.52,0,0,1,.609.936,4.5,4.5,0,0,1,.28,1.511c.039.858.047,1.116.047,3.289s-.008,2.431-.047,3.289Zm0,0" fill="url(#linear-gradient)"/>
    <path id="Path_55" data-name="Path 55" d="M128.718,124.539a4.179,4.179,0,1,0,4.179,4.179A4.179,4.179,0,0,0,128.718,124.539Zm0,6.892a2.713,2.713,0,1,1,2.713-2.713A2.713,2.713,0,0,1,128.718,131.431Zm0,0" transform="translate(-120.58 -120.58)" fill="url(#linear-gradient-2)"/>
    <path id="Path_56" data-name="Path 56" d="M363.883,89.6a.977.977,0,1,1-.977-.977A.977.977,0,0,1,363.883,89.6Zm0,0" transform="translate(-350.424 -85.808)" fill="url(#linear-gradient-3)"/>
  </g>
</svg>
