<svg id="paypal" xmlns="http://www.w3.org/2000/svg" width="28.22" height="19.462" viewBox="0 0 28.22 19.462">
  <path id="Path_1617" data-name="Path 1617" d="M28.22,97.244a1.668,1.668,0,0,1-1.668,1.668H1.668A1.668,1.668,0,0,1,0,97.244V81.119a1.668,1.668,0,0,1,1.668-1.668H26.552a1.668,1.668,0,0,1,1.668,1.668V97.244Z" transform="translate(0 -79.451)" fill="#92dbef"/>
  <path id="Path_1618" data-name="Path 1618" d="M1.186,97.244V81.119a1.668,1.668,0,0,1,1.668-1.668H1.668A1.668,1.668,0,0,0,0,81.119V97.244a1.668,1.668,0,0,0,1.668,1.668H2.854A1.668,1.668,0,0,1,1.186,97.244Z" transform="translate(0 -79.451)" fill="#202121" opacity="0.15"/>
  <g id="Group_7342" data-name="Group 7342" transform="translate(8.163 3.843)">
    <path id="Path_1619" data-name="Path 1619" d="M157.479,130.215a4.025,4.025,0,0,0-3.1-.978H150.31a.7.7,0,0,0-.57.489L148.11,140.4a.373.373,0,0,0,.326.407h2.526l.652-3.992v.163a.7.7,0,0,1,.57-.489h1.222c2.363,0,4.154-.978,4.725-3.666v-.244h0a2.846,2.846,0,0,0-.651-2.362" transform="translate(-148.11 -129.237)" fill="#263b80"/>
    <path id="Path_1620" data-name="Path 1620" d="M223.546,186.044V185.8c0-.008,0-.016,0-.024a2.308,2.308,0,0,0-.384-.217,3.607,3.607,0,0,0-1.234-.249h-3.68a.589.589,0,0,0-.571.506l-.649,4.22v.163a.7.7,0,0,1,.57-.489h1.222C221.183,189.711,222.975,188.733,223.546,186.044Z" transform="translate(-213.524 -182.46)" fill="#232c65"/>
    <path id="Path_1621" data-name="Path 1621" d="M208.671,195.515a2.131,2.131,0,0,0-.8-1.033c0,.008,0,.016,0,.024v.244c-.57,2.689-2.362,3.666-4.725,3.666h-1.222a.7.7,0,0,0-.57.489v-.063c-.009.021-.018.042-.025.063l-.46,2.808-.167,1.021h0l-.187,1.141a.3.3,0,0,0,.326.325h2.031a.574.574,0,0,0,.576-.489l.017-.106h0l.39-2.419a.617.617,0,0,1,.607-.57h.208c2.037,0,3.666-.815,4.073-3.259A3.84,3.84,0,0,0,208.671,195.515Z" transform="translate(-197.85 -191.166)" fill="#139ad6"/>
  </g>
</svg>
