<svg xmlns="http://www.w3.org/2000/svg" width="28.073" height="19.361" viewBox="0 0 28.073 19.361">
  <g id="shopify" transform="translate(0 0)">
    <path id="Path_1608" data-name="Path 1608" d="M28.073,97.152a1.66,1.66,0,0,1-1.659,1.66H1.659A1.66,1.66,0,0,1,0,97.152V81.11a1.659,1.659,0,0,1,1.659-1.659H26.414a1.659,1.659,0,0,1,1.659,1.659V97.152Z" transform="translate(0 -79.451)" fill="#51b151"/>
    <path id="Path_1609" data-name="Path 1609" d="M1.18,97.152V81.11a1.66,1.66,0,0,1,1.66-1.659H1.659A1.66,1.66,0,0,0,0,81.11V97.152a1.66,1.66,0,0,0,1.659,1.66h1.18A1.66,1.66,0,0,1,1.18,97.152Z" transform="translate(0 -79.451)" fill="#202121" opacity="0.15"/>
    <g id="Group_6389" data-name="Group 6389" transform="translate(2.985 5.9)">
      <path id="Path_1610" data-name="Path 1610" d="M54.7,220.915a2.364,2.364,0,0,0,.97.265c.3,0,.462-.156.462-.343s-.121-.32-.462-.492a1.2,1.2,0,0,1-.781-1.015c0-.8.675-1.319,1.63-1.319a2.025,2.025,0,0,1,.948.2l-.258.8a1.8,1.8,0,0,0-.743-.164c-.288,0-.478.125-.478.336,0,.156.152.289.447.429a1.256,1.256,0,0,1,.834,1.054c0,.874-.72,1.35-1.706,1.342a2.146,2.146,0,0,1-1.13-.3Z" transform="translate(-54.432 -216.315)" fill="#fff"/>
      <path id="Path_1611" data-name="Path 1611" d="M106.661,195.228l1.023-5.541h1.092l-.417,2.217h.015a1.546,1.546,0,0,1,1.183-.578.9.9,0,0,1,.932,1.03,4.591,4.591,0,0,1-.068.687l-.4,2.185h-1.092l.387-2.092a2.394,2.394,0,0,0,.045-.468c0-.258-.1-.437-.371-.437-.387,0-.773.484-.91,1.249l-.326,1.748Z" transform="translate(-103.797 -189.543)" fill="#fff"/>
      <path id="Path_1612" data-name="Path 1612" d="M181.413,222a1.49,1.49,0,0,1-1.577-1.577,2.266,2.266,0,0,1,2.214-2.412,1.5,1.5,0,0,1,1.577,1.577A2.247,2.247,0,0,1,181.42,222Zm.144-.858c.591,0,.932-.9.932-1.545,0-.359-.152-.726-.584-.726-.629,0-.948.937-.948,1.53,0,.445.22.741.591.741Z" transform="translate(-172.96 -216.316)" fill="#fff"/>
      <path id="Path_1613" data-name="Path 1613" d="M240.731,224.064l.72-3.887c.083-.453.167-1.116.212-1.506h.978l-.068.585h.015a1.487,1.487,0,0,1,1.19-.64c.8,0,1.2.663,1.2,1.452a2.346,2.346,0,0,1-2.153,2.536,1.428,1.428,0,0,1-.682-.156h-.023l-.3,1.616h-1.092Zm1.562-2.49a.714.714,0,0,0,.5.179c.584,0,1.039-.851,1.039-1.6,0-.3-.129-.624-.478-.624-.409,0-.788.468-.925,1.218Z" transform="translate(-230.516 -216.886)" fill="#fff"/>
      <path id="Path_1614" data-name="Path 1614" d="M318.157,193.492l.705-3.816h1.084l-.7,3.816Zm1.38-4.316a.546.546,0,0,1-.553-.585.661.661,0,0,1,.667-.679.553.553,0,0,1,.584.585.657.657,0,0,1-.69.679Z" transform="translate(-303.697 -187.866)" fill="#fff"/>
      <path id="Path_1615" data-name="Path 1615" d="M351.468,192.691l.546-2.958h-.478l.152-.858h.485l.03-.2a2.115,2.115,0,0,1,.629-1.256,1.637,1.637,0,0,1,1.061-.359,1.475,1.475,0,0,1,.576.094l-.19.89a.932.932,0,0,0-.349-.062c-.356,0-.576.32-.644.7l-.03.187h.728l-.159.858h-.72l-.546,2.958Z" transform="translate(-335.181 -187.064)" fill="#fff"/>
      <path id="Path_1616" data-name="Path 1616" d="M393.192,220.394l.227,1.662c.053.4.091.671.121.913h.015c.083-.234.167-.484.326-.9l.675-1.678h1.152l-1.327,2.739a7.64,7.64,0,0,1-1.425,2.185,2.451,2.451,0,0,1-1.19.648l-.243-.96a2.173,2.173,0,0,0,.629-.3,2.08,2.08,0,0,0,.607-.663.237.237,0,0,0,.015-.179l-.728-3.465Z" transform="translate(-373.041 -218.566)" fill="#fff"/>
    </g>
  </g>
</svg>
