<svg xmlns="http://www.w3.org/2000/svg" width="67.977" height="20.926" viewBox="0 0 67.977 20.926">
  <g id="visa_light" transform="translate(0 -16.554)">
    <g id="Group_7349" data-name="Group 7349" transform="translate(23.764 16.902)">
      <g id="Group_7348" data-name="Group 7348">
        <path id="Path_1630" data-name="Path 1630" d="M20.177,16.8,16.722,37.072h5.525L25.7,16.8Z" transform="translate(-16.722 -16.799)" fill="#fff"/>
      </g>
    </g>
    <g id="Group_7351" data-name="Group 7351" transform="translate(5.488 16.921)">
      <g id="Group_7350" data-name="Group 7350">
        <path id="Path_1631" data-name="Path 1631" d="M17.5,16.816,12.093,30.642l-.577-2.088a21.692,21.692,0,0,0-7.654-8.4L8.81,37.057l5.846-.01,8.7-20.235Z" transform="translate(-3.862 -16.812)" fill="#fff"/>
      </g>
    </g>
    <g id="Group_7353" data-name="Group 7353" transform="translate(0 16.729)">
      <g id="Group_7352" data-name="Group 7352">
        <path id="Path_1632" data-name="Path 1632" d="M11.045,18.324a2.223,2.223,0,0,0-2.407-1.647H.071l-.071.4c6.666,1.617,11.077,5.514,12.908,10.2Z" transform="translate(0 -16.677)" fill="#fff"/>
      </g>
    </g>
    <g id="Group_7355" data-name="Group 7355" transform="translate(32.746 16.554)">
      <g id="Group_7354" data-name="Group 7354">
        <path id="Path_1633" data-name="Path 1633" d="M34.241,20.789a10.2,10.2,0,0,1,4.135.776l.5.234.747-4.394a14.262,14.262,0,0,0-4.95-.851c-5.46,0-9.308,2.75-9.338,6.691-.036,2.912,2.741,4.538,4.839,5.508,2.153.995,2.875,1.627,2.865,2.515-.017,1.357-1.717,1.98-3.3,1.98a11.6,11.6,0,0,1-5.2-1.062l-.712-.324L23.043,36.4A17.5,17.5,0,0,0,29.2,37.48c5.808,0,9.582-2.717,9.622-6.928.024-2.3-1.45-4.061-4.643-5.5-1.933-.941-3.115-1.566-3.1-2.515C31.075,21.69,32.078,20.789,34.241,20.789Z" transform="translate(-23.043 -16.554)" fill="#fff"/>
      </g>
    </g>
    <g id="Group_7357" data-name="Group 7357" transform="translate(48.138 16.925)">
      <g id="Group_7356" data-name="Group 7356">
        <path id="Path_1634" data-name="Path 1634" d="M49.242,16.815H44.973A2.749,2.749,0,0,0,42.078,18.5l-8.2,18.579h5.8s.946-2.5,1.161-3.045l7.076.009c.165.708.674,3.037.674,3.037h5.126ZM42.428,29.882c.455-1.164,2.2-5.666,2.2-5.666-.03.055.45-1.172.736-1.936l.372,1.748,1.28,5.853Z" transform="translate(-33.874 -16.815)" fill="#fff"/>
      </g>
    </g>
  </g>
</svg>
