<svg xmlns="http://www.w3.org/2000/svg" enable-background="new 0 0 24 24" viewBox="0 0 24 24"><path fill="#303c42" d="M20,9V7.5C20,3.505,16.262,0,12,0S4,3.505,4,7.5V9c-0.663,0-1,1.009-1,3s0.337,3,1,3   c0.073,0,0.14-0.017,0.204-0.041c0.418,2.151,1.384,3.985,1.866,4.796C7.74,22.572,9.566,24,11.5,24h1   c1.934,0,3.76-1.428,5.43-4.245c0.481-0.811,1.448-2.646,1.866-4.796C19.86,14.983,19.927,15,20,15c0.663,0,1-1.009,1-3   S20.663,9,20,9z"/><path fill="#ffca28" d="M18.43 12.088C17.951 12.668 17.248 13 16.5 13h-2.732l-.322-.485c-.294-.439-1.031-.505-1.445-.505s-1.151.066-1.445.506L10.232 13H7.5c-.748 0-1.451-.333-1.93-.912-.364-.441-.558-.99-.566-1.558C5.03 11.37 6.092 12 7.5 12h9c1.408 0 2.47-.63 2.495-1.47C18.987 11.098 18.793 11.647 18.43 12.088zM16.5 9h-9c-1.368 0-2.403.597-2.484 1.401.005-.134.008-.269.034-.404C5.274 8.84 6.353 8 7.614 8h8.095c1.787 0 2.999.747 3.241 1.997.026.135.029.269.034.404C18.903 9.597 17.868 9 16.5 9z"/><path fill="#d32f2f" d="M18,10.5c0,0.125-0.532,0.5-1.5,0.5h-9C6.532,11,6,10.625,6,10.5S6.532,10,7.5,10h9   C17.468,10,18,10.375,18,10.5z"/><path fill="#37474f" d="M12,1c3.729,0,7,3.038,7,6.5v0.62C18.243,7.408,17.1,7,15.709,7H7.614C6.592,7,5.662,7.415,5,8.082   V7.5C5,4.038,8.271,1,12,1z"/><path fill="#fff" d="M12,1C8.271,1,5,4.038,5,7.5v0.582   c0.009-0.009,0.021-0.016,0.031-0.025C5.34,4.818,8.462,2.081,12,2.081c3.554,0,6.686,2.761,6.972,6.019   C18.98,8.108,18.992,8.113,19,8.121v-0.62C19,4.038,15.729,1,12,1z" enable-background="new" opacity=".2"/><path fill="#fee8d7" d="M17.07,19.245C15.593,21.737,14.055,23,12.5,23h-1c-1.555,0-3.093-1.263-4.57-3.755   C6.478,18.481,5,15.775,5,13v-0.081C5.658,13.599,6.547,14,7.5,14h3c0.167,0,0.323-0.083,0.416-0.223l0.43-0.66   c0.209-0.142,1.102-0.142,1.268-0.047l0.471,0.707C13.178,13.917,13.334,14,13.501,14h3c0.953,0,1.841-0.401,2.5-1.081V13   C19,15.775,17.522,18.481,17.07,19.245z"/><linearGradient id="a" x1="8.5" x2="17.993" y1="14.581" y2="5.088" gradientTransform="matrix(1 0 0 -1 0 24)" gradientUnits="userSpaceOnUse"><stop offset="0" stop-opacity=".1"/><stop offset="1" stop-opacity="0"/></linearGradient><path fill="url(#a)" d="M17.07,19.245C17.522,18.481,19,15.775,19,13v-0.081C18.341,13.599,17.453,14,16.5,14h-3   c-0.167,0-0.323-0.083-0.416-0.223l-0.471-0.707c-0.166-0.095-1.059-0.095-1.268,0.047l-0.43,0.66C10.823,13.917,10.667,14,10.5,14   h-3c-0.953,0-1.842-0.401-2.5-1.081l9.42,9.42C15.318,21.73,16.205,20.705,17.07,19.245z"/><path fill="#303c42" d="M13.5,19h-3c-0.276,0-0.5,0.224-0.5,0.5s0.224,0.5,0.5,0.5h3c0.276,0,0.5-0.224,0.5-0.5   S13.776,19,13.5,19z"/><linearGradient id="b" x1="3.179" x2="20.094" y1="16.201" y2="8.313" gradientTransform="matrix(1 0 0 -1 0 24)" gradientUnits="userSpaceOnUse"><stop offset="0" stop-color="#fff" stop-opacity=".2"/><stop offset="1" stop-color="#fff" stop-opacity="0"/></linearGradient><path fill="url(#b)" d="M20,9V7.5C20,3.505,16.262,0,12,0S4,3.505,4,7.5V9c-0.663,0-1,1.009-1,3s0.337,3,1,3   c0.073,0,0.14-0.017,0.204-0.041c0.418,2.151,1.384,3.985,1.866,4.796C7.74,22.572,9.566,24,11.5,24h1   c1.934,0,3.76-1.428,5.43-4.245c0.481-0.811,1.448-2.646,1.866-4.796C19.86,14.983,19.927,15,20,15c0.663,0,1-1.009,1-3   S20.663,9,20,9z"/></svg>