<svg xmlns="http://www.w3.org/2000/svg" enable-background="new 0 0 24 24" viewBox="0 0 24 24"><path fill="#303c42" d="M20.5,9C20.224,9,20,9.224,20,9.5v-2C20,4.468,17.532,2,14.5,2h-4C7.468,2,5,4.468,5,7.5V2.768   l2.777-1.852c0.184-0.122,0.265-0.35,0.201-0.561S7.721,0,7.5,0h-4C3.327,0,3.166,0.09,3.074,0.237   C2.983,0.384,2.975,0.568,3.053,0.723L4,2.618V12.5C4,12.224,3.776,12,3.5,12S3,12.224,3,12.5v1C3,13.776,3.224,14,3.5,14   S4,13.776,4,13.5v4C4,17.776,4.224,18,4.5,18S5,17.776,5,17.5v0.02c0,0.774,0.347,1.489,0.951,1.962   c1.466,1.149,4.336,3.696,4.563,4.133c0.004,0.019,0.016,0.034,0.022,0.052c0.009,0.025,0.018,0.049,0.03,0.072   c0.017,0.03,0.037,0.056,0.06,0.082c0.016,0.018,0.03,0.037,0.048,0.053c0.029,0.025,0.062,0.044,0.096,0.062   c0.018,0.01,0.034,0.022,0.053,0.029C10.878,23.987,10.937,24,11,24c0.004,0,0.008,0,0.013,0h2.975H14   c0.085,0,0.161-0.027,0.232-0.065c0.038-0.018,0.071-0.038,0.102-0.065c0.058-0.052,0.1-0.119,0.129-0.194   c0.002-0.006,0.008-0.008,0.01-0.015c0.241-0.483,3.111-3.03,4.576-4.18c0.605-0.473,0.952-1.188,0.952-1.962v-0.02   c0,0.276,0.224,0.5,0.5,0.5s0.5-0.224,0.5-0.5v-8C21,9.224,20.776,9,20.5,9z"/><polygon fill="#fff59d" points="5.849 1 4.694 1.77 4.309 1"/><path fill="#424242" d="M14.384,13.014c-0.216,0.052-0.372,0.239-0.383,0.461l-0.432,8.626   c-0.029,0.294-0.034,0.598-0.045,0.899h-2.05c-0.011-0.302-0.016-0.606-0.045-0.899l-0.432-8.626   c-0.011-0.222-0.167-0.409-0.383-0.461c-1.406-0.337-3.797-1.085-4.616-1.74v-0.628c1.184,0.288,3.844,0.855,6.5,0.855h1   c2.493,0,4.502-0.499,5.5-0.804v0.578C18.181,11.929,15.79,12.677,14.384,13.014z"/><path fill="#424242" d="M17.326 13.181c-.823 1.064-1.773 2.506-2.521 4.241l.176-3.526C15.488 13.764 16.404 13.512 17.326 13.181zM10.195 17.422c-.748-1.735-1.698-3.177-2.521-4.241.922.331 1.838.583 2.346.715L10.195 17.422z"/><path fill="#9ccc65" d="M10.5 3h4C16.981 3 19 5.019 19 7.5v2.145c-.767.253-2.868.855-5.5.855h-1c-2.714 0-5.52-.64-6.5-.886V7.5C6 5.019 8.019 3 10.5 3zM6.567 18.694C6.207 18.412 6 17.983 6 17.52v-4.773c1.354 1.529 3.923 4.951 4.413 9.309C8.973 20.631 6.601 18.72 6.567 18.694zM18.432 18.694c-.034.026-2.405 1.937-3.845 3.361.49-4.358 3.059-7.78 4.413-9.309v4.773C19 17.983 18.793 18.412 18.432 18.694z"/><path fill="#424242" d="M10.5 3h4C16.981 3 19 5.019 19 7.5v2.145c-.767.253-2.868.855-5.5.855h-1c-2.714 0-5.52-.64-6.5-.886V7.5C6 5.019 8.019 3 10.5 3zM6.567 18.694C6.207 18.412 6 17.983 6 17.52v-4.773c1.354 1.529 3.923 4.951 4.413 9.309C8.973 20.631 6.601 18.72 6.567 18.694zM18.432 18.694c-.034.026-2.405 1.937-3.845 3.361.49-4.358 3.059-7.78 4.413-9.309v4.773C19 17.983 18.793 18.412 18.432 18.694z"/><path fill="#9ccc65" d="M10.5,3h4C16.981,3,19,5.019,19,7.5v2.145   c-0.767,0.253-2.868,0.855-5.5,0.855h-1c-2.714,0-5.52-0.64-6.5-0.886V7.5C6,5.019,8.019,3,10.5,3z" enable-background="new" opacity=".56"/><path fill="#fff" d="M14.5,3h-4C8.019,3,6,5.019,6,7.5v0.75   c0-2.481,2.019-4.5,4.5-4.5h4c2.481,0,4.5,2.019,4.5,4.5V7.5C19,5.019,16.981,3,14.5,3z" enable-background="new" opacity=".2"/><path fill="#9ccc65" d="M6.567 18.694C6.207 18.412 6 17.983 6 17.52v-4.773c1.354 1.529 3.923 4.951 4.413 9.309C8.973 20.631 6.601 18.72 6.567 18.694zM18.432 18.694c-.034.026-2.405 1.937-3.845 3.361.49-4.358 3.059-7.78 4.413-9.309v4.773C19 17.983 18.793 18.412 18.432 18.694z" enable-background="new" opacity=".56"/><linearGradient id="a" x1="6.732" x2="9.43" y1="5.125" y2="7.823" gradientTransform="matrix(1 0 0 -1 0 24)" gradientUnits="userSpaceOnUse"><stop offset="0" stop-opacity="0"/><stop offset="1" stop-opacity=".3"/></linearGradient><path fill="url(#a)" d="M6.567,18.694C6.207,18.412,6,17.983,6,17.52v-4.773c1.354,1.529,3.923,4.951,4.413,9.309   C8.973,20.631,6.601,18.72,6.567,18.694z"/><linearGradient id="b" x1="15.569" x2="18.267" y1="7.824" y2="5.126" gradientTransform="matrix(1 0 0 -1 0 24)" gradientUnits="userSpaceOnUse"><stop offset="0" stop-opacity=".3"/><stop offset="1" stop-opacity="0"/></linearGradient><path fill="url(#b)" d="M18.432,18.694c-0.034,0.026-2.405,1.937-3.845,3.361c0.49-4.358,3.059-7.78,4.413-9.309   v4.773C19,17.983,18.793,18.412,18.432,18.694z"/><path fill="#e53935" d="M14.384,13.014c-0.216,0.052-0.372,0.239-0.383,0.461   l-0.432,8.626c-0.029,0.294-0.034,0.598-0.045,0.899h-2.05c-0.011-0.302-0.016-0.606-0.045-0.899l-0.432-8.626   c-0.011-0.222-0.167-0.409-0.383-0.461c-1.406-0.337-3.797-1.085-4.616-1.74v-0.628c1.184,0.288,3.844,0.855,6.5,0.855h1   c2.493,0,4.502-0.499,5.5-0.804v0.578C18.181,11.929,15.79,12.677,14.384,13.014z" enable-background="new" opacity=".78"/><path fill="#fff" d="M13.5,11.5h-1c-2.656,0-5.316-0.566-6.5-0.855v0.578   c1.184,0.288,3.844,0.855,6.5,0.855h1c2.492,0,4.5-0.498,5.499-0.804L19,11.273v-0.578C18.002,11.001,15.993,11.5,13.5,11.5z" enable-background="new" opacity=".2"/><path fill="#e53935" d="M17.326 13.181c-.823 1.064-1.773 2.506-2.521 4.241l.176-3.526C15.488 13.764 16.404 13.512 17.326 13.181zM10.195 17.422c-.748-1.735-1.698-3.177-2.521-4.241.922.331 1.838.583 2.346.715L10.195 17.422z" enable-background="new" opacity=".78"/><linearGradient id="c" x1=".01" x2="21.392" y1="17.201" y2="7.23" gradientTransform="matrix(1 0 0 -1 0 24)" gradientUnits="userSpaceOnUse"><stop offset="0" stop-color="#fff" stop-opacity=".2"/><stop offset="1" stop-color="#fff" stop-opacity="0"/></linearGradient><path fill="url(#c)" d="M20.5,9C20.224,9,20,9.224,20,9.5v-2C20,4.468,17.532,2,14.5,2h-4C7.468,2,5,4.468,5,7.5   V2.768l2.777-1.852c0.184-0.122,0.265-0.35,0.201-0.561S7.721,0,7.5,0h-4C3.327,0,3.166,0.09,3.074,0.237   C2.983,0.384,2.975,0.568,3.053,0.723L4,2.618V12.5C4,12.224,3.776,12,3.5,12S3,12.224,3,12.5v1C3,13.776,3.224,14,3.5,14   S4,13.776,4,13.5v4C4,17.776,4.224,18,4.5,18S5,17.776,5,17.5v0.02c0,0.774,0.347,1.489,0.951,1.962   c1.466,1.149,4.336,3.696,4.563,4.133c0.004,0.019,0.016,0.034,0.022,0.052c0.009,0.025,0.018,0.049,0.03,0.072   c0.017,0.03,0.037,0.056,0.06,0.082c0.016,0.018,0.03,0.037,0.048,0.053c0.029,0.025,0.062,0.044,0.096,0.062   c0.018,0.01,0.034,0.022,0.053,0.029C10.878,23.987,10.937,24,11,24c0.004,0,0.008,0,0.013,0h2.975H14   c0.085,0,0.161-0.027,0.232-0.065c0.038-0.018,0.071-0.038,0.102-0.065c0.058-0.052,0.1-0.119,0.129-0.194   c0.002-0.006,0.008-0.008,0.01-0.015c0.241-0.483,3.111-3.03,4.576-4.18c0.605-0.473,0.952-1.188,0.952-1.962v-0.02   c0,0.276,0.224,0.5,0.5,0.5s0.5-0.224,0.5-0.5v-8C21,9.224,20.776,9,20.5,9z"/></svg>