<svg xmlns="http://www.w3.org/2000/svg" enable-background="new 0 0 24 24" viewBox="0 0 24 24"><path fill="#303c42" d="M20.243,12.396C20.607,11.783,21,10.537,21,8c0-4.262-4.206-8-9-8S3,3.738,3,8   c0,2.537,0.393,3.783,0.757,4.396C3.095,12.984,3,13.849,3,14.5c0,0.94,0.858,3.021,2.083,3.425   c0.207,0.843,0.932,3.093,3.03,4.423C8.371,22.821,9.287,24,12,24s3.629-1.179,3.887-1.651c2.097-1.331,2.823-3.58,3.03-4.423   C20.142,17.521,21,15.44,21,14.5C21,13.849,20.905,12.984,20.243,12.396z"/><path fill="#e6e6e6" d="M12,1c4.262,0,8,3.271,8,7c0,0.963-0.06,1.699-0.146,2.269c-0.37-3.019-1.439-6.411-3.139-7.218   c-2.351-1.113-3.37-0.618-4.114-0.258c-0.475,0.231-0.728,0.23-1.202,0C10.651,2.431,9.63,1.937,7.287,3.047   c-1.701,0.807-2.771,4.201-3.14,7.221C4.06,9.699,4,8.962,4,8C4,4.271,7.738,1,12,1z"/><path fill="#fee8d7" d="M18.998,12.415c-0.524,1.529-1.898,4.181-3.433,5.688C15.111,17.424,14.349,17,13.5,17h-3   c-0.849,0-1.611,0.424-2.065,1.104c-1.535-1.508-2.909-4.16-3.433-5.688c0.019-3.349,1.196-7.744,2.712-8.463   c1.912-0.906,2.622-0.562,3.248-0.258C11.273,3.845,11.595,4,12,4s0.727-0.155,1.037-0.306c0.626-0.305,1.332-0.648,3.249,0.262   C17.802,4.675,18.979,9.07,18.998,12.415z"/><path fill="#fff" d="M5.75,12.415c0.017-3.349,1.068-7.744,2.422-8.463   c0.769-0.408,1.314-0.555,1.739-0.574C9.406,3.346,8.733,3.469,7.714,3.952c-1.516,0.719-2.693,5.115-2.712,8.463   c0.524,1.529,1.898,4.181,3.433,5.688c0.056-0.084,0.13-0.151,0.195-0.226C7.336,16.343,6.197,13.873,5.75,12.415z" enable-background="new" opacity=".2"/><path d="M16.286,3.956c-1.023-0.486-1.696-0.609-2.201-0.577   c0.425,0.019,0.97,0.167,1.743,0.577c1.354,0.719,2.405,5.114,2.422,8.459c-0.447,1.458-1.586,3.928-2.879,5.462   c0.065,0.076,0.139,0.143,0.195,0.226c1.535-1.508,2.909-4.16,3.433-5.688C18.979,9.07,17.802,4.675,16.286,3.956z" enable-background="new" opacity=".1"/><path fill="#fee8d7" d="M4.051,13.889c0.032,0.466,0.085,0.991,0.17,1.514C4.088,15.063,4,14.735,4,14.5   C4,14.258,4.019,14.06,4.051,13.889z"/><path fill="#e6e6e6" d="M18.007,17.417c-0.005,0.027-0.5,2.796-2.764,4.154c-0.096,0.057-0.174,0.156-0.214,0.26   C15.011,21.879,14.545,23,12,23s-3.011-1.121-3.025-1.158c-0.038-0.113-0.115-0.209-0.218-0.271   c-2.264-1.358-2.759-4.127-2.764-4.154c-0.018-0.103-0.066-0.197-0.14-0.271c-0.289-0.289-0.494-0.998-0.63-1.821   c0.814,1.495,1.902,3.055,3.061,3.982c0.13,0.103,0.302,0.137,0.46,0.087c0.158-0.049,0.282-0.173,0.33-0.331   C9.27,18.428,9.843,18,10.5,18h3c0.657,0,1.23,0.428,1.426,1.063c0.048,0.158,0.172,0.282,0.33,0.331   c0.159,0.05,0.33,0.016,0.46-0.087c1.158-0.928,2.246-2.487,3.061-3.982c-0.136,0.823-0.341,1.532-0.63,1.821   C18.073,17.22,18.024,17.314,18.007,17.417z"/><path d="M15.243,20.512c-0.096,0.057-0.174,0.156-0.214,0.26   C15.01,20.82,14.545,21.941,12,21.941s-3.011-1.121-3.025-1.158c-0.038-0.113-0.115-0.209-0.218-0.271   c-1.743-1.046-2.436-2.924-2.665-3.747c-0.312-0.472-0.606-0.959-0.868-1.44c0.136,0.823,0.341,1.532,0.63,1.821   c0.073,0.073,0.122,0.168,0.14,0.271c0.005,0.027,0.5,2.796,2.764,4.154c0.103,0.062,0.18,0.157,0.218,0.271   C8.989,21.879,9.455,23,12,23s3.011-1.121,3.029-1.169c0.04-0.104,0.118-0.203,0.214-0.26c2.264-1.358,2.759-4.127,2.764-4.154   c0.018-0.103,0.066-0.197,0.14-0.271c0.289-0.289,0.494-0.998,0.63-1.821c-0.262,0.482-0.556,0.969-0.868,1.44   C17.679,17.588,16.986,19.466,15.243,20.512z" enable-background="new" opacity=".1"/><path fill="#fee8d7" d="M19.779,15.402c0.085-0.523,0.138-1.048,0.17-1.514C19.981,14.06,20,14.258,20,14.5   C20,14.735,19.912,15.063,19.779,15.402z"/><path fill="#303c42" d="M13 19h-2c-.276 0-.5.224-.5.5S10.724 20 11 20h2c.276 0 .5-.224.5-.5S13.276 19 13 19zM13.242 12.444C12.932 12.202 12.523 12 12 12s-.932.202-1.242.444C10.359 11.594 9.5 11 8.5 11 7.121 11 6 12.121 6 13.5S7.121 16 8.5 16c1.323 0 2.398-1.035 2.484-2.337C11.091 13.49 11.443 13 12 13c.558 0 .911.493 1.016.663C13.102 14.965 14.176 16 15.5 16c1.379 0 2.5-1.121 2.5-2.5S16.879 11 15.5 11C14.5 11 13.641 11.594 13.242 12.444z"/><circle cx="8.5" cy="13.5" r="1.5" fill="#ddeefd"/><circle cx="15.5" cy="13.5" r="1.5" fill="#ddeefd"/><linearGradient id="a" x1="7.14" x2="9.86" y1="11.134" y2="9.866" gradientTransform="matrix(1 0 0 -1 0 24)" gradientUnits="userSpaceOnUse"><stop offset="0" stop-color="#fff" stop-opacity=".2"/><stop offset="1" stop-color="#fff" stop-opacity="0"/></linearGradient><circle cx="8.5" cy="13.5" r="1.5" fill="url(#a)"/><linearGradient id="b" x1="14.14" x2="16.86" y1="11.134" y2="9.866" gradientTransform="matrix(1 0 0 -1 0 24)" gradientUnits="userSpaceOnUse"><stop offset="0" stop-color="#fff" stop-opacity=".2"/><stop offset="1" stop-color="#fff" stop-opacity="0"/></linearGradient><circle cx="15.5" cy="13.5" r="1.5" fill="url(#b)"/><linearGradient id="c" x1="2.558" x2="20.663" y1="16.535" y2="8.093" gradientTransform="matrix(1 0 0 -1 0 24)" gradientUnits="userSpaceOnUse"><stop offset="0" stop-color="#fff" stop-opacity=".2"/><stop offset="1" stop-color="#fff" stop-opacity="0"/></linearGradient><path fill="url(#c)" d="M20.243,12.396C20.607,11.783,21,10.537,21,8c0-4.262-4.206-8-9-8S3,3.738,3,8   c0,2.537,0.393,3.783,0.757,4.396C3.095,12.984,3,13.849,3,14.5c0,0.94,0.858,3.021,2.083,3.425   c0.207,0.843,0.932,3.093,3.03,4.423C8.371,22.821,9.287,24,12,24s3.629-1.179,3.887-1.651c2.097-1.331,2.823-3.58,3.03-4.423   C20.142,17.521,21,15.44,21,14.5C21,13.849,20.905,12.984,20.243,12.396z"/></svg>