<svg xmlns="http://www.w3.org/2000/svg" enable-background="new 0 0 24 24" viewBox="0 0 24 24"><path fill="#303c42" d="M21.497,13.023C21.461,10.153,21.106,8.772,21,8.42c-0.013-2.266-0.593-4.346-1.597-5.716   C18.043,0.847,14.612,0,12,0S5.957,0.847,4.597,2.705C3.594,4.075,3.014,6.155,3,8.421c-0.106,0.352-0.461,1.732-0.497,4.603   C0.925,13.177,0,14.078,0,15.5c0,1.891,1.9,3.838,3.014,4.363C3.135,21.472,4.068,24,7,24c2.117,0,3.294-0.669,4.073-1.112   C11.454,22.671,11.756,22.5,12,22.5s0.545,0.171,0.927,0.388C13.706,23.331,14.883,24,17,24c2.932,0,3.865-2.528,3.986-4.137   C22.1,19.338,24,17.391,24,15.5C24,14.078,23.075,13.177,21.497,13.023z"/><path fill="#f2f2f2" d="M20.5,19c-0.276,0-0.5,0.224-0.5,0.5c0,0.143-0.034,3.5-3,3.5c-1.853,0-2.81-0.544-3.579-0.981   C12.931,21.741,12.508,21.5,12,21.5s-0.931,0.24-1.421,0.519C9.81,22.456,8.853,23,7,23c-2.966,0-3-3.357-3-3.5   c0-0.276-0.19-0.497-0.467-0.497C3.037,18.896,1,17.127,1,15.5c0-0.992,0.669-1.496,1.986-1.499   c0.293,0.075,1.037,1.129,1.563,2.217C4.636,16.396,4.814,16.5,5,16.5c0.073,0,0.147-0.016,0.217-0.05   c0.249-0.12,0.353-0.419,0.232-0.668c-0.414-0.856-1.158-2.177-1.945-2.619c0.023-2.429,0.276-3.76,0.399-4.254   C6.289,8.243,8.452,8,12,8s5.711,0.243,8.095,0.909c0.123,0.496,0.376,1.827,0.399,4.254c-0.787,0.443-1.53,1.763-1.945,2.619   c-0.12,0.249-0.016,0.548,0.232,0.668c0.07,0.034,0.145,0.05,0.217,0.05c0.186,0,0.364-0.104,0.451-0.282   c0.525-1.084,1.265-2.135,1.561-2.217C22.33,14.003,23,14.508,23,15.5C23,17.127,20.963,18.896,20.5,19z"/><path d="M22.354,14.293c0.113,0.206,0.177,0.449,0.177,0.738   c0,1.627-2.037,3.396-2.5,3.5c-0.276,0-0.5,0.224-0.5,0.5c0,0.143-0.034,3.5-3,3.5c-1.853,0-2.81-0.544-3.579-0.981   c-0.49-0.278-0.913-0.519-1.421-0.519s-0.931,0.24-1.421,0.519c-0.769,0.438-1.727,0.981-3.579,0.981   c-0.744,0-1.303-0.212-1.724-0.531C5.25,22.563,5.933,23,7,23c1.853,0,2.81-0.544,3.579-0.981C11.069,21.741,11.492,21.5,12,21.5   s0.931,0.24,1.421,0.519C14.19,22.456,15.147,23,17,23c2.966,0,3-3.357,3-3.5c0-0.276,0.224-0.5,0.5-0.5   c0.463-0.104,2.5-1.873,2.5-3.5C23,14.939,22.778,14.54,22.354,14.293z" enable-background="new" opacity=".1"/><path fill="#303c42" d="M6.5,13.5c4.237,0,4.497-3.934,4.5-3.974c0.007-0.136-0.042-0.269-0.135-0.368   c-0.093-0.1-0.223-0.156-0.359-0.158c-0.153-0.003-3.697-0.037-5.185,0.533C5.122,9.609,4.993,9.804,5,10.016   C5.005,10.159,5.133,13.5,6.5,13.5z"/><path fill="#5c6671" d="M9.912,10.001c-0.214,0.872-0.933,2.506-3.316,2.525c-0.226-0.177-0.487-1.292-0.571-2.167   C7.05,10.096,8.828,10.016,9.912,10.001z"/><path fill="#303c42" d="M8.554,20.003c-0.497-0.054-1.07-0.217-1.18-0.335L7.285,19.56C7.031,19.243,6.775,19,6,19   c-0.607,0-1,0.393-1,1c0,1.805,1.398,2,2,2c1.582,0,2-0.981,2-1.5C9,20.245,8.808,20.03,8.554,20.003z"/><path fill="#5c6671" d="M7,21c-0.83,0-1-0.399-1.061-0.994C5.939,20.006,5.957,20,6,20c0.356,0,0.378,0.028,0.503,0.185   c0.038,0.047,0.077,0.097,0.123,0.147c0.24,0.27,0.682,0.436,1.08,0.535C7.558,20.943,7.335,21,7,21z"/><path fill="#303c42" d="M17.5,13.5c1.367,0,1.495-3.341,1.5-3.483c0.007-0.213-0.122-0.407-0.321-0.483   c-1.488-0.57-5.032-0.535-5.185-0.533c-0.136,0.002-0.266,0.059-0.359,0.158c-0.093,0.1-0.142,0.232-0.135,0.368   C13.003,9.566,13.263,13.5,17.5,13.5z"/><path fill="#5c6671" d="M17.975,10.359c-0.083,0.874-0.333,1.986-0.475,2.141c-2.455,0-3.192-1.629-3.411-2.499   C15.174,10.016,16.951,10.096,17.975,10.359z"/><linearGradient id="a" x1="6.077" x2="9.199" y1="13.752" y2="12.296" gradientTransform="matrix(1 0 0 -1 0 24)" gradientUnits="userSpaceOnUse"><stop offset="0" stop-color="#fff" stop-opacity=".2"/><stop offset="1" stop-color="#fff" stop-opacity="0"/></linearGradient><path fill="url(#a)" d="M9.912,10.001c-0.214,0.872-0.933,2.506-3.316,2.525c-0.226-0.177-0.487-1.292-0.571-2.167   C7.05,10.096,8.828,10.016,9.912,10.001z"/><linearGradient id="b" x1="14.106" x2="17.875" y1="14.036" y2="12.279" gradientTransform="matrix(1 0 0 -1 0 24)" gradientUnits="userSpaceOnUse"><stop offset="0" stop-color="#fff" stop-opacity=".2"/><stop offset="1" stop-color="#fff" stop-opacity="0"/></linearGradient><path fill="url(#b)" d="M17.975,10.359c-0.083,0.874-0.333,1.986-0.475,2.141c-2.455,0-3.192-1.629-3.411-2.499   C15.174,10.016,16.951,10.096,17.975,10.359z"/><path fill="#303c42" d="M18,19c-0.775,0-1.031,0.243-1.285,0.56l-0.089,0.108c-0.11,0.118-0.683,0.281-1.18,0.335   C15.192,20.03,15,20.245,15,20.5c0,0.519,0.418,1.5,2,1.5c0.602,0,2-0.195,2-2C19,19.393,18.607,19,18,19z"/><path fill="#5c6671" d="M17,21c-0.336,0-0.559-0.057-0.708-0.133c0.399-0.1,0.841-0.265,1.082-0.535   c0.045-0.051,0.085-0.101,0.123-0.147C17.622,20.028,17.644,20,18,20C18,20.601,17.83,21,17,21z"/><path fill="#f2f2f2" d="M5.403,3.295C6.507,1.788,9.557,1,12,1s5.493,0.788,6.597,2.295   c0.797,1.089,1.287,2.721,1.383,4.546C17.649,7.228,15.46,7,12,7S6.351,7.228,4.02,7.841C4.116,6.016,4.607,4.384,5.403,3.295z"/><path fill="#303c42" d="M18,17.5c0-0.276-0.224-0.5-0.5-0.5c-0.919,0-1.5-0.588-2.171-1.268C14.527,14.92,13.619,14,12,14   s-2.527,0.92-3.329,1.732C8,16.412,7.419,17,6.5,17C6.224,17,6,17.224,6,17.5S6.224,18,6.5,18c1.337,0,2.158-0.832,2.883-1.565   C10.111,15.697,10.799,15,12,15s1.889,0.697,2.617,1.435C15.342,17.168,16.163,18,17.5,18C17.776,18,18,17.776,18,17.5z"/><path fill="#303c42" d="M12 17c-.276 0-.5.224-.5.5v3c0 .276.224.5.5.5s.5-.224.5-.5v-3C12.5 17.224 12.276 17 12 17zM13.5 18c-.276 0-.5.224-.5.5v2c0 .276.224.5.5.5s.5-.224.5-.5v-2C14 18.224 13.776 18 13.5 18zM10.5 18c-.276 0-.5.224-.5.5v2c0 .276.224.5.5.5s.5-.224.5-.5v-2C11 18.224 10.776 18 10.5 18z"/><linearGradient id="c" x1="1.981" x2="23.211" y1="15.97" y2="6.071" gradientTransform="matrix(1 0 0 -1 0 24)" gradientUnits="userSpaceOnUse"><stop offset="0" stop-color="#fff" stop-opacity=".2"/><stop offset="1" stop-color="#fff" stop-opacity="0"/></linearGradient><path fill="url(#c)" d="M21.497,13.023C21.461,10.153,21.106,8.772,21,8.42c-0.013-2.266-0.593-4.346-1.597-5.716   C18.043,0.847,14.612,0,12,0S5.957,0.847,4.597,2.705C3.594,4.075,3.014,6.155,3,8.421c-0.106,0.352-0.461,1.732-0.497,4.603   C0.925,13.177,0,14.078,0,15.5c0,1.891,1.9,3.838,3.014,4.363C3.135,21.472,4.068,24,7,24c2.117,0,3.294-0.669,4.073-1.112   C11.454,22.671,11.756,22.5,12,22.5s0.545,0.171,0.927,0.388C13.706,23.331,14.883,24,17,24c2.932,0,3.865-2.528,3.986-4.137   C22.1,19.338,24,17.391,24,15.5C24,14.078,23.075,13.177,21.497,13.023z"/></svg>