<svg xmlns="http://www.w3.org/2000/svg" enable-background="new 0 0 24 24" viewBox="0 0 24 24"><path fill="#303c42" d="M20.5,18.5c0-0.411,0.242-0.911,0.522-1.49C21.458,16.11,22,14.991,22,13.5   c0-4.152-2.483-11.961-8.434-12.444C13.086,0.488,12.278,0,11.5,0c-1.422,0-3.021,0.52-4.452,1.186C6.888,1.078,6.707,1,6.5,1   C5.951,1,5.506,1.445,5.501,1.993C4.426,2.615,3.57,3.242,3.154,3.639C2.389,4.37,2,5.486,2,6.955C2,7.27,2.148,7.544,2.417,7.726   c0.14,0.095,0.316,0.16,0.515,0.205C2.346,9.735,2,11.725,2,13.5c0,1.491,0.542,2.61,0.978,3.51C3.258,17.589,3.5,18.09,3.5,18.5   c0,1.146-0.456,1.749-0.854,2.146c-0.107,0.107-0.16,0.257-0.144,0.408c0.017,0.15,0.1,0.286,0.228,0.367   c1.068,0.682,1.787,0.551,2.215,0.472c0.081-0.015,0.192-0.035,0.2-0.04c0.007,0.007,0.014,0.014,0.02,0.021   C5.097,22.004,5,22.208,5,22.5c0,0.161,0.077,0.312,0.208,0.406C5.339,23,5.505,23.025,5.659,22.975   c0.757-0.253,2.12-0.036,3.24,0.15C10.019,23.793,11.102,24,12,24s1.981-0.207,3.102-0.876c1.12-0.185,2.482-0.403,3.24-0.15   c0.152,0.05,0.32,0.025,0.451-0.069c0.13-0.094,0.208-0.245,0.208-0.406c0-0.272-0.085-0.469-0.172-0.637   c0.046-0.007,0.146,0.016,0.226,0.031c0.429,0.078,1.147,0.209,2.215-0.472c0.128-0.082,0.211-0.217,0.228-0.367   c0.017-0.151-0.037-0.301-0.144-0.408C20.956,20.249,20.5,19.646,20.5,18.5z"/><path fill="#e57373" d="M21,13.5c0,0.353-0.042,0.677-0.104,0.988c-0.142-0.582-0.468-1.13-1.197-1.446   C19.636,13.014,19.568,13,19.5,13C17.649,13,15,8.878,15,6c0-0.276-0.224-0.5-0.5-0.5S14,5.724,14,6c0,2.581-7.007,7-9.5,7   c-0.068,0-0.136,0.014-0.199,0.042c-0.729,0.317-1.055,0.864-1.197,1.446C3.042,14.177,3,13.853,3,13.5   c0-1.731,0.364-3.763,0.963-5.516C5.352,7.902,7.15,7.333,8.185,6.919c2.308-0.923,5.555-3.777,5.792-4.805   C18.924,2.937,21,9.795,21,13.5z"/><path fill="#01579b" d="M3.845,4.362C4.24,3.985,5.033,3.417,6.013,2.855C6.159,2.939,6.32,3,6.5,3   c0.517,0,0.929-0.4,0.98-0.904C8.812,1.479,10.271,1,11.5,1c0.701,0,1.38,0.676,1.487,0.961c-0.33,0.586-2.895,3.118-5.173,4.029   C5.387,6.961,3.292,7.178,3,6.954C3,5.77,3.284,4.897,3.845,4.362z"/><path fill="#fff" d="M3.513,6.955c0-1.186,0.284-2.058,0.845-2.593   C4.725,4.011,5.444,3.495,6.33,2.973C6.218,2.949,6.111,2.911,6.013,2.855c-0.98,0.562-1.773,1.13-2.168,1.507   C3.284,4.897,3,5.77,3,6.955c0.09,0.069,0.369,0.09,0.76,0.065C3.646,7.008,3.555,6.987,3.513,6.955z" enable-background="new" opacity=".2"/><path fill="#e57373" d="M6.203,21.87c0.007-0.212-0.078-0.452-0.35-0.723c-0.369-0.369-0.784-0.293-1.087-0.237   c-0.261,0.047-0.55,0.101-0.976-0.062c0.37-0.508,0.703-1.241,0.708-2.326c0.247,0.208,0.512,0.373,0.801,0.441   c0.653,1.262,1.354,2.218,2.066,2.943C6.949,21.866,6.557,21.847,6.203,21.87z"/><path fill="#303c42" d="M6.121,18.373L6.07,18.272C5.984,18.105,5.813,18,5.625,18C4.927,18,4,16.285,4,15.5   c0-0.963,0.233-1.309,0.617-1.502c0.621-0.028,1.473-0.273,2.418-0.666c-0.019,0.053-0.034,0.109-0.034,0.169   c0,0.276,0.224,0.5,0.5,0.5c0,0.551,0.449,1,1,1s1-0.449,1-1s-0.449-1-1-1H7.777c2.42-1.147,5.225-3.117,6.512-5.045   c0.781,2.855,3.015,5.928,5.093,6.041C19.766,14.191,20,14.537,20,15.5c0,0.785-0.927,2.5-1.625,2.5   c-0.188,0-0.359,0.105-0.445,0.272l-0.051,0.101C16.326,21.443,14.348,23,12,23S7.674,21.443,6.121,18.373z"/><path fill="#e57373" d="M19.234,20.91c-0.303-0.056-0.719-0.131-1.087,0.237c-0.271,0.271-0.357,0.511-0.35,0.723   c-0.355-0.022-0.746-0.003-1.163,0.036c0.712-0.725,1.414-1.681,2.067-2.943c0.289-0.067,0.554-0.232,0.801-0.441   c0.005,1.086,0.338,1.819,0.708,2.326C19.783,21.011,19.495,20.957,19.234,20.91z"/><linearGradient id="a" x1="17.759" x2="19.456" y1="4.095" y2="2.398" gradientTransform="matrix(1 0 0 -1 0 24)" gradientUnits="userSpaceOnUse"><stop offset="0" stop-opacity=".1"/><stop offset="1" stop-opacity="0"/></linearGradient><path fill="url(#a)" d="M19.234,20.91c-0.303-0.056-0.719-0.131-1.087,0.237c-0.271,0.271-0.357,0.511-0.35,0.723   c-0.355-0.022-0.746-0.003-1.163,0.036c0.712-0.725,1.414-1.681,2.067-2.943c0.289-0.067,0.554-0.232,0.801-0.441   c0.005,1.086,0.338,1.819,0.708,2.326C19.783,21.011,19.495,20.957,19.234,20.91z"/><path fill="#303c42" d="M16.501,14.001c0.276,0,0.5-0.224,0.5-0.5s-0.224-0.5-0.5-0.5h-1c-0.551,0-1,0.449-1,1s0.449,1,1,1   C16.052,15.001,16.501,14.552,16.501,14.001z"/><path fill="#fff" d="M4.416,20.952c0.281-0.51,0.508-1.196,0.559-2.12   c-0.166-0.083-0.326-0.183-0.477-0.31c-0.005,1.086-0.338,1.819-0.708,2.326C4.039,20.943,4.239,20.961,4.416,20.952z" enable-background="new" opacity=".2"/><path fill="#fee8d7" d="M6.121,18.373L6.07,18.272C5.984,18.105,5.812,18,5.625,18C4.927,18,4,16.285,4,15.5   c0-0.963,0.233-1.309,0.617-1.502c0.621-0.028,1.472-0.273,2.417-0.665C7.015,13.385,7,13.44,7,13.5C7,13.776,7.224,14,7.5,14   c0,0.551,0.449,1,1,1s1-0.449,1-1s-0.449-1-1-1H7.779c2.42-1.147,5.224-3.117,6.51-5.044c0.781,2.855,3.015,5.928,5.093,6.041   C19.766,14.191,20,14.537,20,15.5c0,0.785-0.927,2.5-1.625,2.5c-0.188,0-0.359,0.105-0.445,0.272l-0.051,0.101   C16.326,21.443,14.348,23,12,23S7.674,21.443,6.121,18.373z"/><path d="M19.382,13.997c-2.078-0.113-4.312-3.186-5.093-6.041   c-0.062,0.093-0.143,0.186-0.212,0.279c0.74,2.773,2.623,5.653,4.383,5.762C18.796,14.191,19,14.537,19,15.5   c0,0.785-0.811,2.5-1.422,2.5c-0.164,0-0.314,0.105-0.39,0.272l-0.044,0.101C15.785,21.443,14.054,23,12,23   c2.348,0,4.326-1.557,5.879-4.627l0.051-0.101C18.016,18.105,18.188,18,18.375,18C19.073,18,20,16.285,20,15.5   C20,14.536,19.766,14.191,19.382,13.997z" enable-background="new" opacity=".1"/><path fill="#fff" d="M6.856,18.373l-0.044-0.101C6.736,18.105,6.586,18,6.422,18   C5.811,18,5,16.285,5,15.5c0-0.963,0.204-1.309,0.54-1.502c0.4-0.02,0.911-0.16,1.482-0.389C7.014,13.573,7,13.539,7,13.5   c0-0.06,0.015-0.115,0.034-0.168c-0.945,0.393-1.796,0.638-2.417,0.665C4.233,14.191,4,14.537,4,15.5C4,16.285,4.927,18,5.625,18   c0.188,0,0.359,0.105,0.445,0.272l0.051,0.101C7.674,21.443,9.652,23,12,23C9.946,23,8.215,21.443,6.856,18.373z" enable-background="new" opacity=".2"/><path fill="#303c42" d="M16.5,14c0.276,0,0.5-0.224,0.5-0.5S16.776,13,16.5,13h-1c-0.551,0-1,0.449-1,1s0.449,1,1,1   C16.051,15,16.5,14.551,16.5,14z"/><linearGradient id="b" x1="8.332" x2="20.049" y1="20.384" y2="8.665" gradientTransform="matrix(1 0 0 -1 0 24)" gradientUnits="userSpaceOnUse"><stop offset="0" stop-opacity=".1"/><stop offset="1" stop-opacity="0"/></linearGradient><path fill="url(#b)" d="M14,6c0-0.276,0.224-0.5,0.5-0.5S15,5.724,15,6c0,2.878,2.649,7,4.5,7   c0.068,0,0.136,0.014,0.199,0.042c0.729,0.317,1.055,0.864,1.197,1.446C20.958,14.178,21,13.853,21,13.5   c0-3.705-2.076-10.563-7.023-11.385c-0.236,1.028-3.484,3.881-5.792,4.805C7.149,7.334,5.352,7.902,3.963,7.985l3.888,3.888   C10.722,10.39,14,7.766,14,6z"/><path fill="#fff" d="M3.963 7.984C4.19 7.971 4.43 7.94 4.674 7.904 4.431 7.94 4.19 7.971 3.963 7.984zM3.963 7.984c-.288.843-.518 1.75-.683 2.657-.011.062-.024.125-.034.186-.071.413-.126.825-.167 1.231-.008.085-.013.166-.021.249C3.024 12.714 3 13.117 3 13.5c0 .353.042.677.104.988.074-.303.202-.595.407-.852l0 0c.041-1.428.348-3.317.968-5.137L3.963 7.984z" enable-background="new" opacity=".2"/><linearGradient id="c" x1=".96" x2="22.922" y1="16.178" y2="5.937" gradientTransform="matrix(1 0 0 -1 0 24)" gradientUnits="userSpaceOnUse"><stop offset="0" stop-color="#fff" stop-opacity=".2"/><stop offset="1" stop-color="#fff" stop-opacity="0"/></linearGradient><path fill="url(#c)" d="M20.5,18.5c0-0.411,0.242-0.911,0.522-1.49C21.458,16.11,22,14.991,22,13.5   c0-4.152-2.483-11.961-8.434-12.444C13.086,0.488,12.278,0,11.5,0c-1.422,0-3.021,0.52-4.452,1.186C6.888,1.078,6.707,1,6.5,1   C5.951,1,5.506,1.445,5.501,1.993C4.426,2.615,3.57,3.242,3.154,3.639C2.389,4.37,2,5.486,2,6.955C2,7.27,2.148,7.544,2.417,7.726   c0.14,0.095,0.316,0.16,0.515,0.205C2.346,9.735,2,11.725,2,13.5c0,1.491,0.542,2.61,0.978,3.51C3.258,17.589,3.5,18.09,3.5,18.5   c0,1.146-0.456,1.749-0.854,2.146c-0.107,0.107-0.16,0.257-0.144,0.408c0.017,0.15,0.1,0.286,0.228,0.367   c1.068,0.682,1.787,0.551,2.215,0.472c0.081-0.015,0.192-0.035,0.2-0.04c0.007,0.007,0.014,0.014,0.02,0.021   C5.097,22.004,5,22.208,5,22.5c0,0.161,0.077,0.312,0.208,0.406C5.339,23,5.505,23.025,5.659,22.975   c0.757-0.253,2.12-0.036,3.24,0.15C10.019,23.793,11.102,24,12,24s1.981-0.207,3.102-0.876c1.12-0.185,2.482-0.403,3.24-0.15   c0.152,0.05,0.32,0.025,0.451-0.069c0.13-0.094,0.208-0.245,0.208-0.406c0-0.272-0.085-0.469-0.172-0.637   c0.046-0.007,0.146,0.016,0.226,0.031c0.429,0.078,1.147,0.209,2.215-0.472c0.128-0.082,0.211-0.217,0.228-0.367   c0.017-0.151-0.037-0.301-0.144-0.408C20.956,20.249,20.5,19.646,20.5,18.5z"/></svg>