<svg xmlns="http://www.w3.org/2000/svg" enable-background="new 0 0 24 24" viewBox="0 0 24 24"><path fill="#303c42" d="M20.117,11.281C20.405,10.497,21,8.727,21,7.5C21,2.105,17.402,1,12,1   C9.13,1,8.069,1.967,7.701,2.507C4.708,2.641,3,4.808,3,8.5c0,0.826,0.545,2.131,0.854,2.806C3.113,11.863,3,12.751,3,13.5   c0,0.961,0.94,3.12,2.273,3.456c0.032,0.09,0.068,0.195,0.109,0.313C5.924,18.837,7.363,23,12,23s6.076-4.163,6.617-5.73   c0.041-0.118,0.077-0.224,0.109-0.313C20.06,16.62,21,14.461,21,13.5C21,12.74,20.887,11.837,20.117,11.281z"/><path fill="#4d4d4d" d="M8,3.5c0.203,0,0.392-0.139,0.469-0.327C8.474,3.162,8.985,2,12,2c5.906,0,8,1.439,8,5.5   c0,0.79-0.31,1.91-0.578,2.732c-0.047-0.073-0.115-0.134-0.19-0.175c-0.03-0.016-0.729-0.409-0.731-1.557   C18.5,7.649,18.1,6.804,17.402,6.181c-0.805-0.719-2.392-1.509-5.401-1.184c-3.013-0.323-4.602,0.46-5.403,1.176   c-0.695,0.623-1.096,1.47-1.097,2.326C5.499,9.647,4.8,10.04,4.776,10.053c-0.097,0.048-0.175,0.127-0.223,0.223l-0.029,0.059   C4.249,9.666,4,8.92,4,8.5C4,5.229,5.383,3.5,8,3.5z"/><path fill="#fff" d="M4.582,9.082c0-3.271,1.383-5,4-5   c0.203,0,0.392-0.139,0.469-0.327c0.005-0.012,0.517-1.173,3.531-1.173c3.167,0,5.229,0.42,6.469,1.429C17.927,2.573,15.721,2,12,2   C8.985,2,8.474,3.162,8.469,3.173C8.392,3.361,8.203,3.5,8,3.5c-2.617,0-4,1.729-4,5c0,0.42,0.249,1.166,0.523,1.835l0.029-0.059   c0.048-0.096,0.126-0.175,0.223-0.223c0.001,0,0.009-0.006,0.012-0.008C4.667,9.669,4.582,9.322,4.582,9.082z" enable-background="new" opacity=".2"/><path fill="#fee8d7" d="M18.375,16c-0.188,0-0.359,0.105-0.445,0.272c-0.069,0.135-0.153,0.369-0.257,0.67   c-0.384,1.112-1.054,3.035-2.663,4.162c0.042-0.296,0.017-0.56-0.024-0.726c-0.067-0.269-0.342-0.433-0.606-0.364   c-0.269,0.067-0.431,0.338-0.364,0.606c0.001,0.004,0.096,0.45-0.182,0.806c-0.208,0.266-0.595,0.438-1.121,0.519l0.262-0.787   c0.087-0.262-0.055-0.545-0.316-0.632c-0.26-0.087-0.544,0.054-0.633,0.316L12,20.919l-0.025-0.077   c-0.088-0.263-0.369-0.403-0.633-0.316c-0.262,0.087-0.403,0.37-0.316,0.632l0.262,0.787c-0.52-0.08-0.905-0.249-1.114-0.51   c-0.287-0.359-0.191-0.801-0.188-0.814c0.066-0.268-0.096-0.539-0.364-0.606c-0.273-0.068-0.54,0.095-0.606,0.364   c-0.042,0.167-0.066,0.43-0.024,0.726c-1.609-1.127-2.279-3.05-2.663-4.162c-0.104-0.302-0.188-0.535-0.257-0.67   C5.984,16.105,5.812,16,5.625,16C4.927,16,4,14.285,4,13.5c0-1.03,0.268-1.354,0.699-1.542l-0.012-0.027   c0.108-0.039,0.205-0.1,0.26-0.208l0.438-0.875C5.729,10.61,6.498,9.918,6.5,8.5c0.001-0.572,0.279-1.148,0.764-1.582   c0.654-0.585,1.998-1.222,4.681-0.922C11.982,6,12.019,6,12.056,5.996c2.675-0.298,4.021,0.342,4.68,0.929   c0.485,0.434,0.764,1.008,0.765,1.574c0.002,1.417,0.771,2.109,1.115,2.348l0.438,0.875c0.054,0.107,0.148,0.176,0.254,0.221   l-0.006,0.013C19.732,12.146,20,12.47,20,13.5C20,14.285,19.073,16,18.375,16z"/><path fill="#fff" d="M7.036,16.943c-0.091-0.302-0.164-0.535-0.225-0.67   C6.736,16.105,6.586,16,6.422,16C5.811,16,5,14.285,5,13.5c0-1.03,0.234-1.354,0.612-1.542l-0.01-0.027   c0.094-0.039,0.18-0.1,0.227-0.208l0.383-0.875C6.513,10.61,7.186,9.918,7.188,8.5c0.001-0.572,0.244-1.148,0.668-1.582   c0.49-0.5,1.428-1.034,3.156-0.992C8.941,5.852,7.837,6.405,7.264,6.918C6.78,7.351,6.501,7.928,6.5,8.5   c-0.002,1.417-0.771,2.109-1.115,2.348l-0.438,0.875c-0.054,0.108-0.152,0.169-0.26,0.208l0.012,0.027C4.268,12.146,4,12.47,4,13.5   C4,14.285,4.927,16,5.625,16c0.187,0,0.359,0.105,0.445,0.272c0.069,0.135,0.153,0.369,0.257,0.67   c0.384,1.112,1.054,3.035,2.663,4.162c-0.019-0.132-0.02-0.253-0.017-0.366C7.849,19.596,7.339,17.943,7.036,16.943z" enable-background="new" opacity=".2"/><path d="M19.301,11.958l0.006-0.013c-0.106-0.046-0.2-0.114-0.254-0.221   l-0.438-0.875c-0.344-0.238-1.113-0.93-1.115-2.348c-0.001-0.566-0.279-1.14-0.765-1.574c-0.577-0.515-1.685-1.07-3.751-0.998   c1.726-0.041,2.667,0.495,3.16,0.998c0.425,0.434,0.668,1.008,0.669,1.574c0.002,1.417,0.675,2.109,0.976,2.348l0.383,0.875   c0.047,0.107,0.13,0.176,0.222,0.221l-0.005,0.013C18.766,12.146,19,12.47,19,13.5c0,0.785-0.811,2.5-1.422,2.5   c-0.164,0-0.314,0.105-0.39,0.272c-0.061,0.135-0.134,0.369-0.225,0.67c-0.303,1.001-0.813,2.653-1.937,3.796   c0.003,0.113,0.002,0.234-0.017,0.366c1.609-1.127,2.279-3.05,2.663-4.162c0.104-0.302,0.188-0.535,0.257-0.67   C18.015,16.105,18.187,16,18.374,16c0.698,0,1.625-1.715,1.625-2.5C20,12.47,19.732,12.146,19.301,11.958z" enable-background="new" opacity=".1"/><circle cx="8.5" cy="12.5" r="1" fill="#303c42"/><circle cx="15.5" cy="12.5" r="1" fill="#303c42"/><path fill="#303c42" d="M11.379,17.015l-2,0.5C9.156,17.571,9,17.771,9,18v0.5C9,18.776,9.224,19,9.5,19s0.5-0.224,0.5-0.5   v-0.109l1.621-0.406c0.269-0.067,0.431-0.338,0.364-0.606C11.918,17.111,11.642,16.945,11.379,17.015z"/><path fill="#303c42" d="M14.621,17.515l-2-0.5c-0.271-0.069-0.54,0.096-0.606,0.364s0.096,0.539,0.364,0.606L14,18.391V18.5   c0,0.276,0.224,0.5,0.5,0.5s0.5-0.224,0.5-0.5V18C15,17.771,14.844,17.571,14.621,17.515z"/><linearGradient id="a" x1="2.728" x2="20.436" y1="16.905" y2="8.648" gradientTransform="matrix(1 0 0 -1 0 24)" gradientUnits="userSpaceOnUse"><stop offset="0" stop-color="#fff" stop-opacity=".2"/><stop offset="1" stop-color="#fff" stop-opacity="0"/></linearGradient><path fill="url(#a)" d="M20.117,11.281C20.405,10.497,21,8.727,21,7.5C21,2.105,17.402,1,12,1   C9.13,1,8.069,1.967,7.701,2.507C4.708,2.641,3,4.808,3,8.5c0,0.826,0.545,2.131,0.854,2.806C3.113,11.863,3,12.751,3,13.5   c0,0.961,0.94,3.12,2.273,3.456c0.032,0.09,0.068,0.195,0.109,0.313C5.924,18.837,7.363,23,12,23s6.076-4.163,6.617-5.73   c0.041-0.118,0.077-0.224,0.109-0.313C20.06,16.62,21,14.461,21,13.5C21,12.74,20.887,11.837,20.117,11.281z"/></svg>