<svg xmlns="http://www.w3.org/2000/svg" enable-background="new 0 0 24 24" viewBox="0 0 24 24"><path fill="#303c42" d="M24,5c0-1.139-1.487-4-5-4c-0.772,0-1.562,0.054-2.322,0.136C16.215,0.745,14.948,0,12,0   S7.785,0.745,7.322,1.136C6.562,1.054,5.772,1,5,1C1.487,1,0,3.861,0,5c0,0.846,2.137,2.999,4,4.718v8.436   C3.707,18.329,3.5,18.635,3.5,19s0.207,0.672,0.5,0.846v0.307c-0.293,0.175-0.5,0.481-0.5,0.846s0.207,0.672,0.5,0.846v1.654   c0,0.276,0.224,0.5,0.5,0.5s0.5-0.224,0.5-0.5v-1.654c0.293-0.175,0.5-0.481,0.5-0.846S5.293,20.327,5,20.153v-0.307   C5.293,19.671,5.5,19.365,5.5,19S5.293,18.328,5,18.154V9.725c0.132-0.117,0.301-0.247,0.5-0.383V19v2v2.5   C5.5,23.776,5.724,24,6,24h0.5C6.776,24,7,23.776,7,23.5v-4.63c0.641,0.594,1.531,1.194,2.557,1.609   C9.715,21.317,10,22.952,10,23.5c0,0.276,0.224,0.5,0.5,0.5s0.5-0.224,0.5-0.5c0-0.845,0.302-2.5,1-2.5c0.748,0,1,1.717,1,2.5   c0,0.276,0.224,0.5,0.5,0.5s0.5-0.224,0.5-0.5c0-0.548,0.285-2.183,0.443-3.021c1.027-0.416,1.916-1.016,2.557-1.609v4.63   c0,0.276,0.224,0.5,0.5,0.5H18c0.276,0,0.5-0.224,0.5-0.5V16V9.341c0.199,0.136,0.368,0.267,0.5,0.383v5.429   c-0.293,0.175-0.5,0.481-0.5,0.846s0.207,0.672,0.5,0.846v6.654c0,0.276,0.224,0.5,0.5,0.5s0.5-0.224,0.5-0.5v-6.654   c0.293-0.175,0.5-0.481,0.5-0.846s-0.207-0.672-0.5-0.846V9.717C21.863,7.999,24,5.846,24,5z"/><path fill="#6d4c41" d="M23.003 4.969c-.106.469-1.844 2.301-3.51 3.857-.628-.506-1.624-1.089-2.782-1.458-.003-.001-.012-.006-.014-.007-.013-.006-.026-.004-.04-.008-.602-.188-1.244-.321-1.905-.347-.58-.834-1.533-2.932-2.063-4.161C13.837 2.573 16.555 2 19 2 21.956 2 23 4.389 23.003 4.969zM12 3.767C12.416 4.713 13.035 6.061 13.575 7h-3.149C10.965 6.061 11.584 4.713 12 3.767z"/><path fill="#fff" d="M12,3.767C12.416,4.713,13.035,6.061,13.575,7h-3.149   C10.965,6.061,11.584,4.713,12,3.767z" enable-background="new" opacity=".1"/><path fill="#6d4c41" d="M12,1c1.375,0,2.303,0.174,2.937,0.373C13.495,1.61,12.367,1.888,12,1.983   c-0.367-0.095-1.494-0.372-2.935-0.609C9.699,1.174,10.626,1,12,1z"/><path fill="#fff" d="M12,1c1.375,0,2.303,0.174,2.937,0.373   C13.495,1.61,12.367,1.888,12,1.983c-0.367-0.095-1.494-0.372-2.935-0.609C9.699,1.174,10.626,1,12,1z" enable-background="new" opacity=".1"/><path fill="#6d4c41" d="M1 5c0-.611 1.044-3 4-3 2.445 0 5.163.573 6.311.844-.53 1.229-1.483 3.326-2.063 4.161C8.586 7.031 7.943 7.165 7.34 7.353 7.328 7.357 7.315 7.356 7.303 7.361 7.3 7.362 7.292 7.367 7.289 7.368 6.131 7.737 5.135 8.32 4.507 8.826 2.841 7.27 1.104 5.44 1 5zM23.003 4.969c-.106.469-1.844 2.301-3.51 3.857-.628-.506-1.624-1.089-2.782-1.458-.003-.001-.012-.006-.014-.007-.013-.006-.026-.004-.04-.008-.602-.188-1.244-.321-1.905-.347-.58-.834-1.533-2.932-2.063-4.161C13.837 2.573 16.555 2 19 2 21.956 2 23 4.389 23.003 4.969z"/><path fill="#6d4c41" d="M1,5c0-0.611,1.044-3,4-3c2.445,0,5.163,0.573,6.311,0.844c-0.53,1.229-1.483,3.326-2.063,4.161   C8.586,7.031,7.943,7.165,7.34,7.353C7.328,7.357,7.315,7.356,7.303,7.361C7.3,7.362,7.292,7.367,7.289,7.368   C6.131,7.737,5.135,8.32,4.507,8.826C2.841,7.27,1.104,5.44,1,5z"/><path fill="#6d4c41" d="M1,5c0-0.611,1.044-3,4-3c2.445,0,5.163,0.573,6.311,0.844c-0.53,1.229-1.483,3.326-2.063,4.161   C8.586,7.031,7.943,7.165,7.34,7.353C7.328,7.357,7.315,7.356,7.303,7.361C7.3,7.362,7.292,7.367,7.289,7.368   C6.131,7.737,5.135,8.32,4.507,8.826C2.841,7.27,1.104,5.44,1,5z"/><path fill="#fff" d="M19 2.579c2.499 0 3.621 1.699 3.914 2.577.041-.071.079-.141.089-.187C23 4.389 21.956 2 19 2c-2.445 0-5.163.573-6.311.844.07.162.147.339.23.526C14.165 3.085 16.695 2.579 19 2.579zM5 2.579c2.305 0 4.835.506 6.081.792.083-.187.16-.365.23-.526C10.163 2.573 7.445 2 5 2 2.044 2 1 4.389 1 5c.01.043.048.109.087.177C1.377 4.28 2.499 2.579 5 2.579z" enable-background="new" opacity=".1"/><path fill="#fee8d7" d="M12,20c-2.382,0-4.565-1.893-5-2.643v-6.521C7.653,10.585,9.446,10,12,10   c2.542,0,4.343,0.586,5,0.837v6.52C16.565,18.107,14.382,20,12,20z"/><path fill="#d32f2f" d="M16.95,9.757C16.026,9.447,14.308,9,12,9S7.974,9.447,7.05,9.757   C7.184,8.744,7.564,8.38,7.679,8.296C8.251,8.121,8.865,8,9.5,8h5c0.636,0,1.249,0.121,1.821,0.296   C16.44,8.385,16.817,8.753,16.95,9.757z"/><linearGradient id="a" x1="9.314" x2="14.685" y1="17.349" y2="11.978" gradientTransform="matrix(1 0 0 -1 0 24)" gradientUnits="userSpaceOnUse"><stop offset="0" stop-opacity=".1"/><stop offset="1" stop-opacity="0"/></linearGradient><path fill="url(#a)" d="M16.95,9.757C16.026,9.447,14.308,9,12,9S7.974,9.447,7.05,9.757   C7.184,8.744,7.564,8.38,7.679,8.296C8.251,8.121,8.865,8,9.5,8h5c0.636,0,1.249,0.121,1.821,0.296   C16.44,8.385,16.817,8.753,16.95,9.757z"/><linearGradient id="b" x1="9.278" x2="17.589" y1="15.442" y2="7.13" gradientTransform="matrix(1 0 0 -1 0 24)" gradientUnits="userSpaceOnUse"><stop offset="0" stop-opacity=".1"/><stop offset="1" stop-opacity="0"/></linearGradient><path fill="url(#b)" d="M17,10.837C16.343,10.586,14.542,10,12,10c-2.554,0-4.347,0.585-5,0.836v0.888l7.593,7.593   c1.218-0.619,2.141-1.502,2.407-1.961V10.837z"/><path fill="#303c42" d="M9,13c0.552,0,1-0.449,1-1c0-0.276-0.224-0.5-0.5-0.5h-1C8.224,11.5,8,11.724,8,12   C8,12.551,8.448,13,9,13z"/><circle cx="15" cy="12" r="1" fill="#303c42"/><path fill="#303c42" d="M11.5 15c-.225 0-.415.148-.478.352C10.909 15.407 10.595 15.5 10 15.5c-1.365 0-1.836.602-1.916.723-.153.23-.099.551.131.704.089.059.188.087.284.087.156 0 .308-.074.401-.216C8.903 16.795 9.163 16.5 10 16.5c1.74 0 2-.626 2-1C12 15.224 11.776 15 11.5 15zM14 15.5c-.596 0-.909-.093-1.022-.148C12.915 15.148 12.725 15 12.5 15c-.276 0-.5.224-.5.5 0 .374.26 1 2 1 .812 0 1.08.278 1.084.278l0 0C15.181 16.922 15.339 17 15.5 17c.096 0 .192-.027.277-.084.229-.153.292-.463.139-.693C15.836 16.102 15.365 15.5 14 15.5zM12.658 17.026c-.26-.085-.544.054-.633.316L12 17.419l-.025-.077c-.088-.262-.369-.401-.633-.316-.262.087-.403.37-.316.632l.5 1.5c.068.204.26.342.475.342s.406-.138.475-.342l.5-1.5C13.062 17.396 12.92 17.113 12.658 17.026z"/><linearGradient id="c" x1="-.858" x2="22.885" y1="17.649" y2="6.578" gradientTransform="matrix(1 0 0 -1 0 24)" gradientUnits="userSpaceOnUse"><stop offset="0" stop-color="#fff" stop-opacity=".2"/><stop offset="1" stop-color="#fff" stop-opacity="0"/></linearGradient><path fill="url(#c)" d="M24,5c0-1.139-1.487-4-5-4c-0.772,0-1.562,0.054-2.322,0.136C16.215,0.745,14.948,0,12,0   S7.785,0.745,7.322,1.136C6.562,1.054,5.772,1,5,1C1.487,1,0,3.861,0,5c0,0.846,2.137,2.999,4,4.718v8.436   C3.707,18.329,3.5,18.635,3.5,19s0.207,0.672,0.5,0.846v0.307c-0.293,0.175-0.5,0.481-0.5,0.846s0.207,0.672,0.5,0.846v1.654   c0,0.276,0.224,0.5,0.5,0.5s0.5-0.224,0.5-0.5v-1.654c0.293-0.175,0.5-0.481,0.5-0.846S5.293,20.327,5,20.153v-0.307   C5.293,19.671,5.5,19.365,5.5,19S5.293,18.328,5,18.154V9.725c0.132-0.117,0.301-0.247,0.5-0.383V19v2v2.5   C5.5,23.776,5.724,24,6,24h0.5C6.776,24,7,23.776,7,23.5v-4.63c0.641,0.594,1.531,1.194,2.557,1.609   C9.715,21.317,10,22.952,10,23.5c0,0.276,0.224,0.5,0.5,0.5s0.5-0.224,0.5-0.5c0-0.845,0.302-2.5,1-2.5c0.748,0,1,1.717,1,2.5   c0,0.276,0.224,0.5,0.5,0.5s0.5-0.224,0.5-0.5c0-0.548,0.285-2.183,0.443-3.021c1.027-0.416,1.916-1.016,2.557-1.609v4.63   c0,0.276,0.224,0.5,0.5,0.5H18c0.276,0,0.5-0.224,0.5-0.5V16V9.341c0.199,0.136,0.368,0.267,0.5,0.383v5.429   c-0.293,0.175-0.5,0.481-0.5,0.846s0.207,0.672,0.5,0.846v6.654c0,0.276,0.224,0.5,0.5,0.5s0.5-0.224,0.5-0.5v-6.654   c0.293-0.175,0.5-0.481,0.5-0.846s-0.207-0.672-0.5-0.846V9.717C21.863,7.999,24,5.846,24,5z"/></svg>