<svg xmlns="http://www.w3.org/2000/svg" enable-background="new 0 0 24 24" viewBox="0 0 24 24"><path fill="#303c42" d="M24,11.5c0-1.607-0.874-3.176-2.007-3.966C21.994,7.522,22,7.512,22,7.5C22,4.912,19.408,1,15.5,1   c-2.051,0-3.033,0.228-3.5,0.429C11.533,1.228,10.551,1,8.5,1C4.592,1,2,4.912,2,7.5c0,0.012,0.006,0.022,0.007,0.034   C0.874,8.324,0,9.893,0,11.5c0,1.169,0.312,2.016,0.62,2.586C0.28,14.614,0,15.378,0,16.5c0,2.286,1.556,3.279,2.379,3.485   c0.149,0.037,0.308,0.004,0.429-0.091c0.019-0.015,0.036-0.03,0.052-0.047c0.73,1.144,1.566,1.652,2.641,1.652   c0.51,0,1.048-0.137,1.577-0.386C8.11,22.145,9.653,23,12,23s3.89-0.855,4.923-1.886c0.529,0.25,1.068,0.386,1.577,0.386   c1.074,0,1.911-0.509,2.641-1.652c0.016,0.017,0.033,0.032,0.052,0.047c0.122,0.095,0.279,0.126,0.429,0.091   C22.444,19.779,24,18.786,24,16.5c0-1.122-0.28-1.886-0.62-2.414C23.688,13.516,24,12.669,24,11.5z"/><path fill="#fee8d7" d="M12,22c-4.144,0-5.362-3.029-5.883-4.323c-0.066-0.164-0.121-0.298-0.167-0.394   C5.867,17.11,5.692,17,5.5,17C4.872,17,4,15.265,4,14.5c0-1.071,0.341-1.376,0.709-1.546c0.157-0.072,0.265-0.221,0.287-0.392   c0.113-0.898,0.552-3.139,1.348-4.214c0.715,1.186,1.937,1.605,1.998,1.626c0.152,0.048,0.319,0.025,0.45-0.069   C8.922,9.812,9,9.661,9,9.5c0-0.748,0.112-1.91,0.387-2.761c0.705,1.17,2.145,2.063,2.356,2.189c0.158,0.096,0.356,0.096,0.515,0   c0.211-0.126,1.651-1.02,2.356-2.189C14.888,7.59,15,8.752,15,9.5c0,0.161,0.078,0.312,0.208,0.405   c0.129,0.095,0.297,0.117,0.45,0.069c0.061-0.021,1.283-0.44,1.998-1.626c0.796,1.075,1.235,3.315,1.348,4.214   c0.021,0.171,0.13,0.319,0.287,0.392C19.66,13.124,20,13.429,20,14.5c0,0.765-0.872,2.5-1.5,2.5c-0.192,0-0.367,0.11-0.451,0.283   c-0.046,0.096-0.101,0.229-0.167,0.394C17.362,18.971,16.144,22,12,22z"/><linearGradient id="a" x1="12.007" x2="16.301" y1="7.973" y2="3.679" gradientTransform="matrix(1 0 0 -1 0 24)" gradientUnits="userSpaceOnUse"><stop offset="0" stop-opacity=".1"/><stop offset="1" stop-opacity="0"/></linearGradient><path fill="url(#a)" d="M13.639,14.857l-0.001,0.001C13.865,15.182,14,15.575,14,16c0,1.103-0.897,2-2,2   c-0.543,0-1.035-0.219-1.395-0.572l4.049,4.049c1.491-0.666,2.308-1.844,2.793-2.813L13.639,14.857z"/><path fill="#7cb342" d="M22,18.698V18c0-0.239-0.17-0.445-0.405-0.491c-0.236-0.045-0.47,0.083-0.559,0.306   c-0.946,2.366-1.813,2.686-2.536,2.686c-0.281,0-0.582-0.078-0.887-0.192c0.632-0.863,0.986-1.731,1.198-2.258   c0.014-0.034,0.027-0.067,0.04-0.098c1.262-0.349,2.15-2.494,2.15-3.452c0-0.736-0.114-1.748-1.04-2.319   c-0.146-0.983-0.721-4.122-2.183-5.097c-0.13-0.088-0.293-0.109-0.439-0.057c-0.147,0.051-0.263,0.167-0.312,0.314   c-0.218,0.654-0.675,1.087-1.058,1.35c-0.074-1.033-0.317-2.748-1.114-3.545c-0.143-0.143-0.357-0.184-0.545-0.108   C14.122,5.115,14,5.298,14,5.5c0,0.869-1.289,1.923-2,2.405c-0.711-0.482-2-1.536-2-2.405c0-0.202-0.122-0.385-0.309-0.462   C9.504,4.962,9.29,5.004,9.146,5.146C8.348,5.944,8.105,7.663,8.031,8.695C7.649,8.434,7.194,8.003,6.973,7.341   C6.924,7.194,6.808,7.077,6.661,7.027c-0.146-0.052-0.31-0.03-0.439,0.057c-1.462,0.975-2.037,4.113-2.183,5.097   C3.114,12.752,3,13.764,3,14.5c0,0.958,0.888,3.104,2.15,3.452c0.012,0.03,0.025,0.063,0.04,0.098   c0.212,0.527,0.565,1.395,1.198,2.258C6.082,20.422,5.781,20.5,5.5,20.5c-0.723,0-1.589-0.319-2.536-2.686   c-0.089-0.222-0.322-0.35-0.559-0.306C2.17,17.555,2,17.761,2,18v0.697c-0.458-0.333-1-0.984-1-2.197   c0-2.058,1.103-2.505,1.165-2.528c0.258-0.089,0.396-0.37,0.31-0.63c-0.087-0.262-0.368-0.405-0.632-0.316   c-0.024,0.008-0.231,0.091-0.491,0.277C1.161,12.858,1,12.268,1,11.5C1,9.799,2.285,8,3.5,8C3.776,8,4,7.776,4,7.5S3.776,7,3.5,7   C3.341,7,3.184,7.038,3.027,7.072C3.293,4.886,5.509,2,8.5,2c2.609,0,3.169,0.386,3.146,0.354c0.196,0.196,0.473,0.23,0.667,0.035   C12.337,2.372,12.917,2,15.5,2c2.991,0,5.207,2.886,5.473,5.072C20.816,7.038,20.659,7,20.5,7C20.224,7,20,7.224,20,7.5   S20.224,8,20.5,8c1.215,0,2.5,1.799,2.5,3.5c0,0.768-0.161,1.358-0.351,1.802c-0.26-0.186-0.467-0.269-0.491-0.277   c-0.259-0.088-0.535,0.053-0.625,0.31c-0.091,0.258,0.046,0.542,0.302,0.637C21.882,13.989,23,14.429,23,16.5   C23,17.715,22.458,18.366,22,18.698z"/><path fill="#303c42" d="M14.829,17.828c-1.511,1.512-4.146,1.512-5.657,0c-0.195-0.195-0.512-0.195-0.707,0   s-0.195,0.512,0,0.707C9.409,19.479,10.665,20,12,20s2.591-0.521,3.536-1.465c0.195-0.195,0.195-0.512,0-0.707   S15.024,17.633,14.829,17.828z"/><circle cx="8.5" cy="13" r="1" fill="#303c42"/><circle cx="15.5" cy="13" r="1" fill="#303c42"/><linearGradient id="b" x1="9.835" x2="19.98" y1="17.745" y2="7.601" gradientTransform="matrix(1 0 0 -1 0 24)" gradientUnits="userSpaceOnUse"><stop offset="0" stop-opacity=".1"/><stop offset="1" stop-opacity="0"/></linearGradient><path fill="url(#b)" d="M17.116,19.263c0.371-0.602,0.604-1.18,0.767-1.586c0.066-0.164,0.121-0.298,0.167-0.394   C18.133,17.11,18.308,17,18.5,17c0.628,0,1.5-1.735,1.5-2.5c0-1.071-0.341-1.376-0.709-1.546c-0.157-0.072-0.265-0.221-0.287-0.392   c-0.113-0.898-0.552-3.139-1.348-4.214c-0.715,1.186-1.937,1.605-1.998,1.626c-0.153,0.048-0.321,0.025-0.45-0.069   C15.078,9.812,15,9.661,15,9.5c0-0.748-0.112-1.91-0.387-2.761c-0.705,1.17-2.145,2.063-2.356,2.189   c-0.158,0.096-0.356,0.096-0.515,0c-0.211-0.126-1.651-1.02-2.356-2.189C9.112,7.59,9,8.752,9,9.5c0,0.161-0.078,0.312-0.208,0.405   C8.661,10,8.494,10.022,8.342,9.974c-0.045-0.015-0.728-0.252-1.37-0.856L17.116,19.263z"/><linearGradient id="c" x1="6.893" x2="6.91" y1="14.961" y2="14.943" gradientTransform="matrix(1 0 0 -1 0 24)" gradientUnits="userSpaceOnUse"><stop offset="0" stop-opacity=".1"/><stop offset="1" stop-opacity="0"/></linearGradient><path fill="url(#c)" d="M6.893,9.039l0.001,0.002L6.91,9.057C6.904,9.052,6.899,9.045,6.893,9.039z"/><circle cx="12" cy="16" r="2" fill="#d32f2f"/><circle cx="11.28" cy="14.968" r=".468" fill="#fff" enable-background="new" opacity=".2"/><linearGradient id="d" x1="1.622" x2="24.022" y1="17.038" y2="6.593" gradientTransform="matrix(1 0 0 -1 0 24)" gradientUnits="userSpaceOnUse"><stop offset="0" stop-color="#fff" stop-opacity=".2"/><stop offset="1" stop-color="#fff" stop-opacity="0"/></linearGradient><path fill="url(#d)" d="M24,11.5c0-1.607-0.874-3.176-2.007-3.966C21.994,7.522,22,7.512,22,7.5   C22,4.912,19.408,1,15.5,1c-2.051,0-3.033,0.228-3.5,0.429C11.533,1.228,10.551,1,8.5,1C4.592,1,2,4.912,2,7.5   c0,0.012,0.006,0.022,0.007,0.034C0.874,8.324,0,9.893,0,11.5c0,1.169,0.312,2.016,0.62,2.586C0.28,14.614,0,15.378,0,16.5   c0,2.286,1.556,3.279,2.379,3.485c0.149,0.037,0.308,0.004,0.429-0.091c0.019-0.015,0.036-0.03,0.052-0.047   c0.73,1.144,1.566,1.652,2.641,1.652c0.51,0,1.048-0.137,1.577-0.386C8.11,22.145,9.653,23,12,23s3.89-0.855,4.923-1.886   c0.529,0.25,1.068,0.386,1.577,0.386c1.074,0,1.911-0.509,2.641-1.652c0.016,0.017,0.033,0.032,0.052,0.047   c0.122,0.095,0.279,0.126,0.429,0.091C22.444,19.779,24,18.786,24,16.5c0-1.122-0.28-1.886-0.62-2.414   C23.688,13.516,24,12.669,24,11.5z"/></svg>