<svg xmlns="http://www.w3.org/2000/svg" enable-background="new 0 0 24 24" viewBox="0 0 24 24"><path fill="#303c42" d="M20.854,9.146c-0.193-0.193-0.502-0.192-0.698-0.003c-0.037,0.036-0.061,0.079-0.084,0.122   C20.031,9.044,20,8.802,20,8.5C20,3.893,16.336,0,12,0S4,3.893,4,8.5c0,0.299-0.03,0.54-0.071,0.76   C3.907,9.22,3.887,9.18,3.853,9.146c-0.195-0.195-0.512-0.195-0.707,0C3.029,9.264,2,10.383,2,13.5c0,3.17,3.018,6.225,3.146,6.354   C5.244,19.951,5.372,20,5.5,20s0.255-0.049,0.353-0.146c0.195-0.195,0.196-0.511,0.001-0.707c-0.017-0.017-1.033-1.052-1.849-2.468   c0.02-0.557,0.09-1.279,0.209-1.811c0.261,0.234,0.537,0.444,0.8,0.631c0.123,1.297,1.031,3.92,1.909,5.407H6.922   C7.638,22.234,8.941,24,12,24s4.362-1.766,5.077-3.094h-0.001c0.878-1.487,1.787-4.11,1.909-5.407   c0.264-0.188,0.539-0.398,0.8-0.631c0.118,0.532,0.188,1.255,0.209,1.811c-0.815,1.416-1.831,2.45-1.849,2.467   c-0.195,0.196-0.194,0.512,0.001,0.707C18.245,19.951,18.372,20,18.5,20s0.256-0.049,0.354-0.146C18.982,19.725,22,16.67,22,13.5   C22,10.383,20.971,9.264,20.854,9.146z"/><path fill="#455a64" d="M13.934,1.32C13.465,4.02,12.553,6,12,6s-1.465-1.98-1.934-4.68C10.701,1.111,11.355,1,12,1   S13.299,1.111,13.934,1.32z"/><path fill="#455a64" d="M9.116,1.719C9.425,3.377,10.295,7,12,7s2.575-3.623,2.884-5.281c0.74,0.372,1.432,0.88,2.031,1.508   c-0.358,1.148-1.634,3.069-2.591,4.503c-0.622,0.932-1.113,1.668-1.284,2.076c-0.247,0.588-0.757,0.959-1.039,1.128   c-0.282-0.169-0.792-0.54-1.039-1.127C10.791,9.399,10.3,8.663,9.678,7.731C8.721,6.297,7.445,4.376,7.087,3.228   C7.685,2.599,8.376,2.091,9.116,1.719z"/><path fill="#e53935" d="M3,13.5c0-0.256,0.014-0.482,0.028-0.707c0.049,0.452,0.199,0.849,0.421,1.197   c-0.105,0.24-0.185,0.528-0.247,0.836C3.079,14.389,3,13.943,3,13.5z"/><path fill="#455a64" d="M6.171 16.378c.195.192.426.386.668.588C7.655 17.648 8.5 18.354 8.5 19.5c0 .497-.051 1.293-.367 1.466-.042-.054-.095-.137-.147-.219-.063-.105-.126-.211-.182-.315l-.002.001C7.277 19.498 6.511 17.753 6.171 16.378zM10.143 22.668c.262-.485.596-1.15.759-1.668h2.195c.163.518.497 1.182.759 1.668C13.343 22.869 12.741 23 12 23S10.657 22.869 10.143 22.668zM16.199 20.434l-.002-.001c-.056.104-.119.209-.182.315-.052.082-.105.165-.147.219-.316-.173-.367-.969-.367-1.466 0-1.146.844-1.852 1.661-2.534.242-.202.473-.396.668-.588C17.489 17.753 16.723 19.498 16.199 20.434z"/><path d="M6.171 16.378c.195.192.426.386.668.588C7.655 17.648 8.5 18.354 8.5 19.5c0 .497-.051 1.293-.367 1.466-.042-.054-.095-.137-.147-.219-.063-.105-.126-.211-.182-.315l-.002.001C7.277 19.498 6.511 17.753 6.171 16.378zM16.199 20.434l-.002-.001c-.056.104-.119.209-.182.315-.052.082-.105.165-.147.219-.316-.173-.367-.969-.367-1.466 0-1.146.844-1.852 1.661-2.534.242-.202.473-.396.668-.588C17.489 17.753 16.723 19.498 16.199 20.434z" enable-background="new" opacity=".1"/><path fill="#455a64" d="M18.227,14.811c-0.009,0.005-0.017,0.011-0.025,0.018c-0.021,0.015-0.042,0.029-0.062,0.043   c-0.373,0.261-0.725,0.507-0.993,0.774c-0.181,0.181-0.399,0.362-0.627,0.552c-0.9,0.752-2.02,1.688-2.02,3.301   c0,1.164,0.254,1.916,0.747,2.267c-0.151,0.153-0.321,0.296-0.506,0.43c-0.382-0.71-0.734-1.478-0.741-1.697   c0-0.276-0.224-0.5-0.5-0.5h-3c-0.27,0-0.491,0.229-0.5,0.499c-0.007,0.22-0.359,0.987-0.741,1.698   c-0.184-0.134-0.354-0.277-0.506-0.43C9.245,21.415,9.5,20.663,9.5,19.499c0-1.614-1.12-2.549-2.02-3.301   c-0.228-0.19-0.446-0.371-0.627-0.552c-0.268-0.268-0.62-0.514-0.993-0.774c-0.021-0.015-0.041-0.029-0.062-0.043   c-0.008-0.006-0.017-0.012-0.025-0.018C4.887,14.19,4,13.537,4,12.5c0-0.78,0.2-1.194,0.432-1.674C4.698,10.274,5,9.649,5,8.5   c0-1.703,0.523-3.191,1.355-4.386c0.544,1.247,1.599,2.835,2.49,4.171c0.545,0.817,1.06,1.588,1.194,1.908   c0.51,1.213,1.712,1.743,1.763,1.765C11.865,11.986,11.933,12,12,12s0.135-0.014,0.198-0.041c0.051-0.022,1.253-0.552,1.763-1.766   c0.134-0.319,0.649-1.091,1.194-1.908c0.891-1.336,1.946-2.924,2.49-4.171C18.477,5.309,19,6.797,19,8.5   c0,1.149,0.302,1.774,0.568,2.326C19.8,11.306,20,11.72,20,12.5C20,13.537,19.113,14.19,18.227,14.811z"/><path d="M9.032 21.767c.45-.351.682-1.103.682-2.267 0-1.614-1.023-2.549-1.846-3.301-.208-.19-.408-.371-.573-.552-.245-.268-.566-.514-.907-.774-.019-.015-.037-.029-.057-.043-.008-.006-.015-.012-.023-.018-.81-.621-1.621-1.274-1.621-2.311 0-.78.183-1.194.395-1.674.243-.551.519-1.176.519-2.326 0-1.493.382-2.809.986-3.919C6.51 4.427 6.419 4.262 6.355 4.115 5.523 5.309 5 6.797 5 8.5c0 1.149-.302 1.774-.568 2.326C4.2 11.306 4 11.72 4 12.5c0 1.037.887 1.69 1.773 2.311.009.005.017.011.025.018.021.015.042.029.062.043.373.261.725.507.993.774.181.181.399.362.627.552.9.752 2.02 1.688 2.02 3.301 0 1.164-.254 1.916-.747 2.267.151.153.321.296.506.43.026-.049.05-.098.076-.148C9.231 21.957 9.123 21.867 9.032 21.767zM19.568 10.826C19.302 10.274 19 9.649 19 8.5c0-1.703-.523-3.191-1.355-4.386-.064.147-.155.311-.232.467.603 1.11.986 2.425.986 3.919 0 1.149.276 1.774.519 2.326.212.48.395.895.395 1.674 0 1.037-.81 1.69-1.621 2.311-.008.005-.016.011-.023.018-.019.015-.038.029-.057.043-.341.261-.663.507-.907.774-.166.181-.365.362-.573.552-.823.752-1.846 1.688-1.846 3.301 0 1.164.232 1.916.682 2.267-.091.1-.199.19-.303.282.026.05.05.099.076.148.184-.134.354-.277.506-.43-.492-.351-.747-1.103-.747-2.267 0-1.614 1.12-2.549 2.02-3.301.228-.19.446-.371.627-.552.268-.268.62-.514.993-.774.021-.015.041-.029.062-.043.008-.006.017-.012.025-.018C19.113 14.19 20 13.537 20 12.5 20 11.72 19.8 11.306 19.568 10.826z" enable-background="new" opacity=".1"/><path fill="#e53935" d="M20.798,14.826c-0.061-0.307-0.142-0.596-0.247-0.836c0.221-0.348,0.372-0.744,0.421-1.196   C20.986,13.019,21,13.244,21,13.5C21,13.943,20.921,14.389,20.798,14.826z"/><path fill="#303c42" d="M9.732 12.057C9.259 11.809 7.665 11 7 11c-.757 0-1.623.891-1.871 1.164-.186.205-.17.521.035.707.204.185.521.169.707-.035C6.26 12.406 6.809 12 7 12c.034 0 .082.008.139.021C7.058 12.166 7 12.323 7 12.5c0 .551.449 1 1 1 .453 0 .821-.309.944-.723.11.055.219.111.324.166C9.342 12.981 9.421 13 9.5 13c.18 0 .354-.097.443-.268C10.071 12.488 9.977 12.186 9.732 12.057zM17 11c-.665 0-2.259.809-2.732 1.057-.244.128-.338.431-.21.675C14.146 12.903 14.32 13 14.5 13c.078 0 .158-.019.232-.057.105-.055.214-.11.324-.166C15.178 13.191 15.547 13.5 16 13.5c.551 0 1-.449 1-1 0-.177-.058-.334-.139-.479C16.918 12.008 16.966 12 17 12c.193 0 .732.398 1.13.836.187.206.503.22.706.034.204-.186.22-.501.035-.706C18.623 11.891 17.757 11 17 11z"/><linearGradient id="a" x1="3.368" x2="21.32" y1="16.07" y2="7.699" gradientTransform="matrix(1 0 0 -1 0 24)" gradientUnits="userSpaceOnUse"><stop offset="0" stop-color="#fff" stop-opacity=".2"/><stop offset="1" stop-color="#fff" stop-opacity="0"/></linearGradient><path fill="url(#a)" d="M20.854,9.146c-0.193-0.193-0.502-0.192-0.698-0.003c-0.037,0.036-0.061,0.079-0.084,0.122   C20.031,9.044,20,8.802,20,8.5C20,3.893,16.336,0,12,0S4,3.893,4,8.5c0,0.299-0.03,0.54-0.071,0.76   C3.907,9.22,3.887,9.18,3.853,9.146c-0.195-0.195-0.512-0.195-0.707,0C3.029,9.264,2,10.383,2,13.5c0,3.17,3.018,6.225,3.146,6.354   C5.244,19.951,5.372,20,5.5,20s0.255-0.049,0.353-0.146c0.195-0.195,0.196-0.511,0.001-0.707c-0.017-0.017-1.033-1.052-1.849-2.468   c0.02-0.557,0.09-1.279,0.209-1.811c0.261,0.234,0.537,0.444,0.8,0.631c0.123,1.297,1.031,3.92,1.909,5.407H6.922   C7.638,22.234,8.941,24,12,24s4.362-1.766,5.077-3.094h-0.001c0.878-1.487,1.787-4.11,1.909-5.407   c0.264-0.188,0.539-0.398,0.8-0.631c0.118,0.532,0.188,1.255,0.209,1.811c-0.815,1.416-1.831,2.45-1.849,2.467   c-0.195,0.196-0.194,0.512,0.001,0.707C18.245,19.951,18.372,20,18.5,20s0.256-0.049,0.354-0.146C18.982,19.725,22,16.67,22,13.5   C22,10.383,20.971,9.264,20.854,9.146z"/></svg>