<svg xmlns="http://www.w3.org/2000/svg" enable-background="new 0 0 24 24" viewBox="0 0 24 24"><path fill="#303c42" d="M12,0C7.738,0,4,3.505,4,7.5v3V13c0,2.943,1.447,5.704,2.07,6.755C6.77,20.936,9.198,24,12,24   s5.23-3.064,5.93-4.245C18.553,18.704,20,15.943,20,13v-2.5v-3C20,3.505,16.262,0,12,0z"/><path fill="#e6e6e6" d="M16.5 14c-1.122 0-2.339-1.572-2.892-2.455.282-.248.814-.542 1.296-.808.466-.258.947-.524 1.382-.827.28-.196.799-.346 1.3-.491.465-.134.98-.283 1.414-.508v1.588C19 11.544 17.944 14 16.5 14zM5 8.912C5.434 9.137 5.949 9.286 6.414 9.42c.501.145 1.02.295 1.3.491.435.303.916.569 1.382.827.482.266 1.014.56 1.296.808C9.839 12.428 8.622 14 7.5 14 6.056 14 5 11.544 5 10.5V8.912z"/><path fill="#ccc" d="M16.5 14c-1.122 0-2.339-1.572-2.892-2.455.282-.248.814-.542 1.296-.808.466-.258.947-.524 1.382-.827.28-.196.799-.346 1.3-.491.465-.134.98-.283 1.414-.508v1.588C19 11.544 17.944 14 16.5 14zM5 8.912C5.434 9.137 5.949 9.286 6.414 9.42c.501.145 1.02.295 1.3.491.435.303.916.569 1.382.827.482.266 1.014.56 1.296.808C9.839 12.428 8.622 14 7.5 14 6.056 14 5 11.544 5 10.5V8.912z"/><linearGradient id="a" x1="14.354" x2="18.646" y1="14.055" y2="12.054" gradientTransform="matrix(1 0 0 -1 0 24)" gradientUnits="userSpaceOnUse"><stop offset="0" stop-color="#fff" stop-opacity=".5"/><stop offset="1" stop-color="#fff" stop-opacity="0"/></linearGradient><path fill="url(#a)" d="M16.5,14c-1.122,0-2.339-1.572-2.892-2.455c0.282-0.248,0.814-0.542,1.296-0.808   c0.466-0.258,0.947-0.524,1.382-0.827c0.28-0.196,0.799-0.346,1.3-0.491c0.465-0.134,0.98-0.283,1.414-0.508v1.588   C19,11.544,17.944,14,16.5,14z"/><linearGradient id="b" x1="4.278" x2="9.716" y1="13.539" y2="11.004" gradientTransform="matrix(1 0 0 -1 0 24)" gradientUnits="userSpaceOnUse"><stop offset="0" stop-color="#fff" stop-opacity=".5"/><stop offset="1" stop-color="#fff" stop-opacity="0"/></linearGradient><path fill="url(#b)" d="M5,8.912C5.434,9.137,5.949,9.286,6.414,9.42c0.501,0.145,1.02,0.295,1.3,0.491   c0.435,0.303,0.916,0.569,1.382,0.827c0.482,0.266,1.014,0.56,1.296,0.808C9.839,12.428,8.622,14,7.5,14C6.056,14,5,11.544,5,10.5   V8.912z"/><linearGradient id="c" x1="15.533" x2="18.516" y1="14.38" y2="11.397" gradientTransform="matrix(1 0 0 -1 0 24)" gradientUnits="userSpaceOnUse"><stop offset="0" stop-color="#fff" stop-opacity=".5"/><stop offset=".93" stop-color="#fff" stop-opacity=".035"/><stop offset="1" stop-color="#fff" stop-opacity="0"/></linearGradient><path fill="url(#c)" d="M16.5,14c-1.122,0-2.339-1.572-2.892-2.455c0.282-0.248,0.814-0.542,1.296-0.808   c0.466-0.258,0.947-0.524,1.382-0.827c0.28-0.196,0.799-0.346,1.3-0.491c0.465-0.134,0.98-0.283,1.414-0.508v1.588   C19,11.544,17.944,14,16.5,14z"/><linearGradient id="d" x1="4.888" x2="9.064" y1="14.976" y2="10.8" gradientTransform="matrix(1 0 0 -1 0 24)" gradientUnits="userSpaceOnUse"><stop offset="0" stop-color="#fff" stop-opacity=".5"/><stop offset=".93" stop-color="#fff" stop-opacity=".035"/><stop offset="1" stop-color="#fff" stop-opacity="0"/></linearGradient><path fill="url(#d)" d="M5,8.912C5.434,9.137,5.949,9.286,6.414,9.42c0.501,0.145,1.02,0.295,1.3,0.491   c0.435,0.303,0.916,0.569,1.382,0.827c0.482,0.266,1.014,0.56,1.296,0.808C9.839,12.428,8.622,14,7.5,14C6.056,14,5,11.544,5,10.5   V8.912z"/><path fill="#e53935" d="M16.409 8.149c.111.153.246.312.395.461-.302.094-.582.199-.828.328C16.114 8.691 16.259 8.427 16.409 8.149zM14.225 9.972c-.72.4-1.326.767-1.614 1.224L12.5 10.907v-4.48c1.005.49 2.417.837 2.508.859.227.055.447.096.661.128C15.025 8.621 14.416 9.652 14.225 9.972zM11.5 10.907l-.111.289c-.287-.457-.894-.825-1.614-1.224-.191-.32-.8-1.35-1.444-2.559C8.545 7.382 8.765 7.34 8.992 7.285c.092-.022 1.504-.369 2.508-.859V10.907zM8.024 8.938C7.777 8.809 7.497 8.704 7.196 8.61 7.345 8.46 7.48 8.301 7.591 8.149 7.741 8.427 7.886 8.691 8.024 8.938zM10.802 12.722L9.36 16.473c-.321-.519-.791-1.126-1.246-1.564C9.239 14.605 10.203 13.543 10.802 12.722zM12 12.394l1.856 4.826C13.375 17.103 12.746 17 12 17s-1.375.103-1.856.22L12 12.394zM13.198 12.722c.599.821 1.562 1.882 2.688 2.187-.455.438-.925 1.045-1.246 1.564L13.198 12.722zM17.963 8.258c-.346-.159-1.041-.953-.98-1.205.001-.001 0-.002.001-.003.448-.885.869-1.799 1.148-2.583C18.682 5.384 19 6.422 19 7.5 19 7.832 18.593 8.048 17.963 8.258zM17.394 3.463c-.182.776-.676 1.892-1.23 2.994-.653.052-3.08-.761-3.664-1.155V1.025C14.425 1.166 16.19 2.099 17.394 3.463zM11.5 1.025v4.277c-.583.393-3.009 1.194-3.664 1.155C7.282 5.355 6.788 4.24 6.606 3.463 7.81 2.099 9.575 1.166 11.5 1.025zM5.868 4.467C6.147 5.25 6.567 6.162 7.014 7.046c0 .001 0 .002.001.002C7.08 7.31 6.357 8.131 6.055 8.264 5.415 8.052 5 7.835 5 7.5 5 6.421 5.318 5.384 5.868 4.467zM6.529 14.785l-1.066 1.103c-.229-.766-.391-1.602-.437-2.454C5.42 14.018 5.922 14.516 6.529 14.785zM5.827 16.951l1.434-1.483c.558.471 1.536 1.791 1.607 2.286l-1.043 2.711c-.411-.485-.724-.932-.894-1.219C6.709 18.872 6.245 18.032 5.827 16.951zM8.585 21.274l1.104-2.87C9.975 18.292 10.825 18 12 18s2.025.292 2.312.405l1.104 2.87C14.475 22.18 13.261 23 12 23S9.525 22.18 8.585 21.274zM17.07 19.245c-.171.288-.483.735-.894 1.219l-1.038-2.699c.072-.511 1.046-1.827 1.602-2.298l1.434 1.483C17.755 18.032 17.291 18.872 17.07 19.245zM18.536 15.888l-1.066-1.103c.607-.269 1.109-.767 1.502-1.351C18.927 14.286 18.765 15.122 18.536 15.888z"/><linearGradient id="e" x1="3.218" x2="19.984" y1="16.285" y2="8.467" gradientTransform="matrix(1 0 0 -1 0 24)" gradientUnits="userSpaceOnUse"><stop offset="0" stop-color="#fff" stop-opacity=".2"/><stop offset="1" stop-color="#fff" stop-opacity="0"/></linearGradient><path fill="url(#e)" d="M12,0C7.738,0,4,3.505,4,7.5v3V13c0,2.943,1.447,5.704,2.07,6.755   C6.77,20.936,9.198,24,12,24s5.23-3.064,5.93-4.245C18.553,18.704,20,15.943,20,13v-2.5v-3C20,3.505,16.262,0,12,0z"/></svg>