<svg xmlns="http://www.w3.org/2000/svg" enable-background="new 0 0 24 24" viewBox="0 0 24 24"><path fill="#303c42" d="M20.58,9.415C20.397,9.238,20.188,9.137,20,9.078c-0.011-1.397-0.14-4.925-1.146-5.931   C18.115,2.408,15.439,0,12,0S5.885,2.408,5.146,3.146C4.139,4.152,4.01,7.68,4,9.077c-0.188,0.059-0.397,0.16-0.58,0.337   C3.229,9.6,3,9.939,3,10.5c0,1.044,0.482,5.846,0.503,6.05c0.017,0.17,0.12,0.32,0.273,0.397l0.72,0.36   c-0.008,1.219,0.063,3.458,0.65,4.046c0.119,0.119,0.268,0.306,0.441,0.522C6.269,22.722,7.297,24,8.5,24   c0.836,0,1.479-0.368,1.87-0.677C10.638,23.112,10.958,23,11.296,23h1.408c0.338,0,0.658,0.112,0.926,0.323   C14.022,23.632,14.664,24,15.5,24c1.203,0,2.231-1.278,2.912-2.124c0.174-0.216,0.322-0.403,0.441-0.522   c0.588-0.588,0.658-2.827,0.65-4.046l0.72-0.36c0.153-0.077,0.257-0.227,0.273-0.397c0.021-0.204,0.503-5.006,0.503-6.05   C21,9.939,20.771,9.6,20.58,9.415z"/><path fill="#d32f2f" d="M14.868,1.644c-0.865,2.365-1.111,2.374-2.562,2.357L12,4l-0.306,0.001   c-1.432,0.007-1.693,0.008-2.562-2.357C9.99,1.274,10.956,1,12,1S14.01,1.274,14.868,1.644z"/><path fill="#fff" d="M12,1.5c0.978,0,1.885,0.245,2.701,0.579   c0.055-0.143,0.106-0.271,0.167-0.435C14.01,1.274,13.044,1,12,1S9.99,1.274,9.133,1.644c0.06,0.165,0.112,0.293,0.168,0.435   C10.116,1.745,11.022,1.5,12,1.5z" enable-background="new" opacity=".2"/><path fill="#ffca28" d="M8.232,2.086C9.216,4.701,9.8,5.002,11.595,5.002c0.034,0,0.069,0,0.105,0L12,5l0.3,0.001   c0.036,0,0.07,0,0.105,0c1.795,0,2.379-0.301,3.363-2.916c1.24,0.695,2.119,1.509,2.378,1.768c0.278,0.278,0.482,1.051,0.621,1.994   l-1.609,3.219C15.844,9.37,12.92,10,12,10S8.156,9.37,6.842,9.066L5.233,5.847c0.139-0.943,0.343-1.715,0.621-1.994   C6.112,3.595,6.992,2.78,8.232,2.086z"/><path fill="#bbdefb" d="M17.446 10.913C17.3 10.953 17.017 11 16.5 11c-.934 0-1.462-.192-1.739-.398.951-.186 1.879-.392 2.409-.513L17.446 10.913zM6.831 10.089c.529.12 1.454.326 2.403.511C8.955 10.81 8.429 11 7.5 11c-.515 0-.797-.046-.944-.087L6.831 10.089z"/><path fill="#ffca28" d="M4.113 10.136C4.225 10.024 4.423 10 4.483 10c.001 0 .001 0 .001 0 .142.006.269-.048.365-.143C4.947 9.762 5 9.631 4.999 9.495 4.994 8.958 5.01 8.341 5.047 7.714l.912 1.824-.414 1.253C5.473 10.948 5.45 11.2 5.603 11.437 5.853 11.827 6.437 12 7.5 12c1.882 0 2.582-.68 2.843-1.196C11.022 10.919 11.629 11 12 11s.978-.081 1.657-.196C13.918 11.32 14.618 12 16.5 12c1.062 0 1.647-.173 1.896-.562.152-.238.13-.49.078-.596l-.435-1.304.912-1.824C18.989 8.34 19.004 8.958 19 9.495c-.001.134.055.263.149.357s.225.147.357.147c.001 0 .002 0 .003 0 0 0 0 0 .001 0 .067 0 .264.024.376.136C19.916 10.164 20 10.249 20 10.5c0 .299-.045.953-.107 1.719-.179.125-.36.249-.521.39-3.562 2.794-4.527 5.38-4.78 6.391H9.408c-.254-1.011-1.219-3.596-4.78-6.391-.161-.141-.342-.265-.521-.39C4.045 11.453 4 10.799 4 10.5 4 10.249 4.085 10.164 4.113 10.136zM16.514 19.28L16 19.793l-.459-.459c.107-.457.464-1.604 1.581-3.078C16.674 17.615 16.549 18.821 16.514 19.28zM7.487 19.28c-.034-.459-.161-1.665-.609-3.023 1.116 1.474 1.474 2.621 1.581 3.078L8 19.793 7.487 19.28z"/><path fill="#d32f2f" d="M5.224 16.553l-.753-.376c-.047-.474-.147-1.497-.243-2.557 1.872 1.908 2.214 5.117 2.263 5.773l-.645 1.233C5.628 20.302 5.47 18.673 5.5 17.009 5.503 16.816 5.396 16.639 5.224 16.553zM15.5 23c-.549 0-.983-.251-1.251-.462C13.81 22.191 13.261 22 12.704 22h-1.408c-.557 0-1.105.191-1.545.538C9.483 22.749 9.049 23 8.5 23c-.652 0-1.428-.884-1.961-1.539l.589-1.126.519.519c.195.195.512.195.707 0L9.207 20h5.586l.854.854c.195.195.512.195.707 0l.519-.519.589 1.126C16.928 22.116 16.153 23 15.5 23z"/><path d="M15.5 22.5c-.549 0-.983-.251-1.251-.462-.439-.347-.988-.538-1.545-.538h-1.408c-.557 0-1.105.191-1.545.538C9.483 22.249 9.049 22.5 8.5 22.5c-.59 0-1.28-.723-1.801-1.346l-.16.307C7.072 22.116 7.848 23 8.5 23c.549 0 .983-.251 1.251-.462C10.19 22.191 10.739 22 11.296 22h1.408c.557 0 1.105.191 1.545.538C14.517 22.749 14.951 23 15.5 23c.652 0 1.428-.884 1.961-1.539l-.16-.307C16.781 21.777 16.09 22.5 15.5 22.5zM18.146 3.854c-.18-.18-.666-.63-1.359-1.12.426.377.725.694.859.844.278.314.482 1.183.621 2.245L16.791 9.15c.127-.029.26-.058.367-.083l1.609-3.219C18.629 4.904 18.425 4.132 18.146 3.854z" enable-background="new" opacity=".1"/><path fill="#fff" d="M19.887,10.136C19.775,10.024,19.578,10,19.511,10   c-0.001,0-0.001,0-0.001,0c-0.001,0-0.002,0-0.003,0c-0.006,0-0.011-0.003-0.017-0.003c0.005,0.038,0.01,0.077,0.01,0.127   c0,0.312-0.045,0.995-0.107,1.796c-0.179,0.131-0.36,0.26-0.521,0.407c-3.562,2.918-4.527,5.618-4.78,6.674h0.5   c0.254-1.011,1.219-3.596,4.78-6.391c0.161-0.141,0.342-0.265,0.521-0.39C19.955,11.453,20,10.799,20,10.5   C20,10.249,19.916,10.164,19.887,10.136z" enable-background="new" opacity=".2"/><polygon points="7.146 20.354 7.148 20.354 7.128 20.334 7.128 20.335" enable-background="new" opacity=".1"/><path d="M5.837,3.854c0.18-0.18,0.666-0.63,1.359-1.12   C6.77,3.111,6.471,3.428,6.337,3.578C6.059,3.892,5.855,4.761,5.716,5.823L7.193,9.15c-0.127-0.029-0.26-0.058-0.367-0.083   L5.217,5.848C5.355,4.904,5.558,4.132,5.837,3.854z" enable-background="new" opacity=".1"/><path fill="#fff" d="M4.097,10.136C4.209,10.024,4.405,10,4.473,10   c0.001,0,0.001,0,0.001,0s0.002,0,0.003,0c0.006,0,0.011-0.003,0.017-0.003c-0.005,0.038-0.01,0.077-0.01,0.127   c0,0.312,0.045,0.995,0.107,1.796c0.179,0.131,0.36,0.26,0.521,0.407c3.562,2.918,4.527,5.618,4.78,6.674h-0.5   c-0.254-1.011-1.219-3.596-4.78-6.391c-0.161-0.141-0.342-0.265-0.521-0.39c-0.062-0.767-0.107-1.421-0.107-1.719   C3.983,10.249,4.068,10.164,4.097,10.136z" enable-background="new" opacity=".2"/><path fill="#d32f2f" d="M18.276,16.053c-0.172,0.086-0.279,0.264-0.276,0.457c0.03,1.673-0.13,3.313-0.345,3.619   l-0.647-1.236c0.049-0.656,0.391-3.865,2.263-5.773c-0.096,1.06-0.196,2.083-0.243,2.557L18.276,16.053z"/><path d="M16.514 19.28L16 19.793l-.459-.459c.107-.457.464-1.604 1.581-3.078C16.674 17.615 16.549 18.821 16.514 19.28zM18.276 16.053c-.172.086-.279.264-.276.457.03 1.673-.13 3.313-.345 3.619l-.647-1.236c.049-.656.391-3.865 2.263-5.773-.096 1.06-.196 2.083-.243 2.557L18.276 16.053z" enable-background="new" opacity=".1"/><linearGradient id="a" x1="2.695" x2="21.071" y1="15.84" y2="7.271" gradientTransform="matrix(1 0 0 -1 0 24)" gradientUnits="userSpaceOnUse"><stop offset="0" stop-color="#fff" stop-opacity=".2"/><stop offset="1" stop-color="#fff" stop-opacity="0"/></linearGradient><path fill="url(#a)" d="M20.58,9.415C20.397,9.238,20.188,9.137,20,9.078c-0.011-1.397-0.14-4.925-1.146-5.931   C18.115,2.408,15.439,0,12,0S5.885,2.408,5.146,3.146C4.139,4.152,4.01,7.68,4,9.077c-0.188,0.059-0.397,0.16-0.58,0.337   C3.229,9.6,3,9.939,3,10.5c0,1.044,0.482,5.846,0.503,6.05c0.017,0.17,0.12,0.32,0.273,0.397l0.72,0.36   c-0.008,1.219,0.063,3.458,0.65,4.046c0.119,0.119,0.268,0.306,0.441,0.522C6.269,22.722,7.297,24,8.5,24   c0.836,0,1.479-0.368,1.87-0.677C10.638,23.112,10.958,23,11.296,23h1.408c0.338,0,0.658,0.112,0.926,0.323   C14.022,23.632,14.664,24,15.5,24c1.203,0,2.231-1.278,2.912-2.124c0.174-0.216,0.322-0.403,0.441-0.522   c0.588-0.588,0.658-2.827,0.65-4.046l0.72-0.36c0.153-0.077,0.257-0.227,0.273-0.397c0.021-0.204,0.503-5.006,0.503-6.05   C21,9.939,20.771,9.6,20.58,9.415z"/></svg>