<svg xmlns="http://www.w3.org/2000/svg" enable-background="new 0 0 24 24" viewBox="0 0 24 24"><path fill="#303c42" d="M21,10c0-3.343-1.896-9-9-9c-0.133,0-0.26,0.053-0.354,0.146l-0.355,0.355C3.813,1.608,3,7.468,3,10   c0,1.13,0.262,2.236,0.417,2.789C3.062,13.331,3,13.983,3,14.5c0,0.958,0.889,3.104,2.149,3.452   c0.013,0.031,0.026,0.064,0.04,0.099C5.734,19.404,7.183,23,12,23s6.266-3.596,6.811-4.949c0.014-0.034,0.027-0.067,0.04-0.099   C20.111,17.604,21,15.458,21,14.5c0-0.518-0.062-1.169-0.417-1.711C20.738,12.234,21,11.127,21,10z"/><path fill="#6d4c41" d="M11.5,2.5c0.133,0,0.26-0.053,0.354-0.146l0.352-0.352C19.911,2.134,20,9.676,20,10   c0,0.554-0.072,1.109-0.161,1.58C18.964,7.978,15.66,6,13.5,6c-0.108,0-0.214,0.035-0.3,0.1C13.181,6.115,11.306,7.5,9,7.5   c-2.727,0-4.373,2.246-4.853,4.007C4.065,11.053,4,10.526,4,10C4,7.199,4.975,2.5,11.5,2.5z"/><path fill="#fff" d="M11.5,3.497c0.133,0,0.26-0.053,0.354-0.146l0.352-0.352   c6.64,0.114,7.622,5.719,7.768,7.478C19.983,10.318,20,10.161,20,10c0-0.324-0.089-7.866-7.795-7.998l-0.352,0.352   C11.759,2.448,11.632,2.5,11.499,2.5c-6.525,0-7.5,4.699-7.5,7.5c0,0.12,0.013,0.236,0.02,0.355C4.174,7.534,5.45,3.497,11.5,3.497   z" enable-background="new" opacity=".2"/><path fill="#8d6e63" d="M18.984,12.448c-0.529,1.49-1.85,3.294-3.409,4.67C15.123,16.43,14.354,16,13.5,16h-3   c-0.854,0-1.623,0.43-2.075,1.118c-1.568-1.385-2.898-3.204-3.42-4.699C5.057,11.041,6.461,8.5,9,8.5   c2.27,0,4.124-1.137,4.651-1.495C15.309,7.102,18.462,8.765,18.984,12.448z"/><path d="M9.052,9.49c2.299,0,4.178-1.006,4.712-1.323   c1.491,0.077,4.173,1.249,5.126,3.793c-0.72-3.339-3.658-4.862-5.239-4.955C13.124,7.363,11.27,8.5,9,8.5   c-2.539,0-3.943,2.541-3.995,3.919c0.018,0.051,0.044,0.106,0.064,0.158C5.352,11.323,6.726,9.49,9.052,9.49z" enable-background="new" opacity=".1"/><path fill="#8d6e63" d="M4.05,13.89c0.032,0.464,0.084,0.989,0.169,1.51C4.088,15.061,4,14.734,4,14.5   C4,14.259,4.019,14.061,4.05,13.89z"/><path fill="#6d4c41" d="M17.883,17.678C17.362,18.971,16.143,22,12,22s-5.362-3.029-5.883-4.322   c-0.065-0.164-0.12-0.299-0.167-0.395c-0.025-0.052-0.071-0.084-0.11-0.123l0.013-0.013c-0.34-0.34-0.563-1.261-0.696-2.266   c0.818,1.234,1.93,2.468,3.127,3.427c0.13,0.104,0.301,0.138,0.46,0.087c0.158-0.049,0.282-0.173,0.33-0.331   C9.27,17.428,9.843,17,10.5,17h3c0.657,0,1.23,0.428,1.426,1.063c0.048,0.158,0.172,0.282,0.33,0.331   c0.049,0.016,0.098,0.022,0.147,0.022c0.112,0,0.223-0.038,0.313-0.109c1.197-0.959,2.309-2.192,3.127-3.427   c-0.133,1.005-0.356,1.926-0.696,2.266l0.013,0.013c-0.039,0.039-0.085,0.072-0.11,0.123   C18.003,17.379,17.948,17.514,17.883,17.678z"/><path d="M18.717,15.055c-0.134,0.681-0.32,1.248-0.57,1.497l0.013,0.013   c-0.039,0.039-0.085,0.072-0.11,0.123c-0.047,0.096-0.102,0.23-0.167,0.395c-0.521,1.293-1.74,4.322-5.883,4.322   s-5.362-3.029-5.883-4.322c-0.065-0.164-0.12-0.299-0.167-0.395c-0.025-0.052-0.071-0.084-0.11-0.123l0.013-0.013   c-0.25-0.25-0.436-0.817-0.57-1.497c-0.04-0.058-0.087-0.116-0.126-0.174c0.133,1.005,0.356,1.926,0.696,2.266L5.84,17.16   c0.039,0.039,0.085,0.072,0.11,0.123c0.047,0.096,0.102,0.23,0.167,0.395C6.638,18.971,7.857,22,12,22s5.362-3.029,5.883-4.322   c0.065-0.164,0.12-0.299,0.167-0.395c0.025-0.052,0.071-0.084,0.11-0.123l-0.013-0.013c0.34-0.34,0.563-1.261,0.696-2.266   C18.804,14.939,18.757,14.997,18.717,15.055z" enable-background="new" opacity=".1"/><path fill="#8d6e63" d="M19.78,15.4c0.085-0.521,0.137-1.046,0.169-1.51c0.031,0.171,0.05,0.369,0.05,0.61   C20,14.734,19.912,15.061,19.78,15.4z"/><circle cx="8.5" cy="13" r="1" fill="#303c42"/><circle cx="15.5" cy="13" r="1" fill="#303c42"/><path fill="#303c42" d="M13,18h-2c-0.276,0-0.5,0.224-0.5,0.5S10.724,19,11,19h2c0.276,0,0.5-0.224,0.5-0.5S13.276,18,13,18   z"/><linearGradient id="a" x1="2.968" x2="20.67" y1="16.358" y2="8.103" gradientTransform="matrix(1 0 0 -1 0 24)" gradientUnits="userSpaceOnUse"><stop offset="0" stop-color="#fff" stop-opacity=".2"/><stop offset="1" stop-color="#fff" stop-opacity="0"/></linearGradient><path fill="url(#a)" d="M21,10c0-3.343-1.896-9-9-9c-0.133,0-0.26,0.053-0.354,0.146l-0.355,0.355   C3.813,1.608,3,7.468,3,10c0,1.13,0.262,2.236,0.417,2.789C3.062,13.331,3,13.983,3,14.5c0,0.958,0.889,3.104,2.149,3.452   c0.013,0.031,0.026,0.064,0.04,0.099C5.734,19.404,7.183,23,12,23s6.266-3.596,6.811-4.949c0.014-0.034,0.027-0.067,0.04-0.099   C20.111,17.604,21,15.458,21,14.5c0-0.518-0.062-1.169-0.417-1.711C20.738,12.234,21,11.127,21,10z"/></svg>