<svg xmlns="http://www.w3.org/2000/svg" enable-background="new 0 0 24 24" viewBox="0 0 24 24"><path fill="#303c42" d="M23.819,18.901L21,10.914c-0.034-6.306-3.743-9.209-7.07-9.842C13.745,0.454,13.177,0,12.5,0h-1   c-0.677,0-1.245,0.454-1.43,1.072C6.744,1.705,3.034,4.609,3,10.914L0.181,18.9C0.061,19.241,0,19.598,0,19.959   c0,1.502,1.018,2.776,2.475,3.102C4.395,23.489,7.606,24,12,24s7.605-0.511,9.525-0.939c1.457-0.325,2.475-1.6,2.475-3.102   C24,19.598,23.939,19.241,23.819,18.901z"/><path fill="#596368" d="M19.996 10.883l-.018-.039C19.748 9.827 18.646 8 16 8c-1.028 0-1.611.056-2.014.143C13.99 8.095 14 8.049 14 8V2.102C16.866 2.762 19.951 5.382 19.996 10.883zM11 1.5C11 1.225 11.224 1 11.5 1h1C12.776 1 13 1.225 13 1.5V8c0 .275-.224.5-.5.5h-1C11.224 8.5 11 8.275 11 8V1.5zM10 2.102V8c0 .049.01.095.014.143C9.611 8.056 9.028 8 8 8c-2.646 0-3.748 1.827-3.978 2.844l-.018.039C4.049 5.382 7.134 2.762 10 2.102z"/><path fill="#fff" d="M19.969 10.814c.002.009.007.021.009.03l.018.039C19.952 5.382 16.867 2.762 14 2.102v.551C16.755 3.287 19.704 5.74 19.969 10.814zM12.5 1h-1C11.224 1 11 1.225 11 1.5v.551c0-.275.224-.5.5-.5h1c.276 0 .5.225.5.5V1.5C13 1.225 12.776 1 12.5 1zM4.031 10.814C4.296 5.74 7.245 3.287 10 2.652V2.101c-2.866.66-5.951 3.28-5.996 8.781l.018-.039C4.024 10.835 4.029 10.823 4.031 10.814z" enable-background="new" opacity=".2"/><path fill="#ced0d2" d="M10,12.725v-1.351C9.491,11.234,8.487,11,7.5,11C6.26,11,6,11.815,6,12.5c0,0.554,1.094,1,2,1   C8.588,13.5,9.502,13.024,10,12.725z"/><path fill="#454f55" d="M21.307,22.084C19.437,22.502,16.303,23,12,23s-7.437-0.498-9.307-0.916   c-0.967-0.215-1.646-1.046-1.685-2.035l3.949-8.845c0.015-0.034,0.026-0.069,0.034-0.106C5.007,11.013,5.439,9,8,9   c1.651,0,1.987,0.15,2.257,0.271C10.558,9.406,10.824,9.5,11.5,9.5h1c0.676,0,0.941-0.095,1.243-0.229C14.013,9.15,14.349,9,16,9   c2.535,0,2.992,2.015,3.01,2.098c0.007,0.037,0.019,0.072,0.034,0.106l3.949,8.845C22.953,21.038,22.274,21.869,21.307,22.084z"/><path fill="#303c42" d="M10.777 13.416C10.917 13.323 11 13.167 11 13v-2c0-.215-.138-.406-.342-.475C10.594 10.504 9.063 10 7.5 10 5.657 10 5 11.291 5 12.5c0 1.364 1.79 2 3 2C9.119 14.5 10.611 13.527 10.777 13.416zM16.5 10c-1.563 0-3.094.504-3.158.525C13.138 10.594 13 10.785 13 11v2c0 .167.083.323.223.416C13.39 13.527 14.881 14.5 16 14.5c1.21 0 3-.636 3-2C19 11.291 18.343 10 16.5 10z"/><path d="M19.043,11.204c-0.015-0.034-0.026-0.069-0.034-0.106   C18.992,11.015,18.535,9,16,9c-1.651,0-1.987,0.15-2.257,0.271C13.442,9.406,13.176,9.5,12.5,9.5h-1   c-0.676,0-0.941-0.095-1.243-0.229C9.987,9.15,9.651,9,8,9c-2.561,0-2.993,2.013-3.01,2.098c-0.007,0.037-0.019,0.072-0.034,0.106   l-3.949,8.845c0.033,0.821,0.509,1.527,1.222,1.868c-0.247-0.348-0.399-0.776-0.417-1.243l3.243-7.838C5.03,12.727,5,12.62,5,12.5   c0-0.963,0.429-1.968,1.531-2.341C6.943,9.857,7.5,9.625,8.293,9.625c1.53,0,1.842,0.15,2.092,0.271   c0.279,0.135,0.525,0.229,1.152,0.229h0.927c0.626,0,0.872-0.095,1.152-0.229c0.25-0.12,0.562-0.271,2.092-0.271   c0.779,0,1.33,0.229,1.741,0.528C18.566,10.521,19,11.531,19,12.5c0,0.12-0.03,0.227-0.056,0.336l3.243,7.838   c-0.017,0.467-0.17,0.895-0.417,1.243c0.712-0.341,1.189-1.047,1.222-1.868L19.043,11.204z" enable-background="new" opacity=".1"/><path fill="#454f55" d="M6 12.5C6 11.815 6.26 11 7.5 11c.987 0 1.991.234 2.5.374v1.351c-.498.3-1.412.775-2 .775C7.094 13.5 6 13.054 6 12.5zM16 13.5c-.588 0-1.502-.476-2-.775v-1.351C14.509 11.234 15.513 11 16.5 11c1.24 0 1.5.815 1.5 1.5C18 13.054 16.906 13.5 16 13.5z"/><linearGradient id="a" x1="6.321" x2="9.868" y1="12.646" y2="10.992" gradientTransform="matrix(1 0 0 -1 0 24)" gradientUnits="userSpaceOnUse"><stop offset="0" stop-color="#fff" stop-opacity=".2"/><stop offset="1" stop-color="#fff" stop-opacity="0"/></linearGradient><path fill="url(#a)" d="M6,12.5C6,11.815,6.26,11,7.5,11c0.987,0,1.991,0.234,2.5,0.374v1.351   c-0.498,0.3-1.412,0.775-2,0.775C7.094,13.5,6,13.054,6,12.5z"/><linearGradient id="b" x1="14.067" x2="17.822" y1="12.771" y2="11.02" gradientTransform="matrix(1 0 0 -1 0 24)" gradientUnits="userSpaceOnUse"><stop offset="0" stop-color="#fff" stop-opacity=".2"/><stop offset="1" stop-color="#fff" stop-opacity="0"/></linearGradient><path fill="url(#b)" d="M16,13.5c-0.588,0-1.502-0.476-2-0.775v-1.351C14.509,11.234,15.513,11,16.5,11   c1.24,0,1.5,0.815,1.5,1.5C18,13.054,16.906,13.5,16,13.5z"/><linearGradient id="c" x1="8.163" x2="22.326" y1="16.62" y2="2.457" gradientTransform="matrix(1 0 0 -1 0 24)" gradientUnits="userSpaceOnUse"><stop offset="0" stop-opacity=".1"/><stop offset="1" stop-opacity="0"/></linearGradient><path fill="url(#c)" d="M10,12.725v-1.351C9.491,11.234,8.487,11,7.5,11C6.26,11,6,11.815,6,12.5   c0,0.554,1.094,1,2,1C8.588,13.5,9.502,13.024,10,12.725z M19.043,11.204c-0.015-0.034-0.026-0.069-0.034-0.106   C18.992,11.015,18.535,9,16,9c-1.651,0-1.987,0.15-2.257,0.271C13.442,9.406,13.176,9.5,12.5,9.5h-1   c-0.676,0-0.941-0.095-1.243-0.229C9.987,9.15,9.651,9,8,9c-2.561,0-2.993,2.013-3.01,2.098c-0.007,0.037-0.019,0.072-0.034,0.106   L4.761,11.64l0.295,0.295C5.24,10.921,5.944,10,7.5,10c1.563,0,3.094,0.504,3.158,0.525C10.862,10.594,11,10.785,11,11v2   c0,0.167-0.083,0.323-0.223,0.416C10.611,13.527,9.119,14.5,8,14.5c-0.128,0-0.266-0.011-0.404-0.025l8.372,8.372   c2.308-0.179,4.104-0.487,5.339-0.763c0.967-0.215,1.646-1.046,1.685-2.035L19.043,11.204z M16,14.5   c-1.119,0-2.611-0.973-2.777-1.084C13.083,13.323,13,13.167,13,13v-2c0-0.215,0.138-0.406,0.342-0.475   C13.406,10.504,14.937,10,16.5,10c1.843,0,2.5,1.291,2.5,2.5C19,13.864,17.21,14.5,16,14.5z M16.5,11   c-0.987,0-1.991,0.234-2.5,0.374v1.351c0.498,0.3,1.412,0.775,2,0.775c0.906,0,2-0.446,2-1C18,11.815,17.74,11,16.5,11z"/><path fill="#303c42" d="M16,19.5c-0.039,0-0.071,0.018-0.109,0.022L13.5,16.334V15.5c0-0.827-0.673-1.5-1.5-1.5   s-1.5,0.673-1.5,1.5v0.834l-2.391,3.188C8.071,19.518,8.039,19.5,8,19.5c-0.551,0-1,0.448-1,1s0.449,1,1,1   c0.365,0,0.672-0.207,0.846-0.5h6.307c0.175,0.293,0.481,0.5,0.846,0.5c0.551,0,1-0.448,1-1S16.551,19.5,16,19.5z M11.5,15.5   c0-0.275,0.224-0.5,0.5-0.5s0.5,0.225,0.5,0.5V16h-1V15.5z M10.5,20H9l1.5-2V20z M11.5,20v-3h1v3H11.5z M13.5,18l1.5,2h-1.5V18z"/><linearGradient id="d" x1="2.492" x2="24.568" y1="14.834" y2="4.54" gradientTransform="matrix(1 0 0 -1 0 24)" gradientUnits="userSpaceOnUse"><stop offset="0" stop-color="#fff" stop-opacity=".2"/><stop offset="1" stop-color="#fff" stop-opacity="0"/></linearGradient><path fill="url(#d)" d="M23.819,18.901L21,10.914c-0.034-6.306-3.743-9.209-7.07-9.842C13.745,0.454,13.177,0,12.5,0   h-1c-0.677,0-1.245,0.454-1.43,1.072C6.744,1.705,3.034,4.609,3,10.914L0.181,18.9C0.061,19.241,0,19.598,0,19.959   c0,1.502,1.018,2.776,2.475,3.102C4.395,23.489,7.606,24,12,24s7.605-0.511,9.525-0.939c1.457-0.325,2.475-1.6,2.475-3.102   C24,19.598,23.939,19.241,23.819,18.901z"/></svg>