<svg xmlns="http://www.w3.org/2000/svg" enable-background="new 0 0 24 24" viewBox="0 0 24 24"><path fill="#303c42" d="M21,10c0-3.343-1.896-9-9-9c-0.133,0-0.26,0.053-0.354,0.146l-0.355,0.355C3.813,1.608,3,7.468,3,10   c0,1.128,0.262,2.235,0.417,2.789C3.062,13.331,3,13.983,3,14.5c0,0.958,0.889,3.104,2.15,3.452c0.013,0.032,0.025,0.065,0.04,0.1   C5.735,19.405,7.183,23,12,23s6.265-3.595,6.81-4.949c0.015-0.035,0.027-0.068,0.04-0.1c1.262-0.348,2.15-2.494,2.15-3.452   c0-0.517-0.062-1.169-0.417-1.711C20.738,12.235,21,11.128,21,10z"/><path fill="#6d4c41" d="M11.5,2.5c0.133,0,0.26-0.053,0.354-0.146l0.352-0.352C19.911,2.133,20,9.676,20,10   c0,0.555-0.072,1.109-0.161,1.581C18.965,7.978,15.66,6,13.5,6c-0.108,0-0.214,0.035-0.3,0.1C13.181,6.114,11.306,7.5,9,7.5   c-2.727,0-4.373,2.246-4.853,4.006C4.065,11.052,4,10.526,4,10C4,7.199,4.975,2.5,11.5,2.5z"/><path fill="#8d6e63" d="M18.5,17c-0.192,0-0.367,0.11-0.45,0.283c-0.047,0.096-0.102,0.23-0.167,0.395   C17.361,18.971,16.142,22,12,22s-5.361-3.029-5.883-4.322c-0.065-0.165-0.12-0.299-0.167-0.395C5.867,17.11,5.692,17,5.5,17   C4.872,17,4,15.264,4,14.5c0-0.643,0.124-1.006,0.302-1.234c0.014-0.012,0.032-0.016,0.045-0.03   c0.115-0.131,0.23-0.221,0.363-0.282C4.887,12.872,5,12.695,5,12.5c0-1.357,1.412-4,4-4c2.27,0,4.124-1.137,4.651-1.496   c1.675,0.099,4.882,1.792,5.353,5.558c0.021,0.171,0.13,0.319,0.286,0.392c0.133,0.061,0.248,0.151,0.363,0.282   c0.014,0.016,0.034,0.023,0.049,0.037c0.175,0.228,0.297,0.59,0.297,1.227C20,15.264,19.128,17,18.5,17z"/><path fill="#303c42" d="M16.5,13c0-0.551-0.448-1-1-1s-1,0.449-1,1c-0.552,0-1.03,0.303-1.29,0.748   C12.91,13.617,12.522,13.5,12,13.5s-0.91,0.117-1.21,0.248C10.53,13.303,10.052,13,9.5,13c0-0.551-0.448-1-1-1s-1,0.449-1,1   C6.673,13,6,13.673,6,14.5V15c0,1.103,1.121,2,2.5,2s2.5-0.897,2.5-2v-0.247c0.169-0.105,0.486-0.253,1-0.253   c0.516,0,0.834,0.149,1,0.252V15c0,1.103,1.121,2,2.5,2s2.5-0.897,2.5-2v-0.5C18,13.673,17.327,13,16.5,13z"/><path fill="#bbdefb" d="M10 15c0 .542-.687 1-1.5 1S7 15.542 7 15v-.5C7 14.224 7.225 14 7.5 14h2c.275 0 .5.224.5.5V15zM17 15c0 .542-.687 1-1.5 1S14 15.542 14 15v-.5c0-.276.225-.5.5-.5h2c.275 0 .5.224.5.5V15z"/><path fill="#fff" d="M12.21,3.21c0.133,0,0.26-0.053,0.354-0.146l0.352-0.352   c2.339,0.04,3.968,0.767,5.114,1.764c-1.146-1.348-2.956-2.425-5.824-2.473l-0.352,0.352C11.76,2.449,11.633,2.501,11.5,2.501   c-6.525,0-7.5,4.699-7.5,7.5c0,0.526,0.065,1.052,0.147,1.506c0.12-0.44,0.313-0.911,0.577-1.369   C4.861,7.314,6.111,3.21,12.21,3.21z" enable-background="new" opacity=".2"/><path fill="#fff" d="M6.853,17.677c-0.058-0.164-0.106-0.298-0.146-0.394   C6.634,17.11,6.48,17,6.312,17C5.763,17,5,15.264,5,14.5c0-0.643,0.108-1.006,0.264-1.234c0.012-0.012,0.029-0.016,0.039-0.03   c0.103-0.133,0.2-0.221,0.317-0.282c0.155-0.082,0.254-0.259,0.254-0.454c0-1.357,1.235-4,3.5-4c1.002,0,1.91-0.29,2.625-0.623   c-0.817,0.333-1.855,0.623-3,0.623c-2.588,0-4,2.643-4,4c0,0.195-0.113,0.373-0.291,0.454c-0.134,0.062-0.246,0.149-0.363,0.282   c-0.012,0.014-0.031,0.018-0.045,0.03C4.124,13.494,4,13.857,4,14.5C4,15.264,4.872,17,5.5,17c0.192,0,0.367,0.11,0.451,0.283   c0.046,0.096,0.101,0.23,0.167,0.394C6.638,18.971,7.857,22,12,22C8.375,22,7.308,18.971,6.853,17.677z" enable-background="new" opacity=".2"/><path d="M19.703,13.273c-0.016-0.014-0.036-0.021-0.05-0.037   c-0.115-0.131-0.23-0.221-0.363-0.282c-0.157-0.073-0.265-0.221-0.286-0.392c-0.471-3.765-3.677-5.458-5.352-5.558   c-0.012,0.008-0.033,0.021-0.046,0.03c1.499,0.198,4.125,1.887,4.523,5.528c0.019,0.171,0.113,0.319,0.25,0.392   c0.116,0.061,0.217,0.151,0.318,0.282c0.012,0.016,0.03,0.023,0.043,0.037C18.893,13.501,19,13.863,19,14.5   c0,0.764-0.763,2.5-1.313,2.5c-0.168,0-0.321,0.11-0.394,0.283c-0.04,0.096-0.088,0.23-0.146,0.394C16.692,18.971,15.625,22,12,22   c4.143,0,5.362-3.029,5.883-4.323c0.066-0.164,0.121-0.298,0.167-0.394C18.133,17.11,18.308,17,18.5,17c0.628,0,1.5-1.736,1.5-2.5   C20,13.863,19.878,13.501,19.703,13.273z" enable-background="new" opacity=".1"/><circle cx="7.517" cy="14.502" r=".346" fill="#fff" enable-background="new" opacity=".2"/><circle cx="14.798" cy="14.502" r=".346" fill="#fff" enable-background="new" opacity=".2"/><linearGradient id="a" x1="2.968" x2="20.669" y1="16.358" y2="8.103" gradientTransform="matrix(1 0 0 -1 0 24)" gradientUnits="userSpaceOnUse"><stop offset="0" stop-color="#fff" stop-opacity=".2"/><stop offset="1" stop-color="#fff" stop-opacity="0"/></linearGradient><path fill="url(#a)" d="M21,10c0-3.343-1.896-9-9-9c-0.133,0-0.26,0.053-0.354,0.146l-0.355,0.355   C3.813,1.608,3,7.468,3,10c0,1.128,0.262,2.235,0.417,2.789C3.062,13.331,3,13.983,3,14.5c0,0.958,0.889,3.104,2.15,3.452   c0.013,0.032,0.025,0.065,0.04,0.1C5.735,19.405,7.183,23,12,23s6.265-3.595,6.81-4.949c0.015-0.035,0.027-0.068,0.04-0.1   c1.262-0.348,2.15-2.494,2.15-3.452c0-0.517-0.062-1.169-0.417-1.711C20.738,12.235,21,11.128,21,10z"/></svg>