<svg xmlns="http://www.w3.org/2000/svg" enable-background="new 0 0 24 24" viewBox="0 0 24 24"><path fill="#303c42" d="M21,8.5C21,5.435,17.795,1,12,1S3,5.435,3,8.5c0,2.486,0.968,4.312,1.399,5.001   C4.214,13.851,4,14.476,4,15.5C4,16.641,4.434,18,6.5,18c0.902,0,1,1.398,1,2c0,1.821,2.229,3,3,3c0.458,0,1.135-0.279,1.5-0.446   C12.365,22.721,13.042,23,13.5,23c0.771,0,3-1.179,3-3c0-0.602,0.098-2,1-2c2.066,0,2.5-1.359,2.5-2.5   c0-1.024-0.214-1.649-0.399-1.999C20.032,12.812,21,10.986,21,8.5z"/><path fill="#fef1e7" d="M18.635,13.841C18.638,13.845,19,14.277,19,15.5c0,1.318-0.721,1.5-1.5,1.5c-1.252,0-2,1.121-2,3   c0,1.125-1.659,1.979-2,2c-0.26,0-0.915-0.267-1.276-0.447c-0.141-0.07-0.307-0.07-0.447,0C11.417,21.734,10.761,22,10.505,22   c-0.345-0.021-2.004-0.875-2.004-2c0-1.879-0.748-3-2-3c-0.779,0-1.5-0.182-1.5-1.5c0-1.211,0.355-1.646,0.354-1.646   c0.176-0.176,0.195-0.453,0.047-0.652c-0.014-0.02-1.4-1.917-1.4-4.701c0-2.656,2.849-6.5,8-6.5s8,3.844,8,6.5   c0,2.784-1.387,4.682-1.4,4.701C18.46,13.389,18.481,13.664,18.635,13.841z"/><path fill="#fff" d="M4,8.5c0,2.784,1.387,4.682,1.4,4.701   c0.148,0.199,0.129,0.477-0.047,0.652c0.002,0-0.354,0.436-0.354,1.646c0,1.318,0.721,1.5,1.5,1.5c1.252,0,2,1.121,2,3   c0,1.125,1.659,1.979,2.004,2c0.035,0,0.093-0.015,0.141-0.025c-0.402-0.121-1.617-0.926-1.617-1.975c0-1.879-0.635-3-1.698-3   c-0.662,0-1.273-0.182-1.273-1.5c0-1.211,0.302-1.646,0.3-1.646c0.149-0.176,0.166-0.453,0.04-0.652   c-0.012-0.02-1.189-1.917-1.189-4.701c0-2.656,2.418-6.5,6.792-6.5C6.849,2,4,5.844,4,8.5z" enable-background="new" opacity=".2"/><path d="M18.6,13.201c0.014-0.02,1.4-1.917,1.4-4.701C20,5.844,17.151,2,12,2   c4.373,0,6.792,3.844,6.792,6.5c0,2.784-1.177,4.682-1.189,4.701c-0.119,0.188-0.1,0.463,0.03,0.64   c0.003,0.004,0.31,0.437,0.31,1.659c0,1.318-0.612,1.5-1.273,1.5c-1.063,0-1.698,1.121-1.698,3c0,1.049-1.214,1.854-1.614,1.975   C13.407,21.985,13.464,22,13.5,22c0.341-0.021,2-0.875,2-2c0-1.879,0.748-3,2-3c0.779,0,1.5-0.182,1.5-1.5   c0-1.223-0.362-1.655-0.365-1.659C18.481,13.664,18.46,13.389,18.6,13.201z" enable-background="new" opacity=".1"/><path fill="#303c42" d="M11.379,16.985c0.27,0.064,0.54-0.097,0.606-0.364L12,16.561l0.015,0.06   C12.071,16.849,12.275,17,12.5,17c0.04,0,0.081-0.005,0.121-0.015c0.269-0.067,0.431-0.339,0.364-0.606l-0.5-2   c-0.111-0.445-0.859-0.445-0.971,0l-0.5,2C10.948,16.646,11.11,16.918,11.379,16.985z"/><path fill="#303c42" d="M16 16c-.804 0-2 .532-2 2 0 .354-.004.578-.093.726-.09-.133-.234-.226-.407-.226-.272 0-.491.218-.498.489-.145.005-.312.009-.503.01-.001-.276-.224-.499-.5-.499s-.499.223-.5.499c-.191-.001-.358-.005-.503-.01-.006-.271-.225-.489-.498-.489-.173 0-.317.093-.407.226C10.004 18.578 10 18.354 10 18c0-1.468-1.196-2-2-2-.276 0-.5.224-.5.5S7.724 17 8 17c.167 0 1 .048 1 1 0 1.147.341 1.627 1 1.835V20c0 .276.224.5.5.5S11 20.276 11 20v-.017c.158.007.323.013.5.014V20c0 .276.224.5.5.5s.5-.224.5-.5v-.003c.177-.002.342-.008.5-.014V20c0 .276.224.5.5.5S14 20.276 14 20v-.165c.659-.208 1-.688 1-1.835 0-.912.767-.996 1.003-1 .274-.002.497-.225.497-.5C16.5 16.224 16.276 16 16 16zM16 10c-.03 0-3 .325-3 1.5 0 1.207 1.174 2.5 2 2.5 1.559 0 3-.242 3-2C18 10.668 16.718 10 16 10z"/><path fill="#5c6671" d="M15.01,13.001c-0.235-0.035-0.939-0.69-1.005-1.396C14.328,11.354,15.603,11,16,11   c0.241,0,1,0.301,1,1C17,12.491,17,13,15.01,13.001z"/><path fill="#303c42" d="M11,11.5c0-1.175-2.97-1.5-3-1.5c-0.718,0-2,0.668-2,2c0,1.758,1.441,2,3,2   C9.826,14,11,12.707,11,11.5z"/><path fill="#5c6671" d="M7,12c0-0.699,0.759-1,1-1c0.397,0,1.672,0.354,1.995,0.605C9.93,12.311,9.227,12.966,9,13   C7,13,7,12.491,7,12z"/><linearGradient id="a" x1="2.848" x2="20.244" y1="16.371" y2="8.259" gradientTransform="matrix(1 0 0 -1 0 24)" gradientUnits="userSpaceOnUse"><stop offset="0" stop-color="#fff" stop-opacity=".2"/><stop offset="1" stop-color="#fff" stop-opacity="0"/></linearGradient><path fill="url(#a)" d="M21,8.5C21,5.435,17.795,1,12,1S3,5.435,3,8.5c0,2.486,0.968,4.312,1.399,5.001   C4.214,13.851,4,14.476,4,15.5C4,16.641,4.434,18,6.5,18c0.902,0,1,1.398,1,2c0,1.821,2.229,3,3,3c0.458,0,1.135-0.279,1.5-0.446   C12.365,22.721,13.042,23,13.5,23c0.771,0,3-1.179,3-3c0-0.602,0.098-2,1-2c2.066,0,2.5-1.359,2.5-2.5   c0-1.024-0.214-1.649-0.399-1.999C20.032,12.812,21,10.986,21,8.5z"/></svg>