<svg xmlns="http://www.w3.org/2000/svg" enable-background="new 0 0 24 24" viewBox="0 0 24 24"><path fill="#303c42" d="M20.108,12.282C20.271,11.747,20.5,10.704,20.5,9c0-1.919-0.199-2.902-0.39-3.403l0.743-0.743   c0.195-0.195,0.195-0.512,0-0.707C20.726,4.018,17.644,1,12,1C9.812,1,8.657,1.735,8.283,2.029C7.423,2.185,3.436,3.172,3.436,8   c0,1.239,0.36,3.404,0.51,4.247C3.11,12.828,3,13.791,3,14.5c0,0.958,0.889,3.104,2.15,3.452c0.013,0.032,0.025,0.065,0.04,0.1   C5.735,19.405,7.183,23,12,23s6.265-3.595,6.81-4.949c0.015-0.035,0.027-0.068,0.04-0.1c1.262-0.348,2.15-2.494,2.15-3.452   C21,13.806,20.897,12.866,20.108,12.282z"/><path fill="#6d4c41" d="M8.556,2.997C8.664,2.984,8.771,2.933,8.85,2.858C8.858,2.849,9.775,2,12,2   c4.133,0,6.817,1.778,7.766,2.528l-0.619,0.619c-0.195,0.195-0.23,0.472-0.035,0.667c0.017,0.023,0.389,0.604,0.389,3.187   c0,0.339-0.01,0.649-0.026,0.931c-0.539-1.254-1.476-2.329-2.718-3.066c-1.108-0.658-2.35-0.985-3.646-0.985   c-1.375,0-2.812,0.37-4.21,1.106C7.67,6.867,6.631,7.176,5.81,7.901c-0.578,0.51-0.972,1.158-1.239,1.806   C4.494,9.081,4.437,8.463,4.437,8.001C4.437,3.523,8.388,3.016,8.556,2.997z"/><path fill="#fff" d="M5.088,8.652c0-4.477,3.951-4.984,4.119-5.003   C9.315,3.636,9.422,3.585,9.501,3.51c0.009-0.009,0.926-0.858,3.15-0.858c3.331,0,5.702,1.149,7,1.99l0.114-0.114   C18.817,3.778,16.133,2,12,2C9.775,2,8.858,2.849,8.85,2.858C8.771,2.933,8.664,2.984,8.556,2.997C8.388,3.016,4.437,3.523,4.437,8   c0,0.462,0.057,1.079,0.134,1.706C4.708,9.374,4.88,9.043,5.091,8.73C5.09,8.704,5.088,8.676,5.088,8.652z" enable-background="new" opacity=".2"/><path fill="#fee8d7" d="M18.5,17c-0.192,0-0.367,0.11-0.45,0.283c-0.047,0.096-0.102,0.23-0.167,0.395   C17.361,18.971,16.142,22,12,22s-5.361-3.029-5.883-4.322c-0.065-0.165-0.12-0.299-0.167-0.395C5.867,17.11,5.692,17,5.5,17   C4.872,17,4,15.264,4,14.5c0-1.071,0.341-1.376,0.71-1.546l-0.001-0.003C4.881,12.872,5,12.7,5,12.5   c0-0.709,0.265-2.785,1.472-3.85c0.632-0.559,1.463-0.78,2.467-0.654c0.103,0.012,0.21-0.007,0.301-0.057   c2.44-1.331,4.993-1.409,7.006-0.214C17.97,8.749,19,10.534,19,12.5c0,0.198,0.119,0.367,0.293,0.448l-0.003,0.006   C19.659,13.124,20,13.429,20,14.5C20,15.264,19.128,17,18.5,17z"/><path fill="#fff" d="M6.853,17.678c-0.057-0.165-0.105-0.299-0.146-0.395   C6.634,17.11,6.481,17,6.312,17C5.763,17,5,15.264,5,14.5c0-1.071,0.298-1.376,0.621-1.546L5.62,12.951   c0.151-0.08,0.255-0.252,0.255-0.451c0-0.709,0.232-2.785,1.288-3.85c0.393-0.397,0.878-0.615,1.438-0.668   C7.751,7.942,7.03,8.156,6.472,8.65C5.265,9.715,5,11.791,5,12.5c0,0.2-0.119,0.372-0.291,0.451l0.001,0.003   C4.341,13.124,4,13.429,4,14.5C4,15.264,4.872,17,5.5,17c0.192,0,0.367,0.11,0.45,0.283c0.047,0.096,0.102,0.23,0.167,0.395   C6.639,18.971,7.858,22,12,22C8.376,22,7.309,18.971,6.853,17.678z" enable-background="new" opacity=".2"/><path d="M19.29,12.954l0.003-0.006C19.119,12.867,19,12.698,19,12.5   c0-1.966-1.03-3.751-2.755-4.775c-1.016-0.603-2.169-0.88-3.376-0.837c1.016-0.02,1.988,0.255,2.846,0.837   c1.509,1.024,2.411,2.809,2.411,4.775c0,0.198,0.104,0.367,0.256,0.448l-0.003,0.006C18.702,13.124,19,13.429,19,14.5   c0,0.764-0.763,2.5-1.313,2.5c-0.168,0-0.321,0.11-0.394,0.283c-0.041,0.096-0.089,0.23-0.146,0.395C16.691,18.971,15.624,22,12,22   c4.142,0,5.361-3.029,5.883-4.322c0.065-0.165,0.12-0.299,0.167-0.395C18.133,17.11,18.308,17,18.5,17c0.628,0,1.5-1.736,1.5-2.5   C20,13.429,19.659,13.124,19.29,12.954z" enable-background="new" opacity=".1"/><circle cx="8.5" cy="13" r="1" fill="#303c42"/><circle cx="15.5" cy="13" r="1" fill="#303c42"/><linearGradient id="a" x1="2.957" x2="20.745" y1="16.561" y2="8.266" gradientTransform="matrix(1 0 0 -1 0 24)" gradientUnits="userSpaceOnUse"><stop offset="0" stop-color="#fff" stop-opacity=".2"/><stop offset="1" stop-color="#fff" stop-opacity="0"/></linearGradient><path fill="url(#a)" d="M20.108,12.282C20.271,11.747,20.5,10.704,20.5,9c0-1.919-0.199-2.902-0.39-3.403   l0.743-0.743c0.195-0.195,0.195-0.512,0-0.707C20.726,4.018,17.644,1,12,1C9.812,1,8.657,1.735,8.283,2.029   C7.423,2.185,3.436,3.172,3.436,8c0,1.239,0.36,3.404,0.51,4.247C3.11,12.828,3,13.791,3,14.5c0,0.958,0.889,3.104,2.15,3.452   c0.013,0.032,0.025,0.065,0.04,0.1C5.735,19.405,7.183,23,12,23s6.265-3.595,6.81-4.949c0.015-0.035,0.027-0.068,0.04-0.1   c1.262-0.348,2.15-2.494,2.15-3.452C21,13.806,20.897,12.866,20.108,12.282z"/></svg>