<svg xmlns="http://www.w3.org/2000/svg" enable-background="new 0 0 24 24" viewBox="0 0 24 24"><path fill="#303c42" d="M24,11.5c0-1.607-0.874-3.176-2.007-3.966C21.994,7.522,22,7.512,22,7.5C22,3.314,17.861,1,15,1   c-1.576,0-2.581,0.301-3,0.459C11.581,1.301,10.576,1,9,1C6.139,1,2,3.314,2,7.5c0,0.012,0.006,0.022,0.007,0.034   C0.874,8.324,0,9.893,0,11.5c0,1.169,0.312,2.016,0.62,2.586C0.28,14.614,0,15.378,0,16.5c0,2.286,1.556,3.279,2.379,3.485   c0.149,0.037,0.308,0.004,0.429-0.091c0.019-0.015,0.036-0.03,0.052-0.047c0.73,1.144,1.566,1.652,2.641,1.652   c0.51,0,1.048-0.137,1.577-0.386C8.11,22.145,9.653,23,12,23s3.89-0.855,4.923-1.886c0.529,0.25,1.068,0.386,1.577,0.386   c1.074,0,1.911-0.509,2.641-1.652c0.016,0.017,0.033,0.032,0.052,0.047c0.122,0.095,0.279,0.126,0.429,0.091   C22.444,19.779,24,18.786,24,16.5c0-1.122-0.28-1.886-0.62-2.414C23.688,13.516,24,12.669,24,11.5z"/><path fill="#fee8d7" d="M12,22c-4.144,0-5.362-3.029-5.883-4.323c-0.066-0.164-0.121-0.298-0.167-0.394   C5.867,17.11,5.692,17,5.5,17C4.872,17,4,15.265,4,14.5c0-1.071,0.341-1.376,0.709-1.546C4.887,12.872,5,12.695,5,12.5   c0-3.649,0.766-5.94,2.214-6.626c0.884-0.42,1.567-0.563,2.122-0.563c0.664,0,1.145,0.205,1.569,0.386C11.269,5.854,11.613,6,12,6   c0.386,0,0.73-0.146,1.094-0.302c0.778-0.331,1.749-0.746,3.696,0.18C18.236,6.564,19,8.854,19,12.5   c0,0.195,0.113,0.372,0.291,0.454C19.66,13.124,20,13.429,20,14.5c0,0.765-0.872,2.5-1.5,2.5c-0.192,0-0.367,0.11-0.451,0.283   c-0.046,0.096-0.101,0.229-0.167,0.394C17.362,18.971,16.144,22,12,22z"/><path d="M19.291,12.954C19.113,12.872,19,12.695,19,12.5   c0-3.646-0.764-5.937-2.21-6.622c-0.999-0.475-1.739-0.595-2.33-0.556c0.488,0.011,1.078,0.151,1.843,0.556   c1.299,0.686,1.986,2.976,1.986,6.622c0,0.195,0.102,0.372,0.261,0.454c0.331,0.17,0.637,0.475,0.637,1.546   c0,0.765-0.783,2.5-1.348,2.5c-0.173,0-0.33,0.11-0.405,0.283c-0.041,0.096-0.09,0.229-0.15,0.394C16.818,18.971,15.723,22,12,22   c4.144,0,5.362-3.029,5.883-4.323c0.066-0.164,0.121-0.298,0.167-0.394C18.133,17.11,18.308,17,18.5,17c0.628,0,1.5-1.735,1.5-2.5   C20,13.429,19.659,13.124,19.291,12.954z" enable-background="new" opacity=".1"/><path fill="#fff" d="M6.715,17.677c-0.059-0.164-0.108-0.298-0.15-0.394   C6.49,17.11,6.333,17,6.16,17c-0.565,0-1.348-1.735-1.348-2.5c0-1.071,0.306-1.376,0.637-1.546C5.608,12.872,5.71,12.695,5.71,12.5   c0-3.649,0.688-5.94,1.989-6.626C8.425,5.49,8.994,5.345,9.468,5.321c-0.046-0.002-0.086-0.01-0.133-0.01   c-0.555,0-1.237,0.143-2.122,0.563C5.766,6.56,5,8.851,5,12.5c0,0.195-0.113,0.372-0.291,0.454C4.341,13.124,4,13.429,4,14.5   C4,15.265,4.872,17,5.5,17c0.192,0,0.367,0.11,0.451,0.283c0.046,0.096,0.101,0.229,0.167,0.394C6.638,18.971,7.856,22,12,22   C8.277,22,7.182,18.971,6.715,17.677z" enable-background="new" opacity=".2"/><path fill="#e6e6e6" d="M22,18.698V18c0-0.239-0.17-0.445-0.405-0.491c-0.235-0.045-0.47,0.083-0.559,0.306   c-0.946,2.366-1.813,2.686-2.536,2.686c-0.281,0-0.582-0.078-0.887-0.192c0.632-0.863,0.986-1.731,1.198-2.258   c0.014-0.034,0.027-0.067,0.04-0.098c1.262-0.349,2.15-2.494,2.15-3.452c0-0.726-0.111-1.72-1.001-2.296   c-0.044-3.943-0.979-6.375-2.78-7.23c-2.355-1.117-3.656-0.563-4.517-0.195C12.423,4.897,12.182,5,12,5s-0.423-0.103-0.703-0.222   c-0.86-0.368-2.161-0.923-4.511,0.191c-1.804,0.854-2.74,3.288-2.784,7.234C3.111,12.78,3,13.774,3,14.5   c0,0.958,0.888,3.104,2.15,3.452c0.012,0.03,0.025,0.063,0.04,0.098c0.212,0.527,0.565,1.395,1.198,2.258   C6.082,20.422,5.781,20.5,5.5,20.5c-0.723,0-1.589-0.319-2.536-2.686c-0.089-0.222-0.321-0.35-0.559-0.306   C2.17,17.555,2,17.761,2,18v0.697c-0.458-0.333-1-0.984-1-2.197c0-2.058,1.103-2.505,1.165-2.528c0.258-0.089,0.396-0.37,0.31-0.63   c-0.087-0.262-0.367-0.405-0.632-0.316c-0.024,0.008-0.231,0.091-0.491,0.277C1.161,12.858,1,12.268,1,11.5C1,9.799,2.285,8,3.5,8   C3.776,8,4,7.776,4,7.5S3.776,7,3.5,7C3.341,7,3.185,7.038,3.028,7.072C3.314,3.542,7.051,2,9,2c1.833,0,2.77,0.444,2.776,0.447   c0.139,0.069,0.305,0.069,0.444,0.001C12.23,2.444,13.167,2,15,2c1.949,0,5.686,1.542,5.972,5.072C20.815,7.038,20.659,7,20.5,7   C20.224,7,20,7.224,20,7.5S20.224,8,20.5,8c1.215,0,2.5,1.799,2.5,3.5c0,0.768-0.161,1.358-0.351,1.802   c-0.26-0.186-0.467-0.269-0.491-0.277c-0.259-0.088-0.535,0.053-0.625,0.31c-0.091,0.258,0.046,0.542,0.302,0.637   C21.882,13.989,23,14.429,23,16.5C23,17.715,22.458,18.366,22,18.698z"/><path fill="#fff" d="M3.573 7.015C4.168 3.859 7.62 2.469 9.469 2.469c1.833 0 2.77.444 2.776.447.139.069.305.069.444.001.009-.004.947-.448 2.779-.448 1.156 0 2.938.548 4.259 1.726C18.391 2.691 16.3 2 15 2c-1.833 0-2.77.444-2.779.448-.14.068-.306.068-.444-.001C11.77 2.444 10.833 2 9 2 7.051 2 3.314 3.542 3.028 7.072 3.185 7.038 3.341 7 3.5 7 3.526 7 3.548 7.011 3.573 7.015zM1.612 13.138c-.084-.335-.143-.718-.143-1.169 0-1.701 1.285-3.5 2.5-3.5.276 0 .5-.224.5-.5 0-.267-.21-.481-.474-.495C3.995 7.483 4 7.491 4 7.5 4 7.776 3.776 8 3.5 8 2.285 8 1 9.799 1 11.5c0 .768.161 1.358.351 1.802C1.45 13.232 1.536 13.18 1.612 13.138zM1.469 16.969c0-2.058 1.103-2.505 1.165-2.528.258-.089.396-.37.31-.63-.068-.202-.251-.331-.452-.339.012.218-.111.426-.326.5C2.103 13.995 1 14.442 1 16.5c0 1.213.542 1.864 1 2.197v-.013C1.709 18.303 1.469 17.766 1.469 16.969z" enable-background="new" opacity=".2"/><circle cx="8.5" cy="13" r="1" fill="#303c42"/><circle cx="15.5" cy="13" r="1" fill="#303c42"/><path fill="#303c42" d="M13,16c-0.46,0-0.779,0.092-1,0.221C11.779,16.092,11.46,16,11,16c-1.173,0-2.236,1.029-2.354,1.146   c-0.143,0.143-0.186,0.358-0.108,0.545C8.615,17.878,8.798,18,9,18h1v1c0,1.103,0.897,2,2,2s2-0.897,2-2v-1h1   c0.202,0,0.385-0.122,0.462-0.309c0.078-0.187,0.035-0.402-0.108-0.545C15.236,17.029,14.173,16,13,16z"/><path fill="#d32f2f" d="M13,19c0,0.552-0.449,1-1,1s-1-0.448-1-1v-1h2V19z"/><path fill="#303c42" d="M9.5 10.5C9.5 10.224 9.276 10 9 10c-1.173 0-2.236 1.029-2.354 1.146-.195.195-.195.511 0 .706C6.744 11.95 6.872 11.998 7 11.998s.255-.048.353-.145C7.592 11.616 8.355 11 9 11 9.276 11 9.5 10.776 9.5 10.5zM15 10c-.276 0-.5.224-.5.5S14.724 11 15 11c.645 0 1.408.616 1.647.854.098.097.225.145.353.145s.256-.049.354-.146c.194-.195.194-.511 0-.706C17.236 11.029 16.173 10 15 10z"/><linearGradient id="a" x1="10.309" x2="15.416" y1="7.903" y2="2.796" gradientTransform="matrix(1 0 0 -1 0 24)" gradientUnits="userSpaceOnUse"><stop offset="0" stop-opacity=".1"/><stop offset="1" stop-opacity="0"/></linearGradient><path fill="url(#a)" d="M10,18H9c-0.153,0-0.279-0.085-0.372-0.2l-0.025,0.003l1.42,1.42   C10.014,19.149,10,19.076,10,19V18z M15.354,17.146c0.143,0.143,0.186,0.358,0.108,0.545C15.385,17.878,15.202,18,15,18h-1v1   c0,1.103-0.897,2-2,2c-0.43,0-0.825-0.139-1.152-0.37v0.003l1.776,1.338c2.585-0.205,3.9-1.662,4.621-2.932L15.354,17.146z"/><linearGradient id="b" x1="1.594" x2="23.994" y1="16.979" y2="6.534" gradientTransform="matrix(1 0 0 -1 0 24)" gradientUnits="userSpaceOnUse"><stop offset="0" stop-color="#fff" stop-opacity=".2"/><stop offset="1" stop-color="#fff" stop-opacity="0"/></linearGradient><path fill="url(#b)" d="M24,11.5c0-1.607-0.874-3.176-2.007-3.966C21.994,7.522,22,7.512,22,7.5   C22,3.314,17.861,1,15,1c-1.576,0-2.581,0.301-3,0.459C11.581,1.301,10.576,1,9,1C6.139,1,2,3.314,2,7.5   c0,0.012,0.006,0.022,0.007,0.034C0.874,8.324,0,9.893,0,11.5c0,1.169,0.312,2.016,0.62,2.586C0.28,14.614,0,15.378,0,16.5   c0,2.286,1.556,3.279,2.379,3.485c0.149,0.037,0.308,0.004,0.429-0.091c0.019-0.015,0.036-0.03,0.052-0.047   c0.73,1.144,1.566,1.652,2.641,1.652c0.51,0,1.048-0.137,1.577-0.386C8.11,22.145,9.653,23,12,23s3.89-0.855,4.923-1.886   c0.529,0.25,1.068,0.386,1.577,0.386c1.074,0,1.911-0.509,2.641-1.652c0.016,0.017,0.033,0.032,0.052,0.047   c0.122,0.095,0.279,0.126,0.429,0.091C22.444,19.779,24,18.786,24,16.5c0-1.122-0.28-1.886-0.62-2.414   C23.688,13.516,24,12.669,24,11.5z"/></svg>