<svg xmlns="http://www.w3.org/2000/svg" enable-background="new 0 0 24 24" viewBox="0 0 24 24"><path fill="#303c42" d="M19.491,15.319C20.789,13.474,21,10.162,21,7c0-4.452-7.073-7-9-7S3,2.548,3,7   c0,3.162,0.211,6.474,1.509,8.319c0.088,2.711,2.321,6.927,4.526,7.854C9.204,23.72,10.194,24,12,24s2.796-0.28,2.965-0.827   C17.17,22.246,19.403,18.03,19.491,15.319z"/><path fill="#0288d1" d="M5.186,4.383C6.006,5.689,6.004,9.78,6,11.236c-0.159,0.084-0.308,0.183-0.436,0.313   c-0.566,0.578-0.566,1.373-0.558,1.536C5.05,13.332,5.467,15.5,7,15.5c1.301,0,3.23-0.687,4.396-2.194   c0.087-0.113,0.122-0.257,0.096-0.397c-0.025-0.14-0.11-0.262-0.231-0.336C11.154,12.508,8.652,11,7,11l0,0   C6.999,7.918,6.844,4.981,5.921,3.69C7.953,2.006,10.999,1,12,1s4.047,1.006,6.079,2.69C17.157,4.982,17.001,7.918,17,11l0,0   c-1.652,0-4.154,1.508-4.26,1.573c-0.121,0.074-0.206,0.196-0.231,0.336c-0.026,0.14,0.009,0.284,0.096,0.397   C13.77,14.814,15.7,15.5,17.001,15.5c1.533,0,1.95-2.168,2-2.49c0.002-0.089,0.002-0.884-0.564-1.462   c-0.127-0.13-0.276-0.229-0.436-0.313c-0.004-1.456-0.006-5.547,0.814-6.853C19.526,5.154,20,6.031,20,7   c0,3.204-0.23,7.576-2.22,8.551c-1.146,0.56-2.546-0.167-3.784-0.809C13.229,14.344,12.565,14,12,14s-1.229,0.344-1.996,0.743   c-1.238,0.641-2.639,1.366-3.784,0.809C4.23,14.576,4,10.204,4,7C4,6.031,4.474,5.154,5.186,4.383z"/><path d="M18.814,4.383c-0.014,0.022-0.025,0.05-0.038,0.073   c0.435,0.619,0.703,1.295,0.703,2.023c0,1.891-0.084,4.184-0.558,5.95C19,12.726,19.001,12.964,19,13.01   c-0.049,0.314-0.485,2.615-1.934,2.722c0.245-0.02,0.486-0.069,0.715-0.181C19.77,14.576,20,10.204,20,7   C20,6.031,19.526,5.154,18.814,4.383z" enable-background="new" opacity=".1"/><path fill="#fff" d="M7 11c.221 0 .459.03.703.077C7.679 8.232 7.488 5.6 6.629 4.398c2.032-1.683 5.078-2.69 6.079-2.69.88 0 3.338.778 5.3 2.109.025-.039.045-.091.071-.127C16.047 2.006 13.001 1 12 1S7.953 2.006 5.921 3.69C6.843 4.981 6.998 7.918 7 11L7 11zM5.583 14.604c-.398-.629-.552-1.38-.576-1.52-.004-.066-.003-.239.033-.457-.276-1.573-.332-3.38-.332-4.919 0-.815.348-1.562.878-2.239C5.481 5.024 5.35 4.645 5.185 4.382 4.474 5.154 4 6.031 4 7c0 3.088.219 7.251 2.015 8.423C5.851 15.183 5.709 14.907 5.583 14.604z" enable-background="new" opacity=".2"/><path fill="#e6e6e6" d="M10.214 13.129C9.282 14.031 7.955 14.5 7 14.5c-.551 0-.917-1.068-1-1.506 0-.005.001-.467.283-.75C6.446 12.08 6.681 12 7 12 7.913 12 9.345 12.662 10.214 13.129zM18.006 12.923C17.918 13.423 17.547 14.5 17 14.5c-.955 0-2.282-.469-3.214-1.371C14.655 12.662 16.087 12 17 12c.319 0 .554.08.717.244C17.978 12.506 17.998 12.922 18.006 12.923z"/><path fill="#fee8d7" d="M14.402,22.318C13.907,22.109,13.113,22,12,22s-1.907,0.109-2.402,0.318   c-1.613-0.454-3.424-3.55-3.946-5.945c0.044,0.024,0.083,0.054,0.128,0.076c1.598,0.782,3.309-0.106,4.684-0.819   C11.062,15.32,11.679,15,12,15s0.938,0.32,1.536,0.63c0.995,0.516,2.166,1.124,3.343,1.124c0.449,0,0.899-0.089,1.341-0.305   c0.045-0.022,0.084-0.052,0.128-0.076C17.826,18.768,16.015,21.864,14.402,22.318z"/><path fill="#303c42" d="M13 19h-2c-.276 0-.5.224-.5.5S10.724 20 11 20h2c.276 0 .5-.224.5-.5S13.276 19 13 19zM13.025 10.658C13.095 10.867 13.291 11 13.5 11c.053 0 .105-.008.158-.026.262-.087.403-.37.316-.632l-1.5-4.5c-.137-.408-.813-.408-.949 0l-1.5 4.5c-.087.262.055.545.316.632.262.089.545-.053.633-.316L11.194 10h1.612L13.025 10.658zM11.527 9L12 7.581 12.473 9H11.527z"/><linearGradient id="a" x1="8.826" x2="16.394" y1="10.801" y2="3.233" gradientTransform="matrix(1 0 0 -1 0 24)" gradientUnits="userSpaceOnUse"><stop offset="0" stop-opacity=".1"/><stop offset="1" stop-opacity="0"/></linearGradient><path fill="url(#a)" d="M12,22c1.113,0,1.907,0.109,2.402,0.318c1.613-0.454,3.424-3.55,3.946-5.945   c-0.044,0.024-0.083,0.054-0.128,0.076c-0.441,0.216-0.892,0.305-1.341,0.305c-1.177,0-2.348-0.608-3.343-1.124   C12.938,15.32,12.321,15,12,15s-0.938,0.32-1.536,0.63c-1.375,0.713-3.086,1.601-4.684,0.819c-0.045-0.022-0.084-0.052-0.128-0.076   l5.646,5.646C11.518,22.007,11.748,22,12,22z"/><linearGradient id="b" x1="2.309" x2="19.988" y1="16.457" y2="8.213" gradientTransform="matrix(1 0 0 -1 0 24)" gradientUnits="userSpaceOnUse"><stop offset="0" stop-color="#fff" stop-opacity=".2"/><stop offset="1" stop-color="#fff" stop-opacity="0"/></linearGradient><path fill="url(#b)" d="M19.491,15.319C20.789,13.474,21,10.162,21,7c0-4.452-7.073-7-9-7S3,2.548,3,7   c0,3.162,0.211,6.474,1.509,8.319c0.088,2.711,2.321,6.927,4.526,7.854C9.204,23.72,10.194,24,12,24s2.796-0.28,2.965-0.827   C17.17,22.246,19.403,18.03,19.491,15.319z"/></svg>