<svg xmlns="http://www.w3.org/2000/svg" enable-background="new 0 0 24 24" viewBox="0 0 24 24"><path fill="#303c42" d="M20.5,18.5c0-0.411,0.242-0.911,0.522-1.49C21.458,16.11,22,14.991,22,13.5C22,8.94,19.282,0,13,0   c-1.57,0-2.398,0.646-2.737,1.004C4.249,1.197,2,8.729,2,13.5c0,1.491,0.542,2.61,0.978,3.51C3.258,17.589,3.5,18.09,3.5,18.5   c0,1.146-0.456,1.749-0.854,2.146c-0.107,0.107-0.16,0.257-0.144,0.408c0.017,0.15,0.1,0.286,0.228,0.367   c1.068,0.682,1.787,0.551,2.215,0.472c0.081-0.015,0.192-0.035,0.2-0.04c0.007,0.007,0.014,0.014,0.02,0.021   C5.097,22.004,5,22.208,5,22.5c0,0.161,0.077,0.312,0.208,0.406C5.339,23,5.505,23.024,5.659,22.975   c0.757-0.253,2.119-0.036,3.24,0.15C10.019,23.793,11.102,24,12,24s1.981-0.207,3.102-0.876c1.121-0.185,2.482-0.403,3.24-0.15   c0.152,0.049,0.319,0.025,0.451-0.069c0.13-0.094,0.208-0.245,0.208-0.406c0-0.272-0.085-0.469-0.172-0.637   c0.042-0.005,0.146,0.016,0.226,0.031c0.429,0.078,1.147,0.209,2.215-0.472c0.128-0.082,0.211-0.217,0.228-0.367   c0.017-0.151-0.037-0.301-0.144-0.408C20.956,20.249,20.5,19.646,20.5,18.5z"/><path fill="#4d4d4d" d="M10.5 2c.166 0 .326-.09.419-.228C10.94 1.741 11.459 1 13 1c5.327 0 8 8.014 8 12.5 0 .353-.042.677-.104.988-.142-.582-.468-1.13-1.197-1.446C19.636 13.014 19.568 13 19.5 13 17.649 13 15 8.878 15 6c0-.276-.224-.5-.5-.5S14 5.724 14 6c0 2.581-7.007 7-9.5 7-.068 0-.136.014-.199.042-.729.317-1.055.864-1.197 1.446C3.042 14.177 3 13.853 3 13.5 3 9.748 4.833 2 10.5 2zM6.203 21.87c.007-.212-.078-.452-.35-.723-.369-.368-.785-.293-1.087-.237-.262.047-.55.101-.976-.062.37-.508.703-1.241.708-2.326.247.208.512.373.801.441.653 1.262 1.354 2.218 2.066 2.943C6.949 21.866 6.557 21.847 6.203 21.87z"/><path fill="#fff" d="M11 2.5c.166 0 .326-.09.419-.228C11.44 2.24 11.959 1.5 13.5 1.5c1.492 0 2.768.643 3.844 1.647C16.174 1.852 14.729 1 13 1c-1.541 0-2.06.741-2.081.772C10.826 1.91 10.666 2 10.5 2 4.833 2 3 9.748 3 13.5c0 .353.042.677.104.988.074-.303.202-.595.407-.852C3.621 9.773 5.506 2.5 11 2.5zM4.416 20.952c.281-.51.508-1.196.559-2.12-.166-.083-.326-.183-.477-.31-.005 1.086-.338 1.819-.708 2.326C4.039 20.943 4.239 20.961 4.416 20.952z" enable-background="new" opacity=".2"/><path fill="#8d6e63" d="M6.121,18.373L6.07,18.272C5.984,18.105,5.812,18,5.625,18C4.927,18,4,16.285,4,15.5   c0-0.963,0.233-1.309,0.617-1.502c0.621-0.028,1.472-0.273,2.417-0.665C7.015,13.385,7,13.44,7,13.5C7,13.776,7.224,14,7.5,14   c0,0.551,0.449,1,1,1s1-0.449,1-1s-0.449-1-1-1H7.779c2.42-1.147,5.224-3.117,6.51-5.044c0.781,2.855,3.015,5.928,5.093,6.041   C19.766,14.191,20,14.537,20,15.5c0,0.785-0.927,2.5-1.625,2.5c-0.188,0-0.359,0.105-0.445,0.272l-0.051,0.101   C16.326,21.443,14.348,23,12,23S7.674,21.443,6.121,18.373z"/><path d="M19.382,13.997c-2.078-0.113-4.312-3.186-5.093-6.041   c-0.062,0.093-0.143,0.186-0.212,0.279c0.74,2.773,2.623,5.653,4.383,5.762C18.796,14.191,19,14.537,19,15.5   c0,0.785-0.811,2.5-1.422,2.5c-0.164,0-0.314,0.105-0.39,0.272l-0.044,0.101C15.785,21.443,14.054,23,12,23   c2.348,0,4.326-1.557,5.879-4.627l0.051-0.101C18.016,18.105,18.188,18,18.375,18C19.073,18,20,16.285,20,15.5   C20,14.536,19.766,14.191,19.382,13.997z" enable-background="new" opacity=".1"/><path fill="#fff" d="M6.856,18.373l-0.044-0.101C6.736,18.105,6.586,18,6.422,18   C5.811,18,5,16.285,5,15.5c0-0.963,0.204-1.309,0.54-1.502c0.4-0.02,0.911-0.16,1.482-0.389C7.014,13.573,7,13.539,7,13.5   c0-0.06,0.015-0.115,0.034-0.168c-0.945,0.393-1.796,0.638-2.417,0.665C4.233,14.191,4,14.537,4,15.5C4,16.285,4.927,18,5.625,18   c0.187,0,0.359,0.105,0.445,0.272l0.051,0.101C7.674,21.443,9.652,23,12,23C9.946,23,8.215,21.443,6.856,18.373z" enable-background="new" opacity=".2"/><path fill="#4d4d4d" d="M19.234,20.91c-0.303-0.056-0.719-0.131-1.087,0.237c-0.271,0.271-0.357,0.511-0.35,0.723   c-0.354-0.023-0.746-0.003-1.163,0.036c0.712-0.725,1.414-1.681,2.067-2.943c0.289-0.067,0.554-0.232,0.801-0.441   c0.005,1.086,0.338,1.819,0.708,2.326C19.782,21.01,19.495,20.957,19.234,20.91z"/><linearGradient id="a" x1="17.759" x2="19.456" y1="4.095" y2="2.398" gradientTransform="matrix(1 0 0 -1 0 24)" gradientUnits="userSpaceOnUse"><stop offset="0" stop-opacity=".1"/><stop offset="1" stop-opacity="0"/></linearGradient><path fill="url(#a)" d="M19.234,20.91c-0.303-0.056-0.719-0.131-1.087,0.237c-0.271,0.271-0.357,0.511-0.35,0.723   c-0.354-0.023-0.746-0.003-1.163,0.036c0.712-0.725,1.414-1.681,2.067-2.943c0.289-0.067,0.554-0.232,0.801-0.441   c0.005,1.086,0.338,1.819,0.708,2.326C19.782,21.01,19.495,20.957,19.234,20.91z"/><path fill="#303c42" d="M16.5,14c0.276,0,0.5-0.224,0.5-0.5S16.776,13,16.5,13h-1c-0.551,0-1,0.449-1,1s0.449,1,1,1   C16.051,15,16.5,14.551,16.5,14z"/><linearGradient id="b" x1="2.653" x2="23.108" y1="15.875" y2="6.337" gradientTransform="matrix(1 0 0 -1 0 24)" gradientUnits="userSpaceOnUse"><stop offset="0" stop-color="#fff" stop-opacity=".2"/><stop offset="1" stop-color="#fff" stop-opacity="0"/></linearGradient><path fill="url(#b)" d="M20.5,18.5c0-0.411,0.242-0.911,0.522-1.49C21.458,16.11,22,14.991,22,13.5   C22,8.94,19.282,0,13,0c-1.57,0-2.398,0.646-2.737,1.004C4.249,1.197,2,8.729,2,13.5c0,1.491,0.542,2.61,0.978,3.51   C3.258,17.589,3.5,18.09,3.5,18.5c0,1.146-0.456,1.749-0.854,2.146c-0.107,0.107-0.16,0.257-0.144,0.408   c0.017,0.15,0.1,0.286,0.228,0.367c1.068,0.682,1.787,0.551,2.215,0.472c0.081-0.015,0.192-0.035,0.2-0.04   c0.007,0.007,0.014,0.014,0.02,0.021C5.097,22.004,5,22.208,5,22.5c0,0.161,0.077,0.312,0.208,0.406   C5.339,23,5.505,23.024,5.659,22.975c0.757-0.253,2.119-0.036,3.24,0.15C10.019,23.793,11.102,24,12,24s1.981-0.207,3.102-0.876   c1.121-0.185,2.482-0.403,3.24-0.15c0.152,0.049,0.319,0.025,0.451-0.069c0.13-0.094,0.208-0.245,0.208-0.406   c0-0.272-0.085-0.469-0.172-0.637c0.042-0.005,0.146,0.016,0.226,0.031c0.429,0.078,1.147,0.209,2.215-0.472   c0.128-0.082,0.211-0.217,0.228-0.367c0.017-0.151-0.037-0.301-0.144-0.408C20.956,20.249,20.5,19.646,20.5,18.5z"/></svg>