<svg xmlns="http://www.w3.org/2000/svg" enable-background="new 0 0 24 24" viewBox="0 0 24 24"><path fill="#303c42" d="M19.88,0.175c-0.144-0.167-0.381-0.221-0.578-0.134c-0.201,0.087-0.322,0.295-0.299,0.513   c0.007,0.06,0.427,4.012,0.279,7.714C18.056,2.402,12.067,2,12,2S5.944,2.402,4.718,8.269C4.571,4.567,4.99,0.615,4.997,0.555   C5.02,0.337,4.899,0.129,4.698,0.042C4.501-0.045,4.263,0.008,4.12,0.176C4.034,0.276,2,2.693,2,6.5   c0,10.255,4.89,17.014,5.098,17.296C7.194,23.928,7.345,24,7.5,24c0.065,0,0.132-0.013,0.194-0.04   c0.214-0.09,0.337-0.314,0.299-0.542L7.75,21.96C8.836,23.127,10.376,24,12,24s3.164-0.873,4.25-2.041l-0.243,1.459   c-0.038,0.228,0.085,0.453,0.299,0.542C16.369,23.987,16.435,24,16.5,24c0.155,0,0.306-0.072,0.402-0.204   C17.11,23.514,22,16.755,22,6.5C22,2.693,19.966,0.276,19.88,0.175z"/><path fill="#fff9c4" d="M3,6.5c0-1.572,0.393-2.894,0.819-3.864c-0.197,2.998-0.345,8.297,0.797,10.985   c0.188,2.2,0.604,3.583,1.245,4.125c0.067,0.057,0.133,0.101,0.195,0.136l0.516,3.092C5.12,18.21,3,13.051,3,6.5z"/><path fill="#fee8d7" d="M12,23c-2.14,0-4.184-1.933-4.689-3.674l-0.318-1.908c-0.039-0.235-0.235-0.404-0.464-0.417   C6.421,16.925,5.75,16.3,5.555,12.658C5.809,12.263,6.418,11.5,7,11.5c0.533,0,2.844,1.744,4.667,3.373   c0.005,0.004,0.011,0.005,0.016,0.009s0.008,0.011,0.014,0.015c0.007,0.006,0.017,0.003,0.025,0.008C11.806,14.964,11.901,15,12,15   s0.194-0.036,0.279-0.094c0.008-0.005,0.018-0.003,0.025-0.008c0.006-0.004,0.008-0.011,0.014-0.015   c0.005-0.004,0.011-0.005,0.016-0.009c1.823-1.629,4.134-3.373,4.667-3.373c0.578,0,1.189,0.764,1.445,1.159   c-0.196,3.641-0.866,4.266-0.974,4.341c-0.229,0.013-0.425,0.182-0.464,0.417l-0.318,1.908C16.184,21.067,14.14,23,12,23z"/><path fill="#fff" d="M7.999,19.326l-0.271-1.908   c-0.033-0.235-0.201-0.404-0.396-0.417C7.24,16.925,6.667,16.3,6.501,12.658c0.163-0.297,0.498-0.802,0.865-1.034   C7.212,11.551,7.08,11.5,7,11.5c-0.582,0-1.191,0.763-1.445,1.158c0.195,3.642,0.866,4.267,0.974,4.343   c0.229,0.013,0.425,0.182,0.464,0.417l0.318,1.908C7.816,21.067,9.86,23,12,23C10.174,23,8.43,21.067,7.999,19.326z" enable-background="new" opacity=".2"/><path d="M17,11.5c-0.081,0-0.212,0.051-0.366,0.124   C17,11.857,17.336,12.362,17.5,12.66c-0.167,3.641-0.739,4.266-0.831,4.341c-0.195,0.013-0.363,0.182-0.396,0.417l-0.271,1.908   C15.57,21.067,13.826,23,12,23c2.14,0,4.184-1.933,4.689-3.674l0.318-1.908c0.039-0.235,0.235-0.404,0.464-0.417   c0.108-0.076,0.779-0.701,0.974-4.341C18.189,12.264,17.578,11.5,17,11.5z" enable-background="new" opacity=".1"/><path fill="#fff9c4" d="M17.943,17.883c0.063-0.035,0.128-0.079,0.195-0.136c0.641-0.542,1.057-1.926,1.245-4.125   c1.143-2.691,0.994-7.998,0.796-10.995c0.427,0.969,0.82,2.291,0.82,3.873c0,6.551-2.12,11.709-3.572,14.475L17.943,17.883z"/><circle cx="8.5" cy="14.5" r="1" fill="#303c42"/><circle cx="15.5" cy="14.5" r="1" fill="#303c42"/><path fill="#fff9c4" d="M14.879 9.861l3.298-1.851C18.378 8.734 18.5 9.553 18.5 10.5c0 .238-.004.456-.007.677C18.094 10.814 17.588 10.5 17 10.5c-.725 0-2.206 1.042-3.464 2.045L14.879 9.861zM17.839 7.052L15.09 8.595l.42-4.33C16.407 4.866 17.272 5.75 17.839 7.052zM14.558 3.721l-.547 5.64L12 13.382 9.989 9.36 9.442 3.72C10.79 3.085 11.972 3 12 3S13.211 3.085 14.558 3.721zM5.5 10.5c0-.947.122-1.767.323-2.49l3.298 1.851 1.343 2.685C9.206 11.543 7.725 10.5 7 10.5c-.588 0-1.094.314-1.493.677C5.504 10.956 5.5 10.738 5.5 10.5zM8.489 4.265l.42 4.33L6.16 7.052C6.728 5.75 7.593 4.866 8.489 4.265z"/><linearGradient id="a" x1="1.048" x2="21.116" y1="17.806" y2="8.448" gradientTransform="matrix(1 0 0 -1 0 24)" gradientUnits="userSpaceOnUse"><stop offset="0" stop-color="#fff" stop-opacity=".2"/><stop offset="1" stop-color="#fff" stop-opacity="0"/></linearGradient><path fill="url(#a)" d="M19.88,0.175c-0.144-0.167-0.381-0.221-0.578-0.134c-0.201,0.087-0.322,0.295-0.299,0.513   c0.007,0.06,0.427,4.012,0.279,7.714C18.056,2.402,12.067,2,12,2S5.944,2.402,4.718,8.269C4.571,4.567,4.99,0.615,4.997,0.555   C5.02,0.337,4.899,0.129,4.698,0.042C4.501-0.045,4.263,0.008,4.12,0.176C4.034,0.276,2,2.693,2,6.5   c0,10.255,4.89,17.014,5.098,17.296C7.194,23.928,7.345,24,7.5,24c0.065,0,0.132-0.013,0.194-0.04   c0.214-0.09,0.337-0.314,0.299-0.542L7.75,21.96C8.836,23.127,10.376,24,12,24s3.164-0.873,4.25-2.041l-0.243,1.459   c-0.038,0.228,0.085,0.453,0.299,0.542C16.369,23.987,16.435,24,16.5,24c0.155,0,0.306-0.072,0.402-0.204   C17.11,23.514,22,16.755,22,6.5C22,2.693,19.966,0.276,19.88,0.175z"/></svg>