<svg xmlns="http://www.w3.org/2000/svg" enable-background="new 0 0 24 24" viewBox="0 0 24 24"><path fill="#303c42" d="M21,12c0-1.807-0.736-2.867-1.028-3.218C19.683,2.327,15.559,0,12,0C8.358,0,4.122,2.432,4.01,9.234   C3.629,9.55,3,10.324,3,12c0,1.422,0.236,2.171,0.434,2.548c-0.261,0.649-0.783,2.31,0.213,3.306   c0.762,0.762,1.548,1.018,1.99,1.104c0.339,0.854,1.45,3.28,3.417,4.121c0.476,0.203,0.973,0.301,1.464,0.292   c-0.017,0.06-0.021,0.123-0.015,0.188C10.532,23.81,10.746,24,11,24c4.234,0,6.734-3.987,7.318-5.035   c0.434-0.077,1.247-0.323,2.035-1.111c0.996-0.996,0.474-2.656,0.213-3.306C20.764,14.171,21,13.422,21,12z"/><path fill="#8d6e63" d="M12,1c3.286,0,6.781,2.118,6.981,7.978c-0.13,0.4-0.481,1.61-0.481,3.022c0,1.252-0.748,2-2,2   c-0.546,0-0.988-0.169-1.548-0.384C14.235,13.342,13.343,13,12,13s-2.235,0.342-2.952,0.616C8.488,13.831,8.046,14,7.5,14   c-1.252,0-2-0.748-2-2c0-1.396-0.346-2.286-0.496-2.607C5.047,3.211,8.636,1,12,1z"/><path fill="#fff" d="M5.979,12.479c0-1.396-0.346-2.286-0.496-2.607   c0.043-6.182,3.632-8.393,6.996-8.393c1.573,0,3.191,0.493,4.476,1.643C15.61,1.627,13.777,1,12,1C8.636,1,5.047,3.211,5.004,9.393   C5.154,9.714,5.5,10.604,5.5,12c0,0.772,0.286,1.35,0.798,1.682C6.091,13.364,5.979,12.959,5.979,12.479z" enable-background="new" opacity=".2"/><path fill="#e6e6e6" d="M19.552,14.721c0.23,0.471,0.696,1.824,0.095,2.426c-0.82,0.82-1.622,0.853-1.65,0.854   c-0.188,0.002-0.36,0.108-0.444,0.277c-0.021,0.042-1.841,3.632-5.085,4.523c0.021-0.094,0.033-0.194,0.033-0.301   c0-0.171-0.087-0.33-0.231-0.422c-0.145-0.091-0.324-0.103-0.48-0.031c-0.835,0.391-1.6,0.427-2.339,0.112   c-1.94-0.827-2.966-3.79-2.976-3.819C6.408,18.142,6.219,18.006,6.01,18c-0.033-0.001-0.835-0.033-1.655-0.854   c-0.602-0.602-0.136-1.955,0.095-2.426c0.096-0.194,0.077-0.406-0.078-0.557C4.366,14.159,4,13.684,4,12   c0-0.751,0.15-1.235,0.313-1.549C4.411,10.827,4.5,11.343,4.5,12c0,1.822,1.178,3,3,3c0.731,0,1.302-0.219,1.905-0.45   C10.111,14.279,10.842,14,12,14s1.889,0.279,2.595,0.55C15.199,14.781,15.769,15,16.5,15c1.822,0,3-1.178,3-3   c0-0.647,0.086-1.248,0.184-1.734C19.854,10.692,20,11.261,20,12c0,1.652-0.353,2.142-0.349,2.142   C19.496,14.292,19.456,14.526,19.552,14.721z"/><path d="M19.646,16.396c-0.82,0.82-1.622,0.853-1.65,0.854   c-0.188,0.002-0.36,0.108-0.444,0.277c-0.021,0.042-1.841,3.632-5.085,4.523c0.021-0.094,0.033-0.194,0.033-0.301   c0-0.171-0.087-0.33-0.231-0.422c-0.145-0.091-0.324-0.103-0.48-0.031c-0.835,0.391-1.6,0.427-2.339,0.112   c-1.94-0.827-2.966-3.79-2.976-3.819c-0.067-0.198-0.256-0.334-0.465-0.34c-0.033-0.001-0.835-0.033-1.655-0.854   c-0.142-0.142-0.221-0.328-0.261-0.531c-0.074,0.479-0.044,0.977,0.261,1.281c0.82,0.82,1.622,0.853,1.655,0.854   c0.209,0.006,0.397,0.142,0.465,0.34c0.01,0.029,1.035,2.992,2.976,3.819c0.739,0.314,1.504,0.278,2.339-0.112   c0.156-0.071,0.336-0.06,0.48,0.031c0.145,0.092,0.231,0.251,0.231,0.422c0,0.106-0.012,0.207-0.033,0.301   c3.244-0.892,5.064-4.481,5.085-4.523c0.084-0.169,0.256-0.275,0.444-0.277c0.028-0.001,0.83-0.033,1.65-0.854   c0.305-0.305,0.335-0.803,0.261-1.281C19.867,16.069,19.788,16.255,19.646,16.396z" enable-background="new" opacity=".1"/><path fill="#303c42" d="M8.5,13c1.379,0,2.5-0.897,2.5-2v-0.247c0.169-0.105,0.486-0.253,1-0.253   c0.516,0,0.834,0.149,1,0.252V11c0,1.103,1.121,2,2.5,2s2.5-0.897,2.5-2v-0.5C18,9.673,17.327,9,16.5,9c0-0.552-0.448-1-1-1   s-1,0.448-1,1c-0.552,0-1.03,0.303-1.29,0.748C12.91,9.617,12.522,9.5,12,9.5s-0.91,0.117-1.21,0.248C10.53,9.303,10.052,9,9.5,9   c0-0.552-0.448-1-1-1s-1,0.448-1,1C6.673,9,6,9.673,6,10.5V11C6,12.103,7.121,13,8.5,13z"/><path fill="#ddeefd" d="M14 10.5c0-.275.225-.5.5-.5h2c.275 0 .5.225.5.5V11c0 .542-.687 1-1.5 1S14 11.542 14 11V10.5zM7 10.5C7 10.225 7.225 10 7.5 10h2c.275 0 .5.225.5.5V11c0 .542-.687 1-1.5 1S7 11.542 7 11V10.5z"/><linearGradient id="a" x1="14.092" x2="16.846" y1="13.808" y2="12.524" gradientTransform="matrix(1 0 0 -1 0 24)" gradientUnits="userSpaceOnUse"><stop offset="0" stop-color="#fff" stop-opacity=".2"/><stop offset="1" stop-color="#fff" stop-opacity="0"/></linearGradient><path fill="url(#a)" d="M14,10.5c0-0.275,0.225-0.5,0.5-0.5h2c0.275,0,0.5,0.225,0.5,0.5V11c0,0.542-0.687,1-1.5,1   S14,11.542,14,11V10.5z"/><linearGradient id="b" x1="7.092" x2="9.846" y1="13.808" y2="12.524" gradientTransform="matrix(1 0 0 -1 0 24)" gradientUnits="userSpaceOnUse"><stop offset="0" stop-color="#fff" stop-opacity=".2"/><stop offset="1" stop-color="#fff" stop-opacity="0"/></linearGradient><path fill="url(#b)" d="M7,10.5C7,10.225,7.225,10,7.5,10h2c0.275,0,0.5,0.225,0.5,0.5V11c0,0.542-0.687,1-1.5,1   S7,11.542,7,11V10.5z"/><path fill="#303c42" d="M13,16h-2c-0.276,0-0.5,0.224-0.5,0.5S10.724,17,11,17h2c0.276,0,0.5-0.224,0.5-0.5S13.276,16,13,16   z"/><circle cx="7.706" cy="10.6" r=".329" fill="#fff" enable-background="new" opacity=".2"/><circle cx="14.706" cy="10.6" r=".329" fill="#fff" enable-background="new" opacity=".2"/><linearGradient id="c" x1="3.416" x2="21.267" y1="16.161" y2="7.837" gradientTransform="matrix(1 0 0 -1 0 24)" gradientUnits="userSpaceOnUse"><stop offset="0" stop-color="#fff" stop-opacity=".2"/><stop offset="1" stop-color="#fff" stop-opacity="0"/></linearGradient><path fill="url(#c)" d="M21,12c0-1.807-0.736-2.867-1.028-3.218C19.683,2.327,15.559,0,12,0   C8.358,0,4.122,2.432,4.01,9.234C3.629,9.55,3,10.324,3,12c0,1.422,0.236,2.171,0.434,2.548c-0.261,0.649-0.783,2.31,0.213,3.306   c0.762,0.762,1.548,1.018,1.99,1.104c0.339,0.854,1.45,3.28,3.417,4.121c0.476,0.203,0.973,0.301,1.464,0.292   c-0.017,0.06-0.021,0.123-0.015,0.188C10.532,23.81,10.746,24,11,24c4.234,0,6.734-3.987,7.318-5.035   c0.434-0.077,1.247-0.323,2.035-1.111c0.996-0.996,0.474-2.656,0.213-3.306C20.764,14.171,21,13.422,21,12z"/></svg>