<svg xmlns="http://www.w3.org/2000/svg" enable-background="new 0 0 24 24" viewBox="0 0 24 24"><path fill="#303c42" d="M19.997,11.204C19.876,4.418,15.637,2,11.999,2s-7.877,2.418-7.998,9.204   c-0.891,0.575-1.002,1.57-1.002,2.296c0,0.958,0.888,3.104,2.15,3.452c0.012,0.03,0.025,0.063,0.04,0.098   C5.733,18.403,7.18,22,11.999,22s6.266-3.597,6.811-4.95c0.014-0.034,0.027-0.067,0.04-0.098C20.112,16.603,21,14.458,21,13.5   C21,12.774,20.889,11.779,19.997,11.204z"/><path fill="#8d6e63" d="M18.5,16c-0.192,0-0.367,0.11-0.451,0.283c-0.046,0.096-0.101,0.229-0.167,0.394   C17.361,17.971,16.143,21,11.999,21s-5.362-3.029-5.883-4.323c-0.066-0.164-0.121-0.298-0.167-0.394C5.866,16.11,5.691,16,5.499,16   c-0.628,0-1.5-1.735-1.5-2.5c0-1.071,0.341-1.376,0.709-1.546c0.178-0.082,0.291-0.259,0.291-0.454c0-6.267,3.616-8.5,7-8.5   s7,2.233,7,8.5c0,0.195,0.113,0.372,0.291,0.454C19.66,12.124,20,12.429,20,13.5C20,14.265,19.127,16,18.5,16z"/><path fill="#fff" d="M4.645,14.146c0-1.071,0.341-1.376,0.709-1.546   c0.177-0.082,0.291-0.259,0.291-0.454c0-6.267,3.616-8.5,7-8.5c1.538,0,3.121,0.469,4.394,1.561C15.685,3.65,13.811,3,11.999,3   c-3.384,0-7,2.233-7,8.5c0,0.195-0.113,0.372-0.291,0.454c-0.368,0.17-0.709,0.475-0.709,1.546c0,0.697,0.722,2.184,1.326,2.446   C4.949,15.375,4.645,14.595,4.645,14.146z" enable-background="new" opacity=".2"/><circle cx="8.499" cy="12" r="1" fill="#303c42"/><circle cx="15.499" cy="12" r="1" fill="#303c42"/><path d="M19.334,11.977c0.112,0.23,0.186,0.554,0.186,1.043   c0,0.765-0.872,2.5-1.5,2.5c-0.192,0-0.367,0.11-0.451,0.283c-0.046,0.096-0.101,0.229-0.167,0.394   c-0.521,1.294-1.739,4.323-5.883,4.323c-1.826,0-3.083-0.589-3.964-1.358C8.441,20.152,9.809,21,11.999,21   c4.144,0,5.362-3.029,5.883-4.323c0.066-0.164,0.121-0.298,0.167-0.394C18.132,16.11,18.307,16,18.5,16c0.628,0,1.5-1.735,1.5-2.5   C20,12.472,19.686,12.152,19.334,11.977z" enable-background="new" opacity=".1"/><linearGradient id="a" x1="4.115" x2="20.233" y1="15.682" y2="8.166" gradientTransform="matrix(1 0 0 -1 0 24)" gradientUnits="userSpaceOnUse"><stop offset="0" stop-color="#fff" stop-opacity=".2"/><stop offset="1" stop-color="#fff" stop-opacity="0"/></linearGradient><path fill="url(#a)" d="M19.997,11.204C19.876,4.418,15.637,2,11.999,2s-7.877,2.418-7.998,9.204   c-0.891,0.575-1.002,1.57-1.002,2.296c0,0.958,0.888,3.104,2.15,3.452c0.012,0.03,0.025,0.063,0.04,0.098   C5.733,18.403,7.18,22,11.999,22s6.266-3.597,6.811-4.95c0.014-0.034,0.027-0.067,0.04-0.098C20.112,16.603,21,14.458,21,13.5   C21,12.774,20.889,11.779,19.997,11.204z"/></svg>