<svg xmlns="http://www.w3.org/2000/svg" enable-background="new 0 0 24 24" viewBox="0 0 24 24"><path fill="#303c42" d="M20.776,2.441C19.211,1.529,15.99,0,12,0S4.789,1.529,3.224,2.441C2.469,2.882,2,3.705,2,4.592V13   c0,3.899,4.516,9.365,9.242,9.924c0.143,0.456,0.298,0.775,0.31,0.799C11.638,23.893,11.811,24,12,24s0.362-0.107,0.447-0.276   c0.012-0.024,0.167-0.343,0.31-0.799C17.484,22.365,22,16.899,22,13V4.592C22,3.705,21.531,2.882,20.776,2.441z"/><path fill="#fafafa" d="M21,13c0,3.343-3.941,8.174-8.021,8.887C12.992,21.76,13,21.63,13,21.5   c0-1.065-0.231-1.699-0.421-2.039l0.369-0.737c0.078-0.155,0.069-0.339-0.022-0.486S12.673,18,12.5,18h-1   c-0.173,0-0.334,0.09-0.425,0.237s-0.1,0.331-0.022,0.486l0.369,0.737c-0.19,0.34-0.421,0.974-0.421,2.039   c0,0.13,0.008,0.26,0.021,0.387C6.941,21.174,3,16.343,3,13V4.592C3,4.06,3.279,3.567,3.727,3.305C5.205,2.444,8.245,1,12,1   s6.795,1.444,8.272,2.305C20.721,3.567,21,4.06,21,4.592V13z"/><path fill="#303c42" d="M6.146 8.646C6.053 8.74 6 8.867 6 9s.053.26.146.354C6.212 9.42 6.827 10 8 10s1.788-.58 1.854-.646C9.947 9.26 10 9.133 10 9S9.947 8.74 9.854 8.646C9.788 8.58 9.173 8 8 8S6.212 8.58 6.146 8.646zM14.146 8.646C14.053 8.74 14 8.867 14 9s.053.26.146.354C14.212 9.42 14.827 10 16 10s1.788-.58 1.854-.646C17.947 9.26 18 9.133 18 9s-.053-.26-.146-.354C17.788 8.58 17.173 8 16 8S14.212 8.58 14.146 8.646zM4.268 6.935c.238.127.539.036.673-.199C4.958 6.705 5.38 6 7 6c1.72 0 3.087 1.782 3.101 1.801C10.199 7.931 10.349 8 10.501 8c.104 0 .21-.033.3-.101.221-.166.265-.479.1-.699C10.834 7.11 9.226 5 7.001 5 4.757 5 4.119 6.146 4.054 6.276 3.932 6.519 4.029 6.807 4.268 6.935zM13.5 8c.152 0 .302-.069.4-.199C13.913 7.782 15.28 6 17 6c1.598 0 2.03.687 2.058.733.126.239.421.337.666.214.247-.124.347-.424.224-.671C19.882 6.146 19.244 5 17 5c-2.225 0-3.833 2.11-3.9 2.2-.166.221-.121.533.1.699C13.29 7.967 13.395 8 13.5 8z"/><path fill="#303c42" d="M18.655,9.644c-0.196,0.189-0.201,0.505-0.015,0.704C18.655,10.363,19,10.74,19,11.5   c0,0.685-0.26,1.5-1.5,1.5c-0.865,0-1.768-0.443-1.777-0.447c-0.249-0.125-0.548-0.022-0.67,0.225   c-0.123,0.247-0.023,0.547,0.224,0.67c0.041,0.02,0.932,0.456,1.923,0.536L16.191,16h-2.382l-0.718-1.435   c0.144-0.139,0.262-0.285,0.346-0.404c0.04-0.056,0.09-0.127,0.124-0.165c0.247-0.03,0.438-0.241,0.438-0.496   c0-0.276-0.224-0.5-0.5-0.5c-0.466,0-0.714,0.352-0.879,0.584C12.422,13.865,12.313,14,12,14s-0.422-0.135-0.621-0.416   C11.214,13.352,10.966,13,10.5,13c-0.276,0-0.542,0.212-0.542,0.488c0,0.275,0.183,0.487,0.459,0.487   c0.03,0.023,0.096,0.117,0.145,0.186c0.084,0.119,0.202,0.264,0.346,0.404L10.191,16H7.809l-1.008-2.017   c0.991-0.08,1.882-0.516,1.923-0.536c0.247-0.123,0.347-0.423,0.224-0.67s-0.421-0.35-0.67-0.225C8.268,12.557,7.365,13,6.5,13   C5.26,13,5,12.185,5,11.5c0-0.75,0.336-1.128,0.358-1.151c0.19-0.195,0.189-0.509-0.005-0.702c-0.195-0.195-0.512-0.195-0.707,0   C4.58,9.713,4,10.327,4,11.5c0,0.99,0.453,2.023,1.626,2.369l1.427,2.854C7.138,16.893,7.311,17,7.5,17h3   c0.189,0,0.362-0.107,0.447-0.276L11.809,15h0.382l0.862,1.724C13.138,16.893,13.311,17,13.5,17h3c0.189,0,0.362-0.107,0.447-0.276   l1.427-2.854C19.547,13.523,20,12.49,20,11.5c0-1.173-0.58-1.787-0.646-1.854C19.161,9.454,18.853,9.453,18.655,9.644z"/><path fill="#303c42" d="M11.5,12.5c0.276,0,0.5-0.224,0.5-0.5V9.5C12,9.224,11.776,9,11.5,9S11,9.224,11,9.5V12   C11,12.276,11.224,12.5,11.5,12.5z"/><radialGradient id="a" cx="-7.515" cy="7.098" r="1.573" gradientTransform="matrix(1.1341 0 0 .8576 15.406 5.261)" gradientUnits="userSpaceOnUse"><stop offset="0" stop-color="#ef8886" stop-opacity=".5"/><stop offset=".145" stop-color="#f0908e" stop-opacity=".427"/><stop offset=".376" stop-color="#f3a7a5" stop-opacity=".312"/><stop offset=".662" stop-color="#f8cbca" stop-opacity=".169"/><stop offset=".991" stop-color="#fffefe" stop-opacity=".004"/><stop offset="1" stop-color="#fff" stop-opacity="0"/></radialGradient><ellipse cx="6.883" cy="11.349" fill="url(#a)" rx="1.784" ry="1.349"/><radialGradient id="b" cx="1.542" cy="7.098" r="1.573" gradientTransform="matrix(1.1341 0 0 .8576 15.406 5.261)" gradientUnits="userSpaceOnUse"><stop offset="0" stop-color="#ef8886" stop-opacity=".5"/><stop offset=".145" stop-color="#f0908e" stop-opacity=".427"/><stop offset=".376" stop-color="#f3a7a5" stop-opacity=".312"/><stop offset=".662" stop-color="#f8cbca" stop-opacity=".169"/><stop offset=".991" stop-color="#fffefe" stop-opacity=".004"/><stop offset="1" stop-color="#fff" stop-opacity="0"/></radialGradient><ellipse cx="17.154" cy="11.349" fill="url(#b)" rx="1.784" ry="1.349"/><linearGradient id="c" x1="1.057" x2="21.472" y1="6.057" y2="15.577" gradientUnits="userSpaceOnUse"><stop offset="0" stop-color="#fff" stop-opacity=".2"/><stop offset="1" stop-color="#fff" stop-opacity="0"/></linearGradient><path fill="url(#c)" d="M20.776,2.441C19.211,1.529,15.99,0,12,0S4.789,1.529,3.224,2.441   C2.469,2.882,2,3.705,2,4.592V13c0,3.899,4.516,9.365,9.242,9.924c0.143,0.456,0.298,0.775,0.31,0.799   C11.638,23.893,11.811,24,12,24s0.362-0.107,0.447-0.276c0.012-0.024,0.167-0.343,0.31-0.799C17.484,22.365,22,16.899,22,13V4.592   C22,3.705,21.531,2.882,20.776,2.441z"/></svg>