<svg xmlns="http://www.w3.org/2000/svg" enable-background="new 0 0 24 24" viewBox="0 0 24 24"><path fill="#303c42" d="M21.797,9.598l-1.131-0.837l0.332-4.222c0.021-0.275-0.184-0.516-0.459-0.538   C20.27,3.98,20.023,4.185,20.001,4.46l-0.032,0.41C18.322,0.008,13.677,0,12,0S5.678,0.008,4.031,4.871l-0.032-0.41   C3.978,4.185,3.729,3.98,3.461,4.002C3.186,4.023,2.98,4.264,3.002,4.54l0.332,4.222L2.203,9.599C2.075,9.692,2,9.842,2,10v6.5   c0,1.47,0.476,3.279,4.031,4.378C6.178,22.076,7.001,23,8,23c0.515,0,0.98-0.251,1.335-0.652C9.831,23.324,10.833,24,12,24   s2.169-0.676,2.665-1.652C15.02,22.749,15.485,23,16,23c0.999,0,1.822-0.924,1.969-2.122C21.524,19.779,22,17.97,22,16.5V10   C22,9.842,21.925,9.692,21.797,9.598z"/><path fill="#d32f2f" d="M21,11.947c-0.011-0.09-0.02-0.165-0.033-0.262c-0.057-0.447-0.125-0.982-0.197-1.604l0.23,0.17   C21,10.251,21,11.947,21,11.947z"/><path fill="#e6e6e6" d="M6.602,2.641l0.845,7.421c-0.645,0.123-1.267,0.424-1.716,0.69C5.28,11.02,5,11.513,5,12.041v1.045   c0,0.4,0.156,0.777,0.439,1.061l0.121,0.121C6.033,14.74,6.661,15,7.329,15h0.505c0.538,0,1.07-0.178,1.5-0.5l0.967-0.725   c0.409-0.306,0.71-0.725,0.873-1.209l0.302-0.907c0.076-0.23-0.023-0.481-0.235-0.597c-0.07-0.039-1.56-0.842-2.789-1.022   L7.533,1.966C8.931,1.163,10.583,1,12,1s3.069,0.163,4.469,0.965l-0.919,8.074c-1.229,0.18-2.718,0.983-2.789,1.022   c-0.212,0.116-0.312,0.367-0.235,0.597l0.303,0.907c0.162,0.485,0.463,0.903,0.872,1.209l0.966,0.725c0.43,0.322,0.962,0.5,1.5,0.5   h0.505c0.668,0,1.296-0.26,1.768-0.732l0.121-0.121C18.844,13.863,19,13.486,19,13.085V12.04c0-0.528-0.28-1.021-0.73-1.289   c-0.45-0.267-1.072-0.568-1.717-0.691l0.845-7.421c1.077,0.972,1.885,2.496,2.104,4.905c0.177,1.941,0.348,3.285,0.474,4.267   c0.284,2.222,0.284,2.222-0.329,2.834c-0.906,0.905-2.384,2.744-2.987,3.504c-0.139-0.061-0.285-0.101-0.437-0.123   c-0.44-0.387-2.078-1.723-3.723-1.971V12.5c0-0.276-0.224-0.5-0.5-0.5s-0.5,0.224-0.5,0.5v3.558   c-1.644,0.248-3.283,1.584-3.723,1.971C7.625,18.05,7.479,18.09,7.34,18.152c-0.603-0.761-2.081-2.599-2.987-3.504   c-0.613-0.613-0.613-0.613-0.329-2.834c0.125-0.981,0.297-2.325,0.474-4.267C4.717,5.137,5.526,3.612,6.602,2.641z"/><path fill="#fff" d="M12.559 1.559c1.223 0 2.62.123 3.879.672l.03-.266C15.069 1.163 13.417 1 12 1S8.931 1.163 7.531 1.965l.066.582C9.052 1.894 11.281 1.559 12.559 1.559zM4.912 15.205c-.613-.613-.613-.613-.329-2.834.125-.981.297-2.325.474-4.267.188-2.063.81-3.475 1.661-4.449L6.602 2.64C5.525 3.612 4.717 5.136 4.498 7.545 4.321 9.486 4.15 10.83 4.024 11.812c-.284 2.222-.284 2.222.329 2.834.906.905 2.384 2.744 2.987 3.504.029-.013.062-.015.091-.026C6.715 17.236 5.635 15.928 4.912 15.205z" enable-background="new" opacity=".2"/><path fill="#e53935" d="M10.39 11.75l-.166.499c-.097.291-.278.542-.523.726L8.733 13.7C8.476 13.893 8.156 14 7.834 14H7.329c-.401 0-.777-.156-1.061-.439L6.147 13.44C6.053 13.346 6 13.217 6 13.086v-1.045c0-.179.09-.339.241-.429C6.906 11.217 7.53 11 8 11 8.687 11 9.752 11.442 10.39 11.75zM16 11c.47 0 1.094.217 1.759.612C17.91 11.701 18 11.862 18 12.041v1.045c0 .131-.053.26-.146.354l-.121.121C17.449 13.844 17.073 14 16.672 14h-.505c-.322 0-.642-.106-.9-.3L14.3 12.975c-.245-.184-.426-.435-.523-.726l-.166-.499C14.248 11.442 15.313 11 16 11z"/><linearGradient id="a" x1="6.118" x2="9.72" y1="12.326" y2="10.646" gradientTransform="matrix(1 0 0 -1 0 24)" gradientUnits="userSpaceOnUse"><stop offset="0" stop-color="#fff" stop-opacity=".2"/><stop offset="1" stop-color="#fff" stop-opacity="0"/></linearGradient><path fill="url(#a)" d="M10.39,11.75l-0.166,0.499c-0.097,0.291-0.278,0.542-0.523,0.726L8.733,13.7   C8.476,13.893,8.156,14,7.834,14H7.329c-0.401,0-0.777-0.156-1.061-0.439L6.147,13.44C6.053,13.346,6,13.217,6,13.086v-1.045   c0-0.179,0.09-0.339,0.241-0.429C6.906,11.217,7.53,11,8,11C8.687,11,9.752,11.442,10.39,11.75z"/><linearGradient id="b" x1="13.782" x2="17.941" y1="12.617" y2="10.678" gradientTransform="matrix(1 0 0 -1 0 24)" gradientUnits="userSpaceOnUse"><stop offset="0" stop-color="#fff" stop-opacity=".2"/><stop offset="1" stop-color="#fff" stop-opacity="0"/></linearGradient><path fill="url(#b)" d="M16,11c0.47,0,1.094,0.217,1.759,0.612C17.91,11.701,18,11.862,18,12.041v1.045   c0,0.131-0.053,0.26-0.146,0.354l-0.121,0.121C17.449,13.844,17.073,14,16.672,14h-0.505c-0.322,0-0.642-0.106-0.9-0.3L14.3,12.975   c-0.245-0.184-0.426-0.435-0.523-0.726l-0.166-0.499C14.248,11.442,15.313,11,16,11z"/><path fill="#b3b3b3" d="M14.329,19.133C13.779,18.448,12.945,18,12,18s-1.779,0.448-2.329,1.133   c-0.174-0.331-0.412-0.6-0.688-0.797C9.773,17.741,10.991,17,12,17c1.069,0,2.287,0.786,3.014,1.338   C14.739,18.535,14.503,18.803,14.329,19.133z"/><path fill="#d32f2f" d="M3.23,10.082c-0.073,0.622-0.14,1.156-0.197,1.604C3.021,11.783,3.012,11.858,3,11.948v-1.695   L3.23,10.082z"/><path fill="#ccc" d="M3,16.5v-2.024c0.123,0.292,0.324,0.555,0.646,0.878c0.86,0.86,2.321,2.677,2.912,3.422   c-0.227,0.297-0.391,0.664-0.48,1.071C3.005,18.822,3,17.326,3,16.5z"/><path fill="#e6e6e6" d="M8,22c-0.542,0-1-0.687-1-1.5S7.458,19,8,19s1,0.687,1,1.5S8.542,22,8,22z"/><circle cx="12" cy="21" r="2" fill="#e6e6e6"/><path fill="#e6e6e6" d="M16,22c-0.542,0-1-0.687-1-1.5s0.458-1.5,1-1.5s1,0.687,1,1.5S16.542,22,16,22z"/><path fill="#ccc" d="M17.922,19.846c-0.089-0.407-0.253-0.774-0.48-1.071c0.591-0.744,2.052-2.562,2.912-3.422   c0.323-0.323,0.523-0.586,0.646-0.878v2.024C21,17.326,20.995,18.822,17.922,19.846z"/><path fill="#999" d="M11 20c-.276 0-.5.224-.5.5v1c0 .276.224.5.5.5s.5-.224.5-.5v-1C11.5 20.224 11.276 20 11 20zM13 20c-.276 0-.5.224-.5.5v1c0 .276.224.5.5.5s.5-.224.5-.5v-1C13.5 20.224 13.276 20 13 20z"/><linearGradient id="c" x1="1.738" x2="22.372" y1="16.904" y2="7.282" gradientTransform="matrix(1 0 0 -1 0 24)" gradientUnits="userSpaceOnUse"><stop offset="0" stop-color="#fff" stop-opacity=".2"/><stop offset="1" stop-color="#fff" stop-opacity="0"/></linearGradient><path fill="url(#c)" d="M21.797,9.598l-1.131-0.837l0.332-4.222c0.021-0.275-0.184-0.516-0.459-0.538   C20.27,3.98,20.023,4.185,20.001,4.46l-0.032,0.41C18.322,0.008,13.677,0,12,0S5.678,0.008,4.031,4.871l-0.032-0.41   C3.978,4.185,3.729,3.98,3.461,4.002C3.186,4.023,2.98,4.264,3.002,4.54l0.332,4.222L2.203,9.599C2.075,9.692,2,9.842,2,10v6.5   c0,1.47,0.476,3.279,4.031,4.378C6.178,22.076,7.001,23,8,23c0.515,0,0.98-0.251,1.335-0.652C9.831,23.324,10.833,24,12,24   s2.169-0.676,2.665-1.652C15.02,22.749,15.485,23,16,23c0.999,0,1.822-0.924,1.969-2.122C21.524,19.779,22,17.97,22,16.5V10   C22,9.842,21.925,9.692,21.797,9.598z"/></svg>