<svg xmlns="http://www.w3.org/2000/svg" enable-background="new 0 0 24 24" viewBox="0 0 24 24"><path fill="#303c42" d="M21,10c0-3.343-1.896-9-9-9c-0.133,0-0.26,0.053-0.354,0.146l-0.355,0.355C3.813,1.608,3,7.468,3,10   c0,1.128,0.262,2.235,0.417,2.789C3.062,13.331,3,13.983,3,14.5c0,0.958,0.889,3.104,2.15,3.452c0.013,0.032,0.025,0.065,0.04,0.1   C5.735,19.405,7.183,23,12,23s6.265-3.595,6.81-4.949c0.015-0.035,0.027-0.068,0.04-0.1c1.262-0.348,2.15-2.494,2.15-3.452   c0-0.517-0.062-1.169-0.417-1.711C20.738,12.235,21,11.128,21,10z"/><path fill="#fee8d7" d="M17.874,12.754C17.554,11.741,16.617,11,15.5,11c-1,0-1.858,0.594-2.258,1.444   C12.933,12.202,12.524,12,12,12s-0.933,0.202-1.242,0.444C10.358,11.594,9.5,11,8.5,11c-1.117,0-2.054,0.741-2.374,1.754   l-1.07-0.535c0.618-3.521,3.67-5.119,5.293-5.215C10.876,7.362,12.731,8.5,15,8.5c2.41,0,3.799,2.29,3.979,3.702L17.874,12.754z"/><path d="M14.862,8.775c1.987,0,3.244,2.026,3.66,3.655l0.457-0.228   C18.799,10.79,17.41,8.5,15,8.5c-1.896,0-3.49-0.789-4.275-1.259C11.452,7.791,13.008,8.775,14.862,8.775z" enable-background="new" opacity=".1"/><path fill="#fff" d="M10.367,7.016c-0.005-0.003-0.014-0.009-0.018-0.012   C8.727,7.1,5.675,8.698,5.056,12.219l0.482,0.241C6.336,8.855,8.904,7.16,10.367,7.016z" enable-background="new" opacity=".2"/><circle cx="15.5" cy="13.5" r="1.5" fill="#bbdefb"/><circle cx="8.5" cy="13.5" r="1.5" fill="#bbdefb"/><circle cx="7.849" cy="12.797" r=".273" fill="#fff" enable-background="new" opacity=".2"/><circle cx="14.849" cy="12.797" r=".273" fill="#fff" enable-background="new" opacity=".2"/><path fill="#4d4d4d" d="M11.5,2.5c0.133,0,0.26-0.053,0.354-0.146l0.352-0.352C19.911,2.133,20,9.676,20,10   c0,0.526-0.065,1.052-0.147,1.506C19.374,9.745,17.727,7.5,15,7.5c-2.295,0-4.182-1.386-4.2-1.4C10.713,6.036,10.608,6,10.5,6   c-2.16,0-5.465,1.978-6.339,5.581C4.072,11.109,4,10.555,4,10C4,7.199,4.975,2.5,11.5,2.5z"/><path fill="#fff" d="M11.5,3.219c0.133,0,0.26-0.053,0.354-0.146l0.352-0.352   c6.788,0.116,7.665,5.977,7.778,7.594C19.988,10.209,20,10.106,20,10c0-0.324-0.089-7.867-7.795-7.998l-0.352,0.352   C11.759,2.448,11.632,2.5,11.499,2.5c-6.525,0-7.5,4.699-7.5,7.5c0,0.069,0.01,0.136,0.012,0.205   C4.135,7.38,5.359,3.219,11.5,3.219z" enable-background="new" opacity=".2"/><path fill="#fee8d7" d="M18.5,17c-0.192,0-0.367,0.11-0.45,0.283c-0.047,0.096-0.102,0.23-0.167,0.395   C17.361,18.971,16.142,22,12,22s-5.361-3.029-5.883-4.322c-0.065-0.165-0.12-0.299-0.167-0.395C5.867,17.11,5.692,17,5.5,17   C4.872,17,4,15.264,4,14.5c0-0.643,0.124-1.007,0.302-1.234c0.013-0.012,0.032-0.016,0.044-0.03   c0.057-0.065,0.115-0.12,0.174-0.167l1.512,0.756C6.194,15.049,7.233,16,8.5,16c1.323,0,2.398-1.036,2.484-2.337   C11.091,13.49,11.443,13,12,13c0.558,0,0.911,0.493,1.016,0.663C13.102,14.964,14.176,16,15.5,16c1.267,0,2.306-0.951,2.467-2.174   l1.512-0.756c0.06,0.046,0.117,0.101,0.174,0.167c0.013,0.015,0.033,0.022,0.048,0.036C19.877,13.5,20,13.862,20,14.5   C20,15.264,19.128,17,18.5,17z"/><path fill="#fff" d="M6.546,17.678c-0.061-0.165-0.111-0.299-0.155-0.395   C6.314,17.11,6.152,17,5.974,17c-0.582,0-1.391-1.736-1.391-2.5c0-0.643,0.115-1.007,0.28-1.234   c0.006-0.006,0.013-0.011,0.021-0.015l-0.363-0.182c-0.06,0.046-0.117,0.101-0.174,0.167c-0.012,0.014-0.031,0.017-0.044,0.03   C4.124,13.493,4,13.857,4,14.5C4,15.264,4.872,17,5.5,17c0.192,0,0.367,0.11,0.45,0.283c0.047,0.096,0.102,0.23,0.167,0.395   C6.639,18.971,7.858,22,12,22C8.16,22,7.03,18.971,6.546,17.678z" enable-background="new" opacity=".2"/><path d="M19.701,13.272c-0.015-0.013-0.034-0.02-0.048-0.036   c-0.057-0.065-0.115-0.12-0.174-0.167l-0.364,0.182c0.009,0.006,0.017,0.013,0.025,0.02c0.163,0.228,0.277,0.59,0.277,1.228   c0,0.764-0.808,2.5-1.391,2.5c-0.178,0-0.34,0.11-0.417,0.283c-0.043,0.096-0.094,0.23-0.155,0.395C16.97,18.971,15.84,22,12,22   c4.142,0,5.361-3.029,5.883-4.322c0.065-0.165,0.12-0.299,0.167-0.395C18.133,17.11,18.308,17,18.5,17c0.628,0,1.5-1.736,1.5-2.5   C20,13.862,19.877,13.5,19.701,13.272z" enable-background="new" opacity=".1"/><path fill="#303c42" d="M10.724,8.053c-0.247-0.121-0.547-0.023-0.671,0.224L9.777,8.83L9.224,8.554   C8.977,8.432,8.677,8.531,8.553,8.778l-0.5,1c-0.123,0.247-0.023,0.547,0.224,0.671c0.072,0.036,0.148,0.053,0.224,0.053   c0.183,0,0.359-0.101,0.447-0.276l0.276-0.553l0.553,0.276c0.248,0.122,0.547,0.024,0.671-0.224l0.5-1   C11.07,8.477,10.971,8.176,10.724,8.053z"/><linearGradient id="a" x1="2.968" x2="20.669" y1="16.358" y2="8.103" gradientTransform="matrix(1 0 0 -1 0 24)" gradientUnits="userSpaceOnUse"><stop offset="0" stop-color="#fff" stop-opacity=".2"/><stop offset="1" stop-color="#fff" stop-opacity="0"/></linearGradient><path fill="url(#a)" d="M21,10c0-3.343-1.896-9-9-9c-0.133,0-0.26,0.053-0.354,0.146l-0.355,0.355   C3.813,1.608,3,7.468,3,10c0,1.128,0.262,2.235,0.417,2.789C3.062,13.331,3,13.983,3,14.5c0,0.958,0.889,3.104,2.15,3.452   c0.013,0.032,0.025,0.065,0.04,0.1C5.735,19.405,7.183,23,12,23s6.265-3.595,6.81-4.949c0.015-0.035,0.027-0.068,0.04-0.1   c1.262-0.348,2.15-2.494,2.15-3.452c0-0.517-0.062-1.169-0.417-1.711C20.738,12.235,21,11.128,21,10z"/></svg>