<svg xmlns="http://www.w3.org/2000/svg" enable-background="new 0 0 24 24" viewBox="0 0 24 24"><path fill="#303c42" d="M22.638,4.019l-10.5-3c-0.09-0.025-0.186-0.025-0.275,0l-10.5,3C1.148,4.081,1,4.277,1,4.5   s0.148,0.419,0.362,0.481L4,5.735V9.5c0,0.117,0.041,0.227,0.11,0.313c-0.061,0.676-0.098,1.735-0.108,2.391   C3.11,12.779,3,13.774,3,14.5c0,0.958,0.889,3.104,2.15,3.452c0.013,0.032,0.025,0.065,0.04,0.1C5.735,19.405,7.183,23,12,23   s6.265-3.595,6.81-4.949c0.015-0.035,0.027-0.068,0.04-0.1c1.262-0.348,2.15-2.494,2.15-3.452c0-0.726-0.11-1.721-1.002-2.296   c-0.01-0.655-0.047-1.715-0.108-2.391C19.959,9.726,20,9.616,20,9.499V5.734l0.747-0.213C20.896,5.608,21,5.764,21,5.949v2.933   l-0.447,0.895c-0.06,0.119-0.069,0.256-0.027,0.382l0.5,1.5c0.068,0.204,0.26,0.342,0.475,0.342s0.406-0.138,0.475-0.342l0.5-1.5   c0.042-0.126,0.032-0.263-0.027-0.382L22,8.882V5.949c0-0.266-0.074-0.513-0.196-0.73l0.833-0.238C22.852,4.919,23,4.723,23,4.5   S22.852,4.081,22.638,4.019z"/><path fill="#546e7a" d="M12,2.02l8.491,2.426L12.026,4c-0.269-0.018-0.511,0.198-0.525,0.473   c-0.015,0.276,0.197,0.511,0.473,0.526l5.875,0.309L12,6.98L3.32,4.5L12,2.02z"/><polygon fill="#fff" points="4.5 4.75 12.741 2.232 12 2.02 3.32 4.5 7.299 5.637" enable-background="new" opacity=".2"/><path fill="#fee8d7" d="M20,14.5c0,0.764-0.872,2.5-1.5,2.5c-0.192,0-0.367,0.11-0.45,0.283   c-0.047,0.096-0.102,0.23-0.167,0.395C17.361,18.971,16.142,22,12,22s-5.361-3.029-5.883-4.322   c-0.065-0.165-0.12-0.299-0.167-0.395C5.867,17.11,5.692,17,5.5,17C4.872,17,4,15.264,4,14.5c0-1.071,0.341-1.376,0.71-1.546   C4.887,12.872,5,12.695,5,12.5c0-0.578,0.035-1.649,0.087-2.366C6.474,10.414,9.651,11,12,11s5.526-0.586,6.913-0.866   C18.965,10.851,19,11.922,19,12.5c0,0.195,0.113,0.372,0.29,0.454C19.659,13.124,20,13.429,20,14.5z"/><path fill="#546e7a" d="M19,9.095C17.848,9.333,14.403,10,12,10S6.152,9.333,5,9.095V6.021l6.862,1.961   C11.907,7.994,11.954,8,12,8s0.093-0.006,0.138-0.019L19,6.02V9.095z"/><path fill="#546e7a" d="M19,9.095C17.848,9.333,14.403,10,12,10S6.152,9.333,5,9.095V6.021l6.862,1.961   C11.907,7.994,11.954,8,12,8s0.093-0.006,0.138-0.019L19,6.02V9.095z"/><linearGradient id="a" x1="8.5" x2="21.012" y1="21.48" y2="8.968" gradientTransform="matrix(1 0 0 -1 0 24)" gradientUnits="userSpaceOnUse"><stop offset="0" stop-opacity=".1"/><stop offset="1" stop-opacity="0"/></linearGradient><path fill="url(#a)" d="M19.29,12.954C19.113,12.872,19,12.695,19,12.5c0-0.578-0.035-1.649-0.087-2.366   C17.526,10.414,14.349,11,12,11c-0.668,0-1.403-0.05-2.145-0.125l7.657,7.657c0.156-0.323,0.275-0.618,0.37-0.855   c0.065-0.165,0.12-0.299,0.167-0.395C18.133,17.11,18.308,17,18.5,17c0.628,0,1.5-1.736,1.5-2.5   C20,13.429,19.659,13.124,19.29,12.954z M19,9.095V6.021l-6.862,1.961C12.093,7.994,12.046,8,12,8s-0.093-0.006-0.138-0.019L5,6.02   l3.711,3.711C9.829,9.883,11.002,10,12,10C14.403,10,17.848,9.333,19,9.095z"/><path fill="#303c42" d="M8.5 12c-.552 0-1 .449-1 1s.448 1 1 1 1-.449 1-1S9.052 12 8.5 12zM9 13L9 13 9 13 9 13zM15.5 12c-.552 0-1 .449-1 1s.448 1 1 1 1-.449 1-1S16.052 12 15.5 12zM16 13L16 13 16 13 16 13z"/><linearGradient id="b" x1=".264" x2="20.828" y1="18.033" y2="8.444" gradientTransform="matrix(1 0 0 -1 0 24)" gradientUnits="userSpaceOnUse"><stop offset="0" stop-color="#fff" stop-opacity=".2"/><stop offset="1" stop-color="#fff" stop-opacity="0"/></linearGradient><path fill="url(#b)" d="M22.638,4.019l-10.5-3c-0.09-0.025-0.186-0.025-0.275,0l-10.5,3C1.148,4.081,1,4.277,1,4.5   s0.148,0.419,0.362,0.481L4,5.735V9.5c0,0.117,0.041,0.227,0.11,0.313c-0.061,0.676-0.098,1.735-0.108,2.391   C3.11,12.779,3,13.774,3,14.5c0,0.958,0.889,3.104,2.15,3.452c0.013,0.032,0.025,0.065,0.04,0.1C5.735,19.405,7.183,23,12,23   s6.265-3.595,6.81-4.949c0.015-0.035,0.027-0.068,0.04-0.1c1.262-0.348,2.15-2.494,2.15-3.452c0-0.726-0.11-1.721-1.002-2.296   c-0.01-0.655-0.047-1.715-0.108-2.391C19.959,9.726,20,9.616,20,9.499V5.734l0.747-0.213C20.896,5.608,21,5.764,21,5.949v2.933   l-0.447,0.895c-0.06,0.119-0.069,0.256-0.027,0.382l0.5,1.5c0.068,0.204,0.26,0.342,0.475,0.342s0.406-0.138,0.475-0.342l0.5-1.5   c0.042-0.126,0.032-0.263-0.027-0.382L22,8.882V5.949c0-0.266-0.074-0.513-0.196-0.73l0.833-0.238C22.852,4.919,23,4.723,23,4.5   S22.852,4.081,22.638,4.019z"/></svg>