<svg version="1.0" xmlns="http://www.w3.org/2000/svg" xmlns:xlink="http://www.w3.org/1999/xlink"
	 viewBox="0 0 100 100" enable-background="new 0 0 100 100" xml:space="preserve">
	
<svg xmlns="http://www.w3.org/2000/svg" xmlns:xlink="http://www.w3.org/1999/xlink" version="1.1" width="100" height="100" viewBox="0 0 2000 2000" x="0" y="0" shape-rendering="crispEdges"><defs/><rect x="0" y="0" width="2000" height="2000" fill="#ffffff"/><rect x="686" y="173" width="57" height="57" fill="#000000"/><rect x="743" y="173" width="57" height="57" fill="#000000"/><rect x="857" y="173" width="57" height="57" fill="#000000"/><rect x="1028" y="173" width="57" height="57" fill="#000000"/><rect x="1199" y="173" width="57" height="57" fill="#000000"/><rect x="629" y="230" width="57" height="57" fill="#000000"/><rect x="686" y="230" width="57" height="57" fill="#000000"/><rect x="914" y="230" width="57" height="57" fill="#000000"/><rect x="1085" y="230" width="57" height="57" fill="#000000"/><rect x="1142" y="230" width="57" height="57" fill="#000000"/><rect x="1313" y="230" width="57" height="57" fill="#000000"/><rect x="686" y="287" width="57" height="57" fill="#000000"/><rect x="743" y="287" width="57" height="57" fill="#000000"/><rect x="800" y="287" width="57" height="57" fill="#000000"/><rect x="857" y="287" width="57" height="57" fill="#000000"/><rect x="914" y="287" width="57" height="57" fill="#000000"/><rect x="1142" y="287" width="57" height="57" fill="#000000"/><rect x="1199" y="287" width="57" height="57" fill="#000000"/><rect x="1256" y="287" width="57" height="57" fill="#000000"/><rect x="1313" y="287" width="57" height="57" fill="#000000"/><rect x="800" y="344" width="57" height="57" fill="#000000"/><rect x="857" y="344" width="57" height="57" fill="#000000"/><rect x="914" y="344" width="57" height="57" fill="#000000"/><rect x="971" y="344" width="57" height="57" fill="#000000"/><rect x="1028" y="344" width="57" height="57" fill="#000000"/><rect x="1085" y="344" width="57" height="57" fill="#000000"/><rect x="1313" y="344" width="57" height="57" fill="#000000"/><rect x="743" y="401" width="57" height="57" fill="#000000"/><rect x="857" y="401" width="57" height="57" fill="#000000"/><rect x="971" y="401" width="57" height="57" fill="#000000"/><rect x="1028" y="401" width="57" height="57" fill="#000000"/><rect x="1199" y="401" width="57" height="57" fill="#000000"/><rect x="1256" y="401" width="57" height="57" fill="#000000"/><rect x="1313" y="401" width="57" height="57" fill="#000000"/><rect x="629" y="458" width="57" height="57" fill="#000000"/><rect x="743" y="458" width="57" height="57" fill="#000000"/><rect x="857" y="458" width="57" height="57" fill="#000000"/><rect x="971" y="458" width="57" height="57" fill="#000000"/><rect x="1199" y="458" width="57" height="57" fill="#000000"/><rect x="1256" y="458" width="57" height="57" fill="#000000"/><rect x="629" y="515" width="57" height="57" fill="#000000"/><rect x="743" y="515" width="57" height="57" fill="#000000"/><rect x="857" y="515" width="57" height="57" fill="#000000"/><rect x="971" y="515" width="57" height="57" fill="#000000"/><rect x="1085" y="515" width="57" height="57" fill="#000000"/><rect x="1199" y="515" width="57" height="57" fill="#000000"/><rect x="1313" y="515" width="57" height="57" fill="#000000"/><rect x="629" y="572" width="57" height="57" fill="#000000"/><rect x="743" y="572" width="57" height="57" fill="#000000"/><rect x="800" y="572" width="57" height="57" fill="#000000"/><rect x="857" y="572" width="57" height="57" fill="#000000"/><rect x="1028" y="572" width="57" height="57" fill="#000000"/><rect x="1142" y="572" width="57" height="57" fill="#000000"/><rect x="1256" y="572" width="57" height="57" fill="#000000"/><rect x="1313" y="572" width="57" height="57" fill="#000000"/><rect x="401" y="629" width="57" height="57" fill="#000000"/><rect x="458" y="629" width="57" height="57" fill="#000000"/><rect x="515" y="629" width="57" height="57" fill="#000000"/><rect x="572" y="629" width="57" height="57" fill="#000000"/><rect x="743" y="629" width="57" height="57" fill="#000000"/><rect x="800" y="629" width="57" height="57" fill="#000000"/><rect x="971" y="629" width="57" height="57" fill="#000000"/><rect x="1028" y="629" width="57" height="57" fill="#000000"/><rect x="1085" y="629" width="57" height="57" fill="#000000"/><rect x="1199" y="629" width="57" height="57" fill="#000000"/><rect x="1256" y="629" width="57" height="57" fill="#000000"/><rect x="1427" y="629" width="57" height="57" fill="#000000"/><rect x="1484" y="629" width="57" height="57" fill="#000000"/><rect x="1712" y="629" width="57" height="57" fill="#000000"/><rect x="173" y="686" width="57" height="57" fill="#000000"/><rect x="287" y="686" width="57" height="57" fill="#000000"/><rect x="401" y="686" width="57" height="57" fill="#000000"/><rect x="458" y="686" width="57" height="57" fill="#000000"/><rect x="629" y="686" width="57" height="57" fill="#000000"/><rect x="1313" y="686" width="57" height="57" fill="#000000"/><rect x="1427" y="686" width="57" height="57" fill="#000000"/><rect x="1541" y="686" width="57" height="57" fill="#000000"/><rect x="1598" y="686" width="57" height="57" fill="#000000"/><rect x="1655" y="686" width="57" height="57" fill="#000000"/><rect x="1769" y="686" width="57" height="57" fill="#000000"/><rect x="173" y="743" width="57" height="57" fill="#000000"/><rect x="230" y="743" width="57" height="57" fill="#000000"/><rect x="287" y="743" width="57" height="57" fill="#000000"/><rect x="515" y="743" width="57" height="57" fill="#000000"/><rect x="572" y="743" width="57" height="57" fill="#000000"/><rect x="1427" y="743" width="57" height="57" fill="#000000"/><rect x="1484" y="743" width="57" height="57" fill="#000000"/><rect x="1541" y="743" width="57" height="57" fill="#000000"/><rect x="1655" y="743" width="57" height="57" fill="#000000"/><rect x="1769" y="743" width="57" height="57" fill="#000000"/><rect x="173" y="800" width="57" height="57" fill="#000000"/><rect x="287" y="800" width="57" height="57" fill="#000000"/><rect x="344" y="800" width="57" height="57" fill="#000000"/><rect x="572" y="800" width="57" height="57" fill="#000000"/><rect x="1313" y="800" width="57" height="57" fill="#000000"/><rect x="1598" y="800" width="57" height="57" fill="#000000"/><rect x="1655" y="800" width="57" height="57" fill="#000000"/><rect x="1769" y="800" width="57" height="57" fill="#000000"/><rect x="173" y="857" width="57" height="57" fill="#000000"/><rect x="287" y="857" width="57" height="57" fill="#000000"/><rect x="344" y="857" width="57" height="57" fill="#000000"/><rect x="458" y="857" width="57" height="57" fill="#000000"/><rect x="515" y="857" width="57" height="57" fill="#000000"/><rect x="629" y="857" width="57" height="57" fill="#000000"/><rect x="1541" y="857" width="57" height="57" fill="#000000"/><rect x="1598" y="857" width="57" height="57" fill="#000000"/><rect x="230" y="914" width="57" height="57" fill="#000000"/><rect x="287" y="914" width="57" height="57" fill="#000000"/><rect x="344" y="914" width="57" height="57" fill="#000000"/><rect x="1370" y="914" width="57" height="57" fill="#000000"/><rect x="1427" y="914" width="57" height="57" fill="#000000"/><rect x="1541" y="914" width="57" height="57" fill="#000000"/><rect x="1655" y="914" width="57" height="57" fill="#000000"/><rect x="1712" y="914" width="57" height="57" fill="#000000"/><rect x="1769" y="914" width="57" height="57" fill="#000000"/><rect x="230" y="971" width="57" height="57" fill="#000000"/><rect x="344" y="971" width="57" height="57" fill="#000000"/><rect x="458" y="971" width="57" height="57" fill="#000000"/><rect x="515" y="971" width="57" height="57" fill="#000000"/><rect x="572" y="971" width="57" height="57" fill="#000000"/><rect x="629" y="971" width="57" height="57" fill="#000000"/><rect x="1427" y="971" width="57" height="57" fill="#000000"/><rect x="1541" y="971" width="57" height="57" fill="#000000"/><rect x="1655" y="971" width="57" height="57" fill="#000000"/><rect x="173" y="1028" width="57" height="57" fill="#000000"/><rect x="287" y="1028" width="57" height="57" fill="#000000"/><rect x="572" y="1028" width="57" height="57" fill="#000000"/><rect x="1370" y="1028" width="57" height="57" fill="#000000"/><rect x="1655" y="1028" width="57" height="57" fill="#000000"/><rect x="1712" y="1028" width="57" height="57" fill="#000000"/><rect x="287" y="1085" width="57" height="57" fill="#000000"/><rect x="401" y="1085" width="57" height="57" fill="#000000"/><rect x="458" y="1085" width="57" height="57" fill="#000000"/><rect x="515" y="1085" width="57" height="57" fill="#000000"/><rect x="1484" y="1085" width="57" height="57" fill="#000000"/><rect x="1598" y="1085" width="57" height="57" fill="#000000"/><rect x="1655" y="1085" width="57" height="57" fill="#000000"/><rect x="1712" y="1085" width="57" height="57" fill="#000000"/><rect x="173" y="1142" width="57" height="57" fill="#000000"/><rect x="230" y="1142" width="57" height="57" fill="#000000"/><rect x="287" y="1142" width="57" height="57" fill="#000000"/><rect x="572" y="1142" width="57" height="57" fill="#000000"/><rect x="1313" y="1142" width="57" height="57" fill="#000000"/><rect x="1370" y="1142" width="57" height="57" fill="#000000"/><rect x="1427" y="1142" width="57" height="57" fill="#000000"/><rect x="1484" y="1142" width="57" height="57" fill="#000000"/><rect x="1655" y="1142" width="57" height="57" fill="#000000"/><rect x="344" y="1199" width="57" height="57" fill="#000000"/><rect x="458" y="1199" width="57" height="57" fill="#000000"/><rect x="515" y="1199" width="57" height="57" fill="#000000"/><rect x="572" y="1199" width="57" height="57" fill="#000000"/><rect x="1370" y="1199" width="57" height="57" fill="#000000"/><rect x="1427" y="1199" width="57" height="57" fill="#000000"/><rect x="1484" y="1199" width="57" height="57" fill="#000000"/><rect x="1541" y="1199" width="57" height="57" fill="#000000"/><rect x="1655" y="1199" width="57" height="57" fill="#000000"/><rect x="1769" y="1199" width="57" height="57" fill="#000000"/><rect x="287" y="1256" width="57" height="57" fill="#000000"/><rect x="344" y="1256" width="57" height="57" fill="#000000"/><rect x="401" y="1256" width="57" height="57" fill="#000000"/><rect x="629" y="1256" width="57" height="57" fill="#000000"/><rect x="1313" y="1256" width="57" height="57" fill="#000000"/><rect x="1484" y="1256" width="57" height="57" fill="#000000"/><rect x="1598" y="1256" width="57" height="57" fill="#000000"/><rect x="1712" y="1256" width="57" height="57" fill="#000000"/><rect x="173" y="1313" width="57" height="57" fill="#000000"/><rect x="230" y="1313" width="57" height="57" fill="#000000"/><rect x="287" y="1313" width="57" height="57" fill="#000000"/><rect x="515" y="1313" width="57" height="57" fill="#000000"/><rect x="572" y="1313" width="57" height="57" fill="#000000"/><rect x="629" y="1313" width="57" height="57" fill="#000000"/><rect x="686" y="1313" width="57" height="57" fill="#000000"/><rect x="857" y="1313" width="57" height="57" fill="#000000"/><rect x="971" y="1313" width="57" height="57" fill="#000000"/><rect x="1199" y="1313" width="57" height="57" fill="#000000"/><rect x="1256" y="1313" width="57" height="57" fill="#000000"/><rect x="1313" y="1313" width="57" height="57" fill="#000000"/><rect x="1370" y="1313" width="57" height="57" fill="#000000"/><rect x="1427" y="1313" width="57" height="57" fill="#000000"/><rect x="1484" y="1313" width="57" height="57" fill="#000000"/><rect x="1541" y="1313" width="57" height="57" fill="#000000"/><rect x="1598" y="1313" width="57" height="57" fill="#000000"/><rect x="1655" y="1313" width="57" height="57" fill="#000000"/><rect x="1769" y="1313" width="57" height="57" fill="#000000"/><rect x="629" y="1370" width="57" height="57" fill="#000000"/><rect x="686" y="1370" width="57" height="57" fill="#000000"/><rect x="857" y="1370" width="57" height="57" fill="#000000"/><rect x="914" y="1370" width="57" height="57" fill="#000000"/><rect x="1085" y="1370" width="57" height="57" fill="#000000"/><rect x="1142" y="1370" width="57" height="57" fill="#000000"/><rect x="1199" y="1370" width="57" height="57" fill="#000000"/><rect x="1313" y="1370" width="57" height="57" fill="#000000"/><rect x="1541" y="1370" width="57" height="57" fill="#000000"/><rect x="1655" y="1370" width="57" height="57" fill="#000000"/><rect x="1712" y="1370" width="57" height="57" fill="#000000"/><rect x="1769" y="1370" width="57" height="57" fill="#000000"/><rect x="629" y="1427" width="57" height="57" fill="#000000"/><rect x="686" y="1427" width="57" height="57" fill="#000000"/><rect x="743" y="1427" width="57" height="57" fill="#000000"/><rect x="800" y="1427" width="57" height="57" fill="#000000"/><rect x="857" y="1427" width="57" height="57" fill="#000000"/><rect x="914" y="1427" width="57" height="57" fill="#000000"/><rect x="971" y="1427" width="57" height="57" fill="#000000"/><rect x="1085" y="1427" width="57" height="57" fill="#000000"/><rect x="1199" y="1427" width="57" height="57" fill="#000000"/><rect x="1256" y="1427" width="57" height="57" fill="#000000"/><rect x="1313" y="1427" width="57" height="57" fill="#000000"/><rect x="1427" y="1427" width="57" height="57" fill="#000000"/><rect x="1541" y="1427" width="57" height="57" fill="#000000"/><rect x="1598" y="1427" width="57" height="57" fill="#000000"/><rect x="1655" y="1427" width="57" height="57" fill="#000000"/><rect x="1712" y="1427" width="57" height="57" fill="#000000"/><rect x="1769" y="1427" width="57" height="57" fill="#000000"/><rect x="629" y="1484" width="57" height="57" fill="#000000"/><rect x="743" y="1484" width="57" height="57" fill="#000000"/><rect x="800" y="1484" width="57" height="57" fill="#000000"/><rect x="857" y="1484" width="57" height="57" fill="#000000"/><rect x="914" y="1484" width="57" height="57" fill="#000000"/><rect x="1085" y="1484" width="57" height="57" fill="#000000"/><rect x="1142" y="1484" width="57" height="57" fill="#000000"/><rect x="1199" y="1484" width="57" height="57" fill="#000000"/><rect x="1256" y="1484" width="57" height="57" fill="#000000"/><rect x="1313" y="1484" width="57" height="57" fill="#000000"/><rect x="1541" y="1484" width="57" height="57" fill="#000000"/><rect x="1598" y="1484" width="57" height="57" fill="#000000"/><rect x="1712" y="1484" width="57" height="57" fill="#000000"/><rect x="629" y="1541" width="57" height="57" fill="#000000"/><rect x="743" y="1541" width="57" height="57" fill="#000000"/><rect x="800" y="1541" width="57" height="57" fill="#000000"/><rect x="971" y="1541" width="57" height="57" fill="#000000"/><rect x="1313" y="1541" width="57" height="57" fill="#000000"/><rect x="1370" y="1541" width="57" height="57" fill="#000000"/><rect x="1427" y="1541" width="57" height="57" fill="#000000"/><rect x="1484" y="1541" width="57" height="57" fill="#000000"/><rect x="1541" y="1541" width="57" height="57" fill="#000000"/><rect x="1598" y="1541" width="57" height="57" fill="#000000"/><rect x="1655" y="1541" width="57" height="57" fill="#000000"/><rect x="1712" y="1541" width="57" height="57" fill="#000000"/><rect x="743" y="1598" width="57" height="57" fill="#000000"/><rect x="800" y="1598" width="57" height="57" fill="#000000"/><rect x="1028" y="1598" width="57" height="57" fill="#000000"/><rect x="1085" y="1598" width="57" height="57" fill="#000000"/><rect x="1142" y="1598" width="57" height="57" fill="#000000"/><rect x="1199" y="1598" width="57" height="57" fill="#000000"/><rect x="1256" y="1598" width="57" height="57" fill="#000000"/><rect x="1427" y="1598" width="57" height="57" fill="#000000"/><rect x="1541" y="1598" width="57" height="57" fill="#000000"/><rect x="1655" y="1598" width="57" height="57" fill="#000000"/><rect x="1712" y="1598" width="57" height="57" fill="#000000"/><rect x="686" y="1655" width="57" height="57" fill="#000000"/><rect x="743" y="1655" width="57" height="57" fill="#000000"/><rect x="800" y="1655" width="57" height="57" fill="#000000"/><rect x="914" y="1655" width="57" height="57" fill="#000000"/><rect x="971" y="1655" width="57" height="57" fill="#000000"/><rect x="1085" y="1655" width="57" height="57" fill="#000000"/><rect x="1370" y="1655" width="57" height="57" fill="#000000"/><rect x="1655" y="1655" width="57" height="57" fill="#000000"/><rect x="1712" y="1655" width="57" height="57" fill="#000000"/><rect x="1769" y="1655" width="57" height="57" fill="#000000"/><rect x="686" y="1712" width="57" height="57" fill="#000000"/><rect x="743" y="1712" width="57" height="57" fill="#000000"/><rect x="971" y="1712" width="57" height="57" fill="#000000"/><rect x="1028" y="1712" width="57" height="57" fill="#000000"/><rect x="1085" y="1712" width="57" height="57" fill="#000000"/><rect x="1256" y="1712" width="57" height="57" fill="#000000"/><rect x="1370" y="1712" width="57" height="57" fill="#000000"/><rect x="1427" y="1712" width="57" height="57" fill="#000000"/><rect x="1541" y="1712" width="57" height="57" fill="#000000"/><rect x="1598" y="1712" width="57" height="57" fill="#000000"/><rect x="686" y="1769" width="57" height="57" fill="#000000"/><rect x="743" y="1769" width="57" height="57" fill="#000000"/><rect x="800" y="1769" width="57" height="57" fill="#000000"/><rect x="914" y="1769" width="57" height="57" fill="#000000"/><rect x="1142" y="1769" width="57" height="57" fill="#000000"/><rect x="1199" y="1769" width="57" height="57" fill="#000000"/><rect x="1256" y="1769" width="57" height="57" fill="#000000"/><rect x="1313" y="1769" width="57" height="57" fill="#000000"/><rect x="1370" y="1769" width="57" height="57" fill="#000000"/><rect x="1427" y="1769" width="57" height="57" fill="#000000"/><rect x="1484" y="1769" width="57" height="57" fill="#000000"/><rect x="1541" y="1769" width="57" height="57" fill="#000000"/><rect x="1655" y="1769" width="57" height="57" fill="#000000"/><rect x="1712" y="1769" width="57" height="57" fill="#000000"/><svg version="1.1" id="Ebene_1" x="173" y="173" viewBox="0 0 700 700" style="enable-background:new 0 0 700 700;" xml:space="preserve" width="399" height="399" shape-rendering="auto">

<path fill="#000000" d="M21.2-0.1C9.5-0.1-0.1,9.5-0.1,21.2v78.8v100v100v100v100v100v78.8c0,11.7,9.5,21.3,21.3,21.3h657.6  c11.7,0,21.3-9.5,21.3-21.3V600V500V400V300V200v-100V21.2c0-11.7-9.5-21.3-21.3-21.3H21.2z M600,200v100v100v100v87.8  c0,6.8-5.5,12.2-12.2,12.2H112.2c-6.8,0-12.2-5.5-12.2-12.2V500V400V300V200v-87.8c0-6.8,5.5-12.2,12.2-12.2h475.6  c6.8,0,12.2,5.5,12.2,12.2V200z"/>
</svg>
<svg version="1.1" id="Ebene_1" x="173" y="173" viewBox="0 0 700 700" style="enable-background:new 0 0 700 700;" xml:space="preserve" width="399" height="399" shape-rendering="auto">

<path fill="#000000" d="M500,400V300v-78.8c0-11.7-9.5-21.3-21.3-21.3H221.2c-11.7,0-21.3,9.5-21.3,21.3V300v100v78.8    c0,11.7,9.5,21.3,21.3,21.3h257.5c11.7,0,21.3-9.5,21.3-21.3V400z"/>
</svg>
<svg version="1.1" id="Ebene_1" x="1427" y="173" viewBox="0 0 700 700" style="enable-background:new 0 0 700 700;" xml:space="preserve" width="399" height="399" shape-rendering="auto">

<path fill="#000000" d="M21.2-0.1C9.5-0.1-0.1,9.5-0.1,21.2v78.8v100v100v100v100v100v78.8c0,11.7,9.5,21.3,21.3,21.3h657.6  c11.7,0,21.3-9.5,21.3-21.3V600V500V400V300V200v-100V21.2c0-11.7-9.5-21.3-21.3-21.3H21.2z M600,200v100v100v100v87.8  c0,6.8-5.5,12.2-12.2,12.2H112.2c-6.8,0-12.2-5.5-12.2-12.2V500V400V300V200v-87.8c0-6.8,5.5-12.2,12.2-12.2h475.6  c6.8,0,12.2,5.5,12.2,12.2V200z"/>
</svg>
<svg version="1.1" id="Ebene_1" x="1427" y="173" viewBox="0 0 700 700" style="enable-background:new 0 0 700 700;" xml:space="preserve" width="399" height="399" shape-rendering="auto">

<path fill="#000000" d="M500,400V300v-78.8c0-11.7-9.5-21.3-21.3-21.3H221.2c-11.7,0-21.3,9.5-21.3,21.3V300v100v78.8    c0,11.7,9.5,21.3,21.3,21.3h257.5c11.7,0,21.3-9.5,21.3-21.3V400z"/>
</svg>
<svg version="1.1" id="Ebene_1" x="173" y="1427" viewBox="0 0 700 700" style="enable-background:new 0 0 700 700;" xml:space="preserve" width="399" height="399" shape-rendering="auto">

<path fill="#000000" d="M21.2-0.1C9.5-0.1-0.1,9.5-0.1,21.2v78.8v100v100v100v100v100v78.8c0,11.7,9.5,21.3,21.3,21.3h657.6  c11.7,0,21.3-9.5,21.3-21.3V600V500V400V300V200v-100V21.2c0-11.7-9.5-21.3-21.3-21.3H21.2z M600,200v100v100v100v87.8  c0,6.8-5.5,12.2-12.2,12.2H112.2c-6.8,0-12.2-5.5-12.2-12.2V500V400V300V200v-87.8c0-6.8,5.5-12.2,12.2-12.2h475.6  c6.8,0,12.2,5.5,12.2,12.2V200z"/>
</svg>
<svg version="1.1" id="Ebene_1" x="173" y="1427" viewBox="0 0 700 700" style="enable-background:new 0 0 700 700;" xml:space="preserve" width="399" height="399" shape-rendering="auto">

<path fill="#000000" d="M500,400V300v-78.8c0-11.7-9.5-21.3-21.3-21.3H221.2c-11.7,0-21.3,9.5-21.3,21.3V300v100v78.8    c0,11.7,9.5,21.3,21.3,21.3h257.5c11.7,0,21.3-9.5,21.3-21.3V400z"/>
</svg>
<svg width="570" height="570" viewBox="0 0 39.459 39.533" x="714" y="714" shape-rendering="auto">
  <path id="Path_7" data-name="Path 7" d="M.6,21.717a15.034,15.034,0,0,1-.844-4.122,21.206,21.206,0,0,1,.162-4.224A23.947,23.947,0,0,1,.887,9.178,32.167,32.167,0,0,1,2.48,5.221,35.827,35.827,0,0,1,6.893-1.659a22.509,22.509,0,0,1,6.172-5.27,16.03,16.03,0,0,1,3.116-1.5,12.677,12.677,0,0,1,3.41-.753,9.862,9.862,0,0,1,3.376.338,7.893,7.893,0,0,1,3.082,1.688A8.876,8.876,0,0,1,28.257-4.33,11.334,11.334,0,0,1,29.293-.984a12.34,12.34,0,0,1,0,3.572,14.906,14.906,0,0,1-.925,3.423,15.7,15.7,0,0,1-3.886,6.111,10.557,10.557,0,0,1-2.532,1.786,11.955,11.955,0,0,1-2.924,1.013,13.089,13.089,0,0,1-3.542.422,12.174,12.174,0,0,1-3.44-.554,9.767,9.767,0,0,1-3.012-1.58A9.332,9.332,0,0,1,6.7,10.545q0,1.168.1,2.4a16.239,16.239,0,0,0,.375,2.468,11.931,11.931,0,0,0,.814,2.336A6.867,6.867,0,0,0,9.334,19.7a6.367,6.367,0,0,0,1.948,1.33,9.4,9.4,0,0,0,2.336.675,13.737,13.737,0,0,0,2.532.176q1.266-.034,2.363-.162a17.637,17.637,0,0,0,5.128-1.4,37.407,37.407,0,0,0,4.676-2.492A46.1,46.1,0,0,0,32.44,14.87q1.982-1.594,3.862-3.278.338-.338.618-.648t.625-.638a.868.868,0,0,1,1.168-.132.831.831,0,0,1,.375,1.1,2.539,2.539,0,0,1-.375.618,6.2,6.2,0,0,0-.422.618q-.52.716-1.1,1.462t-1.168,1.462a64.945,64.945,0,0,1-5.064,5.5,45.511,45.511,0,0,1-5.81,4.727A37.158,37.158,0,0,1,18.615,29.2a14.214,14.214,0,0,1-7.306,1.013,12.272,12.272,0,0,1-6.573-2.677A13.224,13.224,0,0,1,.6,21.717ZM8.787,2.169a20.159,20.159,0,0,0-1.958,6.04,12.364,12.364,0,0,0,2.336,1.3,7.428,7.428,0,0,0,2.532.584,6.928,6.928,0,0,0,3.116-.452,15.412,15.412,0,0,0,2.792-1.428,5.294,5.294,0,0,0,1.35-1.283,8.221,8.221,0,0,0,.955-1.644,10.908,10.908,0,0,0,.976-5.908q-.064-.52-.162-1.07a1.722,1.722,0,0,0-.486-.942,2.6,2.6,0,0,0-1.074-.652A12.05,12.05,0,0,0,17.9-3.624a6.327,6.327,0,0,0-2.86.132A8.1,8.1,0,0,0,12.507-2.26,10.9,10.9,0,0,0,10.4-.235a14.885,14.885,0,0,0-1.6,2.4Z" transform="translate(0.288 9.208)"/>
</svg>
</svg>

</svg>
