<?xml version="1.0" encoding="UTF-8"?>
<svg version="1.1" baseProfile="tiny" xmlns="http://www.w3.org/2000/svg" width="2000" height="2000">
<rect shape-rendering="optimizeSpeed"  x="0" y="0" width="2000" height="2000" fill="white" />
<rect shape-rendering="optimizeSpeed"  x="72" y="72" width="64" height="64" fill="black" />
<rect shape-rendering="optimizeSpeed"  x="136" y="72" width="64" height="64" fill="black" />
<rect shape-rendering="optimizeSpeed"  x="200" y="72" width="64" height="64" fill="black" />
<rect shape-rendering="optimizeSpeed"  x="264" y="72" width="64" height="64" fill="black" />
<rect shape-rendering="optimizeSpeed"  x="328" y="72" width="64" height="64" fill="black" />
<rect shape-rendering="optimizeSpeed"  x="392" y="72" width="64" height="64" fill="black" />
<rect shape-rendering="optimizeSpeed"  x="456" y="72" width="64" height="64" fill="black" />
<rect shape-rendering="optimizeSpeed"  x="584" y="72" width="64" height="64" fill="black" />
<rect shape-rendering="optimizeSpeed"  x="840" y="72" width="64" height="64" fill="black" />
<rect shape-rendering="optimizeSpeed"  x="904" y="72" width="64" height="64" fill="black" />
<rect shape-rendering="optimizeSpeed"  x="1096" y="72" width="64" height="64" fill="black" />
<rect shape-rendering="optimizeSpeed"  x="1288" y="72" width="64" height="64" fill="black" />
<rect shape-rendering="optimizeSpeed"  x="1352" y="72" width="64" height="64" fill="black" />
<rect shape-rendering="optimizeSpeed"  x="1480" y="72" width="64" height="64" fill="black" />
<rect shape-rendering="optimizeSpeed"  x="1544" y="72" width="64" height="64" fill="black" />
<rect shape-rendering="optimizeSpeed"  x="1608" y="72" width="64" height="64" fill="black" />
<rect shape-rendering="optimizeSpeed"  x="1672" y="72" width="64" height="64" fill="black" />
<rect shape-rendering="optimizeSpeed"  x="1736" y="72" width="64" height="64" fill="black" />
<rect shape-rendering="optimizeSpeed"  x="1800" y="72" width="64" height="64" fill="black" />
<rect shape-rendering="optimizeSpeed"  x="1864" y="72" width="64" height="64" fill="black" />
<rect shape-rendering="optimizeSpeed"  x="72" y="136" width="64" height="64" fill="black" />
<rect shape-rendering="optimizeSpeed"  x="456" y="136" width="64" height="64" fill="black" />
<rect shape-rendering="optimizeSpeed"  x="648" y="136" width="64" height="64" fill="black" />
<rect shape-rendering="optimizeSpeed"  x="712" y="136" width="64" height="64" fill="black" />
<rect shape-rendering="optimizeSpeed"  x="776" y="136" width="64" height="64" fill="black" />
<rect shape-rendering="optimizeSpeed"  x="968" y="136" width="64" height="64" fill="black" />
<rect shape-rendering="optimizeSpeed"  x="1160" y="136" width="64" height="64" fill="black" />
<rect shape-rendering="optimizeSpeed"  x="1224" y="136" width="64" height="64" fill="black" />
<rect shape-rendering="optimizeSpeed"  x="1480" y="136" width="64" height="64" fill="black" />
<rect shape-rendering="optimizeSpeed"  x="1864" y="136" width="64" height="64" fill="black" />
<rect shape-rendering="optimizeSpeed"  x="72" y="200" width="64" height="64" fill="black" />
<rect shape-rendering="optimizeSpeed"  x="200" y="200" width="64" height="64" fill="black" />
<rect shape-rendering="optimizeSpeed"  x="264" y="200" width="64" height="64" fill="black" />
<rect shape-rendering="optimizeSpeed"  x="328" y="200" width="64" height="64" fill="black" />
<rect shape-rendering="optimizeSpeed"  x="456" y="200" width="64" height="64" fill="black" />
<rect shape-rendering="optimizeSpeed"  x="584" y="200" width="64" height="64" fill="black" />
<rect shape-rendering="optimizeSpeed"  x="648" y="200" width="64" height="64" fill="black" />
<rect shape-rendering="optimizeSpeed"  x="712" y="200" width="64" height="64" fill="black" />
<rect shape-rendering="optimizeSpeed"  x="840" y="200" width="64" height="64" fill="black" />
<rect shape-rendering="optimizeSpeed"  x="904" y="200" width="64" height="64" fill="black" />
<rect shape-rendering="optimizeSpeed"  x="968" y="200" width="64" height="64" fill="black" />
<rect shape-rendering="optimizeSpeed"  x="1032" y="200" width="64" height="64" fill="black" />
<rect shape-rendering="optimizeSpeed"  x="1480" y="200" width="64" height="64" fill="black" />
<rect shape-rendering="optimizeSpeed"  x="1608" y="200" width="64" height="64" fill="black" />
<rect shape-rendering="optimizeSpeed"  x="1672" y="200" width="64" height="64" fill="black" />
<rect shape-rendering="optimizeSpeed"  x="1736" y="200" width="64" height="64" fill="black" />
<rect shape-rendering="optimizeSpeed"  x="1864" y="200" width="64" height="64" fill="black" />
<rect shape-rendering="optimizeSpeed"  x="72" y="264" width="64" height="64" fill="black" />
<rect shape-rendering="optimizeSpeed"  x="200" y="264" width="64" height="64" fill="black" />
<rect shape-rendering="optimizeSpeed"  x="264" y="264" width="64" height="64" fill="black" />
<rect shape-rendering="optimizeSpeed"  x="328" y="264" width="64" height="64" fill="black" />
<rect shape-rendering="optimizeSpeed"  x="456" y="264" width="64" height="64" fill="black" />
<rect shape-rendering="optimizeSpeed"  x="584" y="264" width="64" height="64" fill="black" />
<rect shape-rendering="optimizeSpeed"  x="648" y="264" width="64" height="64" fill="black" />
<rect shape-rendering="optimizeSpeed"  x="712" y="264" width="64" height="64" fill="black" />
<rect shape-rendering="optimizeSpeed"  x="776" y="264" width="64" height="64" fill="black" />
<rect shape-rendering="optimizeSpeed"  x="840" y="264" width="64" height="64" fill="black" />
<rect shape-rendering="optimizeSpeed"  x="904" y="264" width="64" height="64" fill="black" />
<rect shape-rendering="optimizeSpeed"  x="968" y="264" width="64" height="64" fill="black" />
<rect shape-rendering="optimizeSpeed"  x="1032" y="264" width="64" height="64" fill="black" />
<rect shape-rendering="optimizeSpeed"  x="1096" y="264" width="64" height="64" fill="black" />
<rect shape-rendering="optimizeSpeed"  x="1160" y="264" width="64" height="64" fill="black" />
<rect shape-rendering="optimizeSpeed"  x="1352" y="264" width="64" height="64" fill="black" />
<rect shape-rendering="optimizeSpeed"  x="1480" y="264" width="64" height="64" fill="black" />
<rect shape-rendering="optimizeSpeed"  x="1608" y="264" width="64" height="64" fill="black" />
<rect shape-rendering="optimizeSpeed"  x="1672" y="264" width="64" height="64" fill="black" />
<rect shape-rendering="optimizeSpeed"  x="1736" y="264" width="64" height="64" fill="black" />
<rect shape-rendering="optimizeSpeed"  x="1864" y="264" width="64" height="64" fill="black" />
<rect shape-rendering="optimizeSpeed"  x="72" y="328" width="64" height="64" fill="black" />
<rect shape-rendering="optimizeSpeed"  x="200" y="328" width="64" height="64" fill="black" />
<rect shape-rendering="optimizeSpeed"  x="264" y="328" width="64" height="64" fill="black" />
<rect shape-rendering="optimizeSpeed"  x="328" y="328" width="64" height="64" fill="black" />
<rect shape-rendering="optimizeSpeed"  x="456" y="328" width="64" height="64" fill="black" />
<rect shape-rendering="optimizeSpeed"  x="584" y="328" width="64" height="64" fill="black" />
<rect shape-rendering="optimizeSpeed"  x="840" y="328" width="64" height="64" fill="black" />
<rect shape-rendering="optimizeSpeed"  x="968" y="328" width="64" height="64" fill="black" />
<rect shape-rendering="optimizeSpeed"  x="1032" y="328" width="64" height="64" fill="black" />
<rect shape-rendering="optimizeSpeed"  x="1096" y="328" width="64" height="64" fill="black" />
<rect shape-rendering="optimizeSpeed"  x="1160" y="328" width="64" height="64" fill="black" />
<rect shape-rendering="optimizeSpeed"  x="1224" y="328" width="64" height="64" fill="black" />
<rect shape-rendering="optimizeSpeed"  x="1288" y="328" width="64" height="64" fill="black" />
<rect shape-rendering="optimizeSpeed"  x="1480" y="328" width="64" height="64" fill="black" />
<rect shape-rendering="optimizeSpeed"  x="1608" y="328" width="64" height="64" fill="black" />
<rect shape-rendering="optimizeSpeed"  x="1672" y="328" width="64" height="64" fill="black" />
<rect shape-rendering="optimizeSpeed"  x="1736" y="328" width="64" height="64" fill="black" />
<rect shape-rendering="optimizeSpeed"  x="1864" y="328" width="64" height="64" fill="black" />
<rect shape-rendering="optimizeSpeed"  x="72" y="392" width="64" height="64" fill="black" />
<rect shape-rendering="optimizeSpeed"  x="456" y="392" width="64" height="64" fill="black" />
<rect shape-rendering="optimizeSpeed"  x="712" y="392" width="64" height="64" fill="black" />
<rect shape-rendering="optimizeSpeed"  x="840" y="392" width="64" height="64" fill="black" />
<rect shape-rendering="optimizeSpeed"  x="904" y="392" width="64" height="64" fill="black" />
<rect shape-rendering="optimizeSpeed"  x="968" y="392" width="64" height="64" fill="black" />
<rect shape-rendering="optimizeSpeed"  x="1224" y="392" width="64" height="64" fill="black" />
<rect shape-rendering="optimizeSpeed"  x="1288" y="392" width="64" height="64" fill="black" />
<rect shape-rendering="optimizeSpeed"  x="1352" y="392" width="64" height="64" fill="black" />
<rect shape-rendering="optimizeSpeed"  x="1480" y="392" width="64" height="64" fill="black" />
<rect shape-rendering="optimizeSpeed"  x="1864" y="392" width="64" height="64" fill="black" />
<rect shape-rendering="optimizeSpeed"  x="72" y="456" width="64" height="64" fill="black" />
<rect shape-rendering="optimizeSpeed"  x="136" y="456" width="64" height="64" fill="black" />
<rect shape-rendering="optimizeSpeed"  x="200" y="456" width="64" height="64" fill="black" />
<rect shape-rendering="optimizeSpeed"  x="264" y="456" width="64" height="64" fill="black" />
<rect shape-rendering="optimizeSpeed"  x="328" y="456" width="64" height="64" fill="black" />
<rect shape-rendering="optimizeSpeed"  x="392" y="456" width="64" height="64" fill="black" />
<rect shape-rendering="optimizeSpeed"  x="456" y="456" width="64" height="64" fill="black" />
<rect shape-rendering="optimizeSpeed"  x="584" y="456" width="64" height="64" fill="black" />
<rect shape-rendering="optimizeSpeed"  x="712" y="456" width="64" height="64" fill="black" />
<rect shape-rendering="optimizeSpeed"  x="840" y="456" width="64" height="64" fill="black" />
<rect shape-rendering="optimizeSpeed"  x="968" y="456" width="64" height="64" fill="black" />
<rect shape-rendering="optimizeSpeed"  x="1096" y="456" width="64" height="64" fill="black" />
<rect shape-rendering="optimizeSpeed"  x="1224" y="456" width="64" height="64" fill="black" />
<rect shape-rendering="optimizeSpeed"  x="1352" y="456" width="64" height="64" fill="black" />
<rect shape-rendering="optimizeSpeed"  x="1480" y="456" width="64" height="64" fill="black" />
<rect shape-rendering="optimizeSpeed"  x="1544" y="456" width="64" height="64" fill="black" />
<rect shape-rendering="optimizeSpeed"  x="1608" y="456" width="64" height="64" fill="black" />
<rect shape-rendering="optimizeSpeed"  x="1672" y="456" width="64" height="64" fill="black" />
<rect shape-rendering="optimizeSpeed"  x="1736" y="456" width="64" height="64" fill="black" />
<rect shape-rendering="optimizeSpeed"  x="1800" y="456" width="64" height="64" fill="black" />
<rect shape-rendering="optimizeSpeed"  x="1864" y="456" width="64" height="64" fill="black" />
<rect shape-rendering="optimizeSpeed"  x="712" y="520" width="64" height="64" fill="black" />
<rect shape-rendering="optimizeSpeed"  x="776" y="520" width="64" height="64" fill="black" />
<rect shape-rendering="optimizeSpeed"  x="840" y="520" width="64" height="64" fill="black" />
<rect shape-rendering="optimizeSpeed"  x="1096" y="520" width="64" height="64" fill="black" />
<rect shape-rendering="optimizeSpeed"  x="1160" y="520" width="64" height="64" fill="black" />
<rect shape-rendering="optimizeSpeed"  x="1224" y="520" width="64" height="64" fill="black" />
<rect shape-rendering="optimizeSpeed"  x="1288" y="520" width="64" height="64" fill="black" />
<rect shape-rendering="optimizeSpeed"  x="72" y="584" width="64" height="64" fill="black" />
<rect shape-rendering="optimizeSpeed"  x="136" y="584" width="64" height="64" fill="black" />
<rect shape-rendering="optimizeSpeed"  x="200" y="584" width="64" height="64" fill="black" />
<rect shape-rendering="optimizeSpeed"  x="264" y="584" width="64" height="64" fill="black" />
<rect shape-rendering="optimizeSpeed"  x="456" y="584" width="64" height="64" fill="black" />
<rect shape-rendering="optimizeSpeed"  x="584" y="584" width="64" height="64" fill="black" />
<rect shape-rendering="optimizeSpeed"  x="712" y="584" width="64" height="64" fill="black" />
<rect shape-rendering="optimizeSpeed"  x="776" y="584" width="64" height="64" fill="black" />
<rect shape-rendering="optimizeSpeed"  x="968" y="584" width="64" height="64" fill="black" />
<rect shape-rendering="optimizeSpeed"  x="1096" y="584" width="64" height="64" fill="black" />
<rect shape-rendering="optimizeSpeed"  x="1160" y="584" width="64" height="64" fill="black" />
<rect shape-rendering="optimizeSpeed"  x="1224" y="584" width="64" height="64" fill="black" />
<rect shape-rendering="optimizeSpeed"  x="1416" y="584" width="64" height="64" fill="black" />
<rect shape-rendering="optimizeSpeed"  x="1608" y="584" width="64" height="64" fill="black" />
<rect shape-rendering="optimizeSpeed"  x="1672" y="584" width="64" height="64" fill="black" />
<rect shape-rendering="optimizeSpeed"  x="1736" y="584" width="64" height="64" fill="black" />
<rect shape-rendering="optimizeSpeed"  x="1864" y="584" width="64" height="64" fill="black" />
<rect shape-rendering="optimizeSpeed"  x="136" y="648" width="64" height="64" fill="black" />
<rect shape-rendering="optimizeSpeed"  x="328" y="648" width="64" height="64" fill="black" />
<rect shape-rendering="optimizeSpeed"  x="584" y="648" width="64" height="64" fill="black" />
<rect shape-rendering="optimizeSpeed"  x="712" y="648" width="64" height="64" fill="black" />
<rect shape-rendering="optimizeSpeed"  x="776" y="648" width="64" height="64" fill="black" />
<rect shape-rendering="optimizeSpeed"  x="968" y="648" width="64" height="64" fill="black" />
<rect shape-rendering="optimizeSpeed"  x="1096" y="648" width="64" height="64" fill="black" />
<rect shape-rendering="optimizeSpeed"  x="1224" y="648" width="64" height="64" fill="black" />
<rect shape-rendering="optimizeSpeed"  x="1288" y="648" width="64" height="64" fill="black" />
<rect shape-rendering="optimizeSpeed"  x="1352" y="648" width="64" height="64" fill="black" />
<rect shape-rendering="optimizeSpeed"  x="1416" y="648" width="64" height="64" fill="black" />
<rect shape-rendering="optimizeSpeed"  x="1480" y="648" width="64" height="64" fill="black" />
<rect shape-rendering="optimizeSpeed"  x="1544" y="648" width="64" height="64" fill="black" />
<rect shape-rendering="optimizeSpeed"  x="1608" y="648" width="64" height="64" fill="black" />
<rect shape-rendering="optimizeSpeed"  x="1864" y="648" width="64" height="64" fill="black" />
<rect shape-rendering="optimizeSpeed"  x="72" y="712" width="64" height="64" fill="black" />
<rect shape-rendering="optimizeSpeed"  x="136" y="712" width="64" height="64" fill="black" />
<rect shape-rendering="optimizeSpeed"  x="328" y="712" width="64" height="64" fill="black" />
<rect shape-rendering="optimizeSpeed"  x="456" y="712" width="64" height="64" fill="black" />
<rect shape-rendering="optimizeSpeed"  x="520" y="712" width="64" height="64" fill="black" />
<rect shape-rendering="optimizeSpeed"  x="584" y="712" width="64" height="64" fill="black" />
<rect shape-rendering="optimizeSpeed"  x="648" y="712" width="64" height="64" fill="black" />
<rect shape-rendering="optimizeSpeed"  x="712" y="712" width="64" height="64" fill="black" />
<rect shape-rendering="optimizeSpeed"  x="776" y="712" width="64" height="64" fill="black" />
<rect shape-rendering="optimizeSpeed"  x="904" y="712" width="64" height="64" fill="black" />
<rect shape-rendering="optimizeSpeed"  x="1160" y="712" width="64" height="64" fill="black" />
<rect shape-rendering="optimizeSpeed"  x="1224" y="712" width="64" height="64" fill="black" />
<rect shape-rendering="optimizeSpeed"  x="1352" y="712" width="64" height="64" fill="black" />
<rect shape-rendering="optimizeSpeed"  x="1416" y="712" width="64" height="64" fill="black" />
<rect shape-rendering="optimizeSpeed"  x="1544" y="712" width="64" height="64" fill="black" />
<rect shape-rendering="optimizeSpeed"  x="1608" y="712" width="64" height="64" fill="black" />
<rect shape-rendering="optimizeSpeed"  x="1736" y="712" width="64" height="64" fill="black" />
<rect shape-rendering="optimizeSpeed"  x="1800" y="712" width="64" height="64" fill="black" />
<rect shape-rendering="optimizeSpeed"  x="72" y="776" width="64" height="64" fill="black" />
<rect shape-rendering="optimizeSpeed"  x="136" y="776" width="64" height="64" fill="black" />
<rect shape-rendering="optimizeSpeed"  x="264" y="776" width="64" height="64" fill="black" />
<rect shape-rendering="optimizeSpeed"  x="328" y="776" width="64" height="64" fill="black" />
<rect shape-rendering="optimizeSpeed"  x="392" y="776" width="64" height="64" fill="black" />
<rect shape-rendering="optimizeSpeed"  x="520" y="776" width="64" height="64" fill="black" />
<rect shape-rendering="optimizeSpeed"  x="648" y="776" width="64" height="64" fill="black" />
<rect shape-rendering="optimizeSpeed"  x="712" y="776" width="64" height="64" fill="black" />
<rect shape-rendering="optimizeSpeed"  x="840" y="776" width="64" height="64" fill="black" />
<rect shape-rendering="optimizeSpeed"  x="904" y="776" width="64" height="64" fill="black" />
<rect shape-rendering="optimizeSpeed"  x="968" y="776" width="64" height="64" fill="black" />
<rect shape-rendering="optimizeSpeed"  x="1032" y="776" width="64" height="64" fill="black" />
<rect shape-rendering="optimizeSpeed"  x="1096" y="776" width="64" height="64" fill="black" />
<rect shape-rendering="optimizeSpeed"  x="1352" y="776" width="64" height="64" fill="black" />
<rect shape-rendering="optimizeSpeed"  x="1416" y="776" width="64" height="64" fill="black" />
<rect shape-rendering="optimizeSpeed"  x="1480" y="776" width="64" height="64" fill="black" />
<rect shape-rendering="optimizeSpeed"  x="1544" y="776" width="64" height="64" fill="black" />
<rect shape-rendering="optimizeSpeed"  x="1864" y="776" width="64" height="64" fill="black" />
<rect shape-rendering="optimizeSpeed"  x="200" y="840" width="64" height="64" fill="black" />
<rect shape-rendering="optimizeSpeed"  x="328" y="840" width="64" height="64" fill="black" />
<rect shape-rendering="optimizeSpeed"  x="392" y="840" width="64" height="64" fill="black" />
<rect shape-rendering="optimizeSpeed"  x="456" y="840" width="64" height="64" fill="black" />
<rect shape-rendering="optimizeSpeed"  x="520" y="840" width="64" height="64" fill="black" />
<rect shape-rendering="optimizeSpeed"  x="584" y="840" width="64" height="64" fill="black" />
<rect shape-rendering="optimizeSpeed"  x="648" y="840" width="64" height="64" fill="black" />
<rect shape-rendering="optimizeSpeed"  x="712" y="840" width="64" height="64" fill="black" />
<rect shape-rendering="optimizeSpeed"  x="904" y="840" width="64" height="64" fill="black" />
<rect shape-rendering="optimizeSpeed"  x="1032" y="840" width="64" height="64" fill="black" />
<rect shape-rendering="optimizeSpeed"  x="1096" y="840" width="64" height="64" fill="black" />
<rect shape-rendering="optimizeSpeed"  x="1160" y="840" width="64" height="64" fill="black" />
<rect shape-rendering="optimizeSpeed"  x="1288" y="840" width="64" height="64" fill="black" />
<rect shape-rendering="optimizeSpeed"  x="1544" y="840" width="64" height="64" fill="black" />
<rect shape-rendering="optimizeSpeed"  x="1672" y="840" width="64" height="64" fill="black" />
<rect shape-rendering="optimizeSpeed"  x="1736" y="840" width="64" height="64" fill="black" />
<rect shape-rendering="optimizeSpeed"  x="72" y="904" width="64" height="64" fill="black" />
<rect shape-rendering="optimizeSpeed"  x="200" y="904" width="64" height="64" fill="black" />
<rect shape-rendering="optimizeSpeed"  x="520" y="904" width="64" height="64" fill="black" />
<rect shape-rendering="optimizeSpeed"  x="584" y="904" width="64" height="64" fill="black" />
<rect shape-rendering="optimizeSpeed"  x="840" y="904" width="64" height="64" fill="black" />
<rect shape-rendering="optimizeSpeed"  x="904" y="904" width="64" height="64" fill="black" />
<rect shape-rendering="optimizeSpeed"  x="968" y="904" width="64" height="64" fill="black" />
<rect shape-rendering="optimizeSpeed"  x="1032" y="904" width="64" height="64" fill="black" />
<rect shape-rendering="optimizeSpeed"  x="1096" y="904" width="64" height="64" fill="black" />
<rect shape-rendering="optimizeSpeed"  x="1288" y="904" width="64" height="64" fill="black" />
<rect shape-rendering="optimizeSpeed"  x="1416" y="904" width="64" height="64" fill="black" />
<rect shape-rendering="optimizeSpeed"  x="1480" y="904" width="64" height="64" fill="black" />
<rect shape-rendering="optimizeSpeed"  x="1736" y="904" width="64" height="64" fill="black" />
<rect shape-rendering="optimizeSpeed"  x="1800" y="904" width="64" height="64" fill="black" />
<rect shape-rendering="optimizeSpeed"  x="1864" y="904" width="64" height="64" fill="black" />
<rect shape-rendering="optimizeSpeed"  x="72" y="968" width="64" height="64" fill="black" />
<rect shape-rendering="optimizeSpeed"  x="200" y="968" width="64" height="64" fill="black" />
<rect shape-rendering="optimizeSpeed"  x="264" y="968" width="64" height="64" fill="black" />
<rect shape-rendering="optimizeSpeed"  x="456" y="968" width="64" height="64" fill="black" />
<rect shape-rendering="optimizeSpeed"  x="520" y="968" width="64" height="64" fill="black" />
<rect shape-rendering="optimizeSpeed"  x="584" y="968" width="64" height="64" fill="black" />
<rect shape-rendering="optimizeSpeed"  x="712" y="968" width="64" height="64" fill="black" />
<rect shape-rendering="optimizeSpeed"  x="968" y="968" width="64" height="64" fill="black" />
<rect shape-rendering="optimizeSpeed"  x="1096" y="968" width="64" height="64" fill="black" />
<rect shape-rendering="optimizeSpeed"  x="1288" y="968" width="64" height="64" fill="black" />
<rect shape-rendering="optimizeSpeed"  x="1352" y="968" width="64" height="64" fill="black" />
<rect shape-rendering="optimizeSpeed"  x="1480" y="968" width="64" height="64" fill="black" />
<rect shape-rendering="optimizeSpeed"  x="1544" y="968" width="64" height="64" fill="black" />
<rect shape-rendering="optimizeSpeed"  x="1736" y="968" width="64" height="64" fill="black" />
<rect shape-rendering="optimizeSpeed"  x="1800" y="968" width="64" height="64" fill="black" />
<rect shape-rendering="optimizeSpeed"  x="1864" y="968" width="64" height="64" fill="black" />
<rect shape-rendering="optimizeSpeed"  x="72" y="1032" width="64" height="64" fill="black" />
<rect shape-rendering="optimizeSpeed"  x="264" y="1032" width="64" height="64" fill="black" />
<rect shape-rendering="optimizeSpeed"  x="328" y="1032" width="64" height="64" fill="black" />
<rect shape-rendering="optimizeSpeed"  x="648" y="1032" width="64" height="64" fill="black" />
<rect shape-rendering="optimizeSpeed"  x="840" y="1032" width="64" height="64" fill="black" />
<rect shape-rendering="optimizeSpeed"  x="968" y="1032" width="64" height="64" fill="black" />
<rect shape-rendering="optimizeSpeed"  x="1032" y="1032" width="64" height="64" fill="black" />
<rect shape-rendering="optimizeSpeed"  x="1416" y="1032" width="64" height="64" fill="black" />
<rect shape-rendering="optimizeSpeed"  x="1480" y="1032" width="64" height="64" fill="black" />
<rect shape-rendering="optimizeSpeed"  x="1800" y="1032" width="64" height="64" fill="black" />
<rect shape-rendering="optimizeSpeed"  x="72" y="1096" width="64" height="64" fill="black" />
<rect shape-rendering="optimizeSpeed"  x="264" y="1096" width="64" height="64" fill="black" />
<rect shape-rendering="optimizeSpeed"  x="456" y="1096" width="64" height="64" fill="black" />
<rect shape-rendering="optimizeSpeed"  x="648" y="1096" width="64" height="64" fill="black" />
<rect shape-rendering="optimizeSpeed"  x="712" y="1096" width="64" height="64" fill="black" />
<rect shape-rendering="optimizeSpeed"  x="904" y="1096" width="64" height="64" fill="black" />
<rect shape-rendering="optimizeSpeed"  x="1096" y="1096" width="64" height="64" fill="black" />
<rect shape-rendering="optimizeSpeed"  x="1224" y="1096" width="64" height="64" fill="black" />
<rect shape-rendering="optimizeSpeed"  x="1288" y="1096" width="64" height="64" fill="black" />
<rect shape-rendering="optimizeSpeed"  x="1352" y="1096" width="64" height="64" fill="black" />
<rect shape-rendering="optimizeSpeed"  x="1416" y="1096" width="64" height="64" fill="black" />
<rect shape-rendering="optimizeSpeed"  x="1544" y="1096" width="64" height="64" fill="black" />
<rect shape-rendering="optimizeSpeed"  x="1608" y="1096" width="64" height="64" fill="black" />
<rect shape-rendering="optimizeSpeed"  x="1672" y="1096" width="64" height="64" fill="black" />
<rect shape-rendering="optimizeSpeed"  x="1800" y="1096" width="64" height="64" fill="black" />
<rect shape-rendering="optimizeSpeed"  x="136" y="1160" width="64" height="64" fill="black" />
<rect shape-rendering="optimizeSpeed"  x="200" y="1160" width="64" height="64" fill="black" />
<rect shape-rendering="optimizeSpeed"  x="264" y="1160" width="64" height="64" fill="black" />
<rect shape-rendering="optimizeSpeed"  x="328" y="1160" width="64" height="64" fill="black" />
<rect shape-rendering="optimizeSpeed"  x="776" y="1160" width="64" height="64" fill="black" />
<rect shape-rendering="optimizeSpeed"  x="840" y="1160" width="64" height="64" fill="black" />
<rect shape-rendering="optimizeSpeed"  x="1032" y="1160" width="64" height="64" fill="black" />
<rect shape-rendering="optimizeSpeed"  x="1160" y="1160" width="64" height="64" fill="black" />
<rect shape-rendering="optimizeSpeed"  x="1352" y="1160" width="64" height="64" fill="black" />
<rect shape-rendering="optimizeSpeed"  x="1544" y="1160" width="64" height="64" fill="black" />
<rect shape-rendering="optimizeSpeed"  x="1672" y="1160" width="64" height="64" fill="black" />
<rect shape-rendering="optimizeSpeed"  x="1736" y="1160" width="64" height="64" fill="black" />
<rect shape-rendering="optimizeSpeed"  x="1800" y="1160" width="64" height="64" fill="black" />
<rect shape-rendering="optimizeSpeed"  x="72" y="1224" width="64" height="64" fill="black" />
<rect shape-rendering="optimizeSpeed"  x="200" y="1224" width="64" height="64" fill="black" />
<rect shape-rendering="optimizeSpeed"  x="264" y="1224" width="64" height="64" fill="black" />
<rect shape-rendering="optimizeSpeed"  x="392" y="1224" width="64" height="64" fill="black" />
<rect shape-rendering="optimizeSpeed"  x="456" y="1224" width="64" height="64" fill="black" />
<rect shape-rendering="optimizeSpeed"  x="520" y="1224" width="64" height="64" fill="black" />
<rect shape-rendering="optimizeSpeed"  x="648" y="1224" width="64" height="64" fill="black" />
<rect shape-rendering="optimizeSpeed"  x="712" y="1224" width="64" height="64" fill="black" />
<rect shape-rendering="optimizeSpeed"  x="840" y="1224" width="64" height="64" fill="black" />
<rect shape-rendering="optimizeSpeed"  x="1032" y="1224" width="64" height="64" fill="black" />
<rect shape-rendering="optimizeSpeed"  x="1096" y="1224" width="64" height="64" fill="black" />
<rect shape-rendering="optimizeSpeed"  x="1160" y="1224" width="64" height="64" fill="black" />
<rect shape-rendering="optimizeSpeed"  x="1416" y="1224" width="64" height="64" fill="black" />
<rect shape-rendering="optimizeSpeed"  x="1608" y="1224" width="64" height="64" fill="black" />
<rect shape-rendering="optimizeSpeed"  x="1736" y="1224" width="64" height="64" fill="black" />
<rect shape-rendering="optimizeSpeed"  x="328" y="1288" width="64" height="64" fill="black" />
<rect shape-rendering="optimizeSpeed"  x="392" y="1288" width="64" height="64" fill="black" />
<rect shape-rendering="optimizeSpeed"  x="584" y="1288" width="64" height="64" fill="black" />
<rect shape-rendering="optimizeSpeed"  x="648" y="1288" width="64" height="64" fill="black" />
<rect shape-rendering="optimizeSpeed"  x="712" y="1288" width="64" height="64" fill="black" />
<rect shape-rendering="optimizeSpeed"  x="840" y="1288" width="64" height="64" fill="black" />
<rect shape-rendering="optimizeSpeed"  x="1032" y="1288" width="64" height="64" fill="black" />
<rect shape-rendering="optimizeSpeed"  x="1096" y="1288" width="64" height="64" fill="black" />
<rect shape-rendering="optimizeSpeed"  x="1160" y="1288" width="64" height="64" fill="black" />
<rect shape-rendering="optimizeSpeed"  x="1224" y="1288" width="64" height="64" fill="black" />
<rect shape-rendering="optimizeSpeed"  x="1288" y="1288" width="64" height="64" fill="black" />
<rect shape-rendering="optimizeSpeed"  x="1352" y="1288" width="64" height="64" fill="black" />
<rect shape-rendering="optimizeSpeed"  x="1416" y="1288" width="64" height="64" fill="black" />
<rect shape-rendering="optimizeSpeed"  x="1608" y="1288" width="64" height="64" fill="black" />
<rect shape-rendering="optimizeSpeed"  x="1736" y="1288" width="64" height="64" fill="black" />
<rect shape-rendering="optimizeSpeed"  x="136" y="1352" width="64" height="64" fill="black" />
<rect shape-rendering="optimizeSpeed"  x="200" y="1352" width="64" height="64" fill="black" />
<rect shape-rendering="optimizeSpeed"  x="328" y="1352" width="64" height="64" fill="black" />
<rect shape-rendering="optimizeSpeed"  x="456" y="1352" width="64" height="64" fill="black" />
<rect shape-rendering="optimizeSpeed"  x="520" y="1352" width="64" height="64" fill="black" />
<rect shape-rendering="optimizeSpeed"  x="648" y="1352" width="64" height="64" fill="black" />
<rect shape-rendering="optimizeSpeed"  x="776" y="1352" width="64" height="64" fill="black" />
<rect shape-rendering="optimizeSpeed"  x="968" y="1352" width="64" height="64" fill="black" />
<rect shape-rendering="optimizeSpeed"  x="1032" y="1352" width="64" height="64" fill="black" />
<rect shape-rendering="optimizeSpeed"  x="1096" y="1352" width="64" height="64" fill="black" />
<rect shape-rendering="optimizeSpeed"  x="1160" y="1352" width="64" height="64" fill="black" />
<rect shape-rendering="optimizeSpeed"  x="1288" y="1352" width="64" height="64" fill="black" />
<rect shape-rendering="optimizeSpeed"  x="1352" y="1352" width="64" height="64" fill="black" />
<rect shape-rendering="optimizeSpeed"  x="1416" y="1352" width="64" height="64" fill="black" />
<rect shape-rendering="optimizeSpeed"  x="1480" y="1352" width="64" height="64" fill="black" />
<rect shape-rendering="optimizeSpeed"  x="1544" y="1352" width="64" height="64" fill="black" />
<rect shape-rendering="optimizeSpeed"  x="1608" y="1352" width="64" height="64" fill="black" />
<rect shape-rendering="optimizeSpeed"  x="1672" y="1352" width="64" height="64" fill="black" />
<rect shape-rendering="optimizeSpeed"  x="1736" y="1352" width="64" height="64" fill="black" />
<rect shape-rendering="optimizeSpeed"  x="584" y="1416" width="64" height="64" fill="black" />
<rect shape-rendering="optimizeSpeed"  x="648" y="1416" width="64" height="64" fill="black" />
<rect shape-rendering="optimizeSpeed"  x="712" y="1416" width="64" height="64" fill="black" />
<rect shape-rendering="optimizeSpeed"  x="776" y="1416" width="64" height="64" fill="black" />
<rect shape-rendering="optimizeSpeed"  x="840" y="1416" width="64" height="64" fill="black" />
<rect shape-rendering="optimizeSpeed"  x="904" y="1416" width="64" height="64" fill="black" />
<rect shape-rendering="optimizeSpeed"  x="1160" y="1416" width="64" height="64" fill="black" />
<rect shape-rendering="optimizeSpeed"  x="1224" y="1416" width="64" height="64" fill="black" />
<rect shape-rendering="optimizeSpeed"  x="1288" y="1416" width="64" height="64" fill="black" />
<rect shape-rendering="optimizeSpeed"  x="1352" y="1416" width="64" height="64" fill="black" />
<rect shape-rendering="optimizeSpeed"  x="1608" y="1416" width="64" height="64" fill="black" />
<rect shape-rendering="optimizeSpeed"  x="1672" y="1416" width="64" height="64" fill="black" />
<rect shape-rendering="optimizeSpeed"  x="1736" y="1416" width="64" height="64" fill="black" />
<rect shape-rendering="optimizeSpeed"  x="1800" y="1416" width="64" height="64" fill="black" />
<rect shape-rendering="optimizeSpeed"  x="1864" y="1416" width="64" height="64" fill="black" />
<rect shape-rendering="optimizeSpeed"  x="72" y="1480" width="64" height="64" fill="black" />
<rect shape-rendering="optimizeSpeed"  x="136" y="1480" width="64" height="64" fill="black" />
<rect shape-rendering="optimizeSpeed"  x="200" y="1480" width="64" height="64" fill="black" />
<rect shape-rendering="optimizeSpeed"  x="264" y="1480" width="64" height="64" fill="black" />
<rect shape-rendering="optimizeSpeed"  x="328" y="1480" width="64" height="64" fill="black" />
<rect shape-rendering="optimizeSpeed"  x="392" y="1480" width="64" height="64" fill="black" />
<rect shape-rendering="optimizeSpeed"  x="456" y="1480" width="64" height="64" fill="black" />
<rect shape-rendering="optimizeSpeed"  x="648" y="1480" width="64" height="64" fill="black" />
<rect shape-rendering="optimizeSpeed"  x="776" y="1480" width="64" height="64" fill="black" />
<rect shape-rendering="optimizeSpeed"  x="904" y="1480" width="64" height="64" fill="black" />
<rect shape-rendering="optimizeSpeed"  x="1096" y="1480" width="64" height="64" fill="black" />
<rect shape-rendering="optimizeSpeed"  x="1224" y="1480" width="64" height="64" fill="black" />
<rect shape-rendering="optimizeSpeed"  x="1288" y="1480" width="64" height="64" fill="black" />
<rect shape-rendering="optimizeSpeed"  x="1352" y="1480" width="64" height="64" fill="black" />
<rect shape-rendering="optimizeSpeed"  x="1480" y="1480" width="64" height="64" fill="black" />
<rect shape-rendering="optimizeSpeed"  x="1608" y="1480" width="64" height="64" fill="black" />
<rect shape-rendering="optimizeSpeed"  x="1672" y="1480" width="64" height="64" fill="black" />
<rect shape-rendering="optimizeSpeed"  x="1800" y="1480" width="64" height="64" fill="black" />
<rect shape-rendering="optimizeSpeed"  x="72" y="1544" width="64" height="64" fill="black" />
<rect shape-rendering="optimizeSpeed"  x="456" y="1544" width="64" height="64" fill="black" />
<rect shape-rendering="optimizeSpeed"  x="712" y="1544" width="64" height="64" fill="black" />
<rect shape-rendering="optimizeSpeed"  x="904" y="1544" width="64" height="64" fill="black" />
<rect shape-rendering="optimizeSpeed"  x="1352" y="1544" width="64" height="64" fill="black" />
<rect shape-rendering="optimizeSpeed"  x="1608" y="1544" width="64" height="64" fill="black" />
<rect shape-rendering="optimizeSpeed"  x="1672" y="1544" width="64" height="64" fill="black" />
<rect shape-rendering="optimizeSpeed"  x="72" y="1608" width="64" height="64" fill="black" />
<rect shape-rendering="optimizeSpeed"  x="200" y="1608" width="64" height="64" fill="black" />
<rect shape-rendering="optimizeSpeed"  x="264" y="1608" width="64" height="64" fill="black" />
<rect shape-rendering="optimizeSpeed"  x="328" y="1608" width="64" height="64" fill="black" />
<rect shape-rendering="optimizeSpeed"  x="456" y="1608" width="64" height="64" fill="black" />
<rect shape-rendering="optimizeSpeed"  x="712" y="1608" width="64" height="64" fill="black" />
<rect shape-rendering="optimizeSpeed"  x="776" y="1608" width="64" height="64" fill="black" />
<rect shape-rendering="optimizeSpeed"  x="904" y="1608" width="64" height="64" fill="black" />
<rect shape-rendering="optimizeSpeed"  x="968" y="1608" width="64" height="64" fill="black" />
<rect shape-rendering="optimizeSpeed"  x="1160" y="1608" width="64" height="64" fill="black" />
<rect shape-rendering="optimizeSpeed"  x="1352" y="1608" width="64" height="64" fill="black" />
<rect shape-rendering="optimizeSpeed"  x="1416" y="1608" width="64" height="64" fill="black" />
<rect shape-rendering="optimizeSpeed"  x="1480" y="1608" width="64" height="64" fill="black" />
<rect shape-rendering="optimizeSpeed"  x="1544" y="1608" width="64" height="64" fill="black" />
<rect shape-rendering="optimizeSpeed"  x="1608" y="1608" width="64" height="64" fill="black" />
<rect shape-rendering="optimizeSpeed"  x="1736" y="1608" width="64" height="64" fill="black" />
<rect shape-rendering="optimizeSpeed"  x="1800" y="1608" width="64" height="64" fill="black" />
<rect shape-rendering="optimizeSpeed"  x="72" y="1672" width="64" height="64" fill="black" />
<rect shape-rendering="optimizeSpeed"  x="200" y="1672" width="64" height="64" fill="black" />
<rect shape-rendering="optimizeSpeed"  x="264" y="1672" width="64" height="64" fill="black" />
<rect shape-rendering="optimizeSpeed"  x="328" y="1672" width="64" height="64" fill="black" />
<rect shape-rendering="optimizeSpeed"  x="456" y="1672" width="64" height="64" fill="black" />
<rect shape-rendering="optimizeSpeed"  x="584" y="1672" width="64" height="64" fill="black" />
<rect shape-rendering="optimizeSpeed"  x="712" y="1672" width="64" height="64" fill="black" />
<rect shape-rendering="optimizeSpeed"  x="840" y="1672" width="64" height="64" fill="black" />
<rect shape-rendering="optimizeSpeed"  x="968" y="1672" width="64" height="64" fill="black" />
<rect shape-rendering="optimizeSpeed"  x="1032" y="1672" width="64" height="64" fill="black" />
<rect shape-rendering="optimizeSpeed"  x="1096" y="1672" width="64" height="64" fill="black" />
<rect shape-rendering="optimizeSpeed"  x="1160" y="1672" width="64" height="64" fill="black" />
<rect shape-rendering="optimizeSpeed"  x="1288" y="1672" width="64" height="64" fill="black" />
<rect shape-rendering="optimizeSpeed"  x="1544" y="1672" width="64" height="64" fill="black" />
<rect shape-rendering="optimizeSpeed"  x="1608" y="1672" width="64" height="64" fill="black" />
<rect shape-rendering="optimizeSpeed"  x="1672" y="1672" width="64" height="64" fill="black" />
<rect shape-rendering="optimizeSpeed"  x="1800" y="1672" width="64" height="64" fill="black" />
<rect shape-rendering="optimizeSpeed"  x="1864" y="1672" width="64" height="64" fill="black" />
<rect shape-rendering="optimizeSpeed"  x="72" y="1736" width="64" height="64" fill="black" />
<rect shape-rendering="optimizeSpeed"  x="200" y="1736" width="64" height="64" fill="black" />
<rect shape-rendering="optimizeSpeed"  x="264" y="1736" width="64" height="64" fill="black" />
<rect shape-rendering="optimizeSpeed"  x="328" y="1736" width="64" height="64" fill="black" />
<rect shape-rendering="optimizeSpeed"  x="456" y="1736" width="64" height="64" fill="black" />
<rect shape-rendering="optimizeSpeed"  x="584" y="1736" width="64" height="64" fill="black" />
<rect shape-rendering="optimizeSpeed"  x="648" y="1736" width="64" height="64" fill="black" />
<rect shape-rendering="optimizeSpeed"  x="840" y="1736" width="64" height="64" fill="black" />
<rect shape-rendering="optimizeSpeed"  x="904" y="1736" width="64" height="64" fill="black" />
<rect shape-rendering="optimizeSpeed"  x="968" y="1736" width="64" height="64" fill="black" />
<rect shape-rendering="optimizeSpeed"  x="1160" y="1736" width="64" height="64" fill="black" />
<rect shape-rendering="optimizeSpeed"  x="1352" y="1736" width="64" height="64" fill="black" />
<rect shape-rendering="optimizeSpeed"  x="1544" y="1736" width="64" height="64" fill="black" />
<rect shape-rendering="optimizeSpeed"  x="1736" y="1736" width="64" height="64" fill="black" />
<rect shape-rendering="optimizeSpeed"  x="1864" y="1736" width="64" height="64" fill="black" />
<rect shape-rendering="optimizeSpeed"  x="72" y="1800" width="64" height="64" fill="black" />
<rect shape-rendering="optimizeSpeed"  x="456" y="1800" width="64" height="64" fill="black" />
<rect shape-rendering="optimizeSpeed"  x="584" y="1800" width="64" height="64" fill="black" />
<rect shape-rendering="optimizeSpeed"  x="712" y="1800" width="64" height="64" fill="black" />
<rect shape-rendering="optimizeSpeed"  x="1096" y="1800" width="64" height="64" fill="black" />
<rect shape-rendering="optimizeSpeed"  x="1352" y="1800" width="64" height="64" fill="black" />
<rect shape-rendering="optimizeSpeed"  x="1480" y="1800" width="64" height="64" fill="black" />
<rect shape-rendering="optimizeSpeed"  x="1544" y="1800" width="64" height="64" fill="black" />
<rect shape-rendering="optimizeSpeed"  x="1672" y="1800" width="64" height="64" fill="black" />
<rect shape-rendering="optimizeSpeed"  x="1800" y="1800" width="64" height="64" fill="black" />
<rect shape-rendering="optimizeSpeed"  x="72" y="1864" width="64" height="64" fill="black" />
<rect shape-rendering="optimizeSpeed"  x="136" y="1864" width="64" height="64" fill="black" />
<rect shape-rendering="optimizeSpeed"  x="200" y="1864" width="64" height="64" fill="black" />
<rect shape-rendering="optimizeSpeed"  x="264" y="1864" width="64" height="64" fill="black" />
<rect shape-rendering="optimizeSpeed"  x="328" y="1864" width="64" height="64" fill="black" />
<rect shape-rendering="optimizeSpeed"  x="392" y="1864" width="64" height="64" fill="black" />
<rect shape-rendering="optimizeSpeed"  x="456" y="1864" width="64" height="64" fill="black" />
<rect shape-rendering="optimizeSpeed"  x="584" y="1864" width="64" height="64" fill="black" />
<rect shape-rendering="optimizeSpeed"  x="776" y="1864" width="64" height="64" fill="black" />
<rect shape-rendering="optimizeSpeed"  x="904" y="1864" width="64" height="64" fill="black" />
<rect shape-rendering="optimizeSpeed"  x="1032" y="1864" width="64" height="64" fill="black" />
<rect shape-rendering="optimizeSpeed"  x="1224" y="1864" width="64" height="64" fill="black" />
<rect shape-rendering="optimizeSpeed"  x="1288" y="1864" width="64" height="64" fill="black" />
<rect shape-rendering="optimizeSpeed"  x="1352" y="1864" width="64" height="64" fill="black" />
<rect shape-rendering="optimizeSpeed"  x="1480" y="1864" width="64" height="64" fill="black" />
<rect shape-rendering="optimizeSpeed"  x="1608" y="1864" width="64" height="64" fill="black" />
<rect shape-rendering="optimizeSpeed"  x="1800" y="1864" width="64" height="64" fill="black" /></svg>