<svg xmlns="http://www.w3.org/2000/svg" width="28.22" height="19.461" viewBox="0 0 28.22 19.461">
  <g id="american-express" transform="translate(0 0)">
    <path id="Path_1597" data-name="Path 1597" d="M28.22,97.244a1.668,1.668,0,0,1-1.668,1.668H1.668A1.668,1.668,0,0,1,0,97.244V81.119a1.668,1.668,0,0,1,1.668-1.668H26.552a1.668,1.668,0,0,1,1.668,1.668V97.244Z" transform="translate(0 -79.451)" fill="#306fc5"/>
    <path id="Path_1598" data-name="Path 1598" d="M1.186,97.244V81.119a1.668,1.668,0,0,1,1.668-1.668H1.668A1.668,1.668,0,0,0,0,81.119V97.244a1.668,1.668,0,0,0,1.668,1.668H2.854A1.668,1.668,0,0,1,1.186,97.244Z" transform="translate(0 -79.451)" fill="#202121" opacity="0.15"/>
    <g id="Group_6388" data-name="Group 6388" transform="translate(2.025 5.718)">
      <path id="Path_1599" data-name="Path 1599" d="M74.59,202.351h.843l-.421-1.073Z" transform="translate(-72.504 -200.281)" fill="#fff"/>
      <path id="Path_1600" data-name="Path 1600" d="M155.946,286.107v.5h1.418v.537h-1.418v.575h1.571l.728-.8-.69-.8Z" transform="translate(-149.376 -280.435)" fill="#fff"/>
      <path id="Path_1601" data-name="Path 1601" d="M349.013,201.278l-.46,1.073h.882Z" transform="translate(-331.367 -200.281)" fill="#fff"/>
      <path id="Path_1602" data-name="Path 1602" d="M213.264,283.425v-2.184l-1,1.073Z" transform="translate(-202.594 -275.837)" fill="#fff"/>
      <path id="Path_1603" data-name="Path 1603" d="M243.393,286.452a.387.387,0,0,0-.422-.345h-.8v.69h.843C243.24,286.8,243.393,286.682,243.393,286.452Z" transform="translate(-230.845 -280.435)" fill="#fff"/>
      <path id="Path_1604" data-name="Path 1604" d="M294.694,287.38a.3.3,0,0,0,.115-.268.213.213,0,0,0-.115-.268.745.745,0,0,0-.306-.038h-.767v.613h.767A.746.746,0,0,0,294.694,287.38Z" transform="translate(-279.463 -281.094)" fill="#fff"/>
      <path id="Path_1605" data-name="Path 1605" d="M57.5,183.2v.46l-.23-.46h-1.8v.46l-.23-.46H52.784a2.333,2.333,0,0,0-1.073.23v-.23H49.986v.23a1.105,1.105,0,0,0-.728-.23h-6.17l-.422.958-.421-.958H40.29v.46l-.192-.46H38.412l-.767,1.8-.881,1.955-.016.038h2l.014-.038.23-.575h.5l.23.613h2.223v-.46l.192.46h1.111l.192-.46v.46H48.76v-1h.077c.077,0,.077,0,.077.115v.843h2.759v-.23a2.293,2.293,0,0,0,1.035.23h1.15l.23-.613h.536l.23.613h2.223v-.575l.345.575h1.8V183.2H57.5Zm-12.992,3.219h-.613v-2.108l-.038.088h0l-.892,2.021H42.4l-.92-2.108v2.108h-1.3l-.268-.575H38.6l-.268.575h-.674l1.134-2.683h.958l1.073,2.568v-2.568h1.015l.018.038h0l.484,1.052.347.788.012-.04.766-1.84h1.035v2.683Zm2.644-2.108H45.656v.5h1.456v.536H45.656v.537H47.15v.575H45v-2.721H47.15v.575Zm2.734.988,0,0a.444.444,0,0,1,.037.045.737.737,0,0,1,.136.449v.011s0,0,0,.006,0,0,0,0c0,.021,0,.043,0,.066v.537h-.575v-.307a.912.912,0,0,0-.115-.537.348.348,0,0,0-.113-.077.765.765,0,0,0-.347-.038h-.69v.958h-.651v-2.683h1.456a1.469,1.469,0,0,1,.766.115.647.647,0,0,1,.306.6.761.761,0,0,1-.459.707A.513.513,0,0,1,49.884,185.3Zm1.291,1.12h-.652v-2.683h.652Zm7.473,0H57.8l-1.226-2.031v1.686l0,0v.351h-.647v0h-.652l-.23-.575H53.7l-.23.613h-.728a1.152,1.152,0,0,1-1.265-1.341,1.571,1.571,0,0,1,.345-1.073,1.207,1.207,0,0,1,.958-.307H53.4v.575h-.613a.706.706,0,0,0-.5.153.9.9,0,0,0-.191.613.834.834,0,0,0,.191.652.611.611,0,0,0,.46.154h.268l.881-2.108h.958l1.073,2.568v-2.568h.958L58,185.651v-1.878h.652v2.644h0Z" transform="translate(-36.748 -183.198)" fill="#fff"/>
      <path id="Path_1606" data-name="Path 1606" d="M246.059,203.906a.2.2,0,0,0,.03-.041.414.414,0,0,0,.053-.289.216.216,0,0,0-.006-.035s0-.006,0-.009h0a.215.215,0,0,0-.116-.13.751.751,0,0,0-.307-.038h-.767v.613h.767a.746.746,0,0,0,.307-.038.145.145,0,0,0,.032-.023h0Z" transform="translate(-233.47 -202.253)" fill="#fff"/>
      <path id="Path_1607" data-name="Path 1607" d="M152.512,267.12a1.468,1.468,0,0,0-.191-.728v-1.724h0v-.115h-1.845a1.091,1.091,0,0,0-.529.23v-.23h-1.763a1.218,1.218,0,0,0-.767.23v-.23h-3.143v.23a1.482,1.482,0,0,0-.843-.23h-2.07v.23a1.456,1.456,0,0,0-.882-.23h-2.3l-.537.575-.5-.575h-3.449v3.871h3.373l.554-.554.48.554h2.146v-.881h.192a2.33,2.33,0,0,0,.881-.115v1.035h1.725v-1h.076c.115,0,.115,0,.115.115v.882h5.212a1.5,1.5,0,0,0,.882-.23v.23h1.648a1.721,1.721,0,0,0,.92-.192,1.287,1.287,0,0,0,.608-1.033c0-.013,0-.026,0-.04l0,0C152.511,267.169,152.512,267.145,152.512,267.12Zm-12.072-.23h-.767v1h-1.26l-.733-.843,0,0-.036-.041-.843.882h-2.453V265.2h2.491l.681.745.143.156.019-.02.8-.881h2.031a1,1,0,0,1,1,.5,1.082,1.082,0,0,1,.032.268C141.551,266.737,141.015,266.89,140.44,266.89Zm3.832-.038a.87.87,0,0,1,.115.5v.536h-.651v-.345a.855.855,0,0,0-.115-.537c-.076-.115-.23-.115-.46-.115h-.69v1h-.652v-2.721h1.456a1.545,1.545,0,0,1,.767.115.678.678,0,0,1,.345.613.763.763,0,0,1-.46.728A.653.653,0,0,1,144.273,266.852Zm2.645-1.112h-1.495v.5h1.456v.537h-1.456v.537h1.495v.575h-2.146v-2.721h2.146Zm1.61,2.146H147.3v-.575h1.226a.324.324,0,0,0,.268-.077.278.278,0,0,0,0-.383.325.325,0,0,0-.23-.077c-.613-.038-1.341,0-1.341-.843,0-.383.23-.8.92-.8h1.265v.651H148.22a.568.568,0,0,0-.268.038c-.076.038-.076.115-.076.192,0,.115.076.153.153.191a.486.486,0,0,0,.23.038h.345a.975.975,0,0,1,.728.23.793.793,0,0,1,.192.575C149.523,267.618,149.178,267.886,148.527,267.886Zm3.3-.268a1.116,1.116,0,0,1-.8.268h-1.226v-.575h1.226a.324.324,0,0,0,.268-.077.278.278,0,0,0,0-.383.324.324,0,0,0-.23-.077c-.613-.038-1.341,0-1.341-.843a.783.783,0,0,1,.722-.791,1.43,1.43,0,0,1,.2-.014H151.9v.651h-1.188a.567.567,0,0,0-.268.038.292.292,0,0,0-.077.192c0,.115.038.153.154.191a.485.485,0,0,0,.23.038h.345a1.2,1.2,0,0,1,.41.061.825.825,0,0,1,.536.606.857.857,0,0,1,.012.138A.779.779,0,0,1,151.823,267.618Z" transform="translate(-128.352 -260.068)" fill="#fff"/>
    </g>
  </g>
</svg>
