<svg xmlns="http://www.w3.org/2000/svg" width="35.188" height="22.631" viewBox="0 0 35.188 22.631">
  <path id="mastercard" d="M23.872,0a11.252,11.252,0,0,0-6.277,1.905,11.314,11.314,0,1,0-6.277,20.726,11.252,11.252,0,0,0,6.277-1.905A11.314,11.314,0,1,0,23.872,0Zm0,20.569a9.258,9.258,0,0,1-7.943-4.509h1.189a1.031,1.031,0,1,0,0-2.062h-2.1a9.209,9.209,0,0,1-.293-1.293h4.047a1.031,1.031,0,0,0,0-2.062H14.641a9.185,9.185,0,0,1,.186-1.293h2.291a1.031,1.031,0,0,0,0-2.062H15.54a9.254,9.254,0,1,1,8.331,13.28Zm0,0" transform="translate(0)" fill="#fff"/>
</svg>
