<svg xmlns="http://www.w3.org/2000/svg" width="27.948" height="19.274" viewBox="0 0 27.948 19.274">
  <g id="visa" transform="translate(0 0)">
    <path id="Path_1588" data-name="Path 1588" d="M27.948,97.073A1.652,1.652,0,0,1,26.3,98.725H1.652A1.652,1.652,0,0,1,0,97.073V81.1a1.652,1.652,0,0,1,1.652-1.652H26.3A1.652,1.652,0,0,1,27.948,81.1v15.97Z" transform="translate(0 -79.451)" fill="#fff"/>
    <path id="Path_1589" data-name="Path 1589" d="M35.04,193.46l-.656-3.148a.783.783,0,0,0-.846-.58H30.529l-.027.144A6.188,6.188,0,0,1,35.04,193.46Z" transform="translate(-28.837 -183.712)" fill="#f79f1a"/>
    <g id="Group_6387" data-name="Group 6387" transform="translate(0 0)">
      <path id="Path_1590" data-name="Path 1590" d="M186.657,190.892h-1.944l-1.214,7.125h1.941Z" transform="translate(-173.482 -184.809)" fill="#059bbf"/>
      <path id="Path_1591" data-name="Path 1591" d="M69.63,198.094l3.057-7.113H70.63l-1.9,4.86-.2-.734a7.6,7.6,0,0,0-2.689-2.953l1.739,5.942Z" transform="translate(-62.242 -184.893)" fill="#059bbf"/>
      <path id="Path_1592" data-name="Path 1592" d="M246.9,193.577c.007-.809-.512-1.426-1.631-1.936-.68-.329-1.095-.549-1.09-.883,0-.3.351-.612,1.112-.612a3.585,3.585,0,0,1,1.453.273l.176.08.263-1.544a5.035,5.035,0,0,0-1.741-.3c-1.919,0-3.27.966-3.282,2.351-.012,1.024.966,1.595,1.7,1.936.756.348,1.009.571,1,.883,0,.477-.6.695-1.161.695a4.075,4.075,0,0,1-1.829-.374l-.248-.114-.273,1.6a6.127,6.127,0,0,0,2.163.378C245.559,196.011,246.886,195.057,246.9,193.577Z" transform="translate(-228.181 -182.698)" fill="#059bbf"/>
      <path id="Path_1593" data-name="Path 1593" d="M342.833,197.077l2.487,0c.058.248.237,1.068.237,1.068h1.8l-1.573-7.12h-1.5a.966.966,0,0,0-1.017.59l-2.885,6.53h2.041S342.758,197.269,342.833,197.077Zm1.331-3.45c-.01.02.161-.412.259-.68l.132.614s.371,1.7.449,2.058h-1.612C343.552,195.209,344.164,193.626,344.164,193.626Z" transform="translate(-321.805 -184.936)" fill="#059bbf"/>
      <path id="Path_1594" data-name="Path 1594" d="M26.3,79.451H1.652A1.652,1.652,0,0,0,0,81.1v1.715H27.948V81.1A1.652,1.652,0,0,0,26.3,79.451Z" transform="translate(0 -79.451)" fill="#059bbf"/>
    </g>
    <path id="Path_1595" data-name="Path 1595" d="M26.3,374.238H1.652A1.652,1.652,0,0,1,0,372.586v-1.715H27.948v1.715A1.652,1.652,0,0,1,26.3,374.238Z" transform="translate(0 -354.963)" fill="#f79f1a"/>
    <path id="Path_1596" data-name="Path 1596" d="M1.175,97.073V81.1a1.652,1.652,0,0,1,1.652-1.652H1.652A1.652,1.652,0,0,0,0,81.1v15.97a1.652,1.652,0,0,0,1.652,1.652H2.827A1.652,1.652,0,0,1,1.175,97.073Z" transform="translate(0 -79.451)" fill="#202121" opacity="0.15"/>
  </g>
</svg>
