<svg xmlns="http://www.w3.org/2000/svg" viewBox="0 0 24 24"><path fill="#303C42" d="M15.5 18a.5.5 0 0 0-.5.5V22c0 .551-.449 1-1 1H2c-.551 0-1-.449-1-1V2c0-.551.449-1 1-1h12c.551 0 1 .449 1 1v3.5a.5.5 0 1 0 1 0V2c0-1.103-.897-2-2-2H2C.897 0 0 .897 0 2v20c0 1.103.897 2 2 2h12c1.103 0 2-.897 2-2v-3.5a.5.5 0 0 0-.5-.5z"/><path fill="#303C42" d="M23.838 11.631l-6-5.5a.5.5 0 0 0-.676.738l5.053 4.631H6.5a.5.5 0 1 0 0 1h15.715l-5.053 4.631a.5.5 0 0 0 .676.738l6-5.5a.5.5 0 0 0 0-.738z"/><linearGradient id="a" x1="-2.571" x2="21.185" y1="7.071" y2="18.148" gradientUnits="userSpaceOnUse"><stop offset="0" stop-color="#FFF" stop-opacity=".2"/><stop offset="1" stop-color="#FFF" stop-opacity="0"/></linearGradient><path fill="url(#a)" d="M15.5 18a.5.5 0 0 0-.5.5V22c0 .551-.449 1-1 1H2c-.551 0-1-.449-1-1V2c0-.551.449-1 1-1h12c.551 0 1 .449 1 1v3.5a.5.5 0 1 0 1 0V2c0-1.103-.897-2-2-2H2C.897 0 0 .897 0 2v20c0 1.103.897 2 2 2h12c1.103 0 2-.897 2-2v-3.5a.5.5 0 0 0-.5-.5zm8.338-6.369l-6-5.5a.5.5 0 0 0-.676.738l5.053 4.631H6.5a.5.5 0 1 0 0 1h15.715l-5.053 4.631a.5.5 0 0 0 .676.738l6-5.5a.5.5 0 0 0 0-.738z"/></svg>