<svg id="Capa_1" data-name="Capa 1" xmlns="http://www.w3.org/2000/svg" viewBox="0 0 2000 2000"><defs><style>.cls-1{fill:#69493b;}</style></defs><path class="cls-1" d="M2000,928v144c-1.22,5.77-3.1,11.49-3.56,17.31-4.11,51.25-11.24,102.22-25.34,151.53q-170.61,596.64-774.87,740c-42.24,9.93-85.64,11.75-128.23,19.13H928c-42.47-7.81-85.55-11.32-128-19.56-393.49-76.29-717.12-406.86-784.19-802.08C9.79,1143,5.23,1107.46,0,1072V928c7.9-42.43,11.36-85.49,19.49-128,73.39-383.6,395.57-706.5,778.7-780.35C841.26,11.39,884.92,7.77,928,0h144c5.14,1.17,10.24,3,15.44,3.4,45.19,3.51,89.73,11.07,134,20.67,376.84,81.8,686,398.13,759.24,776.15C1988.88,842.62,1992.42,885.59,2000,928ZM1001.22,150.72C534.59,148.78,153.29,528.46,151,997.3,148.77,1465.35,528.09,1846.81,998,1849c467.76,2.2,848.34-376.66,851.33-847.48C1852.27,534.94,1471.22,152.67,1001.22,150.72Z"/><path class="cls-1" d="M999.06,1664.62c-72.61,0-145.23-.21-217.85.08-38.37.15-75.12-7.2-111.61-18.91-102-32.69-139.29-112.45-144.82-192.73-10.5-152.27,101.58-330.9,243-389,48.95-20.12,98.57-27.94,151.9-14,58.62,15.35,119.33,16.66,178.1,1,54.18-14.42,103.64-2.91,150.52,20.78,130.3,65.82,196.64,178.2,223.61,317.33,8.53,44,4.64,87.58-9.85,130-30.2,88.49-100.48,124.29-185.43,140.73-20.38,3.94-41,4.67-61.66,4.65Q1107,1664.54,999.06,1664.62Z"/><path class="cls-1" d="M1284.2,580.24a299.89,299.89,0,0,1,19.62,107.49c-.33,167-138.29,304.5-304.68,303.6C832,990.42,695.78,853.16,696.21,686a299.49,299.49,0,0,1,17.38-100.09A126.47,126.47,0,0,1,655,479c.18-69.24,57-125.39,126.75-125.18a125.59,125.59,0,0,1,102.13,53.41A305.52,305.52,0,0,1,1001.91,384a299.24,299.24,0,0,1,106.34,19.8,126.59,126.59,0,0,1,101.27-50c68.91.2,125.3,56.92,125.17,125.92A126.48,126.48,0,0,1,1284.2,580.24Z"/></svg>