<svg xmlns="http://www.w3.org/2000/svg" xmlns:xlink="http://www.w3.org/1999/xlink" width="35.72" height="28.307" viewBox="0 0 35.72 28.307">
  <defs>
    <linearGradient id="linear-gradient" y1="0.5" x2="1" y2="0.5" gradientUnits="objectBoundingBox">
      <stop offset="0" stop-color="#bbb6c5"/>
      <stop offset="0.509" stop-color="#85789f"/>
      <stop offset="1" stop-color="#bbb6c5"/>
    </linearGradient>
  </defs>
  <g id="Group_7360" data-name="Group 7360" transform="translate(-62.213 -117.384)">
    <path id="Rectangle_414" data-name="Rectangle 414" d="M3.724,0H32A3.723,3.723,0,0,1,35.72,3.723v20.86A3.724,3.724,0,0,1,32,28.307H3.725A3.725,3.725,0,0,1,0,24.582V3.724A3.724,3.724,0,0,1,3.724,0Z" transform="translate(62.213 117.384)" fill="url(#linear-gradient)"/>
    <path id="Path_1635" data-name="Path 1635" d="M97.932,126.3v-.654H91.389v-8.267h-.654v8.267h-5.3a5.849,5.849,0,0,0-5.037-4.075v-4.192h-.652v4.146a5.855,5.855,0,0,0-5.478,4.12H69.452v-8.267H68.8v8.267H62.213v.654H68.8v9.261H62.213v.654H68.8v9.471h.652v-9.471h4.675a5.878,5.878,0,0,0,5.618,4.56v4.911H80.4v-4.956a5.868,5.868,0,0,0,5.174-4.515h5.164v9.471h.654v-9.471h6.543v-.654h-3.9V126.3Zm-23.9,9.261H69.452V126.3h4.627a5.745,5.745,0,0,0,1.269,4.851,5.837,5.837,0,0,0-1.378,3.756A5.7,5.7,0,0,0,74.037,135.566Zm5.813,4.572a5.21,5.21,0,0,1-3.827-8.763l.2-.221-.2-.221a5.226,5.226,0,1,1,7.654,0l-.206.221.206.221a5.21,5.21,0,0,1-3.827,8.763Zm13.528-4.572H85.662a5.7,5.7,0,0,0,.067-.655,5.837,5.837,0,0,0-1.378-3.756,5.745,5.745,0,0,0,1.269-4.851h7.758Z" transform="translate(0)" fill="#76698f"/>
  </g>
</svg>
