<svg xmlns="http://www.w3.org/2000/svg" width="35.669" height="10.98" viewBox="0 0 35.669 10.98">
  <g id="symbols" transform="translate(0 -16.554)">
    <g id="Group_7349" data-name="Group 7349" transform="translate(12.469 16.737)">
      <g id="Group_7348" data-name="Group 7348">
        <path id="Path_1630" data-name="Path 1630" d="M18.535,16.8,16.722,27.437h2.9L21.435,16.8Z" transform="translate(-16.722 -16.799)" fill="#fff"/>
      </g>
    </g>
    <g id="Group_7351" data-name="Group 7351" transform="translate(2.88 16.746)">
      <g id="Group_7350" data-name="Group 7350">
        <path id="Path_1631" data-name="Path 1631" d="M11.021,16.814l-2.84,7.255-.3-1.1a11.382,11.382,0,0,0-4.016-4.41l2.6,8.871,3.068-.005,4.566-10.618Z" transform="translate(-3.862 -16.812)" fill="#fff"/>
      </g>
    </g>
    <g id="Group_7353" data-name="Group 7353" transform="translate(0 16.646)">
      <g id="Group_7352" data-name="Group 7352">
        <path id="Path_1632" data-name="Path 1632" d="M5.8,17.541a1.167,1.167,0,0,0-1.263-.864H.037L0,16.889c3.5.849,5.813,2.893,6.773,5.352Z" transform="translate(0 -16.677)" fill="#fff"/>
      </g>
    </g>
    <g id="Group_7355" data-name="Group 7355" transform="translate(17.183 16.554)">
      <g id="Group_7354" data-name="Group 7354">
        <path id="Path_1633" data-name="Path 1633" d="M28.919,18.776a5.352,5.352,0,0,1,2.17.407l.262.123L31.743,17a7.484,7.484,0,0,0-2.6-.447c-2.865,0-4.884,1.443-4.9,3.511-.019,1.528,1.438,2.381,2.539,2.89,1.13.522,1.509.854,1.5,1.32-.009.712-.9,1.039-1.734,1.039a6.086,6.086,0,0,1-2.73-.557l-.374-.17-.408,2.381a9.182,9.182,0,0,0,3.23.567c3.048,0,5.028-1.426,5.049-3.635.013-1.209-.761-2.131-2.436-2.888-1.014-.494-1.635-.822-1.629-1.32C27.258,19.249,27.784,18.776,28.919,18.776Z" transform="translate(-23.043 -16.554)" fill="#fff"/>
      </g>
    </g>
    <g id="Group_7357" data-name="Group 7357" transform="translate(25.259 16.749)">
      <g id="Group_7356" data-name="Group 7356">
        <path id="Path_1634" data-name="Path 1634" d="M41.938,16.815H39.7a1.442,1.442,0,0,0-1.519.883l-4.3,9.749h3.045s.5-1.311.609-1.6l3.713,0c.087.371.353,1.594.353,1.594h2.69Zm-3.576,6.857c.239-.611,1.155-2.973,1.155-2.973-.016.029.236-.615.386-1.016l.2.917.672,3.071Z" transform="translate(-33.874 -16.815)" fill="#fff"/>
      </g>
    </g>
  </g>
</svg>
