<svg xmlns="http://www.w3.org/2000/svg" xmlns:xlink="http://www.w3.org/1999/xlink" width="376" height="322" viewBox="0 0 376 322">
  <defs>
    <linearGradient id="linear-gradient" x1="0.5" x2="0.363" y2="0.901" gradientUnits="objectBoundingBox">
      <stop offset="0" stop-color="#f6f8fa"/>
      <stop offset="1" stop-color="#e9edf3"/>
    </linearGradient>
    <clipPath id="clip-path">
      <rect id="Rectangle_2" data-name="Rectangle 2" width="376" height="322" transform="translate(-0.5 106.5)" fill="#fff" stroke="#707070" stroke-width="1"/>
    </clipPath>
    <linearGradient id="linear-gradient-2" x1="0.699" y1="0.741" x2="-0.029" gradientUnits="objectBoundingBox">
      <stop offset="0" stop-color="#fff" stop-opacity="0"/>
      <stop offset="1" stop-color="#a4b0d5"/>
    </linearGradient>
    <filter id="base" x="66" y="-9" width="265" height="265" filterUnits="userSpaceOnUse">
      <feOffset dx="10" dy="14" input="SourceAlpha"/>
      <feGaussianBlur stdDeviation="7.5" result="blur"/>
      <feFlood flood-color="#3b5e7b" flood-opacity="0.039"/>
      <feComposite operator="in" in2="blur"/>
      <feComposite in="SourceGraphic"/>
    </filter>
    <linearGradient id="linear-gradient-3" x1="0.262" y1="0.858" x2="0.16" y2="0.565" gradientUnits="objectBoundingBox">
      <stop offset="0" stop-color="#c4c8de" stop-opacity="0"/>
      <stop offset="1" stop-color="#6b798e"/>
    </linearGradient>
    <clipPath id="clip-path-2">
      <path id="Mask" d="M19.167,0h193V145.066l-3.973-7.038-3.66,12.729-5.8-6.235-5.01,2.543-14.849-2.543L176.13,193l-6.358.107-4.634-1.651L155.916,193l-6.364-2.6-9.614,2.6-5-60.009L129.609,193l-8.083-1.6-7.5,2.372L104.188,191l-15.083,2-4.447-3.069L79.913,193H69.44V60s-4.008,57.981-11.561,72.991c-3.228,6.415-8.428,8.156-11.83,9.646-4.559,2-8,2.43-19.364,2.43C6.847,145.066,0,124.029,0,124.029a41.217,41.217,0,0,0,12.429-16.174C17.213,97.012,19.167,60,19.167,60Z" transform="translate(0.833)" fill="url(#linear-gradient)"/>
    </clipPath>
    <linearGradient id="linear-gradient-5" x1="0.428" x2="0.5" y2="1.335" gradientUnits="objectBoundingBox">
      <stop offset="0" stop-color="#dfe2ea"/>
      <stop offset="1" stop-color="#cbd0de"/>
    </linearGradient>
  </defs>
  <g id="Mask_Group_2" data-name="Mask Group 2" transform="translate(0.5 -106.5)" clip-path="url(#clip-path)">
    <g id="Artwork" transform="translate(66 106)">
      <g id="shadow">
        <path id="shadow-2" data-name="shadow" d="M0,2A2,2,0,0,1,2,0H218.569a2,2,0,0,1,1.587.783l107.788,140.5a2,2,0,0,1,.413,1.217V319.889H96.5L.562,220.581A2,2,0,0,1,0,219.192Z" transform="translate(15 3)" fill="url(#linear-gradient-2)"/>
        <path id="shadow-3" data-name="shadow" d="M0,2A2,2,0,0,1,2,0H218.569a2,2,0,0,1,1.587.783l107.788,140.5a2,2,0,0,1,.413,1.217V319.889H96.5L.562,220.581A2,2,0,0,1,0,219.192Z" transform="translate(15 3)" fill="rgba(216,216,216,0.03)"/>
      </g>
      <g transform="matrix(1, 0, 0, 1, -66.5, 0.5)" filter="url(#base)">
        <rect id="base-2" data-name="base" width="220" height="220" rx="4" transform="translate(78.5 -0.5)" fill="#fff"/>
      </g>
      <g id="paper" opacity="0.487">
        <rect id="paper-2" data-name="paper" width="191" height="192" rx="2" transform="translate(27 15)" fill="url(#linear-gradient-3)"/>
        <rect id="paper-3" data-name="paper" width="191" height="192" rx="2" transform="translate(27 15)" fill="rgba(216,216,216,0.08)" style="mix-blend-mode: luminosity;isolation: isolate"/>
      </g>
      <g id="_404" data-name="404" transform="translate(6 14)">
        <path id="Mask-2" data-name="Mask" d="M19.167,0h193V145.066l-3.973-7.038-3.66,12.729-5.8-6.235-5.01,2.543-14.849-2.543L176.13,193l-6.358.107-4.634-1.651L155.916,193l-6.364-2.6-9.614,2.6-5-60.009L129.609,193l-8.083-1.6-7.5,2.372L104.188,191l-15.083,2-4.447-3.069L79.913,193H69.44V60s-4.008,57.981-11.561,72.991c-3.228,6.415-8.428,8.156-11.83,9.646-4.559,2-8,2.43-19.364,2.43C6.847,145.066,0,124.029,0,124.029a41.217,41.217,0,0,0,12.429-16.174C17.213,97.012,19.167,60,19.167,60Z" transform="translate(0.833)" fill="url(#linear-gradient)"/>
        <g id="_404-2" data-name="404" clip-path="url(#clip-path-2)">
          <text id="_404-3" data-name="404" transform="translate(123 119)" fill="#454e6b" font-size="93" font-family="DINCondensed-Bold, DIN" font-weight="700" letter-spacing="0.172em" opacity="0.2"><tspan x="-67.937" y="0">404</tspan></text>
        </g>
      </g>
      <path id="paper-4" data-name="paper" d="M0,0H51.327S55.21,19.462,63.954,17.212c-3.795,7.72-11.708,13.727-28.537,13.727s-23.8-6.425-27.963-10.918S0,0,0,0Z" transform="translate(0.936 129.557)" fill="url(#linear-gradient-5)"/>
    </g>
  </g>
</svg>
