<svg xmlns="http://www.w3.org/2000/svg" xmlns:xlink="http://www.w3.org/1999/xlink" width="188.64" height="216.874" viewBox="0 0 188.64 216.874">
  <defs>
    <linearGradient id="linear-gradient" x1="1.07" y1="0.924" x2="0.957" y2="0.649" gradientUnits="objectBoundingBox">
      <stop offset="0" stop-color="#c8d4de" stop-opacity="0"/>
      <stop offset="1" stop-color="#deeaf4"/>
    </linearGradient>
    <linearGradient id="linear-gradient-2" x1="0.374" y1="1" x2="-0.069" y2="0.564" gradientUnits="objectBoundingBox">
      <stop offset="0" stop-color="#80c9c7" stop-opacity="0"/>
      <stop offset="1" stop-color="#3e80b3"/>
    </linearGradient>
    <linearGradient id="linear-gradient-3" x1="0.5" x2="0.5" y2="1" gradientUnits="objectBoundingBox">
      <stop offset="0" stop-color="#e8f1f5"/>
      <stop offset="1" stop-color="#e5eaf0"/>
    </linearGradient>
    <linearGradient id="linear-gradient-9" x1="0.647" y1="-0.056" x2="1" y2="0.887" gradientUnits="objectBoundingBox">
      <stop offset="0" stop-color="#ff5e84"/>
      <stop offset="1" stop-color="#e46b80"/>
    </linearGradient>
    <linearGradient id="linear-gradient-10" x1="-1.077" y1="0.454" x2="0.818" y2="0.371" gradientUnits="objectBoundingBox">
      <stop offset="0" stop-color="#ffb8c6"/>
      <stop offset="1" stop-color="#ff8194"/>
    </linearGradient>
    <linearGradient id="linear-gradient-11" x1="0.5" x2="0" y2="0.9" gradientUnits="objectBoundingBox">
      <stop offset="0" stop-color="#ffcfd5"/>
      <stop offset="1" stop-color="#ffa2ab"/>
    </linearGradient>
    <linearGradient id="linear-gradient-12" x1="2.103" y1="0.423" x2="0.2" y2="0.423" xlink:href="#linear-gradient-10"/>
  </defs>
  <g id="Artwork" transform="translate(-8.282 -7.02)">
    <g id="shadow">
      <path id="shadow-2" data-name="shadow" d="M2.136,154.195c1.682,0,46.913-11.162,46.913-11.162l44.931-3.954,56.114-.765L129.884,29.569,116.557,0,2.136,137.751S-2.136,154.195,2.136,154.195Z" transform="translate(33.433 69.186)" fill="url(#linear-gradient)"/>
      <path id="shadow-3" data-name="shadow" d="M2.136,154.195c1.682,0,46.913-11.162,46.913-11.162l44.931-3.954,56.114-.765L129.884,29.569,116.557,0,2.136,137.751S-2.136,154.195,2.136,154.195Z" transform="translate(33.433 69.186)" fill="rgba(216,216,216,0.36)" style="mix-blend-mode: overlay;isolation: isolate"/>
    </g>
    <g id="map" transform="translate(10 82.872) rotate(-9)">
      <g id="Combined_Shape" data-name="Combined Shape" transform="translate(3.291 0)" fill="#ade1f1" stroke-miterlimit="10">
        <path d="M 93.37323760986328 140.4049835205078 C 93.34127807617188 140.4049835205078 93.30908203125 140.4044952392578 93.27677917480469 140.4035339355469 C 93.24516296386719 140.4044494628906 93.21357727050781 140.4049072265625 93.18212127685547 140.4049072265625 C 92.83196258544922 140.4049072265625 92.48470306396484 140.3491516113281 92.14997863769531 140.2391510009766 L 47.14019775390625 125.4298629760742 L 2.131199598312378 140.2388916015625 C 1.796399593353271 140.3490905761719 1.448879599571228 140.4049835205078 1.098459601402283 140.4049835205078 C 0.233219638466835 140.4050140380859 -0.5856003761291504 140.0707244873047 -1.207160353660583 139.4636840820313 C -1.847400307655334 138.8384094238281 -2.200000286102295 138.0004730224609 -2.200000286102295 137.1042022705078 L -2.200000286102295 16.63650894165039 C -2.200000286102295 15.20840930938721 -1.288640379905701 13.94874858856201 0.06781963258981705 13.50200939178467 L 46.01160049438477 -1.61457097530365 C 46.34690093994141 -1.72481095790863 46.69427871704102 -1.780610918998718 47.04457855224609 -1.780610918998718 C 47.07635879516602 -1.780610918998718 47.10827255249023 -1.780141234397888 47.14020919799805 -1.779207468032837 C 47.17215347290039 -1.780141234397888 47.20407485961914 -1.780610918998718 47.23585891723633 -1.780610918998718 C 47.58613967895508 -1.780610918998718 47.93349838256836 -1.72481095790863 48.26828002929688 -1.614750981330872 L 93.27780914306641 13.19445610046387 L 138.2868347167969 -1.61457097530365 C 138.6216430664063 -1.724770903587341 138.9691772460938 -1.780671000480652 139.3196258544922 -1.780671000480652 C 141.1383666992188 -1.780671000480652 142.6179962158203 -0.2999509572982788 142.6179962158203 1.520109057426453 L 142.6179962158203 121.9878082275391 C 142.6179962158203 123.4159088134766 141.7066345214844 124.6755676269531 140.3501739501953 125.1223068237305 L 94.40640258789063 140.2388916015625 C 94.07073974609375 140.3491821289063 93.72339630126953 140.4049835205078 93.37323760986328 140.4049835205078 Z" stroke="none"/>
        <path d="M 1.098438382148743 138.2050018310547 C 1.211905121803284 138.2050018310547 1.328047156333923 138.1871490478516 1.443610787391663 138.1491241455078 L 47.14019393920898 123.1138458251953 L 92.83680725097656 138.1491241455078 C 92.95244598388672 138.1871185302734 93.06858062744141 138.2049102783203 93.18204498291016 138.2049102783203 C 93.21417999267578 138.2049102783203 93.24612426757813 138.2034759521484 93.27774810791016 138.20068359375 C 93.30933380126953 138.2034759521484 93.34116363525391 138.2049865722656 93.37325286865234 138.2049865722656 C 93.48680877685547 138.2049865722656 93.60311126708984 138.1871490478516 93.71880340576172 138.1491241455078 L 139.6620025634766 123.0327072143555 C 140.1129150390625 122.8842010498047 140.4179992675781 122.4630126953125 140.4179992675781 121.9878158569336 L 140.4179992675781 1.520093441009521 C 140.4179992675781 0.8930194973945618 139.9042358398438 0.4193210303783417 139.3196105957031 0.4193210303783417 C 139.2061462402344 0.4193210303783417 139.0899810791016 0.4371710419654846 138.9744110107422 0.4752046167850494 L 93.27780151367188 15.51045417785645 L 47.58119583129883 0.4752046167850494 C 47.46555328369141 0.4371922314167023 47.34940338134766 0.4193909168243408 47.23594284057617 0.4193909168243408 C 47.20380783081055 0.4193909168243408 47.17187881469727 0.4208195805549622 47.14025115966797 0.423621267080307 C 47.10860061645508 0.4208188056945801 47.07667541503906 0.4193909168243408 47.04452133178711 0.4193909168243408 C 46.93102645874023 0.4193909168243408 46.81482315063477 0.437195211648941 46.69919586181641 0.4752046167850494 L 0.7559996247291565 15.59159374237061 C 0.30511075258255 15.74009323120117 -3.662109406832315e-07 16.16131591796875 -3.662109406832315e-07 16.63651084899902 L -3.662109406832315e-07 137.1042022705078 C -3.662109406832315e-07 137.7313079833984 0.513805091381073 138.2050018310547 1.098438382148743 138.2050018310547 M 93.37325286865234 142.60498046875 C 93.34076690673828 142.60498046875 93.30818939208984 142.6046905517578 93.27554321289063 142.6040954589844 C 93.24433898925781 142.6046295166016 93.21315765380859 142.6049041748047 93.18205261230469 142.6049041748047 C 92.59819030761719 142.6049041748047 92.01985931396484 142.5121459960938 91.46319580078125 142.3292083740234 L 47.14019393920898 127.7458953857422 L 2.81880521774292 142.3287048339844 C 2.261777400970459 142.5120086669922 1.682916283607483 142.60498046875 1.098444104194641 142.60498046875 C -0.3444448113441467 142.6050415039063 -1.709194779396057 142.0484619140625 -2.744194746017456 141.0377044677734 C -3.811944723129272 139.9949493408203 -4.40000057220459 138.5980072021484 -4.40000057220459 137.1042022705078 L -4.40000057220459 16.63651084899902 C -4.40000057220459 14.25637149810791 -2.88111138343811 12.156982421875 -0.620417058467865 11.41242694854736 L 45.32402801513672 -3.704378843307495 C 45.88230514526367 -3.887850999832153 46.46066665649414 -3.980600833892822 47.04452896118164 -3.980600833892822 C 47.07636642456055 -3.980600833892822 47.1082878112793 -3.980318546295166 47.14023590087891 -3.979757785797119 C 47.17218780517578 -3.980318546295166 47.2041015625 -3.980600833892822 47.23594284057617 -3.980600833892822 C 47.81974792480469 -3.980600833892822 48.3980827331543 -3.887850999832153 48.95480346679688 -3.704878807067871 L 93.27780151367188 10.87840938568115 L 137.5992431640625 -3.704378843307495 C 138.1563110351563 -3.887684345245361 138.7351989746094 -3.980684280395508 139.3196105957031 -3.980684280395508 C 142.3514404296875 -3.980684280395508 144.8179931640625 -1.513045430183411 144.8179931640625 1.520093441009521 L 144.8179931640625 121.9878158569336 C 144.8179931640625 124.3679809570313 143.2990570068359 126.4673690795898 141.038330078125 127.2118988037109 L 95.09400177001953 142.3287048339844 C 94.53580474853516 142.5121765136719 93.95730590820313 142.60498046875 93.37325286865234 142.60498046875 Z" stroke="none" fill="#707070"/>
      </g>
      <g id="Group_3" data-name="Group 3" transform="translate(2.194)">
        <path id="Rectangle_47" data-name="Rectangle 47" d="M0,16.637a1.1,1.1,0,0,1,.756-1.045L46.7.475A1.1,1.1,0,0,1,48.143,1.52V121.988a1.1,1.1,0,0,1-.756,1.045L1.444,138.149A1.1,1.1,0,0,1,0,137.1Z" transform="translate(1.097)" fill="#ade1f1"/>
        <path id="Rectangle_47_Copy_6" data-name="Rectangle 47 Copy 6" d="M0,16.167a1.1,1.1,0,0,1,.756-1.048L46.7,0a1.1,1.1,0,0,1,1.444,1.042L48.27,48.4a1.1,1.1,0,0,1-.756,1.048L1.569,64.561A1.1,1.1,0,0,1,.125,63.519Z" transform="translate(0.968 73.589)" fill="#adf1af"/>
        <path id="Rectangle_47_Copy_2" data-name="Rectangle 47 Copy 2" d="M0,16.637a1.1,1.1,0,0,1,.756-1.045L46.7.475A1.1,1.1,0,0,1,48.143,1.52V121.988a1.1,1.1,0,0,1-.756,1.045L1.444,138.149A1.1,1.1,0,0,1,0,137.1Z" transform="translate(93.372)" fill="#ade1f1"/>
        <path id="Rectangle_47_Copy_8" data-name="Rectangle 47 Copy 8" d="M0,0,15.531,10.951l31.643-9.61a1.1,1.1,0,0,1,1.42,1.067l-.376,28.541a1.1,1.1,0,0,1-.756,1.03L1.505,47.1A1.1,1.1,0,0,1,.061,46.056Z" transform="translate(93.308 91.05)" fill="#adf1af"/>
        <path id="Rectangle_47_Copy" data-name="Rectangle 47 Copy" d="M0,16.637a1.1,1.1,0,0,0-.756-1.045L-46.7.475A1.1,1.1,0,0,0-48.143,1.52V121.988a1.1,1.1,0,0,0,.756,1.045l45.943,15.117A1.1,1.1,0,0,0,0,137.1Z" transform="translate(95.378)" fill="#9ad6e9"/>
        <path id="Rectangle_47_Copy_7" data-name="Rectangle 47 Copy 7" d="M-13.9,37.067a1.1,1.1,0,0,1-.641-.966l-.788-25.8L-46.62,0a1.1,1.1,0,0,0-1.444,1.042l-.213,71.435a1.1,1.1,0,0,0,.756,1.048L-1.576,88.644A1.1,1.1,0,0,0-.132,87.6L0,43.448Z" transform="translate(95.514 49.507)" fill="#9ae99c"/>
      </g>
      <path id="Path_2" data-name="Path 2" d="M0,41.176l47.129-13.8L46.693,0,57.375,3.761,83,10.937l-.048,28.722,12.57,4.258L110.159,54.68l35.562-10.371" transform="translate(0.513 47.171)" fill="none" stroke="#fff" stroke-linejoin="round" stroke-miterlimit="10" stroke-width="6.6"/>
      <path id="Path_3" data-name="Path 3" d="M17.067,52.771.437,46.185,0,23.087l11.578-4.444L11.919,0" transform="translate(28.891 2.406)" fill="none" stroke="#fff" stroke-linejoin="round" stroke-miterlimit="10" stroke-width="3.3"/>
      <path id="Path_4" data-name="Path 4" d="M0,0,13.292,13.882,26.8,10.144,73.757,26.421l-.379,30.334" transform="translate(23.044 84.246)" fill="none" stroke="#fff" stroke-linejoin="round" stroke-miterlimit="10" stroke-width="3.3"/>
      <path id="Path_5" data-name="Path 5" d="M0,30.609.755,1l11.01,4.368L23.4,28.084l26.045-7.366L60.956,0" transform="translate(85.111 27.579)" fill="none" stroke="#fff" stroke-linejoin="round" stroke-miterlimit="10" stroke-width="3.3"/>
    </g>
    <g id="shadow-4" data-name="shadow">
      <path id="shadow-5" data-name="shadow" d="M85.115,99.721,0,56.54l12.626-4.766,8.287,4.766L59.776,0h9.018Z" transform="translate(89.245 71.183)" fill="url(#linear-gradient-2)"/>
      <path id="shadow-6" data-name="shadow" d="M85.115,99.721,0,56.54l12.626-4.766,8.287,4.766L59.776,0h9.018Z" transform="translate(89.245 71.183)" fill="rgba(216,216,216,0.03)"/>
    </g>
    <g id="lines" transform="matrix(0.875, -0.485, 0.485, 0.875, 0, 27.545)">
      <path id="Line" d="M13.567,16.476,5.909,1.7A3.117,3.117,0,0,0,1.68.362,3.184,3.184,0,0,0,.358,4.637L8.017,19.414a3.117,3.117,0,0,0,4.229,1.336A3.184,3.184,0,0,0,13.567,16.476Z" transform="translate(18.101 4.925)" fill="url(#linear-gradient-3)"/>
      <path id="Line_Copy" data-name="Line Copy" d="M13.567,16.476,5.909,1.7A3.117,3.117,0,0,0,1.68.362,3.184,3.184,0,0,0,.358,4.637L8.017,19.414a3.117,3.117,0,0,0,4.229,1.336A3.184,3.184,0,0,0,13.567,16.476Z" transform="matrix(0.914, -0.407, 0.407, 0.914, 0.483, 18.523)" fill="url(#linear-gradient-3)"/>
      <path id="Line_Copy_2" data-name="Line Copy 2" d="M13.567,16.476,5.909,1.7A3.117,3.117,0,0,0,1.68.362,3.184,3.184,0,0,0,.358,4.637L8.017,19.414a3.117,3.117,0,0,0,4.229,1.336A3.184,3.184,0,0,0,13.567,16.476Z" transform="translate(42.41 0.042) rotate(30)" fill="url(#linear-gradient-3)"/>
    </g>
    <g id="lines-2" data-name="lines" transform="translate(209.439 41.959) rotate(41)">
      <path id="Line-2" data-name="Line" d="M-13.567,16.476-5.909,1.7A3.117,3.117,0,0,1-1.68.362,3.184,3.184,0,0,1-.358,4.637L-8.017,19.414a3.117,3.117,0,0,1-4.229,1.336A3.184,3.184,0,0,1-13.567,16.476Z" transform="translate(-18.101 4.925)" fill="url(#linear-gradient-3)"/>
      <path id="Line_Copy-2" data-name="Line Copy" d="M-13.567,16.476-5.909,1.7A3.117,3.117,0,0,1-1.68.362,3.184,3.184,0,0,1-.358,4.637L-8.017,19.414a3.117,3.117,0,0,1-4.229,1.336A3.184,3.184,0,0,1-13.567,16.476Z" transform="matrix(0.914, 0.407, -0.407, 0.914, -0.483, 18.523)" fill="url(#linear-gradient-3)"/>
      <path id="Line_Copy_2-2" data-name="Line Copy 2" d="M-13.567,16.476-5.909,1.7A3.117,3.117,0,0,1-1.68.362,3.184,3.184,0,0,1-.358,4.637L-8.017,19.414a3.117,3.117,0,0,1-4.229,1.336A3.184,3.184,0,0,1-13.567,16.476Z" transform="translate(-42.41 0.042) rotate(-30)" fill="url(#linear-gradient-3)"/>
    </g>
    <g id="Pin" transform="translate(47 38)">
      <g id="Group_5" data-name="Group 5" transform="translate(0 0.702)">
        <path id="Combined_Shape_Copy_2" data-name="Combined Shape Copy 2" d="M26.048,91.012h0a88.957,88.957,0,0,1-15.871-22.72A121.522,121.522,0,0,1,1.752,45.86,34.158,34.158,0,0,1,0,35.023C0,18.46,12.26,3.076,27.911,0c1.595.2,3.962.5,6.1.905.557.1,1.12.219,1.673.339v18.2c-.549-.055-1.112-.083-1.673-.083a16.779,16.779,0,0,0,0,33.557c.557,0,1.12-.028,1.673-.083V90.168c-.046,0-4.752.189-9.637.844Z" transform="translate(8.18 4.356) rotate(-7)" fill="url(#linear-gradient-9)"/>
        <path id="Combined_Shape-2" data-name="Combined Shape" d="M34.012,91.087h0a171.485,171.485,0,0,1-13-14.018,142.306,142.306,0,0,1-10.546-14.3A78.33,78.33,0,0,1,2.294,46.459,34.169,34.169,0,0,1,20.773,2.681,33.7,33.7,0,0,1,34.012,0c.557,0,1.12.014,1.673.04v18.5c-.549-.055-1.112-.083-1.673-.083a16.779,16.779,0,0,0,0,33.558c.557,0,1.12-.028,1.673-.083V89.5c-1.036,1.005-1.647,1.564-1.672,1.588Z" transform="translate(0.373 5.474) rotate(-7)" fill="url(#linear-gradient-10)"/>
      </g>
      <g id="Group_2" data-name="Group 2" transform="translate(56.8 1.504)">
        <path id="Combined_Shape_Copy_3" data-name="Combined Shape Copy 3" d="M-28.1,89.224h0c5.647-7.618,11.526-15.735,16.267-23.489A91.464,91.464,0,0,0-2.007,45.063,34.216,34.216,0,0,0,0,33.469,33.1,33.1,0,0,0-2.2,21.575,33.948,33.948,0,0,0-8.222,11.534,34.942,34.942,0,0,0-28.321,0,27.628,27.628,0,0,0-33.3.719l-.026.005c-.831.173-1.616.336-2.286.424V17.88c.548-.055,1.109-.083,1.67-.083a16.763,16.763,0,0,1,16.7,16.792,16.763,16.763,0,0,1-16.7,16.792c-.556,0-1.118-.028-1.67-.083V87.007c.17.146.263.224.27.23s4.549,1.23,7.25,1.987Z" transform="matrix(0.996, 0.087, -0.087, 0.996, 43.735, 3.225)" fill="url(#linear-gradient-11)"/>
        <path id="Combined_Shape_Copy" data-name="Combined Shape Copy" d="M-33.948,91.159h0A169.813,169.813,0,0,0-20.973,77.134,142.59,142.59,0,0,0-10.447,62.821,78.573,78.573,0,0,0-2.292,46.5,34.185,34.185,0,0,0,0,34.144a34.1,34.1,0,0,0-2.668-13.29A34.042,34.042,0,0,0-9.943,10,33.827,33.827,0,0,0-20.734,2.683,33.569,33.569,0,0,0-33.948,0c-.555,0-1.117.014-1.67.04V18.555c.548-.055,1.109-.083,1.67-.083a16.763,16.763,0,0,1,16.7,16.791,16.763,16.763,0,0,1-16.7,16.792c-.556,0-1.118-.028-1.67-.083v37.6c1.059,1.031,1.663,1.583,1.669,1.589Z" transform="matrix(0.996, 0.087, -0.087, 0.996, 51.029, 3.673)" fill="url(#linear-gradient-12)"/>
      </g>
    </g>
  </g>
</svg>
