<svg id="Capa_1" data-name="Capa 1" xmlns="http://www.w3.org/2000/svg" viewBox="0 0 1369.1 1369.1"><defs><style>.cls-1{fill:#fff9f200;stroke:#000;stroke-miterlimit:10;stroke-width:48px;}</style></defs><rect class="cls-1" x="24" y="24" width="1321.1" height="1321.1" rx="69.12"/><path d="M563.45,1288.06c-32.2,0-64.41-.09-96.61,0-17,.07-33.31-3.19-49.49-8.38-45.2-14.49-61.76-49.87-64.22-85.46-4.65-67.53,45.05-146.74,107.74-172.5,21.7-8.92,43.71-12.38,67.36-6.19,26,6.81,52.91,7.39,79,.45,24-6.4,46-1.29,66.75,9.21,57.78,29.19,87.2,79,99.16,140.72,3.78,19.5,2,38.84-4.37,57.67-13.39,39.24-44.56,55.11-82.23,62.4-9,1.75-18.17,2.07-27.34,2.07Q611.31,1288,563.45,1288.06Z" transform="translate(-302.67 -278.44)"/><path d="M689.89,822.2a133.11,133.11,0,0,1,8.7,47.67c-.15,74.07-61.32,135-135.11,134.63-74.13-.41-134.52-61.27-134.33-135.42a132.7,132.7,0,0,1,7.71-44.38,56.09,56.09,0,0,1-26-47.37c.08-30.71,25.29-55.61,56.21-55.52a55.72,55.72,0,0,1,45.29,23.69,135.32,135.32,0,0,1,52.35-10.31A132.82,132.82,0,0,1,611.87,744a55.81,55.81,0,1,1,78,78.23Z" transform="translate(-302.67 -278.44)"/><path d="M1406.51,1290.14c-32.2,0-64.4-.09-96.61,0-17,.07-33.31-3.19-49.49-8.38-45.2-14.49-61.76-49.87-64.22-85.46-4.65-67.53,45-146.74,107.74-172.5,21.7-8.92,43.71-12.38,67.36-6.19,26,6.81,52.91,7.39,79,.45,24-6.4,46-1.29,66.75,9.21,57.78,29.19,87.2,79,99.16,140.72,3.78,19.5,2,38.84-4.37,57.67-13.39,39.24-44.56,55.11-82.23,62.4-9,1.75-18.17,2.07-27.34,2.07Q1454.36,1290.1,1406.51,1290.14Z" transform="translate(-302.67 -278.44)"/><path d="M1533,824.28a133.15,133.15,0,0,1,8.7,47.67c-.15,74.07-61.32,135-135.11,134.63-74.13-.41-134.52-61.27-134.33-135.42a132.7,132.7,0,0,1,7.71-44.38,56.09,56.09,0,0,1-26-47.37c.08-30.71,25.29-55.61,56.21-55.52a55.72,55.72,0,0,1,45.29,23.69,135.32,135.32,0,0,1,52.35-10.31,132.82,132.82,0,0,1,47.16,8.78,55.81,55.81,0,1,1,78,78.23Z" transform="translate(-302.67 -278.44)"/><path d="M986.71,1290.14c-32.21,0-64.41-.09-96.61,0-17,.07-33.31-3.19-49.49-8.38-45.21-14.49-61.77-49.87-64.22-85.46-4.65-67.53,45.05-146.74,107.73-172.5,21.71-8.92,43.71-12.38,67.36-6.19,26,6.81,52.92,7.39,79,.45,24-6.4,46-1.29,66.75,9.21,57.78,29.19,87.19,79,99.15,140.72,3.78,19.5,2.06,38.84-4.37,57.67-13.38,39.24-44.55,55.11-82.22,62.4-9,1.75-18.17,2.07-27.34,2.07Q1034.57,1290.1,986.71,1290.14Z" transform="translate(-302.67 -278.44)"/><path d="M1113.15,824.28a132.92,132.92,0,0,1,8.69,47.67c-.14,74.07-61.32,135-135.1,134.63-74.13-.41-134.52-61.27-134.33-135.42a132.45,132.45,0,0,1,7.71-44.38,56.09,56.09,0,0,1-26-47.37c.08-30.71,25.29-55.61,56.21-55.52a55.74,55.74,0,0,1,45.29,23.69A135.28,135.28,0,0,1,988,737.27a132.77,132.77,0,0,1,47.15,8.78,55.81,55.81,0,1,1,78,78.23Z" transform="translate(-302.67 -278.44)"/></svg>