<svg xmlns="http://www.w3.org/2000/svg" width="584.533" height="917.73" viewBox="0 0 584.533 917.73">
  <g id="order_completed" data-name="order completed" transform="translate(-241.95 -92.196)">
    <g id="background">
      <g id="Group_145" data-name="Group 145">
        <g id="Group_142" data-name="Group 142">
          <path id="Path_143" data-name="Path 143" d="M780.65,792.36c-5.79-39.58-25.74-71.25-48.53-88.44,15.17,144.65-108.68,236.8-195.4,276.76,19.28,11.25,58.2,11.14,122.95-12.8C728.66,942.38,791.55,866.86,780.65,792.36Z" fill="#ff3f3f"/>
        </g>
        <g id="Group_143" data-name="Group 143">
          <path id="Path_144" data-name="Path 144" d="M525.12,969.02c-8.33-15.52,6.72-36.3,48.06-53s63.1-44.4,76.58-74.26-12.62-119.57,23.15-144.99c16.77-11.91,39.09-8.03,59.2,7.14a255.5,255.5,0,0,0-6.61-36.58C673.48,463.48,475.07,486,425.98,529.25s-56.75,80.42-35.28,119.9c15.88,29.2,96.28,29.86,96.1,58.2s-28.87-14.85-61.24,19.41c-11.41,12.08,28.36,26.77,23.05,73.29-10.23,89.53-57.12,97.92-89.84,99.81-22.38,1.3-78.49,12.89-67.39,59.14,9.96,41.52,95.52,64.97,190.3,41.78,14.26-3.49,33.5-10.19,55.04-20.12A29.773,29.773,0,0,1,525.12,969.02Z" fill="#f1f0f0"/>
        </g>
        <g id="Group_144" data-name="Group 144">
          <path id="Path_145" data-name="Path 145" d="M732.12,703.92c-20.11-15.17-42.44-19.05-59.2-7.14-35.77,25.42-9.67,115.13-23.15,144.99s-35.24,57.55-76.58,74.26-56.39,37.49-48.06,53a29.859,29.859,0,0,0,11.6,11.65C623.44,940.72,747.28,848.56,732.12,703.92Z" fill="#f8bab4"/>
        </g>
      </g>
      <g id="Group_146" data-name="Group 146">
        <path id="Path_146" data-name="Path 146" d="M561.31,951.36a24.21,24.21,0,1,1,24.21-24.21A24.237,24.237,0,0,1,561.31,951.36Zm0-45.41a21.21,21.21,0,1,0,21.21,21.21A21.234,21.234,0,0,0,561.31,905.95Z" fill="#292e34"/>
      </g>
      <g id="Group_147" data-name="Group 147">
        <path id="Path_147" data-name="Path 147" d="M678.99,598.96a24.21,24.21,0,1,1,24.21-24.21A24.237,24.237,0,0,1,678.99,598.96Zm0-45.41a21.21,21.21,0,1,0,21.21,21.21A21.234,21.234,0,0,0,678.99,553.55Z" fill="#ff3f3f"/>
      </g>
      <g id="Group_149" data-name="Group 149">
        <g id="Group_148" data-name="Group 148">
          <path id="Path_148" data-name="Path 148" d="M405.63,259.81a13.486,13.486,0,0,0,6.56-6.45l-2.28-.96c-.6,3.57,2.12,6.4,5.38,7.31l-.3-2.28c-3.69,2.05-4.29,4.97-5.49,8.71l2.41.66a7.109,7.109,0,0,0-7.09-8.48,1.251,1.251,0,0,0,0,2.5,4.572,4.572,0,0,1,4.68,5.32,1.25,1.25,0,0,0,2.41.66c.99-3.08,1.22-5.48,4.35-7.22a1.26,1.26,0,0,0-.3-2.28c-1.78-.5-4-2.07-3.64-4.24.21-1.27-1.69-2.37-2.28-.96a11.428,11.428,0,0,1-5.66,5.56c-1.47.65-.2,2.81,1.25,2.15Z" fill="#292e34"/>
        </g>
      </g>
      <g id="Group_151" data-name="Group 151">
        <g id="Group_150" data-name="Group 150">
          <path id="Path_149" data-name="Path 149" d="M345.69,354.91a13.486,13.486,0,0,0,6.56-6.45l-2.28-.96c-.6,3.57,2.12,6.4,5.38,7.31l-.3-2.28c-3.69,2.05-4.29,4.97-5.49,8.71l2.41.66a7.109,7.109,0,0,0-7.09-8.48,1.251,1.251,0,0,0,0,2.5,4.572,4.572,0,0,1,4.68,5.32,1.25,1.25,0,0,0,2.41.66c.99-3.08,1.22-5.48,4.35-7.22a1.26,1.26,0,0,0-.3-2.28c-1.78-.5-4-2.07-3.64-4.24.21-1.27-1.69-2.37-2.28-.96a11.428,11.428,0,0,1-5.66,5.56c-1.48.65-.21,2.81,1.25,2.15Z" fill="#292e34"/>
        </g>
      </g>
      <g id="Group_153" data-name="Group 153">
        <g id="Group_152" data-name="Group 152">
          <path id="Path_150" data-name="Path 150" d="M660.51,449.48a13.486,13.486,0,0,0,6.56-6.45l-2.28-.96c-.6,3.57,2.12,6.4,5.38,7.31l-.3-2.28c-3.69,2.05-4.29,4.97-5.49,8.71l2.41.66a7.109,7.109,0,0,0-7.09-8.48,1.251,1.251,0,0,0,0,2.5,4.572,4.572,0,0,1,4.68,5.32,1.25,1.25,0,0,0,2.41.66c.99-3.08,1.22-5.48,4.35-7.22a1.26,1.26,0,0,0-.3-2.28c-1.78-.5-4-2.07-3.64-4.24.21-1.27-1.69-2.37-2.28-.96a11.428,11.428,0,0,1-5.66,5.56c-1.47.65-.2,2.81,1.25,2.15Z" fill="#292e34"/>
        </g>
      </g>
      <g id="Group_155" data-name="Group 155">
        <g id="Group_154" data-name="Group 154">
          <path id="Path_151" data-name="Path 151" d="M514.93,115.93a13.486,13.486,0,0,0,6.56-6.45l-2.28-.96c-.6,3.57,2.12,6.4,5.38,7.31l-.3-2.28c-3.69,2.05-4.29,4.97-5.49,8.71l2.41.66a7.109,7.109,0,0,0-7.09-8.48,1.251,1.251,0,0,0,0,2.5,4.572,4.572,0,0,1,4.68,5.32,1.25,1.25,0,0,0,2.41.66c.99-3.08,1.22-5.48,4.35-7.22a1.26,1.26,0,0,0-.3-2.28c-1.78-.5-4-2.07-3.64-4.24.21-1.27-1.69-2.37-2.28-.96a11.428,11.428,0,0,1-5.66,5.56c-1.48.65-.21,2.81,1.25,2.15Z" fill="#292e34"/>
        </g>
      </g>
      <g id="Group_157" data-name="Group 157">
        <g id="Group_156" data-name="Group 156">
          <path id="Path_152" data-name="Path 152" d="M641.15,182.61a13.486,13.486,0,0,0,6.56-6.45l-2.28-.96c-.6,3.57,2.12,6.4,5.38,7.31l-.3-2.28c-3.69,2.05-4.29,4.97-5.49,8.71l2.41.66a7.109,7.109,0,0,0-7.09-8.48,1.251,1.251,0,0,0,0,2.5,4.572,4.572,0,0,1,4.68,5.32,1.25,1.25,0,0,0,2.41.66c.99-3.08,1.22-5.48,4.35-7.22a1.26,1.26,0,0,0-.3-2.28c-1.78-.5-4-2.07-3.64-4.24.21-1.27-1.69-2.37-2.28-.96a11.428,11.428,0,0,1-5.66,5.56c-1.47.65-.2,2.81,1.25,2.15Z" fill="#292e34"/>
        </g>
      </g>
      <g id="Group_159" data-name="Group 159">
        <g id="Group_158" data-name="Group 158">
          <path id="Path_153" data-name="Path 153" d="M241.99,231.3c1.91,7.71,13.44,4.42,15.61,11.63,1.2,4-.96,8.34.33,12.39.88,2.76,2.94,4.38,5.56,5.4,4.28,1.68,10.43,1.05,12.46,6.22,1.77,4.52-.75,9.72,1.36,14.3,1.93,4.2,6.79,7.14,10.2,10.03q7.17,6.075,14.34,12.16c1.22,1.03,3-.73,1.77-1.77L290,290.11c-4.57-3.87-10.86-7.59-11.22-14.11-.4-7.41.64-13.53-7.85-15.96-4.59-1.32-9.93-1.27-10.87-7.09-.64-3.93,1.24-8.02-.45-11.85-2.75-6.24-13.69-4.38-15.2-10.46a1.255,1.255,0,0,0-2.42.66Z" fill="#292e34"/>
        </g>
      </g>
      <g id="Group_161" data-name="Group 161">
        <g id="Group_160" data-name="Group 160">
          <path id="Path_154" data-name="Path 154" d="M369.55,128.44c-.19,3.51,1.87,5.96,4.82,7.68,2.13,1.24,4.59,1.72,6.74,2.89,3.45,1.89,4.18,4.32,4.45,7.96.22,2.98-.1,6.53,2.18,8.85,3.72,3.78,11.38-.87,13.28,5.21,1.23,3.95-.22,8.26,1.3,12.18,1.95,5.02,6.54,3.56,9.88,6.66,2.87,2.67.69,8.16,3.37,11.34,1.56,1.86,4.15,2.5,5.95,4.09a14.7,14.7,0,0,1,4.7,9.17c.23,1.59,2.64.91,2.41-.66a16.726,16.726,0,0,0-5.34-10.27c-2.13-1.89-5.36-2.91-6.68-5.62-.84-1.72-.28-4.27-.7-6.14-.82-3.66-2.84-4.41-6-5.78-2.59-1.13-4.96-1.98-5.64-5.04a20.1,20.1,0,0,1-.27-3.88,27.584,27.584,0,0,0-.42-6.09c-.69-2.87-2.28-5.28-5.26-5.98s-4.81.56-7.63-1.23c-3.04-1.94-2.4-4.11-2.65-7.4-.23-3.09-.88-5.95-3.35-8.03-3.77-3.18-12.96-3.34-12.61-9.89.05-1.63-2.45-1.62-2.53-.02Z" fill="#292e34"/>
        </g>
      </g>
      <g id="Group_163" data-name="Group 163">
        <g id="Group_162" data-name="Group 162">
          <path id="Path_155" data-name="Path 155" d="M584.69,184.7c1.16-4.48-.62-8.54-.21-13.02.44-4.77,3.87-8.54,6.67-12.15,5.19-6.69,6.94-13.15,5.27-21.58-.46-2.33-1.41-4.62-1.77-6.95-.77-4.95.95-6.3,4.15-8.62,2.24-1.62,4.41-3.15,5.49-5.81,1.42-3.53.46-7.37.64-11.04.24-4.78,4.3-7.5,4.56-12.13.09-1.61-2.41-1.6-2.5,0-.22,3.88-4.01,6.66-4.47,10.69-.55,4.86,1.43,10.31-2.46,14.21-2.18,2.18-5.34,3.26-7.1,5.89-1.96,2.93-1.12,6-.25,9.2,1.63,6,3.17,12.51.48,18.47-1.56,3.47-4.24,6.32-6.5,9.33-1.99,2.66-3.89,5.53-4.51,8.86-.87,4.71,1.3,9.29.09,13.98a1.256,1.256,0,0,0,2.42.67Z" fill="#292e34"/>
        </g>
      </g>
      <g id="Group_165" data-name="Group 165">
        <g id="Group_164" data-name="Group 164">
          <path id="Path_156" data-name="Path 156" d="M659.99,235.54c2.11-6.56,12-6.03,15.96-11.26,2.42-3.2,1.75-7.15,3.02-10.74,1.87-5.26,7.7-5.2,12.06-7.07a9.487,9.487,0,0,0,5.61-5.38c2.02-5.21,2.17-9.74,7.67-12.77,3.45-1.9,7.29-1.82,9.79-5.2,3.7-5.02,6.01-8.84,12.51-10.61a1.25,1.25,0,0,0-.66-2.41,20.644,20.644,0,0,0-10.73,6.65c-1.43,1.72-2.2,4.13-3.76,5.71-1.97,1.99-5.36,2.13-7.79,3.35a16.339,16.339,0,0,0-7.81,8.56c-.85,2.16-.8,4.91-2.03,6.9-1.64,2.67-4.87,3.29-7.62,4.13-3.03.93-6.27,1.87-8.23,4.55-2.79,3.82-1.25,9.16-4.13,12.87-4.37,5.62-13.8,4.39-16.26,12.03-.5,1.56,1.91,2.21,2.4.69Z" fill="#292e34"/>
        </g>
      </g>
      <g id="Group_167" data-name="Group 167">
        <g id="Group_166" data-name="Group 166">
          <path id="Path_157" data-name="Path 157" d="M734.62,285.96c3-13.56,22.65-4.11,30.83-10.99,2.77-2.33,2.57-5.29,2.9-8.62.34-3.4,1.31-7.44,4.49-9.33,3.15-1.88,7.29-.91,10.72-.98a12.661,12.661,0,0,0,9.86-4.31c1.73-1.94,3.02-4.27,4.81-6.16a18.52,18.52,0,0,1,8.25-4.69c7.7-2.46,17.67-3.63,19.96-12.91a1.25,1.25,0,0,0-2.41-.66c-2.85,11.54-19.13,8.68-26.58,15.5-4.46,4.08-6.17,10.24-13.12,10.73-4.53.32-9.27-1.02-13.31,1.71-2.92,1.98-4.28,5.37-4.88,8.73-.59,3.31.23,7.25-3.06,9.63-2.84,2.05-7.26,1.87-10.6,1.9-7.72.06-18.23.46-20.3,9.8-.32,1.55,2.09,2.22,2.44.65Z" fill="#292e34"/>
        </g>
      </g>
    </g>
    <g id="character">
      <g id="Group_168" data-name="Group 168">
        <path id="Path_158" data-name="Path 158" d="M405.01,335.67a61.5,61.5,0,0,1,17.91,13.43c8.95,9.51,13.99,14.55,22.57,16.42s14.55,2.61,14.55,2.61l-10.63,87.3s27.61,22.94,71.07,27.24,73.68-7.28,81.15-11.38a93.265,93.265,0,0,0,12.13-7.83l-7.65-108.57,4.85-.37a88.206,88.206,0,0,0,20.33-17.35c9.89-11.38,18.09-22.39,18.09-22.39s-38.43-39.55-43.28-46.08-13.99-15.3-24.06-18.09-51.49-6.9-51.49-6.9l.19,9.7s-9.89,6.53-20.89,1.49-19.21-14.92-19.21-14.92-35.44,11.57-41.6,14.18-21.08,8.58-23.32,15.11S405.01,335.67,405.01,335.67Z" fill="#ff3f3f"/>
      </g>
      <g id="Group_170" data-name="Group 170">
        <g id="Group_169" data-name="Group 169">
          <path id="Path_159" data-name="Path 159" d="M498.12,192.78a16.677,16.677,0,0,0,5.89-7.95c1.96-4.82,3.62-13.5,10.3-13.69,2.9-.08,5.9,2,8.66,2.86a34.179,34.179,0,0,0,6.17,1.29,36.674,36.674,0,0,0,13.68-.98c7.31-1.94,16.08-6.68,19.13-14.05,3.67-8.88-.46-20.07-5.88-27.26-.96-1.27-3.13-.03-2.16,1.26,6.3,8.37,10.56,21.96,1.91,30.22-7.2,6.87-18.11,9.76-27.83,8.14-6.33-1.05-13.06-6.61-19.08-2-6.61,5.06-5.28,15.27-12.06,20-1.3.92-.05,3.09,1.27,2.16Z" fill="#292e34"/>
        </g>
      </g>
      <g id="Group_172" data-name="Group 172">
        <g id="Group_171" data-name="Group 171">
          <path id="Path_160" data-name="Path 160" d="M498.87,190.19c-2.5-3.52-6.03-7.18-10.79-6.32-4.25.77-5.78,4.58-5.5,8.54.54,7.44,8.08,22.48,17.5,15.87l-1.71-.45c4.96,10.43,10.98,21.53,21.94,26.64,8.39,3.91,17.48,3.03,24.3-3.35,17.49-16.35,14.39-41.37,10.44-62.49-.29-1.58-2.7-.91-2.41.66,3.57,19.1,6.8,40.94-6.99,57.08-6.75,7.9-15.95,10.3-25.42,5.26-9.8-5.22-15.12-15.44-19.71-25.07a1.254,1.254,0,0,0-1.71-.45c-6.26,4.4-11.3-4.54-12.83-9.39-.68-2.15-1.54-5.07-.79-7.29,2.66-7.89,9.7-.55,11.52,2.01.92,1.32,3.09.07,2.16-1.25Z" fill="#292e34"/>
        </g>
      </g>
      <g id="Group_174" data-name="Group 174">
        <g id="Group_173" data-name="Group 173">
          <path id="Path_161" data-name="Path 161" d="M490.78,183.93c-1.85-8.87-2.39-18.93,1.45-27.38,4.15-9.14,13.43-13.62,23.13-14.06,5.44-.25,10.74.76,16.01,1.98,3.24.75,6.5,1.54,9.85,1.19a18.19,18.19,0,0,0,14.26-10.18c.72-1.43-1.43-2.7-2.16-1.26a15.7,15.7,0,0,1-12.27,8.9c-5.39.57-10.82-1.7-16.1-2.51-8.16-1.25-16.82-.82-24.19,3.22-14.52,7.97-15.4,26.32-12.39,40.77.33,1.56,2.74.9,2.41-.67Z" fill="#292e34"/>
        </g>
      </g>
      <g id="Group_176" data-name="Group 176">
        <g id="Group_175" data-name="Group 175">
          <path id="Path_162" data-name="Path 162" d="M523.86,187.13l.6,5.43c.18,1.58,2.68,1.6,2.5,0l-.6-5.43c-.17-1.58-2.68-1.6-2.5,0Z" fill="#292e34"/>
        </g>
      </g>
      <g id="Group_178" data-name="Group 178">
        <g id="Group_177" data-name="Group 177">
          <path id="Path_163" data-name="Path 163" d="M546.67,185.67a48.719,48.719,0,0,0,.7,4.95c.31,1.58,2.72.91,2.41-.66a41.193,41.193,0,0,1-.61-4.28c-.15-1.6-2.65-1.62-2.5-.01Z" fill="#292e34"/>
        </g>
      </g>
      <g id="Group_180" data-name="Group 180">
        <g id="Group_179" data-name="Group 179">
          <path id="Path_164" data-name="Path 164" d="M536.74,186.84a31.626,31.626,0,0,0,.55,7.89,1.276,1.276,0,0,0,1.84.75c1.73-.76,3.47,2.55,2.88,3.99-.64,1.55-2.47,1.67-3.87,1.7a1.251,1.251,0,0,0,0,2.5c3.97-.1,7.17-2,6.37-6.47-.59-3.29-3.5-5.26-6.64-3.88.61.25,1.22.5,1.84.75a29.208,29.208,0,0,1-.46-7.23c.08-1.61-2.42-1.6-2.51,0Z" fill="#292e34"/>
        </g>
      </g>
      <g id="Group_181" data-name="Group 181">
        <ellipse id="Ellipse_4" data-name="Ellipse 4" cx="2.7" cy="4.12" rx="2.7" ry="4.12" transform="matrix(0.645, -0.764, 0.764, 0.645, 515.937, 198.129)" fill="#f8bab4"/>
      </g>
      <g id="Group_182" data-name="Group 182">
        <ellipse id="Ellipse_5" data-name="Ellipse 5" cx="4.12" cy="2.7" rx="4.12" ry="2.7" transform="translate(546.95 197.139) rotate(-35.677)" fill="#f8bab4"/>
      </g>
      <g id="Group_184" data-name="Group 184">
        <g id="Group_183" data-name="Group 183">
          <path id="Path_165" data-name="Path 165" d="M494.09,208.95c.18,10.76-.08,21.58-.66,32.32-.09,1.61,2.41,1.6,2.5,0,.58-10.75.85-21.56.66-32.32a1.251,1.251,0,0,0-2.5,0Z" fill="#292e34"/>
        </g>
      </g>
      <g id="Group_186" data-name="Group 186">
        <g id="Group_185" data-name="Group 185">
          <path id="Path_166" data-name="Path 166" d="M536.5,211.46a6.523,6.523,0,0,0,.64,5.7c.99,1.48,3.08,2.12,4.15.37a12.461,12.461,0,0,0,1.06-3.04,7.118,7.118,0,0,0,.55-3.01c-.38-2.07-3.14-2.34-4.79-2.01-1.58.32-.91,2.73.66,2.41.34-.07,1.29-.18,1.58.13a3.28,3.28,0,0,1-.16.87q-.33,1.29-.75,2.55c-.08.23-.15.46-.23.69.04-.07.08-.13.12-.2a3.042,3.042,0,0,1-.57-1.22,4.259,4.259,0,0,1,.16-2.57c.51-1.53-1.9-2.19-2.42-.67Z" fill="#292e34"/>
        </g>
      </g>
      <g id="Group_188" data-name="Group 188">
        <g id="Group_187" data-name="Group 187">
          <path id="Path_167" data-name="Path 167" d="M490.61,241.61c11.53,14.35,36.74,24.28,48.46,4.97a1.251,1.251,0,0,0-2.16-1.26c-5.64,9.29-13.37,10.56-23.37,8.47-8.92-1.87-15.57-7-21.16-13.95-1.01-1.25-2.77.53-1.77,1.77Z" fill="#292e34"/>
        </g>
      </g>
      <g id="Group_190" data-name="Group 190">
        <g id="Group_189" data-name="Group 189">
          <path id="Path_168" data-name="Path 168" d="M489.69,238.75c-13.24,6.93-27.79,10.34-41.89,15-8.94,2.96-18.97,5.56-23.38,14.74-.69,1.44,1.46,2.71,2.16,1.26,4.9-10.19,18.76-12.69,28.61-15.72,12.17-3.74,24.44-7.19,35.77-13.13,1.42-.73.16-2.89-1.27-2.15Z" fill="#292e34"/>
        </g>
      </g>
      <g id="Group_192" data-name="Group 192">
        <g id="Group_191" data-name="Group 191">
          <path id="Path_169" data-name="Path 169" d="M424.23,269.22a541.955,541.955,0,0,0-20.49,67.25,1.294,1.294,0,0,0,.87,1.54c11.48,4.05,17.88,14.28,27.25,21.28,7.71,5.77,17.89,10.29,27.7,9.11,1.58-.19,1.6-2.69,0-2.5-11.09,1.33-22.69-4.77-30.49-12.28-7.29-7.02-14-14.57-23.79-18.03.29.51.58,1.03.87,1.54a545.906,545.906,0,0,1,20.49-67.25c.57-1.5-1.84-2.15-2.41-.66Z" fill="#292e34"/>
        </g>
      </g>
      <g id="Group_194" data-name="Group 194">
        <g id="Group_193" data-name="Group 193">
          <path id="Path_170" data-name="Path 170" d="M456.22,315.59c3.94,22.91,3.28,46.5,1.38,69.58a670.247,670.247,0,0,1-9.79,69.51,1.287,1.287,0,0,0,.57,1.41c5.25,2.83,9.98,6.59,15.2,9.51a163.431,163.431,0,0,0,34.38,14.02c28.28,8.16,58.01,7.11,86.18-1.18,10.53-3.1,22.02-7.12,30.36-14.54,1.2-1.07-.57-2.83-1.77-1.77-5.93,5.27-13.68,8.54-21.04,11.21a161.522,161.522,0,0,1-30.41,7.6,153.763,153.763,0,0,1-97.7-18.21c-4.08-2.34-8.9-4.8-12.46-7.92-1.3-1.14-1.17-.17-.38-2.28.82-2.19.91-4.95,1.32-7.25q1.5-8.415,2.8-16.87c1.79-11.57,3.31-23.18,4.46-34.83,2.58-26.04,3.74-52.76-.71-78.66-.25-1.57-2.66-.9-2.39.67Z" fill="#292e34"/>
        </g>
      </g>
      <g id="Group_196" data-name="Group 196">
        <g id="Group_195" data-name="Group 195">
          <path id="Path_171" data-name="Path 171" d="M602.11,313.56c3.7,49.82,3.46,100.13,10.55,149.65.23,1.59,2.64.91,2.41-.66-7.05-49.3-6.77-99.39-10.46-148.99-.12-1.6-2.62-1.61-2.5,0Z" fill="#292e34"/>
        </g>
      </g>
      <g id="Group_198" data-name="Group 198">
        <g id="Group_197" data-name="Group 197">
          <path id="Path_172" data-name="Path 172" d="M537.79,246.03c10.78,1.99,21.55,2.68,32.45,3.65,5.98.53,12.51,1.03,17.78,4.17,4.25,2.53,7.91,6.09,11.39,9.56,7.74,7.73,14.72,16.19,21.72,24.57,8.44,10.1,18.64,18.28,27.8,27.68v-1.77c-6.64,7.63-12.91,15.58-19.47,23.28-5.81,6.82-13.05,15.96-22.79,16.23a1.251,1.251,0,0,0,0,2.5c8.65-.24,15.53-6.74,20.98-12.84,7.96-8.89,15.21-18.4,23.04-27.4a1.277,1.277,0,0,0,0-1.77c-9.46-9.7-19.88-18.19-28.6-28.63-7.3-8.75-14.59-17.61-22.84-25.49-7.32-7-13.95-10.84-24.17-12.1-12.25-1.51-24.47-1.8-36.64-4.05-1.56-.29-2.23,2.12-.65,2.41Z" fill="#292e34"/>
        </g>
      </g>
      <g id="Group_200" data-name="Group 200">
        <g id="Group_199" data-name="Group 199">
          <path id="Path_173" data-name="Path 173" d="M608.51,466.36c4.75,18.24,5.57,38.34,4.01,57.08-1.52,18.3-6.91,38.01-17.52,53.21-12.91,18.49-25.4,37.26-37.91,56.03q-9.18,13.785-18.49,27.49c-6.71,9.85-14.74,19.45-20.27,30.02-3.91,7.47-4.85,16-6.82,24.1-1.57,6.44-3.35,12.82-5.24,19.17-4.42,14.91-9.38,29.65-14.59,44.3-9.79,27.58-20.23,55.07-32.24,81.78-1.88,4.18-3.79,8.37-5.94,12.42-.62,1.16-1.54,2.32-2.04,3.52a2.408,2.408,0,0,1-.61.81c.03-.02-.33.26-.18.18,1.33-.71-1.23-.89-2.19-1.27-21.64-8.7-45.62-17.3-69.31-14.33.36.63.72,1.25,1.08,1.88a376.2,376.2,0,0,0,50.63-133.61c2.06-12.01,3.13-24.15,5.12-36.16a127.125,127.125,0,0,1,11.81-36.2c10.1-20.32,21.16-40.17,31.42-60.41,12.27-24.22,24.18-48.64,35.21-73.45.65-1.46-1.51-2.73-2.16-1.26-19.01,42.79-40.57,84.36-62.43,125.74-5.47,10.35-10.65,20.87-13.62,32.24-3.13,11.98-4.19,24.36-5.87,36.58a371.188,371.188,0,0,1-16.81,70.51,375.075,375.075,0,0,1-35.45,74.75c-.45.74.12,2,1.08,1.88,22.96-2.88,46.15,5.27,67.17,13.65,3.13,1.25,4.82,2.88,6.98.14a40.4,40.4,0,0,0,3.97-7.17c11.87-24.02,21.31-49.43,30.6-74.52,10.58-28.54,21.22-57.62,27.6-87.45,1.22-5.71,2.27-11.34,4.98-16.58,3.15-6.08,7.55-11.56,11.45-17.17q10.095-14.55,19.93-29.28c12.91-19.26,25.66-38.64,38.82-57.74,5.35-7.77,10.72-14.98,14.36-23.71a137.024,137.024,0,0,0,9.36-34.43c2.76-20.55,1.75-43.34-3.49-63.42a1.248,1.248,0,0,0-2.4.68Z" fill="#292e34"/>
        </g>
      </g>
      <g id="Group_202" data-name="Group 202">
        <g id="Group_201" data-name="Group 201">
          <path id="Path_174" data-name="Path 174" d="M446.39,698.16a22.16,22.16,0,0,0,32.97-7.22c.78-1.41-1.38-2.67-2.16-1.26-6.05,10.96-19.52,13.74-29.55,6.32-1.29-.96-2.54,1.21-1.26,2.16Z" fill="#292e34"/>
        </g>
      </g>
      <g id="Group_204" data-name="Group 204">
        <g id="Group_203" data-name="Group 203">
          <path id="Path_175" data-name="Path 175" d="M563.65,525.34c5.35,5.71,16.53.63,21.15-3.99a70.813,70.813,0,0,0,16.52-27.13c.5-1.53-1.91-2.19-2.41-.66a72.216,72.216,0,0,1-12,21.59c-2.28,2.9-4.71,5.92-8.1,7.51-3.6,1.69-10.13,4.4-13.38.93-1.11-1.19-2.88.58-1.78,1.75Z" fill="#292e34"/>
        </g>
      </g>
      <g id="Group_206" data-name="Group 206">
        <g id="Group_205" data-name="Group 205">
          <path id="Path_176" data-name="Path 176" d="M460.45,463.17c-2.42,25.78-1.91,51.93-1.02,77.78.88,25.48,2.17,51.21,6.25,76.41.26,1.58,2.67.91,2.41-.66-4.13-25.45-5.36-51.47-6.21-77.2-.84-25.36-1.31-51.02,1.07-76.32.15-1.61-2.35-1.6-2.5-.01Z" fill="#292e34"/>
        </g>
      </g>
      <g id="Group_208" data-name="Group 208">
        <g id="Group_207" data-name="Group 207">
          <path id="Path_177" data-name="Path 177" d="M558.05,634.07c-1.5,10.65-3.63,21.21-5.46,31.8-.65,3.77-2.41,8.92-1.54,12.74,1.06,4.63,8.6,6.88,12.36,8.44,13.27,5.49,27.73,7.16,41.61,10.45,14.18,3.35,28.3,6.82,42.64,9.43,15.9,2.89,31.93,4.91,47.98,6.71-.4-.53-.8-1.05-1.21-1.58-6.2,23.69-13.64,47.04-19.84,70.73a1.25,1.25,0,0,0,2.41.66c6.2-23.69,13.64-47.04,19.84-70.73a1.268,1.268,0,0,0-1.21-1.58c-17.34-1.94-34.65-4.18-51.8-7.46-16.53-3.16-32.74-7.63-49.22-10.99-7.8-1.59-15.66-3.04-23.27-5.42a76.655,76.655,0,0,1-12.71-5.18c-4.33-2.27-5.24-5.94-4.51-10.45,1.99-12.32,4.57-24.55,6.32-36.9.25-1.58-2.16-2.26-2.39-.67Z" fill="#292e34"/>
        </g>
      </g>
      <g id="Group_210" data-name="Group 210">
        <g id="Group_209" data-name="Group 209">
          <path id="Path_178" data-name="Path 178" d="M506.11,743.01c2.15,4.17,7.26,6.1,11.43,7.52,8.29,2.83,17.09,4.25,25.7,5.69,26.52,4.44,53.16,7.93,79.43,13.81a401.589,401.589,0,0,1,51.82,15.08c1.51.56,2.16-1.86.66-2.41-27.68-10.25-56.53-16.7-85.58-21.64-21.44-3.65-43.4-5.71-64.53-10.97-5.26-1.31-13.99-2.94-16.77-8.34-.74-1.43-2.9-.17-2.16,1.26Z" fill="#292e34"/>
        </g>
      </g>
      <g id="Group_234" data-name="Group 234">
        <g id="Group_215" data-name="Group 215">
          <g id="Group_212" data-name="Group 212">
            <g id="Group_211" data-name="Group 211">
              <path id="Path_179" data-name="Path 179" d="M684.3,775.88c2.5,2.14,5.7,2.89,8.9,3.37,3.84.57,9.47-.91,11.45,3.04,1.81,3.6,2.2,7.8,3.69,11.53,2.49,6.21,5.39,12.27,7.89,18.48,4.64,11.55,8.5,23.33,12.48,35.11,2.47,7.32,8.33,16.39,16.68,9.95,1.26-.97.01-3.14-1.26-2.16-7.93,6.11-11.83-4.83-13.73-10.68-1.81-5.58-3.66-11.15-5.62-16.68-3.51-9.85-7.39-19.56-11.56-29.14a95.518,95.518,0,0,1-4.51-12.27c-.74-2.6-1.52-5.92-3.54-7.88-1.83-1.78-3.76-1.33-6.12-1.34-4.12-.01-9.72-.28-12.99-3.09-1.2-1.05-2.98.71-1.76,1.76Z" fill="#292e34"/>
            </g>
          </g>
          <g id="Group_214" data-name="Group 214">
            <g id="Group_213" data-name="Group 213">
              <path id="Path_180" data-name="Path 180" d="M714.41,734.11c.22,2.79.69,6.28-.09,8.98-1.58,5.52-9.19,3.54-13.25,2.59-4.23-.99-8.43-2.84-11.22,1.53-2.99,4.69-4.31,11.11-5.06,16.51-.52,3.72-3.38,9.49.17,12.36,1.24,1,3.02-.76,1.77-1.77-2.07-1.67-.14-5.2.21-7.18.59-3.29.79-6.55,1.68-9.79,1.17-4.24,2.11-10.38,7.75-10.31,2.67.03,5.83,1.54,8.53,1.9,3.2.42,9.08,1.57,11.04-1.79,1.99-3.42,1.26-9.29.97-13.03-.12-1.6-2.62-1.61-2.5,0Z" fill="#292e34"/>
            </g>
          </g>
        </g>
        <g id="Group_217" data-name="Group 217">
          <g id="Group_216" data-name="Group 216">
            <path id="Path_181" data-name="Path 181" d="M754.79,739.04c2.41,21.92,5.98,43.73,6.49,65.82.35,15.5,1.16,45.02-17.63,50.99-1.53.49-.88,2.9.66,2.41,18.4-5.84,19.43-31.64,19.52-47.44.14-24.09-3.92-47.9-6.54-71.78-.17-1.58-2.68-1.6-2.5,0Z" fill="#292e34"/>
          </g>
        </g>
        <g id="Group_219" data-name="Group 219">
          <g id="Group_218" data-name="Group 218">
            <path id="Path_182" data-name="Path 182" d="M755.04,737.62c-9.79-.4-20.07-.21-29.43-3.47-2.51-.87-12.68-6.33-11.13,1.22.32,1.58,2.73.91,2.41-.66-.26-1.25,9.04,2.18,9.66,2.37a56.509,56.509,0,0,0,8.63,1.79c6.57.89,13.23.99,19.85,1.26,1.62.05,1.62-2.45.01-2.51Z" fill="#292e34"/>
          </g>
        </g>
        <g id="Group_221" data-name="Group 221">
          <g id="Group_220" data-name="Group 220">
            <path id="Path_183" data-name="Path 183" d="M747.44,739.52a340.827,340.827,0,0,1,6.03,60.72q.12,14.4-.99,28.77c-.71,9.15-1.4,19.13-8.19,26.02-1.13,1.15.64,2.92,1.77,1.77,5.43-5.5,7.31-12.77,8.22-20.25a277.305,277.305,0,0,0,1.7-32.47,343.944,343.944,0,0,0-6.13-65.22c-.3-1.59-2.71-.92-2.41.66Z" fill="#292e34"/>
          </g>
        </g>
        <g id="Group_223" data-name="Group 223">
          <g id="Group_222" data-name="Group 222">
            <path id="Path_184" data-name="Path 184" d="M708.9,765.92a26.921,26.921,0,0,1-1.65,6.67c-.57,1.44-1.93,3.06-1.48,4.66a1.275,1.275,0,0,0,1.21.92,1.519,1.519,0,0,0,1.45-.86,1.23,1.23,0,0,0-.33-1.62c-1.21-1.05-2.98.71-1.77,1.77a1.265,1.265,0,0,0,.13.11c-.07-.5-.13-1.01-.2-1.51-.04.08-.09.15-.13.23.36-.21.72-.41,1.08-.62-.08,0-.16.01-.24.01.4.31.8.61,1.21.92-.11-.39.88-1.86,1.05-2.27a28.637,28.637,0,0,0,1.06-2.85,31.629,31.629,0,0,0,1.12-5.54c.19-1.61-2.32-1.6-2.51-.02Z" fill="#292e34"/>
          </g>
        </g>
        <g id="Group_225" data-name="Group 225">
          <g id="Group_224" data-name="Group 224">
            <path id="Path_185" data-name="Path 185" d="M712.81,767.98a40.049,40.049,0,0,1-3.39,11.98c-.67,1.45,1.49,2.72,2.16,1.26a43.876,43.876,0,0,0,3.73-13.24c.19-1.6-2.32-1.58-2.5,0Z" fill="#292e34"/>
          </g>
        </g>
        <g id="Group_227" data-name="Group 227">
          <g id="Group_226" data-name="Group 226">
            <path id="Path_186" data-name="Path 186" d="M716.85,773.92a56.975,56.975,0,0,1-4.36,17.21,1.251,1.251,0,0,0,2.16,1.26c.28-.42.57-.85.85-1.27.89-1.34-1.27-2.6-2.16-1.26-.28.42-.57.85-.85,1.27l2.16,1.26a60.887,60.887,0,0,0,4.7-18.47c.15-1.6-2.35-1.59-2.5,0Z" fill="#292e34"/>
          </g>
        </g>
        <g id="Group_229" data-name="Group 229">
          <g id="Group_228" data-name="Group 228">
            <path id="Path_187" data-name="Path 187" d="M720.54,785.8a37.089,37.089,0,0,1-3.42,14.15c-.67,1.45,1.48,2.72,2.16,1.26a40.323,40.323,0,0,0,3.76-15.41c.07-1.61-2.43-1.61-2.5,0Z" fill="#292e34"/>
          </g>
        </g>
        <g id="Group_231" data-name="Group 231">
          <g id="Group_230" data-name="Group 230">
            <path id="Path_188" data-name="Path 188" d="M724.2,795.78a36.709,36.709,0,0,1-3.74,11.2c-.75,1.42,1.41,2.69,2.16,1.26a38.824,38.824,0,0,0,3.99-11.8c.26-1.57-2.15-2.25-2.41-.66Z" fill="#292e34"/>
          </g>
        </g>
        <g id="Group_233" data-name="Group 233">
          <g id="Group_232" data-name="Group 232">
            <path id="Path_189" data-name="Path 189" d="M727.1,805.38q-1.395,4.725-2.8,9.44a1.25,1.25,0,0,0,2.41.66q1.395-4.725,2.8-9.44a1.25,1.25,0,0,0-2.41-.66Z" fill="#292e34"/>
          </g>
        </g>
      </g>
      <g id="Group_255" data-name="Group 255">
        <g id="Group_236" data-name="Group 236">
          <g id="Group_235" data-name="Group 235">
            <path id="Path_190" data-name="Path 190" d="M423.57,902.47c.54,7.86.9,15.74,1.01,23.62.11,7.66.79,16.04-.32,23.64-.83,5.67-3.52,6.1-8.6,8.05-3.28,1.26-6.64,2.31-9.94,3.55-6.5,2.43-11.95,5.81-17.64,9.75a57.479,57.479,0,0,1-36.87,10.15,56.9,56.9,0,0,1-19.81-4.98c-2.88-1.33-6.22-2.36-6.57-5.74-.39-3.83.23-8.14.34-11.99.05-1.61-2.45-1.61-2.5,0l-.21,7.38c-.05,1.76-.93,5.81-.21,7.38.8,1.75,2.81,2.5,4.51,3.43a58.208,58.208,0,0,0,18.84,6.39,59.923,59.923,0,0,0,39.67-7.23c7.78-4.6,14.11-9.62,22.75-12.74,3.86-1.39,7.77-2.64,11.54-4.25,2.12-.9,5.07-1.82,6.33-3.95,1.48-2.5.91-6.38.99-9.14q.225-6.885.22-13.79-.015-14.775-1.06-29.53c-.08-1.6-2.58-1.61-2.47,0Z" fill="#292e34"/>
          </g>
        </g>
        <g id="Group_238" data-name="Group 238">
          <g id="Group_237" data-name="Group 237">
            <path id="Path_191" data-name="Path 191" d="M389.13,882.61c.66,8.75-5.5,15.94-10.74,22.26-5.33,6.42-10.74,12.69-16.67,18.57-12.01,11.91-25.2,22.54-38.12,33.42-1.23,1.04.54,2.8,1.77,1.77,14.28-12.02,28.9-23.74,41.86-37.21a224.055,224.055,0,0,0,16.99-19.81c4.23-5.58,7.97-11.75,7.42-18.99-.13-1.6-2.63-1.62-2.51-.01Z" fill="#292e34"/>
          </g>
        </g>
        <g id="Group_240" data-name="Group 240">
          <g id="Group_239" data-name="Group 239">
            <path id="Path_192" data-name="Path 192" d="M390.85,883.93a55.376,55.376,0,0,1,10.3-.54c2.34.11,4.7.1,6.64,1.62,2.33,1.82,2.77,3.92,2.94,6.89.3,5.2.18,10.16,1.59,15.24,2.44,8.83,10.43-1.82,13.33-4.82,1.12-1.16-.65-2.93-1.77-1.77-1.67,1.72-4.08,5.35-6.23,6.44-3.83,1.92-3.71-3.95-4.03-6.44-.55-4.28.67-9.6-.81-13.66-2.99-8.25-16.06-6.33-22.63-5.39-1.58.25-.9,2.66.67,2.43Z" fill="#292e34"/>
          </g>
        </g>
        <g id="Group_242" data-name="Group 242">
          <g id="Group_241" data-name="Group 241">
            <path id="Path_193" data-name="Path 193" d="M425.14,944.93c-9.37,4.39-18.78,8.81-28.67,11.92-4.61,1.45-9.36,2.29-14,3.62-4.15,1.19-7.75,3.26-11.61,5.13-14.31,6.93-33.85,2.9-45.32-7.85-1.17-1.1-2.94.66-1.77,1.77,10.75,10.07,28.66,14.84,42.88,10.5,4.19-1.28,7.8-3.74,11.78-5.48,5.38-2.35,11.33-3.08,16.93-4.74,10.74-3.19,20.91-7.97,31.03-12.71,1.46-.68.2-2.84-1.25-2.16Z" fill="#292e34"/>
          </g>
        </g>
        <g id="Group_244" data-name="Group 244">
          <g id="Group_243" data-name="Group 243">
            <path id="Path_194" data-name="Path 194" d="M425.42,903.44c3.61-10.59,7.52-20.79,13.88-30.07.91-1.33-1.25-2.58-2.16-1.26-6.5,9.47-10.46,19.87-14.14,30.67-.51,1.52,1.9,2.18,2.42.66Z" fill="#292e34"/>
          </g>
        </g>
        <g id="Group_246" data-name="Group 246">
          <g id="Group_245" data-name="Group 245">
            <path id="Path_195" data-name="Path 195" d="M363.32,934.83a39.261,39.261,0,0,1,9.24,3.5c1.58.86,4.01,3.43,5.87,3.19.49-.06,1.13-.34,1.21-.92a1.5,1.5,0,0,0-.46-1.56,1.275,1.275,0,0,0-1.51-.2l-.12.09c-1.27.96-.03,3.13,1.26,2.16l.12-.09c-.5-.07-1.01-.13-1.51-.2.06.05.11.1.17.15-.11-.41-.21-.81-.32-1.22-.01.07-.02.13-.03.2.4-.31.8-.61,1.21-.92-.66.09-2.26-1.47-2.92-1.88a37.716,37.716,0,0,0-3.87-2.06,42.085,42.085,0,0,0-7.66-2.66c-1.58-.38-2.24,2.03-.68,2.42Z" fill="#292e34"/>
          </g>
        </g>
        <g id="Group_248" data-name="Group 248">
          <g id="Group_247" data-name="Group 247">
            <path id="Path_196" data-name="Path 196" d="M369.33,929.53c5.29,2.61,10.55,5.3,14.62,9.68,1.04,1.12,2.49-.3,1.96-1.51-.11-.26-.23-.52-.34-.78-.64-1.47-2.79-.2-2.16,1.26.11.26.23.52.34.78l1.96-1.51c-4.21-4.53-9.64-7.36-15.12-10.07-1.43-.72-2.7,1.44-1.26,2.15Z" fill="#292e34"/>
          </g>
        </g>
        <g id="Group_250" data-name="Group 250">
          <g id="Group_249" data-name="Group 249">
            <path id="Path_197" data-name="Path 197" d="M376.22,921.21a42.6,42.6,0,0,1,16.13,8.01c1,.8,2.9-.29,1.96-1.51-.17-.22-.34-.44-.5-.66-.96-1.26-3.14-.02-2.16,1.26.17.22.34.44.5.66l1.96-1.51a45.584,45.584,0,0,0-17.23-8.66,1.25,1.25,0,0,0-.66,2.41Z" fill="#292e34"/>
          </g>
        </g>
        <g id="Group_252" data-name="Group 252">
          <g id="Group_251" data-name="Group 251">
            <path id="Path_198" data-name="Path 198" d="M383.05,912.82a109.93,109.93,0,0,1,15.36,8.22c1.36.87,2.61-1.29,1.26-2.16a109.432,109.432,0,0,0-15.36-8.22c-1.46-.64-2.73,1.51-1.26,2.16Z" fill="#292e34"/>
          </g>
        </g>
        <g id="Group_254" data-name="Group 254">
          <g id="Group_253" data-name="Group 253">
            <path id="Path_199" data-name="Path 199" d="M388.67,904.94c2.25,1.03,4.49,2.06,6.74,3.09.96.44,1.92.88,2.89,1.33.64.29,1.28.59,1.92.88.78.74,1.31.58,1.59-.47-1.57.33-.91,2.74.66,2.41,2.03-.43,1.54-2.62.21-3.52-1.74-1.18-4.1-1.9-6.01-2.78-2.25-1.03-4.49-2.06-6.74-3.09-1.45-.68-2.72,1.47-1.26,2.15Z" fill="#292e34"/>
          </g>
        </g>
      </g>
      <g id="Group_257" data-name="Group 257">
        <g id="Group_256" data-name="Group 256">
          <path id="Path_200" data-name="Path 200" d="M396.54,880.84a179.281,179.281,0,0,0,5.49-17.26,1.412,1.412,0,0,0-2.72-.75,179.289,179.289,0,0,1-5.49,17.26c-.65,1.7,2.07,2.43,2.72.75Z" fill="#292e34"/>
        </g>
      </g>
      <g id="Group_259" data-name="Group 259">
        <g id="Group_258" data-name="Group 258">
          <path id="Path_201" data-name="Path 201" d="M680.55,768.59a6.327,6.327,0,0,0,3.03-.11c.27-.1-.26.02.01.02a15.655,15.655,0,0,1,1.93.14c1.6.18,1.58-2.33,0-2.5a6.327,6.327,0,0,0-3.03.11c-.27.1.26-.02-.01-.02a15.655,15.655,0,0,1-1.93-.14c-1.59-.18-1.58,2.32,0,2.5Z" fill="#292e34"/>
        </g>
      </g>
      <g id="Group_261" data-name="Group 261">
        <g id="Group_260" data-name="Group 260">
          <path id="Path_202" data-name="Path 202" d="M690.42,737.28a139.1,139.1,0,0,0,24.56,3.16c1.61.07,1.61-2.43,0-2.5a136.312,136.312,0,0,1-23.89-3.07c-1.57-.35-2.24,2.06-.67,2.41Z" fill="#292e34"/>
        </g>
      </g>
      <g id="Group_263" data-name="Group 263">
        <g id="Group_262" data-name="Group 262">
          <path id="Path_203" data-name="Path 203" d="M527.83,236.24c.04,5.7.51,11.37,1.02,17.04.14,1.59,2.65,1.6,2.5,0-.52-5.68-.99-11.34-1.02-17.04a1.251,1.251,0,0,0-2.5,0Z" fill="#292e34"/>
        </g>
      </g>
      <g id="Group_265" data-name="Group 265">
        <g id="Group_264" data-name="Group 264">
          <path id="Path_204" data-name="Path 204" d="M530.61,245.01c2.26-.46,4.58,1.03,6.88.98a1.251,1.251,0,0,0,0-2.5c-2.61.06-4.88-1.43-7.54-.89-1.58.32-.91,2.73.66,2.41Z" fill="#292e34"/>
        </g>
      </g>
      <g id="Group_267" data-name="Group 267">
        <g id="Group_266" data-name="Group 266">
          <path id="Path_205" data-name="Path 205" d="M552.04,678.62a47.719,47.719,0,0,0-17.11,13.66c-.98,1.25.77,3.03,1.77,1.77a46.134,46.134,0,0,1,16.6-13.27c1.45-.69.18-2.85-1.26-2.16Z" fill="#292e34"/>
        </g>
      </g>
      <g id="Group_269" data-name="Group 269">
        <g id="Group_268" data-name="Group 268">
          <path id="Path_206" data-name="Path 206" d="M552.33,681.74a62.48,62.48,0,0,0-5.08,9.56c-.62,1.49-1.19,2.99-1.69,4.53-.26.81-.89,4.2-1.23,4.4.5.07,1.01.13,1.51.2.08.27.16.54.25.82-.51.29-1.03.58-1.54.87a.771.771,0,0,0,.15.02c1.57.24,2.25-2.16.66-2.41a.771.771,0,0,0-.15-.02,1.294,1.294,0,0,0-1.54.87,1.5,1.5,0,0,0,.4,1.62,1.273,1.273,0,0,0,1.51.2c1.98-1.18,2.1-5.16,2.81-7.15a59.284,59.284,0,0,1,6.08-12.22c.89-1.38-1.28-2.64-2.14-1.29Z" fill="#292e34"/>
        </g>
      </g>
      <g id="Group_284" data-name="Group 284">
        <g id="Group_271" data-name="Group 271">
          <g id="Group_270" data-name="Group 270">
            <path id="Path_207" data-name="Path 207" d="M740.14,329.74c6.21-3.76,13.34-6.98,17.19-13.43,3.57-5.97,6.29-10.9,11.68-15.52,4.66-4,9.19-7.91,12.8-12.93.66-.92,1.29-1.85,1.89-2.81q1.425-4.1,4.89,1.13c.78,2.94-.79,6.22-2.08,8.71a65.4,65.4,0,0,1-8.92,12.72c-1.05,1.21.71,2.99,1.77,1.77,4.54-5.23,21.16-27.32,5.12-29.41a1.207,1.207,0,0,0-1.08.62,55.506,55.506,0,0,1-11.15,14.12c-3.19,2.89-6.7,5.45-9.64,8.6-3.29,3.53-4.97,7.67-7.44,11.73-3.64,5.96-10.5,9.02-16.29,12.53a1.255,1.255,0,0,0,1.26,2.17Z" fill="#292e34"/>
          </g>
        </g>
        <g id="Group_273" data-name="Group 273">
          <g id="Group_272" data-name="Group 272">
            <path id="Path_208" data-name="Path 208" d="M786.65,311.65a61.554,61.554,0,0,0-13.55,9.17c-1.87,1.68-4.72,4.45-2.82,7.16,2.22,3.16,8.47.54,11.19-.44a38.082,38.082,0,0,0,12.81-7.93c1.19-1.09-.58-2.86-1.77-1.77a35.986,35.986,0,0,1-8.01,5.67,33.337,33.337,0,0,1-5.07,2.08c-2.06.66-3.79,1.71-5.3-.12s-.39-1.92,1.28-3.37a54.758,54.758,0,0,1,4.33-3.43,61.612,61.612,0,0,1,8.16-4.86c1.45-.72.19-2.88-1.25-2.16Z" fill="#292e34"/>
          </g>
        </g>
        <g id="Group_275" data-name="Group 275">
          <g id="Group_274" data-name="Group 274">
            <path id="Path_209" data-name="Path 209" d="M775.85,328.58c-1.69,1.66-3.72,4.47-1.43,6.57,2.48,2.28,8.9.12,11.77-.54,7.26-1.69,18.31-4.55,16.05-14.2-.37-1.57-2.78-.9-2.41.66,1.59,6.78-6.01,8.78-10.93,10.23-1.67.49-3.37.92-5.08,1.27-.93.19-10.91,2.39-6.2-2.23,1.15-1.12-.62-2.89-1.77-1.76Z" fill="#292e34"/>
          </g>
        </g>
        <g id="Group_277" data-name="Group 277">
          <g id="Group_276" data-name="Group 276">
            <path id="Path_210" data-name="Path 210" d="M781.92,310.26c2.67-.71,5.16-1.86,7.79-2.67,2.7-.83,8.2-1.28,9.42,2.39,1.17,3.51-2.41,7.46.72,10.68,1.12,1.16,2.89-.61,1.77-1.77-1.88-1.94.38-6.22.08-8.62a5.635,5.635,0,0,0-3.72-4.72c-5.96-2.64-10.95.76-16.73,2.29a1.256,1.256,0,0,0,.67,2.42Z" fill="#292e34"/>
          </g>
        </g>
        <g id="Group_279" data-name="Group 279">
          <g id="Group_278" data-name="Group 278">
            <path id="Path_211" data-name="Path 211" d="M799.32,330.52c2.66,3.56-1.29,6.81-4.56,7.79a60.455,60.455,0,0,1-7.32,1.36c-2.3.38-7.57,2.19-7.96-1.02a15.373,15.373,0,0,1,.49-2.96c.16-1.6-2.34-1.59-2.5,0-.21,2.07-1.22,4.31.45,6.09,2.51,2.67,7.98.67,10.92.18,4.1-.69,9.26-1.01,12.16-4.45a6.579,6.579,0,0,0,.47-8.25c-.95-1.28-3.12-.03-2.15,1.26Z" fill="#292e34"/>
          </g>
        </g>
        <g id="Group_281" data-name="Group 281">
          <g id="Group_280" data-name="Group 280">
            <path id="Path_212" data-name="Path 212" d="M797.78,340.26c.58,5.02-5.8,6.31-9.6,6.66-1.03.1-2.07.08-3.1.09-.86,0-1.72,0-2.58.02-1.96-.23-2.05-1.46-.26-3.67,1.57-.33.91-2.75-.66-2.41-2.55.54-4.36,2.7-3.47,5.43.86,2.61,3.37,3.12,5.77,3.13,5.86.02,17.39-.82,16.41-9.25-.19-1.58-2.69-1.6-2.51,0Z" fill="#292e34"/>
          </g>
        </g>
        <g id="Group_283" data-name="Group 283">
          <g id="Group_282" data-name="Group 282">
            <path id="Path_213" data-name="Path 213" d="M780.4,347.04c-6.78,2.93-14.07.88-20.98,2.7a1.25,1.25,0,0,0,.66,2.41c7.15-1.89,14.52.1,21.58-2.95,1.47-.63.2-2.79-1.26-2.16Z" fill="#292e34"/>
          </g>
        </g>
      </g>
      <g id="Group_286" data-name="Group 286">
        <g id="Group_285" data-name="Group 285">
          <path id="Path_214" data-name="Path 214" d="M739.3,327.07c-23.58,6.51-49.41,9.49-71.32,20.89-1.43.74-.17,2.9,1.26,2.16,21.69-11.28,47.38-14.2,70.73-20.64a1.252,1.252,0,0,0-.67-2.41Z" fill="#292e34"/>
        </g>
      </g>
      <g id="Group_288" data-name="Group 288">
        <g id="Group_287" data-name="Group 287">
          <path id="Path_215" data-name="Path 215" d="M641.65,323.95c9.01,8.44,17.71,17.19,26.7,25.66,1.17,1.1,2.94-.66,1.77-1.77-8.99-8.46-17.69-17.21-26.7-25.66-1.18-1.09-2.95.67-1.77,1.77Z" fill="#292e34"/>
        </g>
      </g>
      <g id="Group_290" data-name="Group 290">
        <g id="Group_289" data-name="Group 289">
          <path id="Path_216" data-name="Path 216" d="M759.25,349.78c-12.81,5.17-24.91,12.03-37.15,18.4-13.06,6.8-25.79,12.51-40.15,15.99-3.31.8-6.88,1.3-10.05,2.57-3.98,1.59-7.24,5.41-11.8,3.44-2.75-1.19-5.27-3.09-8.03-4.37-3.26-1.51-6.46-3.13-9.58-4.91-12.31-7.05-22.15-16.86-31.48-27.41-1.07-1.21-2.83.57-1.77,1.77,9.47,10.71,19.5,20.65,31.99,27.8,3.6,2.06,7.32,3.87,11.09,5.6,2.63,1.21,4.93,3.14,7.59,4.22,5.63,2.29,11.23-3.55,16.51-4.82,7.98-1.91,16.08-3.62,23.74-6.63,6.07-2.38,11.93-5.31,17.74-8.27,13.92-7.09,27.52-15.11,42.03-20.97,1.46-.6.82-3.02-.68-2.41Z" fill="#292e34"/>
        </g>
      </g>
      <g id="Group_312" data-name="Group 312">
        <g id="Group_305" data-name="Group 305">
          <g id="Group_292" data-name="Group 292">
            <g id="Group_291" data-name="Group 291">
              <path id="Path_217" data-name="Path 217" d="M323.79,403.12c-6.75-.43-14.27.04-20.22-3.58-4.06-2.47-7.49-5.34-12.04-6.94-4.07-1.43-8.36-2.08-12.53-3.16a55.731,55.731,0,0,1-16.41-7.36,1.214,1.214,0,0,0-1.26,0c-13.36,9.35,12.22,21.31,18.24,23.68,1.5.59,2.15-1.83.66-2.41a65.9,65.9,0,0,1-13.79-7.16c-2.21-1.55-4.92-3.32-5.45-6.17q-1.635-2.82,1.91-4.76c1,.63,2.01,1.22,3.05,1.78,5.77,3.12,11.9,4.72,18.25,6.16a54.762,54.762,0,0,1,7.75,2.2c3.87,1.53,6.85,4.14,10.35,6.29,6.39,3.93,14.25,3.47,21.48,3.93,1.61.1,1.61-2.4.01-2.5Z" fill="#292e34"/>
            </g>
          </g>
          <g id="Group_294" data-name="Group 294">
            <g id="Group_293" data-name="Group 293">
              <path id="Path_218" data-name="Path 218" d="M274.06,413.63a60.561,60.561,0,0,1,10.16.64c1.56.24,10.57,1,6.7,4.96-1.57,1.61-6.65,1.35-8.74,1.41a36.405,36.405,0,0,1-10.43-1.31,1.25,1.25,0,0,0-.66,2.41,37.863,37.863,0,0,0,15.6.99c2.68-.41,8.53-.94,9.41-4.26,2-7.62-18.05-7.38-22.03-7.34a1.251,1.251,0,0,0-.01,2.5Z" fill="#292e34"/>
            </g>
          </g>
          <g id="Group_296" data-name="Group 296">
            <g id="Group_295" data-name="Group 295">
              <path id="Path_219" data-name="Path 219" d="M290.83,423.53q1.995,3.48-1.25,3.78c-.55.19-1.1.37-1.65.56a59.713,59.713,0,0,1-5.91,1.56c-5.01,1.06-13.45,2.99-15.22-3.91a1.25,1.25,0,0,0-2.41.66c2.52,9.86,14.42,6.83,21.69,4.84,2.7-.74,8.69-1.64,9.78-4.76,1.03-2.94-2.12-4.46-4.36-5.14a1.251,1.251,0,0,0-.67,2.41Z" fill="#292e34"/>
            </g>
          </g>
          <g id="Group_298" data-name="Group 298">
            <g id="Group_297" data-name="Group 297">
              <path id="Path_220" data-name="Path 220" d="M277.08,405.28c-5.9,1.34-12.38.58-16.19,6.19a5.528,5.528,0,0,0-.87,5.03c.77,2.5,5,5.28,4.18,8.04a1.25,1.25,0,0,0,2.41.66c1.33-4.47-4.53-6.51-4.41-10.43.11-3.47,4.78-5.34,7.41-5.83,2.71-.51,5.44-.63,8.14-1.24,1.56-.36.9-2.78-.67-2.42Z" fill="#292e34"/>
            </g>
          </g>
          <g id="Group_300" data-name="Group 300">
            <g id="Group_299" data-name="Group 299">
              <path id="Path_221" data-name="Path 221" d="M269.18,433.32a6.611,6.611,0,0,0,3.8,7.19c4.03,1.91,8.68-.02,12.58-1.29,2.88-.94,8.67-1.68,10.06-4.97,1.05-2.49-.98-4.25-2.26-6.12-.91-1.32-3.07-.07-2.16,1.26.47.69,1.69,1.72,1.86,2.43.64,2.71-5.01,3.95-6.73,4.51-3.57,1.17-15.88,5.72-14.74-2.35.22-1.57-2.19-2.25-2.41-.66Z" fill="#292e34"/>
            </g>
          </g>
          <g id="Group_302" data-name="Group 302">
            <g id="Group_301" data-name="Group 301">
              <path id="Path_222" data-name="Path 222" d="M275.19,442.55c2.77,7.81,12.86,3.97,18.14,1.26,2.34-1.2,4.99-2.72,4.46-5.85a4.16,4.16,0,0,0-5.66-3.2c-1.52.51-.87,2.92.66,2.41,2.14,2.11,2.23,3.43.24,3.97-.32.17-.64.34-.97.5a35.354,35.354,0,0,1-3.23,1.54c-3.28,1.29-9.61,3.27-11.24-1.3-.52-1.5-2.94-.85-2.4.67Z" fill="#292e34"/>
            </g>
          </g>
          <g id="Group_304" data-name="Group 304">
            <g id="Group_303" data-name="Group 303">
              <path id="Path_223" data-name="Path 223" d="M295.99,442.1c7.67-.56,13.28-5.75,20.5-7.39,1.57-.36.9-2.77-.66-2.41-6.96,1.58-12.46,6.76-19.84,7.3-1.59.12-1.61,2.62,0,2.5Z" fill="#292e34"/>
            </g>
          </g>
        </g>
        <g id="Group_307" data-name="Group 307">
          <g id="Group_306" data-name="Group 306">
            <path id="Path_224" data-name="Path 224" d="M323.83,405.3c23.68-5.1,47.79-14.39,72.24-14.43a1.251,1.251,0,0,0,0-2.5c-24.69.05-48.99,9.37-72.9,14.52-1.58.33-.91,2.74.66,2.41Z" fill="#292e34"/>
          </g>
        </g>
        <g id="Group_309" data-name="Group 309">
          <g id="Group_308" data-name="Group 308">
            <path id="Path_225" data-name="Path 225" d="M409.38,340.74c-5.49,16.05-9.64,32.53-15.22,48.56-.53,1.52,1.88,2.18,2.41.66,5.57-16.03,9.73-32.51,15.22-48.56.52-1.53-1.9-2.18-2.41-.66Z" fill="#292e34"/>
          </g>
        </g>
        <g id="Group_311" data-name="Group 311">
          <g id="Group_310" data-name="Group 310">
            <path id="Path_226" data-name="Path 226" d="M316.33,434.71c14.67-1.44,29.51-.8,44.22-.87,7.03-.04,14.09-.1,21.09-.76,8.11-.77,16.01-2.85,23.89-4.84a31.024,31.024,0,0,1,6.76-1.27c2.11-.06,4.23.39,6.35.13a7.527,7.527,0,0,0,5.36-2.57c2.19-2.52,3.71-5.82,5.74-8.5,2.14-2.81,4.22-5.66,6.14-8.64,7.89-12.22,12.22-25.78,15.69-39.8a1.25,1.25,0,0,0-2.41-.66c-3.36,13.55-7.5,26.71-15.04,38.57-2.22,3.49-4.65,6.84-7.2,10.1-1.61,2.05-2.65,4.61-4.3,6.57-3.21,3.8-7.82,1.94-12.09,2.38-3.58.38-7.17,1.66-10.66,2.52-27.56,6.82-55.59,2.39-83.55,5.12-1.58.17-1.6,2.67.01,2.52Z" fill="#292e34"/>
          </g>
        </g>
      </g>
    </g>
  </g>
</svg>
