<svg xmlns="http://www.w3.org/2000/svg" width="623.934" height="813.44" viewBox="0 0 623.934 813.44">
  <g id="payment_process" data-name="payment process" transform="translate(-215.51 -134.477)">
    <g id="background">
      <g id="Group_313" data-name="Group 313">
        <path id="Path_227" data-name="Path 227" d="M583.68,792.25c-10.99-15.95-32-15.26-47.61-44-22.28-41,84.36-131.93-23.53-167,45.29-34.25,50.32-64.82,76.92-108.99,60.86-101.05,193.01-230.4,244.22-163.3,31.9,41.79-77.73,114.35-105.54,159.06-26.5,42.6-43.58,75.68-33.1,95.79,13.17,25.29,29.21-2.35,72.94-19.13,30.09-11.55,35.22,68.56,5.22,114.35s-46.99,58.3-33.63,79.2c11.47,17.93,44.6.8,39.83,36.29-5.11,38.03-74.81,80.46-133.04,85.95-21.13,1.99-47.57-1.99-74.53-10.4C593.76,832.22,592.8,805.49,583.68,792.25Z" fill="#f1f0f0"/>
        <path id="Path_228" data-name="Path 228" d="M361.25,673.9c69.33-31.61,72.76-112.47,138.09-96.39,4.72,1.16,9.11,2.41,13.2,3.74a287.673,287.673,0,0,1-26.53,17.66c-28.8,17.1-53.75,71.35-55.73,100.93-2.18,32.68,5.83,58.09,29.97,84.46,26.36,28.8,69.6,52.66,111.58,65.76-7.83,6.37-18.57,11.62-32.89,14.71C368.74,901.48,289.37,706.67,361.25,673.9Z" fill="#ff3f3f"/>
        <path id="Path_229" data-name="Path 229" d="M430.28,699.84c1.97-29.58,26.93-83.83,55.73-100.93a283.679,283.679,0,0,0,26.53-17.66c107.9,35.06,1.26,126,23.53,167,15.61,28.74,36.62,28.05,47.61,44,9.12,13.24,10.07,39.97-11.84,57.82-41.99-13.1-85.22-36.96-111.58-65.76C436.12,757.93,428.1,732.52,430.28,699.84Z" fill="#f8bab4"/>
      </g>
      <circle id="Ellipse_6" data-name="Ellipse 6" cx="27.02" cy="27.02" r="27.02" transform="translate(715.55 666.04)" fill="none" stroke="#ff3f3f" stroke-miterlimit="10" stroke-width="3.571"/>
    </g>
    <g id="character">
      <path id="Path_230" data-name="Path 230" d="M548.91,240.69s10.08,4.32,17.01,2.19c10.16-3.13,14.86-14,14.86-14l4.78,22.99s-5.11,2.45-14.19,2.28c-11.83-.22-22.15-8.68-22.15-8.68Z" fill="#f8bab4"/>
      <path id="Path_231" data-name="Path 231" d="M282.58,248.9s5.05,16.28,5.05,21.07-2.9,16.02-4.42,17.92-1.89,3.03-1.51,2.78,29.02,3.15,40.75,7.32,26.62,9.08,37.1,8.45,49.71-8.2,49.71-8.2,20.44,6.56,35.2,17.41,20.44,17.54,20.44,17.54l31.67,13.5.76,38.23s23.59,54.89,28.52,63.59,9.08,16.4,13.63,18.8,3.66,4.67,11.86,9.46,10.6,4.92,10.6,4.92l-6.18,11.23s25.11.38,37.98,5.93,20.31,11.86,21.7,11.23,20.95-34.57,25.11-41.01,26.5-47.13,27.81-53.66-2.61-52.55-5.22-66.91-6.62-36.79-17.28-53.75-26.48-20.02-36.33-22.12-21.15-5.17-21.15-5.17-8.56,7.91-19.21,5.97a69.117,69.117,0,0,1-18.24-5.97,357.575,357.575,0,0,0-43.92-7.91c-21.63-2.26-74.27-6.14-85.09-6.62S282.58,248.9,282.58,248.9Z" fill="#ff3f3f"/>
      <g id="Group_314" data-name="Group 314">
        <path id="Path_232" data-name="Path 232" d="M585.48,191.03c1.04-3.11,5.63-11.97,10.42-5.36,1.38,1.9,1.41,4.95,1.39,7.21-.05,5.04-2.25,15.14-9.5,12.76a1.263,1.263,0,0,0-1.54.87c-1.51,10.08-3.47,20.79-10.5,28.64-8,8.94-20.46,10.15-30.18,3.26-16.26-11.53-18.09-34.4-20.03-52.32-.17-1.58-2.67-1.6-2.5,0,2.16,19.97,4.83,47.23,25.75,57.07a24.2,24.2,0,0,0,26.61-4.13c9.01-8.09,11.55-20.43,13.26-31.86-.51.29-1.03.58-1.54.87,10.95,3.59,13.83-12.92,12.18-20.23-.88-3.89-3.43-7.06-7.72-6.6-4.81.52-7.15,5.07-8.51,9.15-.51,1.54,1.9,2.19,2.41.67Z" fill="#292e34"/>
      </g>
      <g id="Group_315" data-name="Group 315">
        <path id="Path_233" data-name="Path 233" d="M555.85,195.45c.34,1.79.67,3.58,1.01,5.37.3,1.58,2.71.91,2.41-.66-.34-1.79-.67-3.58-1.01-5.37-.29-1.59-2.7-.92-2.41.66Z" fill="#292e34"/>
      </g>
      <g id="Group_316" data-name="Group 316">
        <path id="Path_234" data-name="Path 234" d="M533.61,200.69c.29,1.42.52,2.84.67,4.27.16,1.58,2.67,1.6,2.5,0a48.269,48.269,0,0,0-.76-4.94c-.33-1.57-2.74-.9-2.41.67Z" fill="#292e34"/>
      </g>
      <g id="Group_317" data-name="Group 317">
        <path id="Path_235" data-name="Path 235" d="M543.45,198.92a28.861,28.861,0,0,1,1.67,7.05l1.25-1.25c-3.32-.19-5.7,4.07-4.64,6.93,1.17,3.18,4.67,3.87,7.65,3.1a1.25,1.25,0,0,0-.66-2.41,4.6,4.6,0,0,1-3.29-.1c-1.96-1.09-1.7-5.17.95-5.02a1.25,1.25,0,0,0,1.25-1.25,31.948,31.948,0,0,0-1.76-7.71c-.56-1.5-2.98-.86-2.42.66Z" fill="#292e34"/>
      </g>
      <ellipse id="Ellipse_7" data-name="Ellipse 7" cx="4.12" cy="2.7" rx="4.12" ry="2.7" transform="translate(559.984 206.918) rotate(-57.119)" fill="#f8bab4"/>
      <ellipse id="Ellipse_8" data-name="Ellipse 8" cx="2.7" cy="4.12" rx="2.7" ry="4.12" transform="translate(529.504 213.529) rotate(-71.246)" fill="#f8bab4"/>
      <g id="Group_318" data-name="Group 318">
        <path id="Path_236" data-name="Path 236" d="M551.1,223.01a4.283,4.283,0,0,1,.93,2.66c-.01.46-.27.9-.29,1.32.1,0,.2.01.3.01-.09-.12-.17-.24-.26-.35a8.863,8.863,0,0,0-.62-.89c-.33-.49-1.83-2.25-1.52-2.82.27-.5,1.35.25,1.73.51,1.33.92,2.58-1.25,1.26-2.16-1.49-1.03-3.74-1.62-4.99.12-1.51,2.1.52,4.45,1.72,6.15.59.85,1.18,1.82,2.3,1.94a2.407,2.407,0,0,0,2.31-1.39,6.272,6.272,0,0,0-.71-6.36c-.94-1.29-3.11-.05-2.16,1.26Z" fill="#292e34"/>
      </g>
      <g id="Group_319" data-name="Group 319">
        <path id="Path_237" data-name="Path 237" d="M524.13,186.62c14.09,3.07,34.02-1.6,40.13-16.05.62-1.46-1.53-2.74-2.16-1.26-5.67,13.37-24.26,17.75-37.31,14.9-1.56-.34-2.23,2.07-.66,2.41Z" fill="#292e34"/>
      </g>
      <g id="Group_320" data-name="Group 320">
        <path id="Path_238" data-name="Path 238" d="M525.95,259.7c-3.2-15.91-4.37-32.3-5.71-48.45q-.945-11.4-1.77-22.8c-.77-10.38-1.46-21.26,4.17-30.53,11.37-18.69,37.75-24.35,57.69-19,21.46,5.76,37.08,24.08,49.92,41.16,12.01,15.97,23.79,39.37,47.05,38.59-.29-.71-.59-1.42-.88-2.13-5.46,5.53-7.38,13.29-11.38,19.8a62.041,62.041,0,0,1-17.33,18.28c-12.53,8.76-27.51,13.03-42.48,15.19-1.59.23-.91,2.64.66,2.41,15.17-2.19,30.39-6.58,43.08-15.44a65.284,65.284,0,0,0,15.3-14.83c5.4-7.33,7.53-17.18,13.92-23.65a1.26,1.26,0,0,0-.88-2.13c-12.92.43-23.11-7.99-30.71-17.63-6.99-8.86-12.93-18.47-20.05-27.25-13.15-16.21-29.02-32.06-50.39-35.87-18.44-3.29-40.04,1.97-52.42,16.74-12.06,14.4-7.96,34.34-6.6,51.56,1.49,18.86,2.67,38.05,6.41,56.62.31,1.6,2.72.93,2.4-.64Z" fill="#292e34"/>
      </g>
      <g id="Group_321" data-name="Group 321">
        <path id="Path_239" data-name="Path 239" d="M283.41,249.3a108.768,108.768,0,0,0-37.83.47c-8.64,1.6-20.6,4.21-26.33,11.65-3.67,4.77-3.74,12.94-3.74,18.68,0,5.57-.01,14.71,3.17,19.54,1.57,2.38,4.2,3.31,5.82.45,2.86-5.03,1.24-13.47-.36-18.61-.48-1.53-2.89-.88-2.41.66.63,2.02,3.38,16.46-.1,16.26-2.98-.17-3.52-13.79-3.6-16.52-.15-5.35-.06-11.73,2.03-16.73,1.64-3.93,5.64-6.24,9.36-7.97,15.94-7.44,36.22-8.38,53.32-5.47,1.58.27,2.25-2.14.67-2.41Z" fill="#292e34"/>
      </g>
      <g id="Group_322" data-name="Group 322">
        <path id="Path_240" data-name="Path 240" d="M228.84,278.72c.06,5.09,1.06,10.09,1.77,15.12.2,1.43,1.07,4.76-.18,5.44-1.77.97-3.3-1.45-4.16-2.5-1.01-1.25-2.77.53-1.77,1.77,1.7,2.1,7.07,5.92,8.89,1.35.86-2.15-.21-5.62-.54-7.79a97.313,97.313,0,0,1-1.52-13.39,1.246,1.246,0,0,0-2.49,0Z" fill="#292e34"/>
      </g>
      <g id="Group_323" data-name="Group 323">
        <path id="Path_241" data-name="Path 241" d="M248.72,268.48c2.18,1.91-3.15,4.44-4.15,5.22a35.108,35.108,0,0,0-3.72,3.39c-1.53,1.61-3.63,3.7-4.3,5.89-1.25,4.1,1.78,6.6,5.71,6.07,2.5-.33,3.33-1.39,5.37-2.88a36.569,36.569,0,0,1,11.36-5.45c8.65-2.53,17.72-2.4,26.59-1.32,1.59.2,1.58-2.31,0-2.5-12.99-1.59-27.44-1.04-38.58,6.67-1.1.76-2.41,2.14-3.64,2.67-1.88.81-5.16.76-3.93-3.48.89-3.05,6.05-6.69,8.31-8.3,2.62-1.87,6.23-4.71,2.75-7.76-1.21-1.05-2.98.72-1.77,1.78Z" fill="#292e34"/>
      </g>
      <g id="Group_324" data-name="Group 324">
        <path id="Path_242" data-name="Path 242" d="M281.19,249.15c5.04,13.04,9.6,29.56-1.82,40.71.7.41,1.39.81,2.09,1.22-.27,1.34-.95.41-.04.63a8.783,8.783,0,0,0,1.45.03c1.45.05,2.9.22,4.34.38,4.14.45,8.26,1.08,12.37,1.74a237,237,0,0,1,27.15,5.65c12.98,3.72,25.47,8.44,39.21,7.32,14.37-1.18,28.74-4.74,42.91-7.31,1.58-.29.91-2.7-.66-2.41q-11.94,2.175-23.89,4.34c-8.21,1.49-16.52,3.33-24.91,3.09-13.55-.39-26.1-6.25-39.15-9.24-9.54-2.19-19.23-3.88-28.94-5.17-1.58-.21-11.68-2.64-12.26.29a1.262,1.262,0,0,0,2.09,1.22c12.09-11.82,7.85-29.2,2.46-43.14-.56-1.5-2.98-.86-2.4.65Z" fill="#292e34"/>
      </g>
      <g id="Group_325" data-name="Group 325">
        <path id="Path_243" data-name="Path 243" d="M282.11,249.27c10.01,1.45,20.26,1.53,30.35,1.87,17.23.57,34.46.93,51.69,1.39,42.1,1.12,84.27,2.48,126.21,6.49,20.08,1.92,40.27,4.32,59.9,9.1,1.56.38,2.23-2.03.66-2.41-36.89-8.97-75.68-10.98-113.46-12.96-39.23-2.05-78.5-2.72-117.76-3.88-12.24-.36-24.79-.24-36.94-2-1.55-.24-2.23,2.17-.65,2.4Z" fill="#292e34"/>
      </g>
      <g id="Group_326" data-name="Group 326">
        <path id="Path_244" data-name="Path 244" d="M408.76,299.39c13.49,2.77,26.87,11.62,37.91,19.42a108.858,108.858,0,0,1,30.37,31.85c15.68,24.92,26.61,52.61,38.75,79.33,4.9,10.79,9.63,22.31,16.79,31.84.95,1.27,3.13.03,2.16-1.26-6.47-8.63-10.87-18.93-15.34-28.67-6.28-13.68-12.21-27.51-18.54-41.16-11.98-25.85-24.52-52.41-47.59-70.16a168.468,168.468,0,0,0-26.02-16.44c-5.6-2.86-11.61-5.89-17.83-7.16-1.56-.32-2.24,2.09-.66,2.41Z" fill="#292e34"/>
      </g>
      <g id="Group_327" data-name="Group 327">
        <path id="Path_245" data-name="Path 245" d="M220.72,274.14c6.63,1.88,10.95,8.17,14.73,13.5q6.645,9.39,13.28,18.77Q262,325.175,275.29,343.95c.55.78,2.09.86,2.28-.3.21-1.21.41-2.43.62-3.64-.61.25-1.22.5-1.84.75,1.34.63,2.68,1.25,4.01,1.88a1.268,1.268,0,0,0,1.88-1.08c.02-1.86.04-3.71.06-5.57-.53.4-1.05.8-1.58,1.21a13.491,13.491,0,0,1,5.55,2.28,1.262,1.262,0,0,0,1.88-1.08c.07-2.14.71-2.72,2.87-2.67a1.27,1.27,0,0,0,1.25-1.25c.03-1.05.07-2.1.1-3.14l-1.25,1.25c1.01-.08,2.01-.15,3.02-.23,1.59-.12,1.61-2.62,0-2.5-1.01.08-2.01.15-3.02.23a1.277,1.277,0,0,0-1.25,1.25c-.03,1.05-.07,2.1-.1,3.14l1.25-1.25a13.223,13.223,0,0,0-4.34.57,1.3,1.3,0,0,0-.92,1.21c-.04,1.13-.07,2.26-.11,3.39.63-.36,1.25-.72,1.88-1.08a14.421,14.421,0,0,0-6.15-2.53A1.269,1.269,0,0,0,279.8,336c-.02,1.86-.04,3.71-.06,5.57.63-.36,1.25-.72,1.88-1.08-1.34-.63-2.68-1.25-4.01-1.88a1.265,1.265,0,0,0-1.84.75c-.21,1.21-.41,2.43-.62,3.64l2.28-.3q-15.015-21.225-30.02-42.44c-4.41-6.24-8.6-12.72-13.34-18.72-3.35-4.24-7.37-8.3-12.7-9.81a1.249,1.249,0,0,0-.65,2.41Z" fill="#292e34"/>
      </g>
      <g id="Group_328" data-name="Group 328">
        <path id="Path_246" data-name="Path 246" d="M258.93,281.36c12.93,16.47,26.15,32.77,38.18,49.92.92,1.31,3.09.06,2.16-1.26-12.15-17.33-25.5-33.79-38.57-50.43-1-1.27-2.76.51-1.77,1.77Z" fill="#292e34"/>
      </g>
      <g id="Group_329" data-name="Group 329">
        <path id="Path_247" data-name="Path 247" d="M221.6,273.61a92.7,92.7,0,0,1,23.87-10.28,1.25,1.25,0,0,0-.66-2.41,94.873,94.873,0,0,0-24.46,10.53,1.248,1.248,0,0,0,1.25,2.16Z" fill="#292e34"/>
      </g>
      <g id="Group_330" data-name="Group 330">
        <path id="Path_248" data-name="Path 248" d="M271.78,331.14a118.826,118.826,0,0,1,12.86-8.81,1.251,1.251,0,0,0-1.26-2.16,122.21,122.21,0,0,0-13.36,9.2c-1.27,1,.51,2.76,1.76,1.77Z" fill="#292e34"/>
      </g>
      <g id="Group_331" data-name="Group 331">
        <path id="Path_249" data-name="Path 249" d="M267.33,323.46a37.74,37.74,0,0,0,7.62-5.2c1.21-1.06-.56-2.82-1.77-1.77a35.064,35.064,0,0,1-7.12,4.81c-1.43.73-.16,2.89,1.27,2.16Z" fill="#292e34"/>
      </g>
      <g id="Group_332" data-name="Group 332">
        <path id="Path_250" data-name="Path 250" d="M263.22,315.24a20.341,20.341,0,0,0,5.35-4.29c1.07-1.2-.7-2.97-1.77-1.77a18.3,18.3,0,0,1-4.85,3.9,1.254,1.254,0,0,0,1.27,2.16Z" fill="#292e34"/>
      </g>
      <g id="Group_333" data-name="Group 333">
        <path id="Path_251" data-name="Path 251" d="M256.99,306.7c2-1.67,3.99-3.34,5.99-5.01,1.23-1.03-.54-2.79-1.77-1.77-2,1.67-3.99,3.34-5.99,5.01-1.23,1.04.54,2.8,1.77,1.77Z" fill="#292e34"/>
      </g>
      <g id="Group_334" data-name="Group 334">
        <path id="Path_252" data-name="Path 252" d="M250.79,299.61a33.812,33.812,0,0,1,6.17-6.25c1.27-.99-.51-2.75-1.77-1.77a35.306,35.306,0,0,0-6.57,6.75c-.95,1.3,1.22,2.55,2.17,1.27Z" fill="#292e34"/>
      </g>
      <g id="Group_335" data-name="Group 335">
        <path id="Path_253" data-name="Path 253" d="M217.59,298.77a718.978,718.978,0,0,0,12.56,129.19q5.685,29.355,14.05,58.1,4.05,13.92,8.71,27.66c2.67,7.9,5.08,16.73,10.65,23.17,6.45,7.45,16.41,8.9,25.41,5.53,9.51-3.56,16.17-11.68,22.13-19.52l-1.71.45c4.2,1.89,8.17,4.46,12.45,6.17,4.22,1.69,8.98,1.63,13.45,1.75-.4-.53-.8-1.05-1.21-1.58-10.89,29.34-16.77,60.21-20.04,91.26-3.31,31.41-5.08,63.65-3.68,95.22a331.57,331.57,0,0,0,17.05,91.04c9.07,26.91,20.6,54.77,39.59,76.26a179.831,179.831,0,0,0,77.13,51.13c1.53.51,2.19-1.91.66-2.41-26.57-8.77-51.1-24.67-70.61-44.65-20.4-20.9-32.59-47.89-42.32-75.1a329.806,329.806,0,0,1-18.61-89.12c-2.01-30.3-.38-61.25,2.24-91.47,2.99-34.5,8.92-68.94,21-101.5a1.263,1.263,0,0,0-1.21-1.58c-4.33-.11-8.9-.01-12.96-1.74-3.99-1.7-7.71-4.04-11.67-5.83a1.306,1.306,0,0,0-1.71.45c-6.19,8.15-13.36,16.75-23.74,19.35-11.19,2.81-19.74-3.31-24.39-13.17-3.87-8.21-6.39-17.24-9.15-25.88q-3.84-12.015-7.22-24.17a660.336,660.336,0,0,1-20.63-110.13c-2.32-22.88-3.49-45.87-3.72-68.87a1.251,1.251,0,0,0-2.5-.01Z" fill="#292e34"/>
      </g>
      <g id="Group_336" data-name="Group 336">
        <path id="Path_254" data-name="Path 254" d="M234.93,299.13a539.1,539.1,0,0,0,35.35,190.84,432.076,432.076,0,0,0,21.97,48.31c.76,1.42,2.92.16,2.16-1.26-30.37-56.92-47.52-121.1-54.16-185.08a523.069,523.069,0,0,1-2.82-52.8,1.251,1.251,0,0,0-2.5-.01Z" fill="#292e34"/>
      </g>
      <g id="Group_337" data-name="Group 337">
        <path id="Path_255" data-name="Path 255" d="M307.01,525.23c-14.23,28.81-17.26,62.69-19.71,94.28a712.507,712.507,0,0,0-.83,106.06c2.35,32.71,7.94,64.72,17.93,95.98,6.89,21.57,15.65,42.65,29.59,60.69,19.35,25.06,46.55,42.57,74.1,57.39,1.42.76,2.68-1.4,1.26-2.16-24.65-13.26-48.97-28.57-67.62-49.75-15.17-17.24-25.09-37.83-32.47-59.41-21.35-62.39-24.36-128.84-20.46-194.22,1.07-17.95,2.54-35.94,5.28-53.72,2.83-18.38,6.81-37.11,15.1-53.88.7-1.44-1.45-2.71-2.17-1.26Z" fill="#292e34"/>
      </g>
      <g id="Group_338" data-name="Group 338">
        <path id="Path_256" data-name="Path 256" d="M407.07,939.03c33.57,16.96,57.95-28.11,90.04-27.23,6.99.19,5.33,7.5,5.07,12.4a44.9,44.9,0,0,0,.19,9.97c.87,5.15,3.36,10.38,8.37,12.6,6.39,2.82,14.48-.18,20.58-2.37,6.3-2.27,11.83-5.75,17.24-9.65,1.29-.93.05-3.1-1.26-2.16-8.7,6.27-20.45,13.34-31.64,12.77-16.18-.83-9.5-24.54-11.43-34.43a1.216,1.216,0,0,0-.87-.87c-16.35-3.14-30.84,5.36-43.95,14.09-14.71,9.79-33.09,21.82-51.08,12.73-1.43-.73-2.7,1.43-1.26,2.15Z" fill="#292e34"/>
      </g>
      <g id="Group_339" data-name="Group 339">
        <path id="Path_257" data-name="Path 257" d="M549.38,933.66c2.51-5.06-7.54-1.79-8.98-1.46.53.4,1.05.8,1.58,1.21a3.946,3.946,0,0,1,1.42-3.13c.96-.98-.31-2.79-1.51-1.96a11.511,11.511,0,0,1-4.89,1.95c.53.4,1.05.8,1.58,1.21a4.823,4.823,0,0,1,1.39-3.65,1.26,1.26,0,0,0-1.22-2.09,37.012,37.012,0,0,0-5.17,1.65l1.54,1.54a10.031,10.031,0,0,1,2.02-4.55c.54-.7-.09-1.58-.75-1.84a5.414,5.414,0,0,0-4.27.03c-1.47.59-.83,3.01.66,2.41a2.826,2.826,0,0,1,2.94-.03c-.25-.61-.5-1.22-.75-1.84a11.254,11.254,0,0,0-2.27,5.15c-.15.83.56,1.93,1.54,1.54a37.9,37.9,0,0,1,5.17-1.65c-.41-.7-.81-1.39-1.22-2.09a7.555,7.555,0,0,0-2.12,5.42,1.275,1.275,0,0,0,1.58,1.21,13.037,13.037,0,0,0,5.49-2.2c-.5-.65-1.01-1.31-1.51-1.96a7.142,7.142,0,0,0-2.16,4.89,1.27,1.27,0,0,0,1.58,1.21c.41-.09,6.25-1.69,6.41-1.44v-1.26c-.08.16-.16.33-.24.49-.72,1.41,1.44,2.68,2.16,1.24Z" fill="#292e34"/>
      </g>
      <g id="Group_340" data-name="Group 340">
        <path id="Path_258" data-name="Path 258" d="M532.26,920.99c-3.82,3.23-6.71,7.4-11.18,9.83a21.486,21.486,0,0,1-16.02,2.26,1.25,1.25,0,0,0-.66,2.41,23.332,23.332,0,0,0,15.73-1.4c5.79-2.57,9.19-7.35,13.9-11.33,1.22-1.05-.55-2.81-1.77-1.77Z" fill="#292e34"/>
      </g>
      <g id="Group_341" data-name="Group 341">
        <path id="Path_259" data-name="Path 259" d="M517.71,935.87c1.16,1.1,2.33,2.2,3.49,3.29.52.49,1.03.98,1.55,1.46.35.33,1.43,1.05,1.53,1.49.11-.41.21-.81.32-1.22a1.919,1.919,0,0,0-.14.15c.29-.12.59-.24.88-.37a1.476,1.476,0,0,0-.21.01c.36.21.72.41,1.08.62l-.09-.15c-.84-1.37-3-.12-2.16,1.26l.09.15a1.272,1.272,0,0,0,1.08.62,1.51,1.51,0,0,0,1.6-1.41c.04-.97-.81-1.61-1.44-2.2q-2.91-2.745-5.81-5.49c-1.17-1.08-2.94.68-1.77,1.79Z" fill="#292e34"/>
      </g>
      <g id="Group_342" data-name="Group 342">
        <path id="Path_260" data-name="Path 260" d="M514.31,938.12a33.009,33.009,0,0,1,5.95,7.16c.84,1.37,3.01.11,2.16-1.26a35.578,35.578,0,0,0-6.34-7.66c-1.19-1.09-2.97.68-1.77,1.76Z" fill="#292e34"/>
      </g>
      <g id="Group_343" data-name="Group 343">
        <path id="Path_261" data-name="Path 261" d="M428.74,942.64c25.38-2.89,49.38-12.44,74.36-17.31,1.58-.31.91-2.72-.66-2.41-24.75,4.83-48.55,14.35-73.7,17.22-1.58.18-1.6,2.68,0,2.5Z" fill="#292e34"/>
      </g>
      <g id="Group_344" data-name="Group 344">
        <path id="Path_262" data-name="Path 262" d="M306.12,552.6c4.29.39,9.42.67,13.58-.64,1.53-.48.88-2.9-.66-2.41-3.93,1.24-8.85.92-12.91.55-1.61-.15-1.6,2.35-.01,2.5Z" fill="#292e34"/>
      </g>
      <g id="Group_345" data-name="Group 345">
        <path id="Path_263" data-name="Path 263" d="M302.1,569.55c4.37-1.11,9.06-.47,13.44-1.58a1.25,1.25,0,0,0-.66-2.41c-4.37,1.11-9.06.47-13.44,1.58a1.25,1.25,0,0,0,.66,2.41Z" fill="#292e34"/>
      </g>
      <g id="Group_346" data-name="Group 346">
        <path id="Path_264" data-name="Path 264" d="M297.76,592.3q5.61-.615,11.23-1.24c1.58-.17,1.6-2.68,0-2.5q-5.61.615-11.23,1.24c-1.58.17-1.6,2.68,0,2.5Z" fill="#292e34"/>
      </g>
      <g id="Group_347" data-name="Group 347">
        <path id="Path_265" data-name="Path 265" d="M295.48,610.12c4.58-.04,9.15-.54,13.73-.58a1.251,1.251,0,0,0,0-2.5c-4.58.04-9.15.54-13.73.58a1.251,1.251,0,0,0,0,2.5Z" fill="#292e34"/>
      </g>
      <g id="Group_348" data-name="Group 348">
        <path id="Path_266" data-name="Path 266" d="M293.52,628.89c4.58-.04,9.15-.54,13.73-.58a1.251,1.251,0,0,0,0-2.5c-4.58.04-9.15.54-13.73.58a1.251,1.251,0,0,0,0,2.5Z" fill="#292e34"/>
      </g>
      <g id="Group_349" data-name="Group 349">
        <path id="Path_267" data-name="Path 267" d="M293.35,650.72c4.28-.02,9.47-.2,13.46-1.88,1.46-.61.82-3.04-.66-2.41-3.83,1.61-8.69,1.77-12.8,1.79a1.251,1.251,0,0,0,0,2.5Z" fill="#292e34"/>
      </g>
      <g id="Group_350" data-name="Group 350">
        <path id="Path_268" data-name="Path 268" d="M291.63,671.76c4.25-1.52,8.98-1.32,13.23-2.84,1.5-.54.86-2.95-.66-2.41-4.25,1.52-8.98,1.32-13.23,2.84-1.51.54-.86,2.95.66,2.41Z" fill="#292e34"/>
      </g>
      <g id="Group_351" data-name="Group 351">
        <path id="Path_269" data-name="Path 269" d="M292.16,690.3q5.535-1.14,11.06-2.29c1.57-.33.91-2.74-.66-2.41q-5.535,1.14-11.06,2.29c-1.58.32-.91,2.73.66,2.41Z" fill="#292e34"/>
      </g>
      <g id="Group_352" data-name="Group 352">
        <path id="Path_270" data-name="Path 270" d="M292.6,709.32c4.56-.47,9.06-1.39,13.62-1.86,1.58-.16,1.6-2.67,0-2.5-4.56.47-9.06,1.39-13.62,1.86-1.59.17-1.61,2.67,0,2.5Z" fill="#292e34"/>
      </g>
      <g id="Group_353" data-name="Group 353">
        <path id="Path_271" data-name="Path 271" d="M292.74,729.22c4.56-.47,9.06-1.39,13.62-1.86,1.58-.16,1.6-2.67,0-2.5-4.56.47-9.06,1.39-13.62,1.86-1.58.16-1.6,2.66,0,2.5Z" fill="#292e34"/>
      </g>
      <g id="Group_354" data-name="Group 354">
        <path id="Path_272" data-name="Path 272" d="M296.9,753.17c4.42-.4,9.58-1.03,13.56-3.13,1.42-.75.16-2.91-1.26-2.16-3.54,1.86-8.36,2.43-12.29,2.79-1.6.14-1.61,2.64-.01,2.5Z" fill="#292e34"/>
      </g>
      <g id="Group_355" data-name="Group 355">
        <path id="Path_273" data-name="Path 273" d="M300.04,774.53c4.1-1.88,8.83-2.08,12.94-3.96,1.46-.67.19-2.82-1.26-2.16-4.1,1.88-8.83,2.08-12.94,3.96-1.47.67-.2,2.82,1.26,2.16Z" fill="#292e34"/>
      </g>
      <g id="Group_356" data-name="Group 356">
        <path id="Path_274" data-name="Path 274" d="M305.28,795.47q5.415-1.62,10.82-3.23a1.25,1.25,0,0,0-.66-2.41q-5.415,1.62-10.82,3.23a1.25,1.25,0,0,0,.66,2.41Z" fill="#292e34"/>
      </g>
      <g id="Group_357" data-name="Group 357">
        <path id="Path_275" data-name="Path 275" d="M310.07,816.02c4.5-.86,8.91-2.17,13.41-3.03,1.58-.3.91-2.71-.66-2.41-4.5.86-8.91,2.17-13.41,3.03-1.59.3-.92,2.71.66,2.41Z" fill="#292e34"/>
      </g>
      <g id="Group_358" data-name="Group 358">
        <path id="Path_276" data-name="Path 276" d="M316.71,836.51c4.5-.86,8.91-2.17,13.41-3.03,1.58-.3.91-2.71-.66-2.41-4.5.86-8.91,2.17-13.41,3.03-1.58.3-.92,2.71.66,2.41Z" fill="#292e34"/>
      </g>
      <g id="Group_359" data-name="Group 359">
        <path id="Path_277" data-name="Path 277" d="M323.18,852.99c4.5-.86,8.91-2.17,13.41-3.03,1.58-.3.91-2.71-.66-2.41-4.5.86-8.91,2.17-13.41,3.03-1.58.3-.91,2.71.66,2.41Z" fill="#292e34"/>
      </g>
      <g id="Group_360" data-name="Group 360">
        <path id="Path_278" data-name="Path 278" d="M333.19,868.88c4.5-.86,8.91-2.17,13.41-3.03,1.58-.3.91-2.71-.66-2.41-4.5.86-8.91,2.17-13.41,3.03-1.58.3-.92,2.71.66,2.41Z" fill="#292e34"/>
      </g>
      <g id="Group_361" data-name="Group 361">
        <path id="Path_279" data-name="Path 279" d="M345.55,884.18c4.5-.86,8.91-2.17,13.41-3.03,1.58-.3.91-2.71-.66-2.41-4.5.86-8.91,2.17-13.41,3.03-1.58.31-.91,2.72.66,2.41Z" fill="#292e34"/>
      </g>
      <g id="Group_362" data-name="Group 362">
        <path id="Path_280" data-name="Path 280" d="M356.14,897.13c4.5-.86,8.91-2.17,13.41-3.03,1.58-.3.91-2.71-.66-2.41-4.5.86-8.91,2.17-13.41,3.03-1.58.3-.91,2.71.66,2.41Z" fill="#292e34"/>
      </g>
      <g id="Group_363" data-name="Group 363">
        <path id="Path_281" data-name="Path 281" d="M369.68,908.91c4.5-.86,8.91-2.17,13.41-3.03,1.58-.3.91-2.71-.66-2.41-4.5.86-8.91,2.17-13.41,3.03-1.58.3-.91,2.71.66,2.41Z" fill="#292e34"/>
      </g>
      <g id="Group_364" data-name="Group 364">
        <path id="Path_282" data-name="Path 282" d="M386.16,920.68c4.5-.86,8.91-2.17,13.41-3.03,1.58-.3.91-2.71-.66-2.41-4.5.86-8.91,2.17-13.41,3.03-1.58.3-.91,2.71.66,2.41Z" fill="#292e34"/>
      </g>
      <g id="Group_365" data-name="Group 365">
        <path id="Path_283" data-name="Path 283" d="M403.23,930.1c4.5-.86,8.91-2.17,13.41-3.03,1.58-.3.91-2.71-.66-2.41-4.5.86-8.91,2.17-13.41,3.03-1.58.3-.91,2.71.66,2.41Z" fill="#292e34"/>
      </g>
      <g id="Group_366" data-name="Group 366">
        <path id="Path_284" data-name="Path 284" d="M376.04,303.92c-3,18.5-.99,36.53-.67,55.09a1.251,1.251,0,0,0,2.5,0c1.12-8.67,11.28-12.32,18.9-10.47,8.07,1.96,14.14,8.69,19.3,14.76,11.79,13.85,22.73,28.41,34.2,42.52,10.59,13.02,21.96,25.15,33.4,37.4,10.27,11.01,20.63,22.51,28.19,35.61a1.251,1.251,0,0,0,2.16-1.26c-13.89-24.07-35.89-42.5-53.68-63.51-10.61-12.53-20.63-25.54-30.9-38.35-8.2-10.23-16.9-24.08-29.76-28.85-9.75-3.61-22.85.86-24.31,12.15h2.5c-.31-18.32-2.38-36.16.58-54.43.26-1.57-2.15-2.25-2.41-.66Z" fill="#292e34"/>
      </g>
      <g id="Group_367" data-name="Group 367">
        <path id="Path_285" data-name="Path 285" d="M375.46,359.31c.05,6.9,4.34,14.18,7.36,20.14,5.47,10.81,11.63,21.27,17.79,31.7,6.1,10.33,12.34,20.58,18.22,31.03,7.26,12.9,13.54,26.33,20.58,39.34,9.5,17.58,19.88,34.66,32.16,50.45.99,1.27,2.74-.51,1.77-1.77-20.52-26.37-34.32-56.29-50.22-85.44-11.02-20.21-23.64-39.5-34.57-59.76-2.7-5-5.34-10.05-7.57-15.28-1.37-3.23-3-6.85-3.02-10.42a1.251,1.251,0,0,0-2.5.01Z" fill="#292e34"/>
      </g>
      <g id="Group_368" data-name="Group 368">
        <path id="Path_286" data-name="Path 286" d="M390.23,348.43c8.56,22.02,20.85,42.58,33.09,62.71,13.67,22.48,28.09,44.48,41.81,66.93,6.08,9.94,12.07,19.97,17.28,30.4.72,1.44,2.88.17,2.16-1.26-9.92-19.87-22.24-38.56-34.09-57.31-13.99-22.14-28.14-44.22-40.84-67.12a288.3,288.3,0,0,1-17-35.01c-.58-1.49-3-.85-2.41.66Z" fill="#292e34"/>
      </g>
      <g id="Group_369" data-name="Group 369">
        <path id="Path_287" data-name="Path 287" d="M556.8,493.99c2.19-5.74,5.69-11.17,8.68-16.51q7.935-14.16,16.37-28.01c5.73-9.44,11.6-18.83,17.88-27.92,3.66-5.3,7.78-12.73,13.44-16.21,1.37-.84.11-3-1.26-2.16-3.84,2.36-6.69,6.61-9.34,10.14-4.94,6.58-9.46,13.48-13.88,20.41q-14.325,22.455-27.22,45.81c-2.47,4.47-5.25,8.99-7.08,13.78-.57,1.51,1.84,2.16,2.41.67Z" fill="#292e34"/>
      </g>
      <g id="Group_370" data-name="Group 370">
        <path id="Path_288" data-name="Path 288" d="M588.16,268.86c14.62,3.88,31.17,5.37,44.51,12.92,10.5,5.94,15.62,16.83,19.45,27.79,8.17,23.37,11.32,48.65,13.46,73.2.82,9.45,1.49,18.94,1.61,28.43a1.251,1.251,0,0,0,2.5,0,427.654,427.654,0,0,0-6.05-64.29c-2.13-12.84-4.8-25.7-9.1-38-3.44-9.84-7.93-20.2-16.51-26.62-13.71-10.25-33.13-11.57-49.19-15.83a1.248,1.248,0,0,0-.68,2.4Z" fill="#292e34"/>
      </g>
      <g id="Group_371" data-name="Group 371">
        <path id="Path_289" data-name="Path 289" d="M555.91,495.2a144.347,144.347,0,0,1,31.59,3.07,50.143,50.143,0,0,1,14.98,5.83c3.98,2.42,7.22,5.8,11.82,7.03a1.25,1.25,0,0,0,.66-2.41c-5.26-1.42-9.27-5.92-14.09-8.37a55.727,55.727,0,0,0-14.32-4.83,156.681,156.681,0,0,0-30.64-2.81,1.246,1.246,0,0,0,0,2.49Z" fill="#292e34"/>
      </g>
      <g id="Group_372" data-name="Group 372">
        <path id="Path_290" data-name="Path 290" d="M667.18,410.96c.46,4.94-2.78,10.79-4.73,15.1-3.65,8.1-7.83,15.96-12.11,23.74-8.82,16.04-18.2,31.8-27.97,47.28-2.17,3.44-4.41,8.73-7.57,11.42-1.23,1.05.55,2.81,1.77,1.77,2.55-2.17,4.34-6.24,6.1-9q6.72-10.53,13.12-21.26c10.14-16.89,20.29-34.01,28.47-51.95,2.25-4.94,5.92-11.44,5.4-17.09-.13-1.6-2.63-1.61-2.48-.01Z" fill="#292e34"/>
      </g>
      <g id="Group_373" data-name="Group 373">
        <path id="Path_291" data-name="Path 291" d="M643.57,472.47c17.08,3.13,33.87,9.7,49.6,16.91a173.191,173.191,0,0,1,23.2,12.48c4.09,2.69,11.38,6.99,12.98,12.03.91,2.85-.16,7.08-.53,9.93-.87,6.62-2.12,13.19-3.4,19.73-3.34,17.06-7.24,34.02-11.32,50.92-4.36,18.07-8.92,36.12-14.11,53.98.51-.29,1.03-.58,1.54-.87a204.784,204.784,0,0,0-55.47-8.92c-16.26-.33-32.48.61-48.72-.76-1.6-.14-1.59,2.37,0,2.5,15.79,1.33,31.58.49,47.39.73a203.176,203.176,0,0,1,56.13,8.85,1.277,1.277,0,0,0,1.54-.87c9.97-34.33,18.42-69.3,25.33-104.37,1.3-6.6,2.54-13.22,3.45-19.88.47-3.41,1.48-7.7.67-11.13-.99-4.23-5.72-7.76-8.94-10.26a126.86,126.86,0,0,0-21.41-12.86c-17.92-8.93-37.49-16.91-57.26-20.53-1.57-.31-2.25,2.1-.67,2.39Z" fill="#292e34"/>
      </g>
      <g id="Group_374" data-name="Group 374">
        <path id="Path_292" data-name="Path 292" d="M594.45,549.73c11.26,4.59,21.96,10.44,33.22,15.03-.29-.51-.58-1.03-.87-1.54-4.15,14.52-9.8,28.69-15.47,42.67-2.92,7.21-5.92,14.39-9.23,21.43-1.21,2.58-3.17,8.99-5.88,10.46-1.42.76-.16,2.92,1.26,2.16,2.87-1.55,4.56-6.74,5.86-9.42,3.27-6.76,6.19-13.7,9.05-20.65,6.18-15.04,12.34-30.32,16.82-45.98a1.29,1.29,0,0,0-.87-1.54c-11.26-4.59-21.96-10.44-33.22-15.03-1.49-.61-2.14,1.81-.67,2.41Z" fill="#292e34"/>
      </g>
      <g id="Group_375" data-name="Group 375">
        <path id="Path_293" data-name="Path 293" d="M661.48,754.53c1.35,16.46,4.45,32.92,6.88,49.24q5.115,34.38,10.43,68.73c.93,6.03,1.87,12.06,2.78,18.09.24,1.59,2.65.91,2.41-.66-5.7-38-11.75-75.96-17.19-114-1.02-7.1-2.22-14.24-2.81-21.4-.13-1.59-2.63-1.6-2.5,0Z" fill="#292e34"/>
      </g>
      <g id="Group_376" data-name="Group 376">
        <path id="Path_294" data-name="Path 294" d="M469.58,591.53c-9.67,79.25-22.37,158.08-33.33,237.16q-4.74,34.185-8.94,68.45c-.19,1.59,2.31,1.58,2.5,0,9.67-79.25,22.37-158.08,33.33-237.16q4.74-34.185,8.94-68.45c.19-1.59-2.31-1.58-2.5,0Z" fill="#292e34"/>
      </g>
      <g id="Group_377" data-name="Group 377">
        <path id="Path_295" data-name="Path 295" d="M489.35,590.53c-9.76,79.95-21.98,159.57-32.78,239.38q-4.605,34.05-8.79,68.15c-.19,1.59,2.31,1.58,2.5,0,9.76-79.95,21.98-159.57,32.78-239.38q4.605-34.05,8.79-68.15c.2-1.59-2.31-1.58-2.5,0Z" fill="#292e34"/>
      </g>
      <g id="Group_378" data-name="Group 378">
        <path id="Path_296" data-name="Path 296" d="M638.64,755.46q8.5,58.635,17.17,117.23.915,6.105,1.85,12.2c.24,1.53.23,3.53.84,4.98s3.03.82,2.41-.66c-1.66-3.98-1.56-9.66-2.19-13.87q-2.385-15.825-4.7-31.66-5.3-36.03-10.53-72.07-1.215-8.4-2.44-16.8c-.23-1.6-2.64-.92-2.41.65Z" fill="#292e34"/>
      </g>
      <g id="Group_379" data-name="Group 379">
        <path id="Path_297" data-name="Path 297" d="M532.18,462.06a67.122,67.122,0,0,0,26.57,19.11c1.49.6,2.14-1.82.66-2.41a64.677,64.677,0,0,1-25.46-18.47c-1.05-1.23-2.81.54-1.77,1.77Z" fill="#292e34"/>
      </g>
      <g id="Group_380" data-name="Group 380">
        <path id="Path_298" data-name="Path 298" d="M561.94,171.46c4.14,9.72,10.92,18.92,22.01,20.65,1.57.25,2.25-2.16.66-2.41-10.5-1.64-16.62-10.35-20.52-19.51-.62-1.46-2.78-.19-2.15,1.27Z" fill="#292e34"/>
      </g>
      <g id="Group_389" data-name="Group 389">
        <g id="Group_381" data-name="Group 381">
          <path id="Path_299" data-name="Path 299" d="M610.86,639.54c-1.79,8.99-5.77,17.18-9.58,25.45-.67,1.45,1.48,2.72,2.16,1.26,3.9-8.46,8-16.85,9.83-26.05.32-1.57-2.09-2.24-2.41-.66Z" fill="#292e34"/>
        </g>
        <g id="Group_382" data-name="Group 382">
          <path id="Path_300" data-name="Path 300" d="M642.72,640.15c-1.65,5.27-3.41,10.51-5.12,15.76-1.15,3.54-3.44,7.94-3.55,11.72-.05,1.61,2.45,1.61,2.5,0,.1-3.57,2.65-8.57,3.8-12.1,1.59-4.9,3.24-9.79,4.78-14.71.48-1.54-1.93-2.2-2.41-.67Z" fill="#292e34"/>
        </g>
        <g id="Group_388" data-name="Group 388">
          <g id="Group_383" data-name="Group 383">
            <path id="Path_301" data-name="Path 301" d="M638.69,672.45c-1.99-4.27-4.01-10.09-9.81-9.08-3.24.56-5.43,3.39-8.6,4.14-4.49,1.07-9.14-1.45-13.51-2.12-6.37-.97-10.49,1.26-13.13,7.04-3.91,8.56-7.58,17.24-11.37,25.85q-2.94,6.69-5.88,13.37c-1.17,2.67-4.01,6.57-3.68,9.6.21,1.9,1.42,2.42,3.02,3.32a81.2,81.2,0,0,1,12.31,8.81c11.6,9.72,24.15,17.09,38.99,20.61a88.672,88.672,0,0,0,50.19-2.67c1.5-.54.86-2.95-.66-2.41a86.351,86.351,0,0,1-71.86-6.42c-7.49-4.33-13.65-10.23-20.5-15.41a56.946,56.946,0,0,0-4.94-3.4c-.98-.59-1.98-1.14-3.01-1.65a6.853,6.853,0,0,1,.75-5.54c1.46-4.55,3.95-8.99,5.88-13.37q5.88-13.365,11.76-26.74c2.23-5.08,4.16-9.24,10.69-8.67,3.89.34,7.51,2.11,11.41,2.43,3.5.29,5.71-.8,8.7-2.38,3.68-1.95,5.97-3.05,8.77,1.06a34.377,34.377,0,0,1,2.33,4.9c.67,1.45,2.82.18,2.15-1.27Z" fill="#292e34"/>
          </g>
          <g id="Group_384" data-name="Group 384">
            <path id="Path_302" data-name="Path 302" d="M677.88,749.65c-.27-2.71-.54-5.41-.82-8.12a1.263,1.263,0,0,0-1.25-1.25c-7.74.65-15.49,1.24-23.25,1.57-12.48.53-23.8-1.66-35.49-5.87-1.52-.55-2.17,1.87-.66,2.41,11.52,4.15,22.71,6.46,35.01,6.01,8.14-.3,16.28-.94,24.4-1.62l-1.25-1.25c.28,2.71.55,5.41.82,8.12.15,1.58,2.65,1.6,2.49,0Z" fill="#292e34"/>
          </g>
          <g id="Group_385" data-name="Group 385">
            <path id="Path_303" data-name="Path 303" d="M677.66,742.42a21.6,21.6,0,0,0-27.41-21.72c.51.29,1.03.58,1.54.87-4.84-16-9.28-32.2-12.51-48.61-.31-1.58-2.72-.91-2.41.66,3.23,16.41,7.67,32.6,12.51,48.61a1.272,1.272,0,0,0,1.54.87,19.076,19.076,0,0,1,24.24,19.31,1.251,1.251,0,0,0,2.5.01Z" fill="#292e34"/>
          </g>
          <g id="Group_386" data-name="Group 386">
            <path id="Path_304" data-name="Path 304" d="M617.16,736.01c-14.66-5.36-25.28-18.71-40.33-23.02a1.25,1.25,0,0,0-.66,2.41c14.98,4.3,25.68,17.67,40.33,23.02,1.51.56,2.16-1.86.66-2.41Z" fill="#292e34"/>
          </g>
          <g id="Group_387" data-name="Group 387">
            <path id="Path_305" data-name="Path 305" d="M640.62,685.03a58.61,58.61,0,0,0-18.79-1.9,1.258,1.258,0,0,0-.33,2.46,112.218,112.218,0,0,1,15.25,5.68c.21-.78.42-1.55.63-2.33a81.916,81.916,0,0,0-12.62.55c-.73.09-1.52.74-1.21,1.58.65,1.74,1.64,2.25,3.29,3.13,3.6,1.91,7.34,3.62,10.99,5.42l.3-2.28q-6.525,1.065-13.05,2.14a1.255,1.255,0,0,0-.55,2.09c5.41,4.22,12.8,5.27,17.51,10.4.18-.7.37-1.39.55-2.09q-6.375.915-12.76,1.82c-1.29.18-1.09,2.1,0,2.41.62.18,1.25.36,1.88.54a1.25,1.25,0,0,0,.66-2.41c-.62-.18-1.25-.36-1.88-.54v2.41q6.375-.915,12.76-1.82c.99-.14,1.12-1.47.55-2.09-4.8-5.22-12.05-6.15-17.51-10.4-.18.7-.37,1.39-.55,2.09q6.525-1.065,13.05-2.14a1.259,1.259,0,0,0,.3-2.28c-2.25-1.11-4.51-2.22-6.76-3.33-1.54-.76-5.7-1.94-6.37-3.72-.4.53-.8,1.05-1.21,1.58a81.807,81.807,0,0,1,12.62-.55c1.18.04,1.78-1.8.63-2.33a116.174,116.174,0,0,0-15.85-5.93l-.33,2.46a56.474,56.474,0,0,1,18.12,1.81,1.263,1.263,0,0,0,.68-2.43Z" fill="#292e34"/>
          </g>
        </g>
      </g>
      <g id="Group_390" data-name="Group 390">
        <path id="Path_306" data-name="Path 306" d="M658.99,891.32c1.88,3.59,6.84,4.68,10.58,5a22.688,22.688,0,0,0,14.39-3.74c1.35-.87.09-3.04-1.26-2.16a20.515,20.515,0,0,1-10.23,3.46c-3.35.16-9.52-.4-11.32-3.82-.75-1.43-2.9-.17-2.16,1.26Z" fill="#292e34"/>
      </g>
      <g id="Group_391" data-name="Group 391">
        <path id="Path_307" data-name="Path 307" d="M660.27,720.29c-5.38-26.07-11.6-51.96-15.69-78.27-.25-1.58-2.66-.91-2.41.66,4.09,26.31,10.31,52.21,15.69,78.27.32,1.58,2.73.91,2.41-.66Z" fill="#292e34"/>
      </g>
      <g id="Group_392" data-name="Group 392">
        <path id="Path_308" data-name="Path 308" d="M628.6,563.66c6.45-8.67,16.53-13.14,25.47-18.72,1.36-.85.11-3.01-1.26-2.16-9.39,5.85-19.61,10.52-26.37,19.61-.96,1.3,1.21,2.54,2.16,1.27Z" fill="#292e34"/>
      </g>
      <g id="Group_403" data-name="Group 403">
        <g id="Group_393" data-name="Group 393">
          <path id="Path_309" data-name="Path 309" d="M509.81,522.94c-2.5.63-3.09-6.32-3.54-7.91a11.466,11.466,0,0,0-3.79-6.21c-3.89-3.21-10.29-3.13-15.08-2.76-5.05.4-8.45.98-10.43,5.91a60.673,60.673,0,0,0-3.45,15.19c-.19,1.59,2.31,1.58,2.5,0a61.315,61.315,0,0,1,2.96-13.46c1.44-3.93,3.38-4.61,7.3-5.05a35.161,35.161,0,0,1,7.18-.08c3.66.34,7.31.89,9.37,4.35,1.29,2.17,1.45,4.92,2.08,7.31.77,2.91,1.99,6.01,5.56,5.11a1.245,1.245,0,0,0-.66-2.4Z" fill="#292e34"/>
        </g>
        <g id="Group_394" data-name="Group 394">
          <path id="Path_310" data-name="Path 310" d="M500.46,461.83c1.43,10.21,3.99,20.32,6.16,30.39,1.23,5.72,2.47,11.44,3.67,17.18.64,3.05,1.65,6.31,1.78,9.44.07,1.6,2.57,1.61,2.5,0-.36-8.64-3.49-17.77-5.3-26.18-2.24-10.43-4.92-20.91-6.4-31.49-.22-1.59-2.63-.91-2.41.66Z" fill="#292e34"/>
        </g>
        <g id="Group_395" data-name="Group 395">
          <path id="Path_311" data-name="Path 311" d="M511.56,524.33c1.86-2.47,4.35-6.92,7.01-8.5,2.36-1.4,1.48,3.17,1.49,4.84.03,3.29.05,6.59.08,9.88q.15,19.275.31,38.54a1.251,1.251,0,0,0,2.5,0q-.12-13.83-.23-27.67-.045-5.925-.1-11.86c-.04-4.38.62-9.51-.11-13.84-1.64-9.69-10.96,4.47-13.11,7.33-.97,1.31,1.2,2.56,2.16,1.28Z" fill="#292e34"/>
        </g>
        <g id="Group_396" data-name="Group 396">
          <path id="Path_312" data-name="Path 312" d="M520.87,568.49a67.069,67.069,0,0,1-35.08,10.63c-10.56.24-24.77-1.83-28.75-13.38-.52-1.51-2.94-.86-2.41.66,3.79,10.99,15.83,14.66,26.39,15.16a69.735,69.735,0,0,0,41.12-10.92c1.34-.86.08-3.03-1.27-2.15Z" fill="#292e34"/>
        </g>
        <g id="Group_397" data-name="Group 397">
          <path id="Path_313" data-name="Path 313" d="M519.99,558.53c-9.57,7.23-21.79,12.25-33.85,12.79-8.66.38-26.49-2.96-26.55-14.57a1.251,1.251,0,0,0-2.5,0c.05,10.39,13.62,16.11,22.32,16.95,14.63,1.42,30.25-4.27,41.83-13.01,1.28-.96.03-3.13-1.25-2.16Z" fill="#292e34"/>
        </g>
        <g id="Group_398" data-name="Group 398">
          <path id="Path_314" data-name="Path 314" d="M497.96,518.48a83.557,83.557,0,0,1-9.87.62,1.251,1.251,0,0,0,0,2.5,83.423,83.423,0,0,0,9.87-.62c1.58-.2,1.6-2.7,0-2.5Z" fill="#292e34"/>
        </g>
        <g id="Group_399" data-name="Group 399">
          <path id="Path_315" data-name="Path 315" d="M497.95,526.78a32.085,32.085,0,0,1-11.96-.39,1.262,1.262,0,0,0-1.22,2.09c.27.28.54.57.81.85,1.11,1.17,2.88-.6,1.77-1.77-.27-.28-.54-.57-.81-.85-.41.7-.81,1.39-1.22,2.09a35.583,35.583,0,0,0,13.29.39c1.59-.25.92-2.66-.66-2.41Z" fill="#292e34"/>
        </g>
        <g id="Group_400" data-name="Group 400">
          <path id="Path_316" data-name="Path 316" d="M497.61,534.64q-4.41.225-8.81.44c-1.51.08-4.05-.37-5.24.78a1.287,1.287,0,0,0,0,1.77l.13.16a1.254,1.254,0,0,0,1.51.2c.04-.03.09-.06.13-.09,1.34-.88.08-3.05-1.26-2.16-.04.03-.09.06-.13.09.5.07,1.01.13,1.51.2l-.13-.16v1.77a15.935,15.935,0,0,1,2.49.01c1.14-.06,2.29-.11,3.43-.17,2.12-.11,4.24-.21,6.37-.32,1.6-.1,1.61-2.6,0-2.52Z" fill="#292e34"/>
        </g>
        <g id="Group_401" data-name="Group 401">
          <path id="Path_317" data-name="Path 317" d="M495.07,543.04c-4.18.34-10.76.23-14.24-2.33-1.3-.95-2.55,1.21-1.26,2.16,2.14,1.58,5.14,1.94,7.7,2.27a37.737,37.737,0,0,0,7.8.41c1.6-.14,1.61-2.64,0-2.51Z" fill="#292e34"/>
        </g>
        <g id="Group_402" data-name="Group 402">
          <path id="Path_318" data-name="Path 318" d="M473.48,527.12c-.76,4.24-1.13,8.83-3.36,12.63-2.29,3.9-6.42,6.09-9.26,9.52a28.419,28.419,0,0,0-6.41,17.36c-.06,1.61,2.44,1.61,2.5,0,.36-9.25,4.91-15.15,11.51-21.08,5.33-4.79,6.23-11.01,7.44-17.77.27-1.57-2.14-2.24-2.42-.66Z" fill="#292e34"/>
        </g>
      </g>
      <g id="Group_404" data-name="Group 404">
        <path id="Path_319" data-name="Path 319" d="M629.66,565.11c5.39-3.33,11.54-3.85,17.73-4.24,1.6-.1,1.61-2.6,0-2.5-6.61.41-13.23,1.02-18.99,4.58-1.37.85-.12,3.01,1.26,2.16Z" fill="#292e34"/>
      </g>
      <g id="Group_405" data-name="Group 405">
        <path id="Path_320" data-name="Path 320" d="M427.61,898.44c1.06,3.69,6.51,3.46,9.56,3.53,3.82.09,9.15.67,12.06-2.34,1.12-1.16-.65-2.93-1.77-1.77-1.97,2.04-16.53,3.08-17.44-.09a1.252,1.252,0,0,0-2.41.67Z" fill="#292e34"/>
      </g>
      <g id="Group_406" data-name="Group 406">
        <path id="Path_321" data-name="Path 321" d="M470.43,744.54c44.88,1.91,89.83.86,134.71,2.76,1.61.07,1.61-2.43,0-2.5-44.88-1.91-89.83-.86-134.71-2.76-1.61-.06-1.61,2.44,0,2.5Z" fill="#292e34"/>
      </g>
      <g id="Group_407" data-name="Group 407">
        <path id="Path_322" data-name="Path 322" d="M473.18,726.25c37.12,1.61,74.25,2.92,111.36,4.53,1.61.07,1.61-2.43,0-2.5-37.12-1.61-74.25-2.92-111.36-4.53-1.6-.07-1.6,2.43,0,2.5Z" fill="#292e34"/>
      </g>
      <g id="Group_408" data-name="Group 408">
        <path id="Path_323" data-name="Path 323" d="M461.07,592.03q66.615-.57,133.24-1.32c8.32-.11,16.65-.11,24.96-.43,1.6-.06,1.61-2.56,0-2.5-46.62,1.79-93.42,1.18-140.07,1.59q-9.06.075-18.13.16a1.251,1.251,0,0,0,0,2.5Z" fill="#292e34"/>
      </g>
      <g id="Group_409" data-name="Group 409">
        <path id="Path_324" data-name="Path 324" d="M462.63,590.63c-.63-2.37-1.36-5,.17-7.17,1.28-1.81,3.49-3.13,5.2-4.5,1.26-1-.52-2.76-1.77-1.77-2.24,1.79-5.26,3.54-6.35,6.34-.97,2.51-.33,5.25.33,7.75a1.253,1.253,0,0,0,2.42-.65Z" fill="#292e34"/>
      </g>
      <g id="Group_410" data-name="Group 410">
        <path id="Path_325" data-name="Path 325" d="M602.44,507.98c-2.26,4.53-3.24,9.33-4.2,14.27-1.29,6.61-2.74,13.18-4.43,19.7-.8,3.1-1.65,6.2-2.54,9.28-.76,2.63-1.24,6.99-2.82,9.2-1.34,1.87-2.84,2.48-3.16-.67-.14-1.36-.09-2.75-.11-4.11-.08-3.46-.15-6.92-.23-10.38a1.032,1.032,0,0,0-2.02-.27c-2.73,8.33-3.68,17.78-7.83,25.58-.98,1.85-2.58,4.57-3.41,1.26-.45-1.77.07-4.07.3-5.82.94-7,2.28-13.94,3.89-20.82.25-1.09-1.35-1.89-1.88-.79-2.23,4.56-4.46,9.12-6.48,13.78-.74,1.72-1.47,3.46-2.14,5.21-.61,1.57-1.45,6.64-2.62,7.61-1.11.02-2.23.03-3.34.05.14-1.08.27-2.15.41-3.23.17-1.2.38-2.41.58-3.6q.615-3.6,1.35-7.18c1.1-5.37,2.43-10.68,3.91-15.96.37-1.32-1.49-1.73-1.99-.55q-2.67,6.33-5.33,12.67l-2.28,5.43c-.51,1.21-1.01,2.41-1.52,3.62q-5.7.24-4.01-3.52c-.2-3.2,1.95-7.52,2.98-10.52,1.55-4.53,3.4-8.96,5.34-13.34,3.18-7.16,6.18-14.72,10.07-21.53,4.12-7.2,12.16-12.69,19.92-15.26,1.25-.42.72-2.41-.55-1.99-8.87,2.94-17.58,9.25-21.92,17.66a261.991,261.991,0,0,0-14.55,33.05c-1.09,3.1-8.53,21.3.18,21.15,3.32-.06,4.29-4.59,5.29-6.96q4.185-9.96,8.37-19.91c-.66-.18-1.32-.37-1.99-.55a225.778,225.778,0,0,0-5.26,23.14c-.5,2.94-2.9,10.21,1.33,11.75,4.2,1.53,5.22-4.74,6.08-7.27,2.66-7.83,6.32-15.28,9.95-22.7-.63-.26-1.26-.53-1.88-.79-.55,2.34-8.35,33.75-.65,31.22,3.47-1.14,5.12-7.47,6.08-10.41,2.14-6.56,3.44-13.36,5.59-19.92l-2.02-.27c.1,4.4.06,8.82.29,13.21.11,2.2.19,4.73,1.68,6.51,3.06,3.65,4.78-1.53,5.58-4.01q4.14-12.81,7.19-25.95c1.98-8.53,2.65-18.1,6.59-26.01.58-1.2-1.19-2.25-1.79-1.06Z" fill="#292e34"/>
      </g>
      <g id="Group_411" data-name="Group 411">
        <path id="Path_326" data-name="Path 326" d="M522.48,548.19q9.3.285,18.6.56c4.18.13,8.17.48,11.92-1.63a1.251,1.251,0,0,0-1.26-2.16c-4.22,2.37-9.93,1.31-14.58,1.17q-7.35-.225-14.69-.44c-1.6-.05-1.6,2.45.01,2.5Z" fill="#292e34"/>
      </g>
      <g id="Group_412" data-name="Group 412">
        <path id="Path_327" data-name="Path 327" d="M580.65,230.01c1.07,12.71,3.74,25.2,6.14,37.7.3,1.58,2.71.91,2.41-.66-2.36-12.28-5-24.55-6.05-37.04-.13-1.59-2.63-1.61-2.5,0Z" fill="#292e34"/>
      </g>
      <g id="Group_413" data-name="Group 413">
        <path id="Path_328" data-name="Path 328" d="M548.55,243.42q.975,12.075,2.35,24.11c.18,1.58,2.68,1.6,2.5,0q-1.38-12.03-2.35-24.11c-.12-1.6-2.63-1.61-2.5,0Z" fill="#292e34"/>
      </g>
      <g id="Group_414" data-name="Group 414">
        <path id="Path_329" data-name="Path 329" d="M551.43,270.33c5.48,2.96,12.01,3.49,18.15,3.8a31.971,31.971,0,0,0,18.65-4.56,1.251,1.251,0,0,0-1.26-2.16c-9.4,5.65-24.48,6.04-34.27.76-1.43-.76-2.69,1.39-1.27,2.16Z" fill="#292e34"/>
      </g>
      <g id="Group_415" data-name="Group 415">
        <path id="Path_330" data-name="Path 330" d="M232.1,297.5a4.529,4.529,0,0,0,5.66,1.75c2.29-.98,3.34-3.28,3.51-5.65.11-1.61-2.39-1.6-2.5,0a3.919,3.919,0,0,1-1.51,3.09,2.041,2.041,0,0,1-2.99-.45c-.87-1.36-3.04-.1-2.17,1.26Z" fill="#292e34"/>
      </g>
      <g id="Group_416" data-name="Group 416">
        <path id="Path_331" data-name="Path 331" d="M617.61,384.22a2.6,2.6,0,0,0,.68,2.63,7.768,7.768,0,0,0,1.33.77,2.656,2.656,0,0,1,1.64,1.56,2.236,2.236,0,0,0-.22.87,2.085,2.085,0,0,0,1.16,2.13c1.52.95,2.7,1.51,3.33,3.37.51,1.52,2.93.87,2.41-.66a8.016,8.016,0,0,0-1.84-3.15,7.539,7.539,0,0,0-1.45-1.13,4.455,4.455,0,0,0-.81-.42c-.44-.06-.49-.17-.16-.34-.15-1.17.25-1.92-.58-3.02-.31-.41-3.09-1.86-3.07-1.93.37-1.58-2.04-2.25-2.42-.68Z" fill="#292e34"/>
      </g>
      <g id="Group_417" data-name="Group 417">
        <path id="Path_332" data-name="Path 332" d="M601.79,377.61c-.38-.83,2.92-1.07,3.44-1.49.97-.77.8-2.16,1.73-2.82.96-.68,2.24-.04,3.31-.73,1.31-.85,1.75-2.56,3.04-3.52s.03-3.12-1.26-2.16a9.888,9.888,0,0,0-1.93,1.78,7.814,7.814,0,0,1-1.12,1.47c-.6.45-.78.3-1.5.29a3.059,3.059,0,0,0-3.33,2.05c-.1.26-.09.85-.25,1.05-.71.87-.92.21-1.7.38a4.184,4.184,0,0,0-1.83.7,3.354,3.354,0,0,0-.74,4.25c.64,1.47,2.79.2,2.14-1.25Z" fill="#292e34"/>
      </g>
      <g id="Group_418" data-name="Group 418">
        <path id="Path_333" data-name="Path 333" d="M626.24,413.71c-.38-.83,2.92-1.07,3.44-1.49.97-.77.8-2.16,1.73-2.82.96-.68,2.24-.04,3.31-.73,1.31-.85,1.75-2.56,3.04-3.52s.03-3.12-1.26-2.16a9.888,9.888,0,0,0-1.93,1.78,7.814,7.814,0,0,1-1.12,1.47c-.6.45-.78.3-1.5.29a3.059,3.059,0,0,0-3.33,2.05c-.1.26-.09.85-.25,1.05-.71.87-.92.21-1.7.38a4.184,4.184,0,0,0-1.83.7,3.354,3.354,0,0,0-.74,4.25c.64,1.47,2.8.2,2.14-1.25Z" fill="#292e34"/>
      </g>
      <g id="Group_419" data-name="Group 419">
        <path id="Path_334" data-name="Path 334" d="M620.74,358.1c-.58,2.45,1.3,3.07,2.98,4.2,1.04.7.72,1.64,1.2,2.7.55,1.23,2.86,2.73,2.49,4.16a1.25,1.25,0,0,0,2.41.66c.8-3.08-2.25-4.02-2.76-6.66a3.681,3.681,0,0,0-.95-2.27c-.5-.49-3.13-1.43-2.96-2.13.38-1.56-2.04-2.23-2.41-.66Z" fill="#292e34"/>
      </g>
      <g id="Group_420" data-name="Group 420">
        <path id="Path_335" data-name="Path 335" d="M598.9,349.5c-.96-1.9,1.15-3.28,2.76-2.22a1.24,1.24,0,0,0,1.51-.2,2.71,2.71,0,0,0,.75-1.66c.1-1.27-.49-1.74.86-2.45,1.56-.83,3.1-1.58,2.97-3.6-.1-1.6-2.6-1.61-2.5,0,.07,1.09-2.72,1.82-3.36,2.68a2.9,2.9,0,0,0-.55,1.33c-.06.39.28,1.66.06,1.93.5-.07,1.01-.13,1.51-.2a4.286,4.286,0,0,0-6.18,5.64c.74,1.45,2.89.19,2.17-1.25Z" fill="#292e34"/>
      </g>
      <g id="Group_421" data-name="Group 421">
        <path id="Path_336" data-name="Path 336" d="M641.34,380.13c-.38-.83,2.92-1.07,3.44-1.49.97-.77.8-2.16,1.73-2.82.96-.68,2.24-.04,3.31-.73,1.31-.85,1.75-2.56,3.04-3.52s.03-3.12-1.26-2.16a9.888,9.888,0,0,0-1.93,1.78,7.814,7.814,0,0,1-1.12,1.47c-.6.45-.78.3-1.5.29a3.059,3.059,0,0,0-3.33,2.05c-.1.26-.09.85-.25,1.05-.71.87-.92.21-1.7.38a4.184,4.184,0,0,0-1.83.7,3.354,3.354,0,0,0-.74,4.25c.64,1.48,2.8.21,2.14-1.25Z" fill="#292e34"/>
      </g>
      <g id="Group_422" data-name="Group 422">
        <path id="Path_337" data-name="Path 337" d="M638.45,352.03c-.96-1.9,1.15-3.28,2.76-2.22a1.24,1.24,0,0,0,1.51-.2,2.71,2.71,0,0,0,.75-1.66c.1-1.27-.49-1.74.86-2.45,1.56-.83,3.1-1.58,2.97-3.6-.1-1.6-2.6-1.61-2.5,0,.07,1.09-2.72,1.82-3.36,2.68a2.9,2.9,0,0,0-.55,1.33c-.06.39.28,1.66.06,1.93.5-.07,1.01-.13,1.51-.2a4.286,4.286,0,0,0-6.18,5.64c.74,1.45,2.9.18,2.17-1.25Z" fill="#292e34"/>
      </g>
      <g id="Group_423" data-name="Group 423">
        <path id="Path_338" data-name="Path 338" d="M616.26,335.55c.02.5.04.99.06,1.49a1.275,1.275,0,0,0,.92,1.21c.88.21,2.17-.2,2.92.08,1.14.43.71,2.4,1.21,3.33a2.3,2.3,0,0,0,1.71,1.28c.91.14,3.13-1.37,2.98.4-.13,1.6,2.37,1.59,2.5,0a3.247,3.247,0,0,0-1.61-3.1,3.111,3.111,0,0,0-1.71-.4c-.69.05-1.43.75-1.78.04-.24-.49.06-1.47-.12-2.06a2.849,2.849,0,0,0-1.05-1.46c-1.34-.95-2.91-.17-4.38-.52.31.4.61.8.92,1.21-.02-.5-.04-.99-.06-1.49-.08-1.61-2.58-1.62-2.51-.01Z" fill="#292e34"/>
      </g>
      <g id="Group_424" data-name="Group 424">
        <path id="Path_339" data-name="Path 339" d="M639.27,313.91c.02.5.04.99.06,1.49a1.275,1.275,0,0,0,.92,1.21c.88.21,2.17-.2,2.92.08,1.14.43.71,2.4,1.21,3.33a2.3,2.3,0,0,0,1.71,1.28c.91.14,3.13-1.37,2.98.4-.13,1.6,2.37,1.59,2.5,0a3.247,3.247,0,0,0-1.61-3.1,3.111,3.111,0,0,0-1.71-.4c-.69.05-1.43.75-1.78.04-.24-.49.06-1.47-.12-2.06a2.849,2.849,0,0,0-1.05-1.46c-1.34-.95-2.91-.17-4.38-.52.31.4.61.8.92,1.21-.02-.5-.04-.99-.06-1.49-.08-1.61-2.58-1.62-2.51-.01Z" fill="#292e34"/>
      </g>
      <g id="Group_425" data-name="Group 425">
        <path id="Path_340" data-name="Path 340" d="M583.95,319.94c.02.5.04.99.06,1.49a1.275,1.275,0,0,0,.92,1.21c.88.21,2.17-.2,2.92.08,1.14.43.71,2.4,1.21,3.33a2.3,2.3,0,0,0,1.71,1.28c.91.14,3.13-1.37,2.98.4-.13,1.6,2.37,1.59,2.5,0a3.247,3.247,0,0,0-1.61-3.1,3.111,3.111,0,0,0-1.71-.4c-.69.05-1.43.75-1.78.04-.24-.49.06-1.47-.12-2.06a2.849,2.849,0,0,0-1.05-1.46c-1.34-.95-2.91-.17-4.38-.52.31.4.61.8.92,1.21-.02-.5-.04-.99-.06-1.49-.08-1.61-2.58-1.62-2.51-.01Z" fill="#292e34"/>
      </g>
      <g id="Group_426" data-name="Group 426">
        <path id="Path_341" data-name="Path 341" d="M622.1,287.47c.02.5.04.99.06,1.49a1.275,1.275,0,0,0,.92,1.21c.88.21,2.17-.2,2.92.08,1.14.43.71,2.4,1.21,3.33a2.3,2.3,0,0,0,1.71,1.28c.91.14,3.13-1.37,2.98.4-.13,1.6,2.37,1.59,2.5,0a3.247,3.247,0,0,0-1.61-3.1,3.111,3.111,0,0,0-1.71-.4c-.69.05-1.43.75-1.78.04-.24-.49.06-1.47-.12-2.06a2.849,2.849,0,0,0-1.05-1.46c-1.34-.95-2.91-.17-4.38-.52.31.4.61.8.92,1.21-.02-.5-.04-.99-.06-1.49-.08-1.61-2.58-1.62-2.51-.01Z" fill="#292e34"/>
      </g>
      <g id="Group_427" data-name="Group 427">
        <path id="Path_342" data-name="Path 342" d="M589.44,277.2c.02.5.04.99.06,1.49a1.275,1.275,0,0,0,.92,1.21c.88.21,2.17-.2,2.92.08,1.14.43.71,2.4,1.21,3.33a2.3,2.3,0,0,0,1.71,1.28c.91.14,3.13-1.37,2.98.4-.13,1.6,2.37,1.59,2.5,0a3.247,3.247,0,0,0-1.61-3.1,3.111,3.111,0,0,0-1.71-.4c-.69.05-1.43.75-1.78.04-.24-.49.06-1.47-.12-2.06a2.849,2.849,0,0,0-1.05-1.46c-1.34-.95-2.91-.17-4.38-.52.31.4.61.8.92,1.21-.02-.5-.04-.99-.06-1.49-.08-1.61-2.58-1.62-2.51-.01Z" fill="#292e34"/>
      </g>
      <g id="Group_428" data-name="Group 428">
        <path id="Path_343" data-name="Path 343" d="M550.2,306.39c.02.5.04.99.06,1.49a1.275,1.275,0,0,0,.92,1.21c.88.21,2.17-.2,2.92.08,1.14.43.71,2.4,1.21,3.33a2.3,2.3,0,0,0,1.71,1.28c.91.14,3.13-1.37,2.98.4-.13,1.6,2.37,1.59,2.5,0a3.247,3.247,0,0,0-1.61-3.1,3.111,3.111,0,0,0-1.71-.4c-.69.05-1.43.75-1.78.04-.24-.49.06-1.47-.12-2.06a2.849,2.849,0,0,0-1.05-1.46c-1.34-.95-2.91-.17-4.38-.52.31.4.61.8.92,1.21-.02-.5-.04-.99-.06-1.49-.08-1.61-2.58-1.62-2.51-.01Z" fill="#292e34"/>
      </g>
      <g id="Group_429" data-name="Group 429">
        <path id="Path_344" data-name="Path 344" d="M598.97,313.27a2.762,2.762,0,0,1,.94-3.41c.96-.67,1.91-.3,2.97-.41a2.74,2.74,0,0,0,2.59-2.22,13.119,13.119,0,0,0-.03-2.08c.09-1.33.39-1.04,1.58-1.08a2.761,2.761,0,0,0,2.93-2.09c.35-1.57-2.06-2.24-2.41-.66-.1.44-2.34.16-2.79.31a2.527,2.527,0,0,0-1.57,1.41,4.839,4.839,0,0,0-.21,2.39c.12,1.76-.55,1.36-2.03,1.46-3.72.26-5.68,4.44-4.12,7.62.7,1.47,2.86.2,2.15-1.24Z" fill="#292e34"/>
      </g>
      <g id="Group_430" data-name="Group 430">
        <path id="Path_345" data-name="Path 345" d="M570.86,302.57a2.762,2.762,0,0,1,.94-3.41c.96-.67,1.91-.3,2.97-.41a2.74,2.74,0,0,0,2.59-2.22,13.119,13.119,0,0,0-.03-2.08c.09-1.33.39-1.04,1.58-1.08a2.761,2.761,0,0,0,2.93-2.09c.35-1.57-2.06-2.24-2.41-.66-.1.44-2.34.16-2.79.31a2.527,2.527,0,0,0-1.57,1.41,4.839,4.839,0,0,0-.21,2.39c.12,1.76-.55,1.36-2.03,1.46-3.72.26-5.68,4.44-4.12,7.62.7,1.46,2.85.2,2.15-1.24Z" fill="#292e34"/>
      </g>
      <g id="Group_431" data-name="Group 431">
        <path id="Path_346" data-name="Path 346" d="M536.78,301.44a2.762,2.762,0,0,1,.94-3.41c.96-.67,1.91-.3,2.97-.41a2.74,2.74,0,0,0,2.59-2.22,13.119,13.119,0,0,0-.03-2.08c.09-1.33.39-1.04,1.58-1.08a2.761,2.761,0,0,0,2.93-2.09c.35-1.57-2.06-2.24-2.41-.66-.1.44-2.34.16-2.79.31a2.527,2.527,0,0,0-1.57,1.41,4.839,4.839,0,0,0-.21,2.39c.12,1.76-.55,1.36-2.03,1.46-3.72.26-5.68,4.44-4.12,7.62.7,1.47,2.86.2,2.15-1.24Z" fill="#292e34"/>
      </g>
      <g id="Group_432" data-name="Group 432">
        <path id="Path_347" data-name="Path 347" d="M552.12,370.8c.02.5.04.99.06,1.49a1.275,1.275,0,0,0,.92,1.21c.88.21,2.17-.2,2.92.08,1.14.43.71,2.4,1.21,3.33a2.3,2.3,0,0,0,1.71,1.28c.91.14,3.13-1.37,2.98.4-.13,1.6,2.37,1.59,2.5,0a3.247,3.247,0,0,0-1.61-3.1,3.111,3.111,0,0,0-1.71-.4c-.69.05-1.43.75-1.78.04-.24-.49.06-1.47-.12-2.06a2.849,2.849,0,0,0-1.05-1.46c-1.34-.95-2.91-.17-4.38-.52.31.4.61.8.92,1.21-.02-.5-.04-.99-.06-1.49-.08-1.61-2.58-1.62-2.51-.01Z" fill="#292e34"/>
      </g>
      <g id="Group_433" data-name="Group 433">
        <path id="Path_348" data-name="Path 348" d="M558.77,329.51c.02.5.04.99.06,1.49a1.275,1.275,0,0,0,.92,1.21c.88.21,2.17-.2,2.92.08,1.14.43.71,2.4,1.21,3.33a2.3,2.3,0,0,0,1.71,1.28c.91.14,3.13-1.37,2.98.4-.13,1.6,2.37,1.59,2.5,0a3.247,3.247,0,0,0-1.61-3.1,3.111,3.111,0,0,0-1.71-.4c-.69.05-1.43.75-1.78.04-.24-.49.06-1.47-.12-2.06a2.849,2.849,0,0,0-1.05-1.46c-1.34-.95-2.91-.17-4.38-.52.31.4.61.8.92,1.21-.02-.5-.04-.99-.06-1.49-.08-1.61-2.58-1.62-2.51-.01Z" fill="#292e34"/>
      </g>
      <g id="Group_434" data-name="Group 434">
        <path id="Path_349" data-name="Path 349" d="M577.41,370.23c.02.5.04.99.06,1.49a1.275,1.275,0,0,0,.92,1.21c.88.21,2.17-.2,2.92.08,1.14.43.71,2.4,1.21,3.33a2.3,2.3,0,0,0,1.71,1.28c.91.14,3.13-1.37,2.98.4-.13,1.6,2.37,1.59,2.5,0a3.247,3.247,0,0,0-1.61-3.1,3.111,3.111,0,0,0-1.71-.4c-.69.05-1.43.75-1.78.04-.24-.49.06-1.47-.12-2.06a2.849,2.849,0,0,0-1.05-1.46c-1.34-.95-2.91-.17-4.38-.52.31.4.61.8.92,1.21-.02-.5-.04-.99-.06-1.49-.08-1.62-2.58-1.63-2.51-.01Z" fill="#292e34"/>
      </g>
      <g id="Group_435" data-name="Group 435">
        <path id="Path_350" data-name="Path 350" d="M539.13,390.74c.02.5.04.99.06,1.49a1.275,1.275,0,0,0,.92,1.21c.88.21,2.17-.2,2.92.08,1.14.43.71,2.4,1.21,3.33a2.3,2.3,0,0,0,1.71,1.28c.91.14,3.13-1.37,2.98.4-.13,1.6,2.37,1.59,2.5,0a3.247,3.247,0,0,0-1.61-3.1,3.111,3.111,0,0,0-1.71-.4c-.69.05-1.43.75-1.78.04-.24-.49.06-1.47-.12-2.06a2.849,2.849,0,0,0-1.05-1.46c-1.34-.95-2.91-.17-4.38-.52.31.4.61.8.92,1.21-.02-.5-.04-.99-.06-1.49-.08-1.61-2.58-1.62-2.51-.01Z" fill="#292e34"/>
      </g>
      <g id="Group_436" data-name="Group 436">
        <path id="Path_351" data-name="Path 351" d="M513.07,393.83c.02.5.04.99.06,1.49a1.275,1.275,0,0,0,.92,1.21c.88.21,2.17-.2,2.92.08,1.14.43.71,2.4,1.21,3.33a2.3,2.3,0,0,0,1.71,1.28c.91.14,3.13-1.37,2.98.4-.13,1.6,2.37,1.59,2.5,0a3.247,3.247,0,0,0-1.61-3.1,3.111,3.111,0,0,0-1.71-.4c-.69.05-1.43.75-1.78.04-.24-.49.06-1.47-.12-2.06a2.849,2.849,0,0,0-1.05-1.46c-1.34-.95-2.91-.17-4.38-.52.31.4.61.8.92,1.21-.02-.5-.04-.99-.06-1.49-.08-1.62-2.58-1.63-2.51-.01Z" fill="#292e34"/>
      </g>
      <g id="Group_437" data-name="Group 437">
        <path id="Path_352" data-name="Path 352" d="M562.33,359.02a2.762,2.762,0,0,1,.94-3.41c.96-.67,1.91-.3,2.97-.41a2.74,2.74,0,0,0,2.59-2.22,13.119,13.119,0,0,0-.03-2.08c.09-1.33.39-1.04,1.58-1.08a2.761,2.761,0,0,0,2.93-2.09c.35-1.57-2.06-2.24-2.41-.66-.1.44-2.34.16-2.79.31a2.527,2.527,0,0,0-1.57,1.41,4.839,4.839,0,0,0-.21,2.39c.12,1.76-.55,1.36-2.03,1.46-3.72.26-5.68,4.44-4.12,7.62.7,1.46,2.85.2,2.15-1.24Z" fill="#292e34"/>
      </g>
      <g id="Group_438" data-name="Group 438">
        <path id="Path_353" data-name="Path 353" d="M537.62,347.63a2.762,2.762,0,0,1,.94-3.41c.96-.67,1.91-.3,2.97-.41a2.74,2.74,0,0,0,2.59-2.22,13.119,13.119,0,0,0-.03-2.08c.09-1.33.39-1.04,1.58-1.08a2.761,2.761,0,0,0,2.93-2.09c.35-1.57-2.06-2.24-2.41-.66-.1.44-2.34.16-2.79.31a2.527,2.527,0,0,0-1.57,1.41,4.839,4.839,0,0,0-.21,2.39c.12,1.76-.55,1.36-2.03,1.46-3.72.26-5.68,4.44-4.12,7.62.7,1.46,2.86.2,2.15-1.24Z" fill="#292e34"/>
      </g>
      <g id="Group_439" data-name="Group 439">
        <path id="Path_354" data-name="Path 354" d="M534.05,373.14a2.762,2.762,0,0,1,.94-3.41c.96-.67,1.91-.3,2.97-.41a2.74,2.74,0,0,0,2.59-2.22,13.119,13.119,0,0,0-.03-2.08c.09-1.33.39-1.04,1.58-1.08a2.761,2.761,0,0,0,2.93-2.09c.35-1.57-2.06-2.24-2.41-.66-.1.44-2.34.16-2.79.31a2.527,2.527,0,0,0-1.57,1.41,4.839,4.839,0,0,0-.21,2.39c.12,1.76-.55,1.36-2.03,1.46-3.72.26-5.68,4.44-4.12,7.62.7,1.46,2.86.2,2.15-1.24Z" fill="#292e34"/>
      </g>
      <g id="Group_440" data-name="Group 440">
        <path id="Path_355" data-name="Path 355" d="M503.63,347.33c.02.5.04.99.06,1.49a1.275,1.275,0,0,0,.92,1.21c.88.21,2.17-.2,2.92.08,1.14.43.71,2.4,1.21,3.33a2.3,2.3,0,0,0,1.71,1.28c.91.14,3.13-1.37,2.98.4-.13,1.6,2.37,1.59,2.5,0a3.247,3.247,0,0,0-1.61-3.1,3.111,3.111,0,0,0-1.71-.4c-.69.05-1.43.75-1.78.04-.24-.49.06-1.47-.12-2.06a2.849,2.849,0,0,0-1.05-1.46c-1.34-.95-2.91-.17-4.38-.52.31.4.61.8.92,1.21-.02-.5-.04-.99-.06-1.49-.08-1.61-2.58-1.62-2.51-.01Z" fill="#292e34"/>
      </g>
      <g id="Group_441" data-name="Group 441">
        <path id="Path_356" data-name="Path 356" d="M510.28,306.04c.02.5.04.99.06,1.49a1.275,1.275,0,0,0,.92,1.21c.88.21,2.17-.2,2.92.08,1.14.43.71,2.4,1.21,3.33a2.3,2.3,0,0,0,1.71,1.28c.91.14,3.13-1.37,2.98.4-.13,1.6,2.37,1.59,2.5,0a3.247,3.247,0,0,0-1.61-3.1,3.111,3.111,0,0,0-1.71-.4c-.69.05-1.43.75-1.78.04-.24-.49.06-1.47-.12-2.06a2.849,2.849,0,0,0-1.05-1.46c-1.34-.95-2.91-.17-4.38-.52.31.4.61.8.92,1.21-.02-.5-.04-.99-.06-1.49-.08-1.61-2.58-1.62-2.51-.01Z" fill="#292e34"/>
      </g>
      <g id="Group_442" data-name="Group 442">
        <path id="Path_357" data-name="Path 357" d="M513.84,335.55a2.762,2.762,0,0,1,.94-3.41c.96-.67,1.91-.3,2.97-.41a2.74,2.74,0,0,0,2.59-2.22,13.119,13.119,0,0,0-.03-2.08c.09-1.33.39-1.04,1.58-1.08a2.761,2.761,0,0,0,2.93-2.09c.35-1.57-2.06-2.24-2.41-.66-.1.44-2.34.16-2.79.31a2.527,2.527,0,0,0-1.57,1.41,4.839,4.839,0,0,0-.21,2.39c.12,1.76-.55,1.36-2.03,1.46-3.72.26-5.68,4.44-4.12,7.62.7,1.46,2.86.2,2.15-1.24Z" fill="#292e34"/>
      </g>
      <g id="Group_443" data-name="Group 443">
        <path id="Path_358" data-name="Path 358" d="M457.76,305.36c.02.5.04.99.06,1.49a1.275,1.275,0,0,0,.92,1.21c.88.21,2.17-.2,2.92.08,1.14.43.71,2.4,1.21,3.33a2.3,2.3,0,0,0,1.71,1.28c.91.14,3.13-1.37,2.98.4-.13,1.6,2.37,1.59,2.5,0a3.247,3.247,0,0,0-1.61-3.1,3.111,3.111,0,0,0-1.71-.4c-.69.05-1.43.75-1.78.04-.24-.49.06-1.47-.12-2.06a2.849,2.849,0,0,0-1.05-1.46c-1.34-.95-2.91-.17-4.38-.52.31.4.61.8.92,1.21-.02-.5-.04-.99-.06-1.49-.08-1.61-2.58-1.62-2.51-.01Z" fill="#292e34"/>
      </g>
      <g id="Group_444" data-name="Group 444">
        <path id="Path_359" data-name="Path 359" d="M444.34,300.42a2.763,2.763,0,0,1,.94-3.41c.96-.67,1.91-.3,2.97-.41a2.74,2.74,0,0,0,2.59-2.22,13.116,13.116,0,0,0-.03-2.08c.09-1.33.39-1.04,1.58-1.08a2.761,2.761,0,0,0,2.93-2.09c.35-1.57-2.06-2.24-2.41-.66-.1.44-2.34.16-2.79.31a2.527,2.527,0,0,0-1.57,1.41,4.838,4.838,0,0,0-.21,2.39c.12,1.76-.55,1.36-2.03,1.46-3.72.26-5.68,4.44-4.12,7.62.7,1.46,2.86.2,2.15-1.24Z" fill="#292e34"/>
      </g>
      <g id="Group_445" data-name="Group 445">
        <path id="Path_360" data-name="Path 360" d="M512.64,287.69a2.762,2.762,0,0,1,.94-3.41c.96-.67,1.91-.3,2.97-.41a2.74,2.74,0,0,0,2.59-2.22,13.119,13.119,0,0,0-.03-2.08c.09-1.33.39-1.04,1.58-1.08a2.761,2.761,0,0,0,2.93-2.09c.35-1.57-2.06-2.24-2.41-.66-.1.44-2.34.16-2.79.31a2.527,2.527,0,0,0-1.57,1.41,4.839,4.839,0,0,0-.21,2.39c.12,1.76-.55,1.36-2.03,1.46-3.72.26-5.68,4.44-4.12,7.62.7,1.46,2.86.2,2.15-1.24Z" fill="#292e34"/>
      </g>
      <g id="Group_446" data-name="Group 446">
        <path id="Path_361" data-name="Path 361" d="M478.65,287.39c.02.5.04.99.06,1.49a1.275,1.275,0,0,0,.92,1.21c.88.21,2.17-.2,2.92.08,1.14.43.71,2.4,1.21,3.33a2.3,2.3,0,0,0,1.71,1.28c.91.14,3.13-1.37,2.98.4-.13,1.6,2.37,1.59,2.5,0a3.247,3.247,0,0,0-1.61-3.1,3.111,3.111,0,0,0-1.71-.4c-.69.05-1.43.75-1.78.04-.24-.49.06-1.47-.12-2.06a2.849,2.849,0,0,0-1.05-1.46c-1.34-.95-2.91-.17-4.38-.52.31.4.61.8.92,1.21-.02-.5-.04-.99-.06-1.49-.08-1.61-2.58-1.62-2.51-.01Z" fill="#292e34"/>
      </g>
      <g id="Group_447" data-name="Group 447">
        <path id="Path_362" data-name="Path 362" d="M450.47,264.6c.02.5.04.99.06,1.49a1.275,1.275,0,0,0,.92,1.21c.88.21,2.17-.2,2.92.08,1.14.43.71,2.4,1.21,3.33a2.3,2.3,0,0,0,1.71,1.28c.91.14,3.13-1.37,2.98.4-.13,1.6,2.37,1.59,2.5,0a3.247,3.247,0,0,0-1.61-3.1,3.111,3.111,0,0,0-1.71-.4c-.69.05-1.43.75-1.78.04-.24-.49.06-1.47-.12-2.06a2.849,2.849,0,0,0-1.05-1.46c-1.34-.95-2.91-.17-4.38-.52.31.4.61.8.92,1.21-.02-.5-.04-.99-.06-1.49-.08-1.61-2.58-1.62-2.51-.01Z" fill="#292e34"/>
      </g>
      <g id="Group_448" data-name="Group 448">
        <path id="Path_363" data-name="Path 363" d="M488.86,275.61a2.763,2.763,0,0,1,.94-3.41c.96-.67,1.91-.3,2.97-.41a2.74,2.74,0,0,0,2.59-2.22,13.116,13.116,0,0,0-.03-2.08c.09-1.33.39-1.04,1.58-1.08a2.761,2.761,0,0,0,2.93-2.09c.35-1.57-2.06-2.24-2.41-.66-.1.44-2.34.16-2.79.31a2.527,2.527,0,0,0-1.57,1.41,4.838,4.838,0,0,0-.21,2.39c.12,1.76-.55,1.36-2.03,1.46-3.72.26-5.68,4.44-4.12,7.62.7,1.46,2.86.2,2.15-1.24Z" fill="#292e34"/>
      </g>
      <g id="Group_449" data-name="Group 449">
        <path id="Path_364" data-name="Path 364" d="M489.14,324.16a2.763,2.763,0,0,1,.94-3.41c.96-.67,1.91-.3,2.97-.41a2.74,2.74,0,0,0,2.59-2.22,13.116,13.116,0,0,0-.03-2.08c.09-1.33.39-1.04,1.58-1.08a2.761,2.761,0,0,0,2.93-2.09c.35-1.57-2.06-2.24-2.41-.66-.1.44-2.34.16-2.79.31a2.527,2.527,0,0,0-1.57,1.41,4.838,4.838,0,0,0-.21,2.39c.12,1.76-.55,1.36-2.03,1.46-3.72.26-5.68,4.44-4.12,7.62.7,1.47,2.86.2,2.15-1.24Z" fill="#292e34"/>
      </g>
      <g id="Group_450" data-name="Group 450">
        <path id="Path_365" data-name="Path 365" d="M425.77,279.62c.02.5.04.99.06,1.49a1.275,1.275,0,0,0,.92,1.21c.88.21,2.17-.2,2.92.08,1.14.43.71,2.4,1.21,3.33a2.3,2.3,0,0,0,1.71,1.28c.91.14,3.13-1.37,2.98.4-.13,1.6,2.37,1.59,2.5,0a3.247,3.247,0,0,0-1.61-3.1,3.111,3.111,0,0,0-1.71-.4c-.69.05-1.43.75-1.78.04-.24-.49.06-1.47-.12-2.06a2.849,2.849,0,0,0-1.05-1.46c-1.34-.95-2.91-.17-4.38-.52.31.4.61.8.92,1.21-.02-.5-.04-.99-.06-1.49-.08-1.62-2.58-1.62-2.51-.01Z" fill="#292e34"/>
      </g>
      <g id="Group_451" data-name="Group 451">
        <path id="Path_366" data-name="Path 366" d="M370.91,276.27c.02.5.04.99.06,1.49a1.275,1.275,0,0,0,.92,1.21c.88.21,2.17-.2,2.92.08,1.14.43.71,2.4,1.21,3.33a2.3,2.3,0,0,0,1.71,1.28c.91.14,3.13-1.37,2.98.4-.13,1.6,2.37,1.59,2.5,0a3.247,3.247,0,0,0-1.61-3.1,3.111,3.111,0,0,0-1.71-.4c-.69.05-1.43.75-1.78.04-.24-.49.06-1.47-.12-2.06a2.849,2.849,0,0,0-1.05-1.46c-1.34-.95-2.91-.17-4.38-.52.31.4.61.8.92,1.21-.02-.5-.04-.99-.06-1.49-.08-1.62-2.58-1.63-2.51-.01Z" fill="#292e34"/>
      </g>
      <g id="Group_452" data-name="Group 452">
        <path id="Path_367" data-name="Path 367" d="M357.49,271.32a2.763,2.763,0,0,1,.94-3.41c.96-.67,1.91-.3,2.97-.41a2.74,2.74,0,0,0,2.59-2.22,13.116,13.116,0,0,0-.03-2.08c.09-1.33.39-1.04,1.58-1.08a2.761,2.761,0,0,0,2.93-2.09c.35-1.57-2.06-2.24-2.41-.66-.1.44-2.34.16-2.79.31a2.527,2.527,0,0,0-1.57,1.41,4.838,4.838,0,0,0-.21,2.39c.12,1.76-.55,1.36-2.03,1.46-3.72.26-5.68,4.44-4.12,7.62.7,1.46,2.86.2,2.15-1.24Z" fill="#292e34"/>
      </g>
      <g id="Group_453" data-name="Group 453">
        <path id="Path_368" data-name="Path 368" d="M305.35,287.28a2.763,2.763,0,0,1,.94-3.41c.96-.67,1.91-.3,2.97-.41a2.74,2.74,0,0,0,2.59-2.22,13.116,13.116,0,0,0-.03-2.08c.09-1.33.39-1.04,1.58-1.08a2.761,2.761,0,0,0,2.93-2.09c.35-1.57-2.06-2.24-2.41-.66-.1.44-2.34.16-2.79.31a2.527,2.527,0,0,0-1.57,1.41,4.838,4.838,0,0,0-.21,2.39c.12,1.76-.55,1.36-2.03,1.46-3.72.26-5.68,4.44-4.12,7.62.7,1.47,2.86.2,2.15-1.24Z" fill="#292e34"/>
      </g>
      <g id="Group_454" data-name="Group 454">
        <path id="Path_369" data-name="Path 369" d="M391.8,258.29c.02.5.04.99.06,1.49a1.275,1.275,0,0,0,.92,1.21c.88.21,2.17-.2,2.92.08,1.14.43.71,2.4,1.21,3.33a2.3,2.3,0,0,0,1.71,1.28c.91.14,3.13-1.37,2.98.4-.13,1.6,2.37,1.59,2.5,0a3.247,3.247,0,0,0-1.61-3.1,3.111,3.111,0,0,0-1.71-.4c-.69.05-1.43.75-1.78.04-.24-.49.06-1.47-.12-2.06a2.849,2.849,0,0,0-1.05-1.46c-1.34-.95-2.91-.17-4.38-.52.31.4.61.8.92,1.21-.02-.5-.04-.99-.06-1.49-.08-1.61-2.58-1.62-2.51-.01Z" fill="#292e34"/>
      </g>
      <g id="Group_455" data-name="Group 455">
        <path id="Path_370" data-name="Path 370" d="M321.54,285.25c.02.5.04.99.06,1.49a1.275,1.275,0,0,0,.92,1.21c.88.21,2.17-.2,2.92.08,1.14.43.71,2.4,1.21,3.33a2.3,2.3,0,0,0,1.71,1.28c.91.14,3.13-1.37,2.98.4-.13,1.6,2.37,1.59,2.5,0a3.247,3.247,0,0,0-1.61-3.1,3.111,3.111,0,0,0-1.71-.4c-.69.05-1.43.75-1.78.04-.24-.49.06-1.47-.12-2.06a2.849,2.849,0,0,0-1.05-1.46c-1.34-.95-2.91-.17-4.38-.52.31.4.61.8.92,1.21-.02-.5-.04-.99-.06-1.49-.08-1.62-2.58-1.63-2.51-.01Z" fill="#292e34"/>
      </g>
      <g id="Group_456" data-name="Group 456">
        <path id="Path_371" data-name="Path 371" d="M295.37,257.2c.02.5.04.99.06,1.49a1.275,1.275,0,0,0,.92,1.21c.88.21,2.17-.2,2.92.08,1.14.43.71,2.4,1.21,3.33a2.3,2.3,0,0,0,1.71,1.28c.91.14,3.13-1.37,2.98.4-.13,1.6,2.37,1.59,2.5,0a3.247,3.247,0,0,0-1.61-3.1,3.111,3.111,0,0,0-1.71-.4c-.69.05-1.43.75-1.78.04-.24-.49.06-1.47-.12-2.06a2.849,2.849,0,0,0-1.05-1.46c-1.34-.95-2.91-.17-4.38-.52.31.4.61.8.92,1.21-.02-.5-.04-.99-.06-1.49-.08-1.62-2.58-1.63-2.51-.01Z" fill="#292e34"/>
      </g>
      <g id="Group_457" data-name="Group 457">
        <path id="Path_372" data-name="Path 372" d="M332.55,261.89c.02.5.04.99.06,1.49a1.275,1.275,0,0,0,.92,1.21c.88.21,2.17-.2,2.92.08,1.14.43.71,2.4,1.21,3.33a2.3,2.3,0,0,0,1.71,1.28c.91.14,3.13-1.37,2.98.4-.13,1.6,2.37,1.59,2.5,0a3.247,3.247,0,0,0-1.61-3.1,3.111,3.111,0,0,0-1.71-.4c-.69.05-1.43.75-1.78.04-.24-.49.06-1.47-.12-2.06a2.849,2.849,0,0,0-1.05-1.46c-1.34-.95-2.91-.17-4.38-.52.31.4.61.8.92,1.21-.02-.5-.04-.99-.06-1.49-.08-1.61-2.58-1.62-2.51-.01Z" fill="#292e34"/>
      </g>
      <g id="Group_458" data-name="Group 458">
        <path id="Path_373" data-name="Path 373" d="M353.92,296.58a2.763,2.763,0,0,1,.94-3.41c.96-.67,1.91-.3,2.97-.41a2.74,2.74,0,0,0,2.59-2.22,13.116,13.116,0,0,0-.03-2.08c.09-1.33.39-1.04,1.58-1.08a2.761,2.761,0,0,0,2.93-2.09c.35-1.57-2.06-2.24-2.41-.66-.1.44-2.34.16-2.79.31a2.527,2.527,0,0,0-1.57,1.41,4.838,4.838,0,0,0-.21,2.39c.12,1.76-.55,1.36-2.03,1.46-3.72.26-5.68,4.44-4.12,7.62.7,1.47,2.86.2,2.15-1.24Z" fill="#292e34"/>
      </g>
      <g id="Group_459" data-name="Group 459">
        <path id="Path_374" data-name="Path 374" d="M402.29,295.06a2.763,2.763,0,0,1,.94-3.41c.96-.67,1.91-.3,2.97-.41a2.74,2.74,0,0,0,2.59-2.22,13.116,13.116,0,0,0-.03-2.08c.09-1.33.39-1.04,1.58-1.08a2.761,2.761,0,0,0,2.93-2.09c.35-1.57-2.06-2.24-2.41-.66-.1.44-2.34.16-2.79.31a2.527,2.527,0,0,0-1.57,1.41,4.838,4.838,0,0,0-.21,2.39c.12,1.76-.55,1.36-2.03,1.46-3.72.26-5.68,4.44-4.12,7.62.7,1.47,2.86.2,2.15-1.24Z" fill="#292e34"/>
      </g>
      <g id="Group_460" data-name="Group 460">
        <path id="Path_375" data-name="Path 375" d="M429.43,266.45a2.763,2.763,0,0,1,.94-3.41c.96-.67,1.91-.3,2.97-.41a2.74,2.74,0,0,0,2.59-2.22,13.116,13.116,0,0,0-.03-2.08c.09-1.33.39-1.04,1.58-1.08a2.761,2.761,0,0,0,2.93-2.09c.35-1.57-2.06-2.24-2.41-.66-.1.44-2.34.16-2.79.31a2.527,2.527,0,0,0-1.57,1.41,4.838,4.838,0,0,0-.21,2.39c.12,1.76-.55,1.36-2.03,1.46-3.72.26-5.68,4.44-4.12,7.62.7,1.47,2.86.2,2.15-1.24Z" fill="#292e34"/>
      </g>
      <g id="Group_461" data-name="Group 461">
        <path id="Path_376" data-name="Path 376" d="M508.78,382.68a2.763,2.763,0,0,1,.94-3.41c.96-.67,1.91-.3,2.97-.41a2.74,2.74,0,0,0,2.59-2.22,13.119,13.119,0,0,0-.03-2.08c.09-1.33.39-1.04,1.58-1.08a2.761,2.761,0,0,0,2.93-2.09c.35-1.57-2.06-2.24-2.41-.66-.1.44-2.34.16-2.79.31a2.527,2.527,0,0,0-1.57,1.41,4.839,4.839,0,0,0-.21,2.39c.12,1.76-.55,1.36-2.03,1.46-3.72.26-5.68,4.44-4.12,7.62.7,1.47,2.86.2,2.15-1.24Z" fill="#292e34"/>
      </g>
      <g id="Group_462" data-name="Group 462">
        <path id="Path_377" data-name="Path 377" d="M530.88,424.64a2.762,2.762,0,0,1,.94-3.41c.96-.67,1.91-.3,2.97-.41a2.74,2.74,0,0,0,2.59-2.22,13.119,13.119,0,0,0-.03-2.08c.09-1.33.39-1.04,1.58-1.08a2.761,2.761,0,0,0,2.93-2.09c.35-1.57-2.06-2.24-2.41-.66-.1.44-2.34.16-2.79.31a2.527,2.527,0,0,0-1.57,1.41,4.839,4.839,0,0,0-.21,2.39c.12,1.76-.55,1.36-2.03,1.46-3.72.26-5.68,4.44-4.12,7.62.7,1.47,2.86.2,2.15-1.24Z" fill="#292e34"/>
      </g>
      <g id="Group_463" data-name="Group 463">
        <path id="Path_378" data-name="Path 378" d="M572,425.36c.02.5.04.99.06,1.49a1.275,1.275,0,0,0,.92,1.21c.88.21,2.17-.2,2.92.08,1.14.43.71,2.4,1.21,3.33a2.3,2.3,0,0,0,1.71,1.28c.91.14,3.13-1.37,2.98.4-.13,1.6,2.37,1.59,2.5,0a3.247,3.247,0,0,0-1.61-3.1,3.111,3.111,0,0,0-1.71-.4c-.69.05-1.43.75-1.78.04-.24-.49.06-1.47-.12-2.06a2.849,2.849,0,0,0-1.05-1.46c-1.34-.95-2.91-.17-4.38-.52.31.4.61.8.92,1.21-.02-.5-.04-.99-.06-1.49-.08-1.61-2.58-1.62-2.51-.01Z" fill="#292e34"/>
      </g>
      <g id="Group_464" data-name="Group 464">
        <path id="Path_379" data-name="Path 379" d="M603.51,425.44c.02.5.04.99.06,1.49a1.275,1.275,0,0,0,.92,1.21c.88.21,2.17-.2,2.92.08,1.14.43.71,2.4,1.21,3.33a2.3,2.3,0,0,0,1.71,1.28c.91.14,3.13-1.37,2.98.4-.13,1.6,2.37,1.59,2.5,0a3.247,3.247,0,0,0-1.61-3.1,3.111,3.111,0,0,0-1.71-.4c-.69.05-1.43.75-1.78.04-.24-.49.06-1.47-.12-2.06a2.849,2.849,0,0,0-1.05-1.46c-1.34-.95-2.91-.17-4.38-.52.31.4.61.8.92,1.21-.02-.5-.04-.99-.06-1.49-.08-1.62-2.58-1.62-2.51-.01Z" fill="#292e34"/>
      </g>
      <g id="Group_465" data-name="Group 465">
        <path id="Path_380" data-name="Path 380" d="M648.48,391.48c.02.5.04.99.06,1.49a1.275,1.275,0,0,0,.92,1.21c.88.21,2.17-.2,2.92.08,1.14.43.71,2.4,1.21,3.33a2.3,2.3,0,0,0,1.71,1.28c.91.14,3.13-1.37,2.98.4-.13,1.6,2.37,1.59,2.5,0a3.247,3.247,0,0,0-1.61-3.1,3.111,3.111,0,0,0-1.71-.4c-.69.05-1.43.75-1.78.04-.24-.49.06-1.47-.12-2.06a2.849,2.849,0,0,0-1.05-1.46c-1.34-.95-2.91-.17-4.38-.52.31.4.61.8.92,1.21-.02-.5-.04-.99-.06-1.49-.07-1.61-2.58-1.62-2.51-.01Z" fill="#292e34"/>
      </g>
      <g id="Group_466" data-name="Group 466">
        <path id="Path_381" data-name="Path 381" d="M586.05,412.25a2.762,2.762,0,0,1,.94-3.41c.96-.67,1.91-.3,2.97-.41a2.74,2.74,0,0,0,2.59-2.22,13.119,13.119,0,0,0-.03-2.08c.09-1.33.39-1.04,1.58-1.08a2.761,2.761,0,0,0,2.93-2.09c.35-1.57-2.06-2.24-2.41-.66-.1.44-2.34.16-2.79.31a2.527,2.527,0,0,0-1.57,1.41,4.839,4.839,0,0,0-.21,2.39c.12,1.76-.55,1.36-2.03,1.46-3.72.26-5.68,4.44-4.12,7.62.7,1.46,2.86.2,2.15-1.24Z" fill="#292e34"/>
      </g>
      <g id="Group_467" data-name="Group 467">
        <path id="Path_382" data-name="Path 382" d="M561.35,400.86a2.762,2.762,0,0,1,.94-3.41c.96-.67,1.91-.3,2.97-.41a2.74,2.74,0,0,0,2.59-2.22,13.119,13.119,0,0,0-.03-2.08c.09-1.33.39-1.04,1.58-1.08a2.761,2.761,0,0,0,2.93-2.09c.35-1.57-2.06-2.24-2.41-.66-.1.44-2.34.16-2.79.31a2.527,2.527,0,0,0-1.57,1.41,4.839,4.839,0,0,0-.21,2.39c.12,1.76-.55,1.36-2.03,1.46-3.72.26-5.68,4.44-4.12,7.62.7,1.47,2.86.2,2.15-1.24Z" fill="#292e34"/>
      </g>
      <g id="Group_468" data-name="Group 468">
        <path id="Path_383" data-name="Path 383" d="M557.78,426.37a2.762,2.762,0,0,1,.94-3.41c.96-.67,1.91-.3,2.97-.41a2.74,2.74,0,0,0,2.59-2.22,13.119,13.119,0,0,0-.03-2.08c.09-1.33.39-1.04,1.58-1.08a2.761,2.761,0,0,0,2.93-2.09c.35-1.57-2.06-2.24-2.41-.66-.1.44-2.34.16-2.79.31a2.527,2.527,0,0,0-1.57,1.41,4.839,4.839,0,0,0-.21,2.39c.12,1.76-.55,1.36-2.03,1.46-3.72.26-5.68,4.44-4.12,7.62.7,1.46,2.86.2,2.15-1.24Z" fill="#292e34"/>
      </g>
      <g id="Group_469" data-name="Group 469">
        <path id="Path_384" data-name="Path 384" d="M533.96,443.92c.02.5.04.99.06,1.49a1.275,1.275,0,0,0,.92,1.21c.88.21,2.17-.2,2.92.08,1.14.43.71,2.4,1.21,3.33a2.3,2.3,0,0,0,1.71,1.28c.91.14,3.13-1.37,2.98.4-.13,1.6,2.37,1.59,2.5,0a3.247,3.247,0,0,0-1.61-3.1,3.111,3.111,0,0,0-1.71-.4c-.69.05-1.43.75-1.78.04-.24-.49.06-1.47-.12-2.06a2.849,2.849,0,0,0-1.05-1.46c-1.34-.95-2.91-.17-4.38-.52.31.4.61.8.92,1.21-.02-.5-.04-.99-.06-1.49-.08-1.61-2.58-1.62-2.51-.01Z" fill="#292e34"/>
      </g>
      <g id="Group_470" data-name="Group 470">
        <path id="Path_385" data-name="Path 385" d="M639.27,419.44c.02.5.04.99.06,1.49a1.275,1.275,0,0,0,.92,1.21c.88.21,2.17-.2,2.92.08,1.14.43.71,2.4,1.21,3.33a2.3,2.3,0,0,0,1.71,1.28c.91.14,3.13-1.37,2.98.4-.13,1.6,2.37,1.59,2.5,0a3.247,3.247,0,0,0-1.61-3.1,3.111,3.111,0,0,0-1.71-.4c-.69.05-1.43.75-1.78.04-.24-.49.06-1.47-.12-2.06a2.849,2.849,0,0,0-1.05-1.46c-1.34-.95-2.91-.17-4.38-.52.31.4.61.8.92,1.21-.02-.5-.04-.99-.06-1.49-.08-1.61-2.58-1.62-2.51-.01Z" fill="#292e34"/>
      </g>
      <g id="Group_471" data-name="Group 471">
        <path id="Path_386" data-name="Path 386" d="M585.81,455.73a2.6,2.6,0,0,0,.68,2.63,7.768,7.768,0,0,0,1.33.77,2.656,2.656,0,0,1,1.64,1.56,2.236,2.236,0,0,0-.22.87,2.085,2.085,0,0,0,1.16,2.13c1.52.95,2.7,1.51,3.33,3.37.51,1.52,2.93.87,2.41-.66a8.016,8.016,0,0,0-1.84-3.15,7.539,7.539,0,0,0-1.45-1.13,4.455,4.455,0,0,0-.81-.42c-.44-.06-.49-.17-.16-.34-.15-1.17.25-1.92-.58-3.02-.31-.41-3.09-1.86-3.07-1.93.37-1.58-2.04-2.25-2.42-.68Z" fill="#292e34"/>
      </g>
      <g id="Group_472" data-name="Group 472">
        <path id="Path_387" data-name="Path 387" d="M630.29,454.47c-.38-.83,2.92-1.07,3.44-1.49.97-.77.8-2.16,1.73-2.82.96-.68,2.24-.04,3.31-.73,1.31-.85,1.75-2.56,3.04-3.52s.03-3.12-1.26-2.16a9.888,9.888,0,0,0-1.93,1.78A7.814,7.814,0,0,1,637.5,447c-.6.45-.78.3-1.5.29a3.059,3.059,0,0,0-3.33,2.05c-.1.26-.09.85-.25,1.05-.71.87-.92.21-1.7.38a4.184,4.184,0,0,0-1.83.7,3.354,3.354,0,0,0-.74,4.25c.64,1.47,2.8.2,2.14-1.25Z" fill="#292e34"/>
      </g>
      <g id="Group_473" data-name="Group 473">
        <path id="Path_388" data-name="Path 388" d="M594.44,485.22c-.38-.83,2.92-1.07,3.44-1.49.97-.77.8-2.16,1.73-2.82.96-.68,2.24-.04,3.31-.73,1.31-.85,1.75-2.56,3.04-3.52s.03-3.12-1.26-2.16a9.888,9.888,0,0,0-1.93,1.78,7.814,7.814,0,0,1-1.12,1.47c-.6.45-.78.3-1.5.29a3.059,3.059,0,0,0-3.33,2.05c-.1.26-.09.85-.25,1.05-.71.87-.92.21-1.7.38a4.184,4.184,0,0,0-1.83.7,3.354,3.354,0,0,0-.74,4.25c.64,1.47,2.8.2,2.14-1.25Z" fill="#292e34"/>
      </g>
      <g id="Group_474" data-name="Group 474">
        <path id="Path_389" data-name="Path 389" d="M609.54,451.64c-.38-.83,2.92-1.07,3.44-1.49.97-.77.8-2.16,1.73-2.82.96-.68,2.24-.04,3.31-.73,1.31-.85,1.75-2.56,3.04-3.52s.03-3.12-1.26-2.16a9.888,9.888,0,0,0-1.93,1.78,7.814,7.814,0,0,1-1.12,1.47c-.6.45-.78.3-1.5.29a3.059,3.059,0,0,0-3.33,2.05c-.1.26-.09.85-.25,1.05-.71.87-.92.21-1.7.38a4.184,4.184,0,0,0-1.83.7,3.354,3.354,0,0,0-.74,4.25c.64,1.48,2.8.21,2.14-1.25Z" fill="#292e34"/>
      </g>
      <g id="Group_475" data-name="Group 475">
        <path id="Path_390" data-name="Path 390" d="M570.84,477.82c.02.5.04.99.06,1.49a1.275,1.275,0,0,0,.92,1.21c.88.21,2.17-.2,2.92.08,1.14.43.71,2.4,1.21,3.33a2.3,2.3,0,0,0,1.71,1.28c.91.14,3.13-1.37,2.98.4-.13,1.6,2.37,1.59,2.5,0a3.247,3.247,0,0,0-1.61-3.1,3.111,3.111,0,0,0-1.71-.4c-.69.05-1.43.75-1.78.04-.24-.49.06-1.47-.12-2.06a2.849,2.849,0,0,0-1.05-1.46c-1.34-.95-2.91-.17-4.38-.52.31.4.61.8.92,1.21-.02-.5-.04-.99-.06-1.49-.07-1.61-2.57-1.62-2.51-.01Z" fill="#292e34"/>
      </g>
      <g id="Group_476" data-name="Group 476">
        <path id="Path_391" data-name="Path 391" d="M616.68,462.99c.02.5.04.99.06,1.49a1.275,1.275,0,0,0,.92,1.21c.88.21,2.17-.2,2.92.08,1.14.43.71,2.4,1.21,3.33a2.3,2.3,0,0,0,1.71,1.28c.91.14,3.13-1.37,2.98.4-.13,1.6,2.37,1.59,2.5,0a3.247,3.247,0,0,0-1.61-3.1,3.111,3.111,0,0,0-1.71-.4c-.69.05-1.43.75-1.78.04-.24-.49.06-1.47-.12-2.06a2.849,2.849,0,0,0-1.05-1.46c-1.34-.95-2.91-.17-4.38-.52.31.4.61.8.92,1.21-.02-.5-.04-.99-.06-1.49-.08-1.61-2.58-1.62-2.51-.01Z" fill="#292e34"/>
      </g>
      <g id="Group_477" data-name="Group 477">
        <path id="Path_392" data-name="Path 392" d="M607.47,490.95c.02.5.04.99.06,1.49a1.275,1.275,0,0,0,.92,1.21c.88.21,2.17-.2,2.92.08,1.14.43.71,2.4,1.21,3.33a2.3,2.3,0,0,0,1.71,1.28c.91.14,3.13-1.37,2.98.4-.13,1.6,2.37,1.59,2.5,0a3.247,3.247,0,0,0-1.61-3.1,3.111,3.111,0,0,0-1.71-.4c-.69.05-1.43.75-1.78.04-.24-.49.06-1.47-.12-2.06a2.849,2.849,0,0,0-1.05-1.46c-1.34-.95-2.91-.17-4.38-.52.31.4.61.8.92,1.21-.02-.5-.04-.99-.06-1.49-.08-1.62-2.58-1.62-2.51-.01Z" fill="#292e34"/>
      </g>
      <g id="Group_478" data-name="Group 478">
        <path id="Path_393" data-name="Path 393" d="M556.18,454.03a2.762,2.762,0,0,1,.94-3.41c.96-.67,1.91-.3,2.97-.41a2.74,2.74,0,0,0,2.59-2.22,13.119,13.119,0,0,0-.03-2.08c.09-1.33.39-1.04,1.58-1.08a2.761,2.761,0,0,0,2.93-2.09c.35-1.57-2.06-2.24-2.41-.66-.1.44-2.34.16-2.79.31a2.527,2.527,0,0,0-1.57,1.41,4.839,4.839,0,0,0-.21,2.39c.12,1.76-.55,1.36-2.03,1.46-3.72.26-5.68,4.44-4.12,7.62.7,1.47,2.85.2,2.15-1.24Z" fill="#292e34"/>
      </g>
      <g id="Group_479" data-name="Group 479">
        <path id="Path_394" data-name="Path 394" d="M556.97,473.43a2.762,2.762,0,0,1,.94-3.41c.96-.67,1.91-.3,2.97-.41a2.74,2.74,0,0,0,2.59-2.22,13.119,13.119,0,0,0-.03-2.08c.09-1.33.39-1.04,1.58-1.08a2.761,2.761,0,0,0,2.93-2.09c.35-1.57-2.06-2.24-2.41-.66-.1.44-2.34.16-2.79.31a2.527,2.527,0,0,0-1.57,1.41,4.839,4.839,0,0,0-.21,2.39c.12,1.76-.55,1.36-2.03,1.46-3.72.26-5.68,4.44-4.12,7.62.7,1.46,2.86.2,2.15-1.24Z" fill="#292e34"/>
      </g>
      <g id="Group_480" data-name="Group 480">
        <path id="Path_395" data-name="Path 395" d="M623.07,321.05a1.085,1.085,0,0,1,1.23-1.49,13.652,13.652,0,0,0,1.94.43,2.329,2.329,0,0,0,2.23-1.87c.15-.74.09-.61.84-.89a3.1,3.1,0,0,0,1.37-.94,1.952,1.952,0,0,0-.06-2.78c-1.16-1.11-2.93.65-1.77,1.77-.44-.42-.04-.44-.8-.29a3.161,3.161,0,0,0-.72.28,2.681,2.681,0,0,0-1.14.97,4.624,4.624,0,0,0-.25.8.826.826,0,0,0-.01.35c.06.24.01.25-.16.03-.53.04-1.2-.42-1.78-.43a3.625,3.625,0,0,0-3.36,4.71c.54,1.54,2.95.88,2.44-.65Z" fill="#292e34"/>
      </g>
      <g id="Group_481" data-name="Group 481">
        <path id="Path_396" data-name="Path 396" d="M496.23,322.4q-.99,31.41-.07,62.84c.05,1.61,2.55,1.61,2.5,0q-.915-31.425.07-62.84c.05-1.61-2.45-1.61-2.5,0Z" fill="#292e34"/>
      </g>
      <g id="Group_482" data-name="Group 482">
        <path id="Path_397" data-name="Path 397" d="M465.23,334.07c10.37,4.09,20.79,8.06,30.92,12.7,1.45.67,2.72-1.49,1.26-2.16-10.33-4.73-20.95-8.78-31.52-12.95-1.49-.6-2.14,1.82-.66,2.41Z" fill="#292e34"/>
      </g>
    </g>
  </g>
</svg>
