<svg xmlns="http://www.w3.org/2000/svg" width="483.326" height="814.656" viewBox="0 0 483.326 814.656">
  <g id="sign_in" data-name="sign in" transform="translate(-264.376 -144.49)">
    <g id="bckgr">
      <g id="Group_486" data-name="Group 486">
        <g id="Group_483" data-name="Group 483">
          <path id="Path_398" data-name="Path 398" d="M461.58,847.19c16.02-13.24,37.51-6.36,62.05-31.44,35.02-35.78-48.35-160.92,73.29-165.45-36.69-48.64-32.91-81.66-47.4-135.05C516.37,393.1,417.93,220.82,345.38,275.05c-45.18,33.77,46.67,140.83,62.25,195.13,14.85,51.74,22.77,90.89,6.05,108.58-21.02,22.23-29.46-11-69.66-41.15-27.67-20.75-56.47,60.42-38.95,116.48s31.39,73.96,11.47,91.61c-17.1,15.14-46.27-12.26-51.76,25.76-5.89,40.75,53.6,105,112.08,127.75,21.22,8.26,49.68,11.91,79.97,11.14C439.45,885.48,448.28,858.18,461.58,847.19Z" fill="#f1f0f0"/>
        </g>
        <g id="Group_484" data-name="Group 484">
          <path id="Path_399" data-name="Path 399" d="M725.88,790.32c-62.28-52.97-42.09-137.42-114.23-140-5.21-.19-10.11-.18-14.72-.01a308.913,308.913,0,0,0,22.2,26.01c24.7,26.1,34.54,89.41,27.89,120.52-7.34,34.37-23.07,58.24-55.72,78.38-35.66,21.99-87.28,33.92-134.46,35.13,6.21,8.87,15.75,17.44,29.63,24.83C651.35,1023.01,790.44,845.24,725.88,790.32Z" fill="#ff3f3f"/>
        </g>
        <g id="Group_485" data-name="Group 485">
          <path id="Path_400" data-name="Path 400" d="M647.02,796.84c6.64-31.11-3.19-94.42-27.89-120.52a305.784,305.784,0,0,1-22.2-26.01c-121.65,4.52-38.27,129.67-73.29,165.45-24.55,25.08-46.03,18.2-62.05,31.44-13.3,10.99-22.13,38.29-4.74,63.15,47.18-1.2,98.8-13.14,134.46-35.13C623.95,855.08,639.68,831.21,647.02,796.84Z" fill="#f8bab4"/>
        </g>
      </g>
      <g id="Group_487" data-name="Group 487">
        <path id="Path_401" data-name="Path 401" d="M404.56,608.43a24.21,24.21,0,1,1,24.21-24.21A24.237,24.237,0,0,1,404.56,608.43Zm0-45.41a21.21,21.21,0,1,0,21.21,21.21A21.234,21.234,0,0,0,404.56,563.02Z" fill="#ff3f3f"/>
      </g>
      <g id="Group_488" data-name="Group 488">
        <circle id="Ellipse_9" data-name="Ellipse 9" cx="54.49" cy="54.49" r="54.49" transform="translate(629.73 173.65)" fill="#ff3f3f"/>
      </g>
      <g id="Group_490" data-name="Group 490">
        <g id="Group_489" data-name="Group 489">
          <path id="Path_402" data-name="Path 402" d="M639.09,319.01a13.486,13.486,0,0,0,6.56-6.45l-2.28-.96c-.6,3.57,2.12,6.4,5.38,7.31l-.3-2.28c-3.69,2.05-4.29,4.97-5.49,8.71l2.41.66a7.109,7.109,0,0,0-7.09-8.48,1.251,1.251,0,0,0,0,2.5,4.572,4.572,0,0,1,4.68,5.32,1.25,1.25,0,0,0,2.41.66c.99-3.08,1.22-5.48,4.35-7.22a1.26,1.26,0,0,0-.3-2.28c-1.78-.5-4-2.07-3.64-4.24.21-1.27-1.69-2.37-2.28-.96a11.428,11.428,0,0,1-5.66,5.56c-1.48.66-.21,2.81,1.25,2.15Z" fill="#292e34"/>
        </g>
      </g>
      <g id="Group_492" data-name="Group 492">
        <g id="Group_491" data-name="Group 491">
          <path id="Path_403" data-name="Path 403" d="M609.96,263.85a13.486,13.486,0,0,0,6.56-6.45l-2.28-.96c-.6,3.57,2.12,6.4,5.38,7.31l-.3-2.28c-3.69,2.05-4.29,4.97-5.49,8.71l2.41.66a7.109,7.109,0,0,0-7.09-8.48,1.251,1.251,0,0,0,0,2.5,4.572,4.572,0,0,1,4.68,5.32,1.25,1.25,0,0,0,2.41.66c.99-3.08,1.22-5.48,4.35-7.22a1.26,1.26,0,0,0-.3-2.28c-1.78-.5-4-2.07-3.64-4.24.21-1.27-1.69-2.37-2.28-.96a11.428,11.428,0,0,1-5.66,5.56c-1.47.65-.2,2.81,1.25,2.15Z" fill="#292e34"/>
        </g>
      </g>
      <g id="Group_494" data-name="Group 494">
        <g id="Group_493" data-name="Group 493">
          <path id="Path_404" data-name="Path 404" d="M736.47,152.86a13.486,13.486,0,0,0,6.56-6.45l-2.28-.96c-.6,3.57,2.12,6.4,5.38,7.31l-.3-2.28c-3.69,2.05-4.29,4.97-5.49,8.71l2.41.66a7.109,7.109,0,0,0-7.09-8.48,1.251,1.251,0,0,0,0,2.5,4.572,4.572,0,0,1,4.68,5.32,1.25,1.25,0,0,0,2.41.66c.99-3.08,1.22-5.48,4.35-7.22a1.26,1.26,0,0,0-.3-2.28c-1.78-.5-4-2.07-3.64-4.24.21-1.27-1.69-2.37-2.28-.96a11.428,11.428,0,0,1-5.66,5.56c-1.48.66-.21,2.81,1.25,2.15Z" fill="#292e34"/>
        </g>
      </g>
    </g>
    <g id="chrctr">
      <g id="Group_495" data-name="Group 495">
        <path id="Path_405" data-name="Path 405" d="M581.44,823.8s4.85,8.85,5.14,13.7a86.867,86.867,0,0,1,0,9.42l-5.42,4s4.28,4.28,5.14,13.42,0,13.42-1.71,25.12c-1.47,10.02,0,23.41.86,23.98,1.34.9,13.7,1.71,24.84,1.43s27.41-3.43,37.4-7.99,10.28-5.71,8.56-11.99-5.14-22.27-12.28-23.41-16.27,2.28-16.27,2.28l-20.84-20.27s2.57-9.71,2.28-10.85-7.42,0-7.42,0V822.66Z" fill="#ffecdd"/>
      </g>
      <g id="Group_496" data-name="Group 496">
        <path id="Path_406" data-name="Path 406" d="M520.42,431.52c-3.97.93,3.3,64.86,3.85,102.43.26,17.74-4.58,36.13-7.85,36.54s-2.87-1.64-2.46,6.14,25.81,246.59,25.81,246.59,22.12.82,44.24,2.05,45.47-8.19,45.47-8.19-27.7-156.4-28.67-167.94c-.77-9.08-4.26-18.21-1.93-26.46,31.07-109.85,26.76-193.38,26.76-193.38l-73.32-1.14S528.23,429.69,520.42,431.52Z" fill="#ffecdd"/>
      </g>
      <g id="Group_497" data-name="Group 497">
        <path id="Path_407" data-name="Path 407" d="M505.5,359.9s-7.39,8.8-9.15,18.65-2.82,17.6-2.82,17.6-9.15-1.76-12.32-1.76.7,3.17-1.76,5.98-22.53,15.49-45.05,3.17-33.02-21.11-33.02-28.1,11.73-27.62,26.04-44.35c23.5-27.47,54.95-40.15,54.95-40.15S495,303.1,493.4,324.27c-1.88,24.88-13.71,26.82-13.71,26.82l10,6.6s1.89,0,6.98.57A59.7,59.7,0,0,1,505.5,359.9Z" fill="#ff3f3f"/>
      </g>
      <g id="Group_498" data-name="Group 498">
        <path id="Path_408" data-name="Path 408" d="M540.82,241.32s3.16,1,5.74,5.59,5.55,10.3,11.49,11.87c8.04,2.13,12.89-5.85,12.89-5.85s-6.57,1.85-13.91-3.01c-9.32-6.17-15.2-16.49-15.2-16.49Z" fill="#f8bab4"/>
      </g>
      <g id="Group_499" data-name="Group 499">
        <ellipse id="Ellipse_10" data-name="Ellipse 10" cx="3.11" cy="4.74" rx="3.11" ry="4.74" transform="translate(556.019 211.29) rotate(-20.079)" fill="#f8bab4"/>
      </g>
      <g id="Group_500" data-name="Group 500">
        <ellipse id="Ellipse_11" data-name="Ellipse 11" cx="4.74" cy="3.11" rx="4.74" ry="3.11" transform="translate(585.28 220.229) rotate(-38.259)" fill="#f8bab4"/>
      </g>
      <g id="Group_501" data-name="Group 501">
        <path id="Path_409" data-name="Path 409" d="M400.81,821.38s7.81-4.08,9.51-8.15-4.08-10.87-4.08-10.87,10.19-11.21,14.95-15.63,6.11-6.45,6.11-6.45l-15.97-16.31a96.3,96.3,0,0,1-15.29,18.68c-9.18,8.49-17.66,15.29-17.66,15.29s-2.04-4.76-4.08-5.1-8.49,8.15-13.25,11.21-12.91,7.47-12.91,7.47,18.34,42.46,24.8,53.33,13.93,24.46,24.46,27.51,10.53-4.76,10.87-8.83S400.81,821.38,400.81,821.38Z" fill="#ffecdd"/>
      </g>
      <g id="Group_502" data-name="Group 502">
        <path id="Path_410" data-name="Path 410" d="M514.55,580.37s-61.37,85.05-69.83,95.1-56.04,61.33-56.04,61.33a205.658,205.658,0,0,0,33.38,38.43c21.15,19.03,34.3,31.36,34.3,31.36l69.26-111.03Z" fill="#ffecdd"/>
      </g>
      <g id="Group_503" data-name="Group 503">
        <path id="Path_411" data-name="Path 411" d="M691.45,427.84l-6.02,20.55-21.38-4.77-.62-4.57s-27.61-3.94-32.17-6.02-5.61-3.73-5.61-3.73l10.59-2.91s-10.59-20.55-12.25-33.83-1.45-18.68-1.45-18.68,7.89-1.45,19.72,9.55S691.45,427.84,691.45,427.84Z" fill="#ff3f3f"/>
      </g>
      <g id="Group_504" data-name="Group 504">
        <path id="Path_412" data-name="Path 412" d="M504.94,384.9l.67,30.4s-37.52-.2-46.05-1.7-13.04-1-13.04-1-9.03,104.34-8.03,117.38,5.52,26.59,18.56,35.11,46.52,15.81,59.38,5.4,7.34-26.47,6.84-51.55-2.49-114.99-2.49-114.99-9.49-12.16-12.54-16.3C500.71,377.44,504.94,384.9,504.94,384.9Z" fill="#f8bab4"/>
      </g>
      <g id="Group_505" data-name="Group 505">
        <path id="Path_413" data-name="Path 413" d="M495.45,286.39s10.85.52,17.32,16.8,7.1,24.65,8.05,32.6,1.27,26.54,1.27,26.54-12.72-1.75-14.46-1.43a1.674,1.674,0,0,1-2.12-1s-2.01-22.68-4.24-31.9-8.9-27.66-12.08-31.63a18.633,18.633,0,0,0-6.81-5.42Z" fill="#f8bab4"/>
      </g>
      <g id="Group_507" data-name="Group 507">
        <g id="Group_506" data-name="Group 506">
          <path id="Path_414" data-name="Path 414" d="M596.08,205.26c-.13,10.44-3.82,20.49-8.79,29.57-5.16,9.43-14.24,21.87-26.61,16.4-9.69-4.29-17.01-14.81-20.58-24.5-1.32-3.58-1.84-7.03-4.7-9.72-1.94-1.83-4.05-3.33-5.35-5.74-1.04-1.93-1.78-4.81-.52-6.77,1.32-2.04,9.07-5.45,8.17.98-.22,1.57,2.19,2.25,2.41.66a6.467,6.467,0,0,0-7.29-7.5c-4.35.64-6.7,5.44-6.34,9.45a13.706,13.706,0,0,0,4.29,8.18c1.07,1.07,2.44,1.89,3.45,3.01,2.03,2.26,2.47,5.37,3.48,8.11a52.707,52.707,0,0,0,11.25,18.1c4.49,4.71,10.56,9.63,17.42,9.67,6.43.04,12.81-4.25,16.7-9.07,8.92-11.02,15.33-26.6,15.51-40.83a1.251,1.251,0,0,0-2.5,0Z" fill="#292e34"/>
        </g>
      </g>
      <g id="Group_509" data-name="Group 509">
        <g id="Group_508" data-name="Group 508">
          <path id="Path_415" data-name="Path 415" d="M542.63,203.16c4.59-7.66,8.98-15.38,10.41-24.31l-2.46-.33a174.391,174.391,0,0,1-3.79,27.01,1.262,1.262,0,0,0,2.09,1.22c5.36-5.56,15.19-3.05,21.98-2.42q12.72,1.17,25.44,2.35c1.6.15,1.59-2.35,0-2.5-10.44-.96-20.87-1.95-31.31-2.89-6.28-.57-13.13-1.23-17.88,3.69.7.41,1.39.81,2.09,1.22a180.623,180.623,0,0,0,3.88-27.68c.09-1.38-2.23-1.73-2.46-.33-1.39,8.73-5.68,16.23-10.16,23.72a1.253,1.253,0,0,0,2.17,1.25Z" fill="#292e34"/>
        </g>
      </g>
      <g id="Group_511" data-name="Group 511">
        <g id="Group_510" data-name="Group 510">
          <path id="Path_416" data-name="Path 416" d="M599.93,276.38c-.47-9.18-4.49-17.53-5.2-26.56-.8-10.13,5.57-19.98,8.48-29.42,2.68-8.68,5.22-18.42,4.12-27.59-.89-7.41-5.05-15.24-9.65-21.02-11.62-14.61-30.52-16.48-47.42-11-19.7,6.39-33.29,22.43-45.65,38.23-14.45,18.46-29.38,41.74-52.46,49.84-1.51.53-.86,2.95.66,2.41,18.99-6.67,32.32-23.36,44.41-38.67,11.55-14.62,22.41-30.85,37.94-41.61,15.98-11.09,40.53-16.19,56.33-2.13a43.588,43.588,0,0,1,13.12,22.66c1.82,9.19-1.12,19.49-3.81,28.22-2.89,9.38-8.94,18.83-8.64,28.88.29,9.46,4.78,18.24,5.27,27.77.08,1.59,2.58,1.6,2.5-.01Z" fill="#292e34"/>
        </g>
      </g>
      <g id="Group_513" data-name="Group 513">
        <g id="Group_512" data-name="Group 512">
          <path id="Path_417" data-name="Path 417" d="M451.57,250.64c1.15,7.91,4.98,15.33,9.05,22.12,3.31,5.54,7.92,10.23,14.44,11.52,1.57.31,2.24-2.1.66-2.41-7.06-1.4-11.2-7.04-14.43-13.04-3.24-6.03-6.32-12.01-7.32-18.86-.22-1.58-2.63-.91-2.4.67Z" fill="#292e34"/>
        </g>
      </g>
      <g id="Group_515" data-name="Group 515">
        <g id="Group_514" data-name="Group 514">
          <path id="Path_418" data-name="Path 418" d="M540.31,234.05c-1.6,12.05-3.46,25.16-11.83,34.61-8.27,9.35-20.58,13.62-32.5,15.93-1.58.31-.91,2.72.66,2.41,12.83-2.48,26.13-7.35,34.63-17.79,8.05-9.89,9.91-22.92,11.53-35.16.22-1.59-2.28-1.57-2.49,0Z" fill="#292e34"/>
        </g>
      </g>
      <g id="Group_517" data-name="Group 517">
        <g id="Group_516" data-name="Group 516">
          <path id="Path_419" data-name="Path 419" d="M570.4,252.7c-.89,6.61-1.14,13.29,5.47,16.98,5.85,3.27,12.34,5.19,18.12,8.74,1.37.84,2.63-1.32,1.26-2.16a100.151,100.151,0,0,0-12.24-6.28c-1.93-.84-4.03-1.44-5.88-2.46-5.47-3.02-5.05-8.76-4.32-14.16.22-1.57-2.19-2.25-2.41-.66Z" fill="#292e34"/>
        </g>
      </g>
      <g id="Group_519" data-name="Group 519">
        <g id="Group_518" data-name="Group 518">
          <path id="Path_420" data-name="Path 420" d="M497.33,377.8c7.98,6.17,13.56,16.15,20.07,23.82q4.86,5.73,10.01,11.21c2.09,2.22,4.39,6.07,7.76,5.86a1.33,1.33,0,0,0,1.21-.92c2.26-5.77-3.71-13.85-6.02-18.83l-1.96,1.51q10.425,10.455,21.43,20.32a1.267,1.267,0,0,0,1.96-.25c1.99-4.18-.78-7.64-3.15-11.11-3.46-5.07-7.17-9.95-11.04-14.7l-1.77,1.77a192.4,192.4,0,0,1,17.02,14.32c1.85,1.82,6.09,7.87,9.27,4.3,2.96-3.33-2.03-8.39-3.78-10.82a214.222,214.222,0,0,0-13.88-17.2l-1.77,1.77,14.94,13.05c1.91,1.67,4.9,5.42,7.89,3.83,7.4-3.94-6.01-15.74-8.56-18.25a247.807,247.807,0,0,0-25.66-21.66c-6.79-5.06-17.7-8.28-26.05-6.01a1.25,1.25,0,0,0,.66,2.41c6.93-1.89,16.9.79,22.76,4.76,6.42,4.35,12.41,9.79,18.31,14.82,2.6,2.21,5.16,4.47,7.61,6.85,2.53,2.46,7.63,6.57,8.86,9.89.28.41.57.81.85,1.22-1.91,2.24-3.54,2.37-4.9.37a38.48,38.48,0,0,1-4.48-3.91q-5.235-4.56-10.46-9.13a1.252,1.252,0,0,0-1.77,1.77c3.56,3.99,7,8.07,10.24,12.32,1.1,1.44,2.19,2.9,3.25,4.37.77,1.07,5.54,5.96,1.54,6.68-.87.16-7.76-7.52-9.01-8.58-3.61-3.09-7.36-6.01-11.11-8.93a1.253,1.253,0,0,0-1.77,1.77c2.79,3.42,5.49,6.91,8.06,10.5,1.93,2.69,7.47,8.67,5.75,12.29.65-.08,1.31-.17,1.96-.25q-11-9.855-21.43-20.32c-1.06-1.06-2.54.28-1.96,1.51q1.845,3.99,3.69,7.99c.88,1.91,4.22,7.66-.12,5.6-2.11-1-4.18-4.41-5.78-6.17q-3.165-3.48-6.21-7.05c-6.94-8.12-12.67-18.35-21.18-24.92-1.29-1.01-2.54,1.16-1.28,2.13Z" fill="#292e34"/>
        </g>
      </g>
      <g id="Group_521" data-name="Group 521">
        <g id="Group_520" data-name="Group 520">
          <path id="Path_421" data-name="Path 421" d="M563.71,230.4a13.059,13.059,0,0,0,6.16,5.4c2.9,1.28,5.35,1.05,8.36.96,1.61-.05,1.61-2.55,0-2.5-2.2.07-4.08.4-6.27-.34a10.835,10.835,0,0,1-6.09-4.78c-.76-1.42-2.92-.16-2.16,1.26Z" fill="#292e34"/>
        </g>
      </g>
      <g id="Group_523" data-name="Group 523">
        <g id="Group_522" data-name="Group 522">
          <path id="Path_422" data-name="Path 422" d="M495.31,284.96c-30.09,8.67-55.19,28.79-74.61,52.9a194.328,194.328,0,0,0-13.23,18.28c-3.23,5.12-8.26,12.99-7.35,19.38.86,6.04,8.32,12.16,12.63,15.87a74.131,74.131,0,0,0,18.28,11.58c14.2,6.31,32.99,9.78,47.11,1.54a1.251,1.251,0,0,0-1.26-2.16c-12.53,7.31-29.19,4.65-42.07-.48a72.167,72.167,0,0,1-18.53-10.77c-4.96-4-13.93-11.19-13.55-18,.39-6.95,5.84-14.27,9.63-19.83a214.047,214.047,0,0,1,13.12-17.29,176.075,176.075,0,0,1,29.31-27.92,128.987,128.987,0,0,1,41.18-20.68,1.255,1.255,0,0,0-.66-2.42Z" fill="#292e34"/>
        </g>
      </g>
      <g id="Group_525" data-name="Group 525">
        <g id="Group_524" data-name="Group 524">
          <path id="Path_423" data-name="Path 423" d="M474.39,391.3a39.035,39.035,0,0,0,19.34,5.12,1.277,1.277,0,0,0,1.25-1.25,57.167,57.167,0,0,1,11.97-34.3c.55-.71-.09-1.57-.75-1.84-9.96-4.03-19.72-4.17-26.41,5.13-6.22,8.65-8.07,19.69-6.24,30.05.28,1.58,2.69.91,2.41-.66a37.457,37.457,0,0,1,4.28-25.47c2.63-4.51,6.44-8.85,11.97-9.37,4.51-.43,9.2,1.07,13.32,2.74-.25-.61-.5-1.22-.75-1.84a59.381,59.381,0,0,0-12.31,35.56l1.25-1.25a36.388,36.388,0,0,1-18.08-4.77,1.244,1.244,0,0,0-1.25,2.15Z" fill="#292e34"/>
        </g>
      </g>
      <g id="Group_527" data-name="Group 527">
        <g id="Group_526" data-name="Group 526">
          <path id="Path_424" data-name="Path 424" d="M487.37,354.91a50.1,50.1,0,0,0-48.5-8.99c-1.51.52-.86,2.94.66,2.41a47.547,47.547,0,0,1,46.07,8.35c1.23,1.02,3.01-.74,1.77-1.77Z" fill="#292e34"/>
        </g>
      </g>
      <g id="Group_529" data-name="Group 529">
        <g id="Group_528" data-name="Group 528">
          <path id="Path_425" data-name="Path 425" d="M526.96,273.75c15.27,10.24,39.8,9.46,54.2-1.99,1.26-1-.52-2.76-1.77-1.77-13.53,10.76-36.91,11.16-51.17,1.6-1.34-.9-2.59,1.27-1.26,2.16Z" fill="#292e34"/>
        </g>
      </g>
      <g id="Group_531" data-name="Group 531">
        <g id="Group_530" data-name="Group 530">
          <path id="Path_426" data-name="Path 426" d="M533.14,266.76c12.53,6.03,27.38,5.22,38.73-3.04,1.29-.94.04-3.11-1.26-2.16a35.309,35.309,0,0,1-36.21,3.04c-1.44-.69-2.71,1.46-1.26,2.16Z" fill="#292e34"/>
        </g>
      </g>
      <g id="Group_533" data-name="Group 533">
        <g id="Group_532" data-name="Group 532">
          <path id="Path_427" data-name="Path 427" d="M520.73,432.41a306.738,306.738,0,0,1,49.69-2.16c21.61.9,43.58,4.07,64.64-2.54,1.53-.48.88-2.89-.66-2.41-21.46,6.73-43.81,3.13-65.81,2.38a308.7,308.7,0,0,0-47.86,2.23c-1.58.2-1.6,2.7,0,2.5Z" fill="#292e34"/>
        </g>
      </g>
      <g id="Group_535" data-name="Group 535">
        <g id="Group_534" data-name="Group 534">
          <path id="Path_428" data-name="Path 428" d="M605.29,301.02q4.785,8.19,9.56,16.38c3.39,5.81,7.42,11.63,7.99,18.52.87,10.58-1.29,21.64-1.33,32.28-.07,20.18,2.82,40.62,13.42,58.14a1.251,1.251,0,0,0,2.16-1.26c-11.59-19.16-13.64-41.72-12.95-63.65.3-9.65,2.93-20.69.45-30.13-1.36-5.16-4.41-9.74-7.07-14.3q-5.025-8.625-10.06-17.24a1.255,1.255,0,0,0-2.17,1.26Z" fill="#292e34"/>
        </g>
      </g>
      <g id="Group_537" data-name="Group 537">
        <g id="Group_536" data-name="Group 536">
          <path id="Path_429" data-name="Path 429" d="M512.45,574.6c2.27,11.41,2.52,23.18,3.42,34.76,3.38,43.36,7.65,86.68,12.12,129.94,2.94,28.45,6.19,56.86,10.01,85.21a1.245,1.245,0,0,0,1.21.92q25.365-.45,50.74-.91c13.98-.25,28.25-.23,41.05-6.61,1.44-.72.18-2.87-1.26-2.16-13.5,6.73-28.99,6.07-43.69,6.34l-23.42.42-9.76.18c-1.95.03-3.9.07-5.85.11-3.37.06-5.89,1.34-7.08-2.55-1.11-3.61-1.06-8.07-1.54-11.82q-.75-5.91-1.48-11.83-1.455-11.835-2.79-23.69-2.685-23.7-5.04-47.43c-4.45-44.35-8.69-88.72-11.99-133.17a150.936,150.936,0,0,0-2.23-18.35c-.32-1.61-2.73-.94-2.42.64Z" fill="#292e34"/>
        </g>
      </g>
      <g id="Group_539" data-name="Group 539">
        <g id="Group_538" data-name="Group 538">
          <path id="Path_430" data-name="Path 430" d="M596.53,471.21c-8.38,90.86,1.68,180.99,17.92,270.41,4.65,25.62,9.7,51.17,14.75,76.72.31,1.58,2.72.91,2.41-.66-17.62-89.12-35.3-178.93-35.89-270.12q-.255-38.235,3.31-76.35c.15-1.61-2.35-1.6-2.5,0Z" fill="#292e34"/>
        </g>
      </g>
      <g id="Group_541" data-name="Group 541">
        <g id="Group_540" data-name="Group 540">
          <path id="Path_431" data-name="Path 431" d="M581.65,827.52a39.891,39.891,0,0,1,4.13,18.92,1.251,1.251,0,0,0,2.5,0,42.928,42.928,0,0,0-4.47-20.19c-.71-1.43-2.86-.17-2.16,1.27Z" fill="#292e34"/>
        </g>
      </g>
      <g id="Group_543" data-name="Group 543">
        <g id="Group_542" data-name="Group 542">
          <path id="Path_432" data-name="Path 432" d="M600.17,825.87a89.614,89.614,0,0,0-.26,13.21c.09,1.6,2.59,1.61,2.5,0a89.633,89.633,0,0,1,.26-13.21c.15-1.61-2.35-1.6-2.5,0Z" fill="#292e34"/>
        </g>
      </g>
      <g id="Group_545" data-name="Group 545">
        <g id="Group_544" data-name="Group 544">
          <path id="Path_433" data-name="Path 433" d="M605.43,852.24c-.06.1-.12.19-.18.29a1.242,1.242,0,0,0,.2,1.51c.11.1.22.19.33.29a1.275,1.275,0,0,0,1.51.2c1.21-.9,1.23-1.88,1.65-3.4.75-2.76,2.08-5.82,1.98-8.71a1.3,1.3,0,0,0-.92-1.21c-3.85-1.28-9.45.13-13.32,1.03a54.748,54.748,0,0,0-14.38,5.74,1.251,1.251,0,0,0,1.26,2.16,50.987,50.987,0,0,1,16.27-6c2.08-.37,7.35-1.97,8.17.72.23.75-.78,2.95-.98,3.73-.25.93-.49,1.86-.74,2.8-.59,1.05-.15,1.76,1.31,2.11.85-1.36-1.31-2.62-2.16-1.26Z" fill="#292e34"/>
        </g>
      </g>
      <g id="Group_547" data-name="Group 547">
        <g id="Group_546" data-name="Group 546">
          <path id="Path_434" data-name="Path 434" d="M580.52,853.05c1.69,4.18,4.07,8.55,5.01,12.98,1.09,5.13-.88,11.01-1.38,16.2-1,10.31-.69,20.68-.39,31.02.05,1.61,2.55,1.61,2.5,0-.32-10.98-.64-22.01.59-32.94.49-4.36,1.97-9.05,1.36-13.47-.68-4.94-3.43-9.87-5.28-14.45-.6-1.48-3.02-.84-2.41.66Z" fill="#292e34"/>
        </g>
      </g>
      <g id="Group_549" data-name="Group 549">
        <g id="Group_548" data-name="Group 548">
          <path id="Path_435" data-name="Path 435" d="M606.36,854.47a89.021,89.021,0,0,0,20.06,19.83c1.31.94,2.56-1.23,1.26-2.16a85.226,85.226,0,0,1-19.17-18.93c-.93-1.28-3.1-.04-2.15,1.26Z" fill="#292e34"/>
        </g>
      </g>
      <g id="Group_551" data-name="Group 551">
        <g id="Group_550" data-name="Group 550">
          <path id="Path_436" data-name="Path 436" d="M620.41,874.99a23.846,23.846,0,0,0,9.18.37c5.95-1.03,10.71-5.79,16.43-.83,6.72,5.82,9.06,16.82,8.66,25.22-.08,1.61,2.42,1.6,2.5,0,.44-9.24-2.23-18.75-8.34-25.84-2.62-3.04-5.66-4.85-9.76-4.18-2.41.4-4.53,1.63-6.82,2.37a21.022,21.022,0,0,1-11.18.48c-1.58-.34-2.25,2.07-.67,2.41Z" fill="#292e34"/>
        </g>
      </g>
      <g id="Group_553" data-name="Group 553">
        <g id="Group_552" data-name="Group 552">
          <path id="Path_437" data-name="Path 437" d="M587.95,913.17c10.39-.95,20.42-3.62,30.45-6.4,10.22-2.84,21.84-7.03,32.58-6.28.93.13,1.85.27,2.78.4,0,.92-.01,1.83-.01,2.75-.41.59-2.2,1.02-2.83,1.29-2.4,1.05-4.81,2.07-7.21,3.1-5.86,2.52-11.06,4.31-17.48,4.67a318.115,318.115,0,0,1-35.61.49c-1.61-.09-1.6,2.41,0,2.5,7.4.41,14.81.38,22.21.12,6.46-.23,13.21-.11,19.6-1.2,5.77-.99,11.22-3.86,16.55-6.15,3.7-1.59,9.29-2.88,9.31-7.73a1.227,1.227,0,0,0-.62-1.08c-9.55-4.07-21.62-.18-31.15,2.3-12.78,3.33-25.34,7.5-38.56,8.71-1.6.15-1.62,2.66-.01,2.51Z" fill="#292e34"/>
        </g>
      </g>
      <g id="Group_555" data-name="Group 555">
        <g id="Group_554" data-name="Group 554">
          <path id="Path_438" data-name="Path 438" d="M621.67,438.56A535.07,535.07,0,0,1,602.7,606.53a1.25,1.25,0,0,0,2.41.66,537.53,537.53,0,0,0,19.06-168.64c-.07-1.59-2.57-1.6-2.5.01Z" fill="#292e34"/>
        </g>
      </g>
      <g id="Group_557" data-name="Group 557">
        <g id="Group_556" data-name="Group 556">
          <path id="Path_439" data-name="Path 439" d="M513.29,580.23c-39.51,53.89-78.77,109.02-125.26,157.21a1.287,1.287,0,0,0,0,1.77,526.339,526.339,0,0,0,66.39,66.8,1.268,1.268,0,0,0,1.96-.25q33.66-52.5,67.31-105c.87-1.36-1.29-2.61-2.16-1.26q-33.66,52.5-67.31,105c.65-.08,1.31-.17,1.96-.25a526.423,526.423,0,0,1-66.4-66.8v1.77c46.63-48.33,86.03-103.67,125.65-157.72.97-1.3-1.2-2.55-2.14-1.27Z" fill="#292e34"/>
        </g>
      </g>
      <g id="Group_559" data-name="Group 559">
        <g id="Group_558" data-name="Group 558">
          <path id="Path_440" data-name="Path 440" d="M524.63,190.24c-10.36,9.67-16.69,22.66-26.05,33.2-9.53,10.75-20.82,19.43-32.65,27.48-1.32.9-.07,3.07,1.26,2.16,11.54-7.86,22.58-16.26,32.04-26.63,9.88-10.83,16.42-24.42,27.16-34.45,1.18-1.1-.59-2.86-1.76-1.76Z" fill="#292e34"/>
        </g>
      </g>
      <g id="Group_561" data-name="Group 561">
        <g id="Group_560" data-name="Group 560">
          <path id="Path_441" data-name="Path 441" d="M487.92,242.01q-13.3,10.53-26.61,21.05c-1.26,1,.52,2.76,1.77,1.77q13.3-10.53,26.61-21.05c1.25-1-.53-2.75-1.77-1.77Z" fill="#292e34"/>
        </g>
      </g>
      <g id="Group_580" data-name="Group 580">
        <g id="Group_563" data-name="Group 563">
          <g id="Group_562" data-name="Group 562">
            <path id="Path_442" data-name="Path 442" d="M627.77,376.1c9.29,4.06,16.97,12.08,24.16,19.02,8.85,8.54,18.55,16.05,27.44,24.53.08-.65.17-1.31.25-1.96-5.69,2.82-10.23,7.75-13.4,13.19-1.74,2.98-6.03,10.46-3.23,13.6a1.256,1.256,0,0,0,1.51.2c.15-.1.31-.2.46-.29a1.291,1.291,0,0,0,.45-1.71l-.18-.39c-.67-1.46-2.83-.19-2.16,1.26l.18.39.45-1.71c1.85-1.19,1.9-4.15,2.75-6.17a34.111,34.111,0,0,1,3.58-6.48,29.586,29.586,0,0,1,10.86-9.72,1.251,1.251,0,0,0,.25-1.96c-9.2-8.77-19.2-16.63-28.39-25.45-7.03-6.75-14.64-14.53-23.71-18.49-1.46-.65-2.74,1.5-1.27,2.14Z" fill="#292e34"/>
          </g>
        </g>
        <g id="Group_565" data-name="Group 565">
          <g id="Group_564" data-name="Group 564">
            <path id="Path_443" data-name="Path 443" d="M680.57,420.3c2.38,1.99,6.02,3.85,8.01,6.17q2.73,1.005,1.15,4.14c-.42,1.25-.83,2.49-1.25,3.74-.73,2.18-1.45,4.36-2.18,6.55s-.75,4.64-3.2,5.43c-.77.25-3.26-.43-4.08-.49-4.73-.37-9.54-.94-13.9-2.92-1.45-.66-2.73,1.5-1.26,2.16,4.84,2.18,9.94,2.73,15.16,3.26,4.07.41,6.24,1.87,8.13-2.09,1.52-3.17,2.31-6.94,3.43-10.29.69-2.07,2.98-6.14,2.4-8.4a4.3,4.3,0,0,0-1.79-2.32c-2.73-2.42-6.04-4.33-8.86-6.7-1.22-1.03-3,.73-1.76,1.76Z" fill="#292e34"/>
          </g>
        </g>
        <g id="Group_567" data-name="Group 567">
          <g id="Group_566" data-name="Group 566">
            <path id="Path_444" data-name="Path 444" d="M694.38,431.1c4.29,4.34,10.5,4.44,14.13,9.82,3.66,5.42,6.46,11.69,9.07,17.66a169.646,169.646,0,0,1,11.96,41.29l1.54-1.54c-4.3-.59-6.02-5.36-7.82-8.72q-2.655-4.965-5.3-9.93c-2.88-5.39-5.42-12.63-10.4-16.49-3.17-2.46-7.59-3.4-11.04-1-3.68,2.55-6.34,14.4-12.3,12.62a1.25,1.25,0,0,0-.66,2.41c3.52,1.05,6.24-1.3,8.35-3.93,1.66-2.07,2.45-4.57,3.96-6.71,4.96-7.07,11.38-1.17,14.34,3.94,3.69,6.38,6.99,13.03,10.46,19.53,2.26,4.23,4.37,9.96,9.76,10.7a1.277,1.277,0,0,0,1.54-1.54,171.517,171.517,0,0,0-12.22-41.89c-2.78-6.35-5.71-13.34-9.93-18.89-3.71-4.88-9.59-4.96-13.66-9.09a1.252,1.252,0,0,0-1.78,1.76Z" fill="#292e34"/>
          </g>
        </g>
        <g id="Group_569" data-name="Group 569">
          <g id="Group_568" data-name="Group 568">
            <path id="Path_445" data-name="Path 445" d="M688.39,442.92c2.66,3,3.4,5.41,2.35,9.27-.75,2.75-1.97,5.48-2.94,8.16q-2.775,7.71-5.55,15.41c-.55,1.52,1.87,2.17,2.41.66,2.72-7.55,5.48-15.1,8.15-22.66,1.88-5.3,1.06-8.42-2.66-12.61-1.06-1.21-2.83.57-1.76,1.77Z" fill="#292e34"/>
          </g>
        </g>
        <g id="Group_571" data-name="Group 571">
          <g id="Group_570" data-name="Group 570">
            <path id="Path_446" data-name="Path 446" d="M706.66,467.66a1.251,1.251,0,0,0,0-2.5,1.251,1.251,0,0,0,0,2.5Z" fill="#292e34"/>
          </g>
        </g>
        <g id="Group_573" data-name="Group 573">
          <g id="Group_572" data-name="Group 572">
            <path id="Path_447" data-name="Path 447" d="M706.32,465.18c-.78,5.5-7.87,7.44-8.44,13.31a1.263,1.263,0,0,0,1.25,1.25,18.725,18.725,0,0,0,8.01-1.6c1.59-.72,4.71-2.1,5.14-4.03a1.308,1.308,0,0,0-.57-1.41c-.09-.06-.18-.11-.26-.17a1.258,1.258,0,0,0-1.51.2l-.18.18c-1.17,1.11.6,2.88,1.77,1.77l.18-.18c-.5.07-1.01.13-1.51.2.09.06.18.11.26.17l-.57-1.41c-.25,1.12-4.06,2.59-4.87,2.88a16.514,16.514,0,0,1-5.87.92l1.25,1.25c.51-5.27,7.59-7.24,8.35-12.64.2-1.6-2.21-2.28-2.43-.69Z" fill="#292e34"/>
          </g>
        </g>
        <g id="Group_575" data-name="Group 575">
          <g id="Group_574" data-name="Group 574">
            <path id="Path_448" data-name="Path 448" d="M711.99,472.48c-3.06,2.97-6.84,5.85-9.32,9.32-1.73,2.42-2.05,5.34.03,7.63a1.271,1.271,0,0,0,1.51.2,30.976,30.976,0,0,0,11.39-11.2,1.251,1.251,0,0,0-2.16-1.26,28.424,28.424,0,0,1-10.5,10.3c.5.07,1.01.13,1.51.2-3.24-3.56,7.01-11.19,9.3-13.42,1.17-1.13-.6-2.89-1.76-1.77Z" fill="#292e34"/>
          </g>
        </g>
        <g id="Group_577" data-name="Group 577">
          <g id="Group_576" data-name="Group 576">
            <path id="Path_449" data-name="Path 449" d="M717.16,485.39a111.021,111.021,0,0,1-7.84,11.86c.65-.08,1.31-.17,1.96-.25a6.4,6.4,0,0,1-1.46-7.08c.57-1.5-1.84-2.15-2.41-.66a8.839,8.839,0,0,0,2.1,9.51,1.27,1.27,0,0,0,1.96-.25,114.176,114.176,0,0,0,7.84-11.86,1.249,1.249,0,0,0-2.15-1.27Z" fill="#292e34"/>
          </g>
        </g>
        <g id="Group_579" data-name="Group 579">
          <g id="Group_578" data-name="Group 578">
            <path id="Path_450" data-name="Path 450" d="M663.16,437.75q-13.245-2.85-26.48-5.69c-1.57-.34-2.24,2.07-.66,2.41q13.245,2.85,26.48,5.69c1.57.34,2.24-2.07.66-2.41Z" fill="#292e34"/>
          </g>
        </g>
      </g>
      <g id="Group_582" data-name="Group 582">
        <g id="Group_581" data-name="Group 581">
          <path id="Path_451" data-name="Path 451" d="M594.37,278.67a40.972,40.972,0,0,1,24.77,34c.14,1.59,2.64,1.6,2.5,0a43.624,43.624,0,0,0-26.61-36.41c-1.47-.63-2.12,1.79-.66,2.41Z" fill="#292e34"/>
        </g>
      </g>
      <g id="Group_591" data-name="Group 591">
        <g id="Group_584" data-name="Group 584">
          <g id="Group_583" data-name="Group 583">
            <path id="Path_452" data-name="Path 452" d="M411.03,810.37c-1.56,3.79-5.84,5.67-9.12,7.65-1.36.82-2.28,1.27-2.79,2.9-.59,1.87-.05,4.19.32,6.06a98.791,98.791,0,0,1,1.68,10.99c.66,7.92,1.55,15.82,2.72,23.68.61,4.12,1.3,8.22,2.03,12.31,1.05,5.86,3.88,14.39-2.8,17.98-1.42.76-.16,2.92,1.26,2.16,6.87-3.69,5.66-11.48,4.46-17.99-1.83-9.97-3.38-19.99-4.43-30.08-.47-4.54-.58-9.17-1.23-13.68-.42-2.94-1.95-6.17-1.73-9.16.24-3.38,4.54-4.38,7.03-6.27a14.265,14.265,0,0,0,5-5.87c.62-1.5-1.79-2.15-2.4-.68Z" fill="#292e34"/>
          </g>
        </g>
        <g id="Group_586" data-name="Group 586">
          <g id="Group_585" data-name="Group 585">
            <path id="Path_453" data-name="Path 453" d="M373.73,793.94c1.23,2.74,3.09,7.59,5.95,9.1,2.35,1.24,5.28-.9,7.19-2.14,1.7-1.1,3.1-2.56,4.75-3.69a8.789,8.789,0,0,1,7.37-1.13c1.12.41,2.33,2.03,3.14,2.84,2.16,2.15,3.73,4.66,5.64,7,.95,1.16,3.56,3.06,2.87,4.84-.58,1.5,1.84,2.15,2.41.66,1.33-3.45-2.24-5.65-4.06-8.18-2.77-3.86-6.23-8.26-10.47-10.59-3.78-2.08-5.86.27-8.67,2.78-1.47,1.31-6.73,6.27-9.24,5.17-2.01-.88-3.88-6.06-4.72-7.94-.66-1.44-2.81-.17-2.16,1.28Z" fill="#292e34"/>
          </g>
        </g>
        <g id="Group_588" data-name="Group 588">
          <g id="Group_587" data-name="Group 587">
            <path id="Path_454" data-name="Path 454" d="M408.83,801.96c5.51-7.9,12.5-14.37,19.32-21.09,1.15-1.13-.62-2.9-1.77-1.77-6.98,6.88-14.08,13.52-19.71,21.6-.92,1.32,1.25,2.57,2.16,1.26Z" fill="#292e34"/>
          </g>
        </g>
        <g id="Group_590" data-name="Group 590">
          <g id="Group_589" data-name="Group 589">
            <path id="Path_455" data-name="Path 455" d="M378.94,799.57c13.55-9.53,24.43-21.75,33.19-35.74.86-1.37-1.31-2.62-2.16-1.26-8.53,13.63-19.1,25.57-32.29,34.85-1.31.91-.06,3.07,1.26,2.15Z" fill="#292e34"/>
          </g>
        </g>
      </g>
      <g id="Group_593" data-name="Group 593">
        <g id="Group_592" data-name="Group 592">
          <path id="Path_456" data-name="Path 456" d="M347.64,814.47c8.8,17.36,16.49,35.27,25.94,52.3,3.82,6.88,7.87,13.84,13.05,19.81,3.02,3.48,6.9,7.3,11.79,7.5,1.61.07,1.61-2.43,0-2.5-5.5-.23-9.96-6.41-12.9-10.39a160.968,160.968,0,0,1-12.33-20.38c-8.3-15.62-15.4-31.83-23.39-47.6-.73-1.44-2.89-.17-2.16,1.26Z" fill="#292e34"/>
        </g>
      </g>
      <g id="Group_595" data-name="Group 595">
        <g id="Group_594" data-name="Group 594">
          <path id="Path_457" data-name="Path 457" d="M349.23,812.93a156.1,156.1,0,0,0,14.2-8.95,44.763,44.763,0,0,0,4.97-4.25c.27-.27,5.37-5.98,5.54-5.41.46,1.54,2.88.88,2.41-.66-1.76-5.83-6.56.79-8.13,2.62-5.43,6.34-13.19,10.31-20.25,14.51a1.242,1.242,0,0,0,1.26,2.14Z" fill="#292e34"/>
        </g>
      </g>
      <g id="Group_597" data-name="Group 597">
        <g id="Group_596" data-name="Group 596">
          <path id="Path_458" data-name="Path 458" d="M540.23,450.65a24.2,24.2,0,0,1-19.68,21.26A1.266,1.266,0,0,0,520,474c.44.52.88,1.03,1.31,1.55,1.04,1.23,2.8-.55,1.77-1.77-.44-.52-.88-1.03-1.31-1.55-.18.7-.37,1.39-.55,2.09a26.686,26.686,0,0,0,21.51-23.68c.16-1.59-2.35-1.57-2.5.01Z" fill="#292e34"/>
        </g>
      </g>
      <g id="Group_599" data-name="Group 599">
        <g id="Group_598" data-name="Group 598">
          <path id="Path_459" data-name="Path 459" d="M496.85,286.75c12.14,2.95,16.32,20.42,19.04,30.71a155.809,155.809,0,0,1,5,43.26,1.251,1.251,0,0,0,2.5,0,157.65,157.65,0,0,0-6.59-49.22c-3.04-10.03-7.7-24.35-19.28-27.16-1.57-.38-2.23,2.03-.67,2.41Z" fill="#292e34"/>
        </g>
      </g>
      <g id="Group_601" data-name="Group 601">
        <g id="Group_600" data-name="Group 600">
          <path id="Path_460" data-name="Path 460" d="M503.91,383.35c-.16,4.72.08,9.48.22,14.2q.12,4.47.29,8.94c.05,1.36.96,5.36.3,6.56-1.42,2.57-12.1,1.42-14.72,1.43q-6.36.015-12.71-.38c-9.91-.62-19.74-2.03-29.56-3.5-1.57-.24-2.25,2.17-.66,2.41,10.03,1.51,20.09,2.96,30.22,3.59,5.35.34,10.71.44,16.07.35q4.02-.075,8.04-.27c1.26-.06,3.79.17,4.92-.82,1.38-1.21.84-3.69.76-5.29-.15-3.18-.25-6.35-.35-9.53-.18-5.87-.52-11.8-.32-17.67a1.251,1.251,0,0,0-2.5-.02Z" fill="#292e34"/>
        </g>
      </g>
      <g id="Group_603" data-name="Group 603">
        <g id="Group_602" data-name="Group 602">
          <path id="Path_461" data-name="Path 461" d="M444.89,411.9q-4.92,52.9-6.68,106.04c-.46,14.06-1.27,27.5,8.7,38.64,8.99,10.05,22.61,15.83,35.71,17.92a72.171,72.171,0,0,0,23.51-.13c4.8-.82,13.72-1.6,15.57-7.07.52-1.53-1.9-2.18-2.41-.66-1.25,3.7-9.71,4.58-12.99,5.18a69.2,69.2,0,0,1-40.58-4.96,50.374,50.374,0,0,1-18.02-13.17c-6.34-7.64-7.47-16.55-7.28-26.15.76-38.6,3.39-77.22,6.97-115.65.15-1.59-2.36-1.58-2.5.01Z" fill="#292e34"/>
        </g>
      </g>
      <g id="Group_605" data-name="Group 605">
        <g id="Group_604" data-name="Group 604">
          <path id="Path_462" data-name="Path 462" d="M519.11,412.78c-.29,26.85.86,53.67,2.14,80.48.63,13.19,1.32,26.38,1.81,39.58.46,12.33.46,25.05-5.94,36.02a1.251,1.251,0,0,0,2.16,1.26c5.58-9.57,6.6-20.49,6.45-31.36-.19-13.84-1.12-27.7-1.78-41.53-1.36-28.13-2.64-56.28-2.33-84.45a1.256,1.256,0,0,0-2.51,0Z" fill="#292e34"/>
        </g>
      </g>
      <g id="Group_607" data-name="Group 607">
        <g id="Group_606" data-name="Group 606">
          <path id="Path_463" data-name="Path 463" d="M481.84,291.85c5.45,2.36,8.22,7.44,10.5,12.65a145.083,145.083,0,0,1,6.36,17.77,157.436,157.436,0,0,1,6.01,36.58c.08,1.6,2.58,1.61,2.5,0a160.318,160.318,0,0,0-7.16-40.75c-3.06-9.66-6.69-23.96-16.95-28.41-1.46-.64-2.73,1.52-1.26,2.16Z" fill="#292e34"/>
        </g>
      </g>
      <g id="Group_609" data-name="Group 609">
        <g id="Group_608" data-name="Group 608">
          <path id="Path_464" data-name="Path 464" d="M540.22,800.81c3.48-6.33,12.67-4.93,18.7-4.63,7.35.36,14.69.9,22.05,1.15,14.04.47,28.1-.26,41.43-5.03,1.5-.54.86-2.95-.66-2.41-16.1,5.76-33.12,5.44-49.96,4.52-7.31-.4-14.9-1.44-22.22-.9-4.68.35-9.12,1.73-11.49,6.05-.78,1.4,1.38,2.66,2.15,1.25Z" fill="#292e34"/>
        </g>
      </g>
      <g id="Group_611" data-name="Group 611">
        <g id="Group_610" data-name="Group 610">
          <path id="Path_465" data-name="Path 465" d="M524.44,656.15c14.65-8.12,19.97,14.68,23.98,24.09,3.46,8.11,8.25,19.74,16.67,23.97a9.224,9.224,0,0,0,8.46.17c1.38-.76,1.82-1.94,2.87-2.95,3.77-3.62,7.5.17,10.37,3.02q7.11,7.02,14.21,14.05c2.35,2.33,6.36,8.61,10.06,8.24a1.284,1.284,0,0,0,1.25-1.25c0-.14,0-.28-.01-.42a1.227,1.227,0,0,0-.62-1.08c-.16-.07-.31-.14-.47-.21a1.289,1.289,0,0,0-1.84.75c-.04.09-.07.17-.11.26-.61,1.49,1.81,2.13,2.41.66.04-.09.07-.17.11-.26-.61.25-1.22.5-1.84.75-.05-.15-.1-.3-.14-.45l1.25-1.25c-2.03.2-6.92-6.15-8.29-7.51q-3.72-3.675-7.44-7.36c-4.02-3.97-8.14-9.56-13-12.47-2.64-1.58-5.07-1.32-6.95,1.21-2.58,3.48-4.52,5.95-9.12,3.79-3.33-1.56-5.79-5.03-7.83-7.96-6.79-9.76-9.77-21.36-14.91-31.95-3.91-8.06-11.8-12.74-20.33-8.01a1.256,1.256,0,0,0,1.26,2.17Z" fill="#292e34"/>
        </g>
      </g>
      <g id="Group_613" data-name="Group 613">
        <g id="Group_612" data-name="Group 612">
          <path id="Path_466" data-name="Path 466" d="M412.54,715.59a206.12,206.12,0,0,0,54.19,71.92c1.22,1.04,3-.72,1.77-1.77a204.4,204.4,0,0,1-53.8-71.41c-.67-1.46-2.82-.19-2.16,1.26Z" fill="#292e34"/>
        </g>
      </g>
      <g id="Group_615" data-name="Group 615">
        <g id="Group_614" data-name="Group 614">
          <path id="Path_467" data-name="Path 467" d="M492.81,747.71c2.7-17.5,5.41-37.54-5.87-52.78-2.81-3.8-7.07-6.51-9.07-10.85-2.24-4.86-2.21-10.77-2.47-16.02a148.122,148.122,0,0,1,2.46-34.47c.3-1.57-2.11-2.25-2.41-.66a151.541,151.541,0,0,0-2.7,30.28c.11,7.67-.33,18.13,4.39,24.73,2.7,3.78,6.53,6.41,9.08,10.37a40.8,40.8,0,0,1,5.44,13.96c2.34,11.5.49,23.34-1.27,34.78-.23,1.57,2.18,2.25,2.42.66Z" fill="#292e34"/>
        </g>
      </g>
      <g id="Group_617" data-name="Group 617">
        <g id="Group_616" data-name="Group 616">
          <path id="Path_468" data-name="Path 468" d="M522.06,491.51a67.732,67.732,0,0,0,30.72-33.14c.63-1.46-1.52-2.74-2.16-1.26a65.558,65.558,0,0,1-29.82,32.24c-1.42.75-.16,2.91,1.26,2.16Z" fill="#292e34"/>
        </g>
      </g>
      <g id="Group_619" data-name="Group 619">
        <g id="Group_618" data-name="Group 618">
          <path id="Path_469" data-name="Path 469" d="M555.71,821.09q-1.245-13.32-2.49-26.65c-.15-1.59-2.65-1.6-2.5,0q1.245,13.32,2.49,26.65c.15,1.59,2.65,1.6,2.5,0Z" fill="#292e34"/>
        </g>
      </g>
      <g id="Group_621" data-name="Group 621">
        <g id="Group_620" data-name="Group 620">
          <path id="Path_470" data-name="Path 470" d="M553.31,794.4a125.118,125.118,0,0,0,3.97,30.51,1.25,1.25,0,0,0,2.41-.66,121.667,121.667,0,0,1-3.88-29.85,1.251,1.251,0,0,0-2.5,0Z" fill="#292e34"/>
        </g>
      </g>
      <g id="Group_623" data-name="Group 623">
        <g id="Group_622" data-name="Group 622">
          <path id="Path_471" data-name="Path 471" d="M555.04,795.18q-5.535-32.22-8.59-64.78c-.15-1.59-2.65-1.6-2.5,0q3.075,32.88,8.68,65.44c.27,1.59,2.68.92,2.41-.66Z" fill="#292e34"/>
        </g>
      </g>
      <g id="Group_625" data-name="Group 625">
        <g id="Group_624" data-name="Group 624">
          <path id="Path_472" data-name="Path 472" d="M544.48,709.06q-12.045-71.61-19.18-143.93c-.16-1.59-2.66-1.6-2.5,0q7.155,72.6,19.27,144.59c.27,1.59,2.68.92,2.41-.66Z" fill="#292e34"/>
        </g>
      </g>
      <g id="Group_627" data-name="Group 627">
        <g id="Group_626" data-name="Group 626">
          <path id="Path_473" data-name="Path 473" d="M352.07,809.95a279.143,279.143,0,0,0,20.64,48.61,220.137,220.137,0,0,0,13.78,22.62c3.6,5.07,7.77,9.5,13.84,11.41,1.54.48,2.2-1.93.66-2.41-7.59-2.39-11.9-9.38-15.98-15.72q-6.375-9.915-11.86-20.36a277.116,277.116,0,0,1-18.68-44.82c-.47-1.52-2.89-.87-2.4.67Z" fill="#292e34"/>
        </g>
      </g>
      <g id="Group_629" data-name="Group 629">
        <g id="Group_628" data-name="Group 628">
          <path id="Path_474" data-name="Path 474" d="M585.6,908.15l31.77-6.6c5.04-1.05,10.07-2.17,15.14-3.07a84.841,84.841,0,0,1,10.29-1.29c1.6-.09,8.11-.87,9.1.59.9,1.32,3.07.07,2.16-1.26-2.12-3.12-8.05-2.01-11.26-1.83a127.58,127.58,0,0,0-18.62,2.9q-19.62,4.05-39.24,8.15c-1.58.33-.92,2.74.66,2.41Z" fill="#292e34"/>
        </g>
      </g>
      <g id="Group_631" data-name="Group 631">
        <g id="Group_630" data-name="Group 630">
          <path id="Path_475" data-name="Path 475" d="M604.9,911.07q15.45.06,30.86,1.06c1.61.1,1.6-2.4,0-2.5q-15.42-1-30.86-1.06a1.251,1.251,0,0,0,0,2.5Z" fill="#292e34"/>
        </g>
      </g>
      <g id="Group_633" data-name="Group 633">
        <g id="Group_632" data-name="Group 632">
          <path id="Path_476" data-name="Path 476" d="M622.23,906.11q12.03.975,24.09.93a1.251,1.251,0,0,0,0-2.5q-12.06.045-24.09-.93c-1.6-.13-1.59,2.37,0,2.5Z" fill="#292e34"/>
        </g>
      </g>
      <g id="Group_635" data-name="Group 635">
        <g id="Group_634" data-name="Group 634">
          <path id="Path_477" data-name="Path 477" d="M639.98,901.96l12.4,2.37c1.57.3,2.25-2.11.66-2.41l-12.4-2.37c-1.56-.3-2.24,2.11-.66,2.41Z" fill="#292e34"/>
        </g>
      </g>
      <g id="Group_637" data-name="Group 637">
        <g id="Group_636" data-name="Group 636">
          <path id="Path_478" data-name="Path 478" d="M601.4,862.26a16.859,16.859,0,0,1,5.81-.86,1.251,1.251,0,0,0,0-2.5,19.157,19.157,0,0,0-6.47.95c-1.53.5-.88,2.92.66,2.41Z" fill="#292e34"/>
        </g>
      </g>
      <g id="Group_639" data-name="Group 639">
        <g id="Group_638" data-name="Group 638">
          <path id="Path_479" data-name="Path 479" d="M604.19,865.87a8.777,8.777,0,0,1,6.84-.09c1.51.57,2.16-1.84.66-2.41a11.316,11.316,0,0,0-8.77.35c-1.46.64-.19,2.8,1.27,2.15Z" fill="#292e34"/>
        </g>
      </g>
      <g id="Group_641" data-name="Group 641">
        <g id="Group_640" data-name="Group 640">
          <path id="Path_480" data-name="Path 480" d="M607.86,869.66a12.53,12.53,0,0,1,3.39-.45,12.178,12.178,0,0,1,1.81.16c.18.04.35.07.53.11.64.33.78.1.39-.69.61-.25,1.22-.5,1.84-.75-.04-.02-.08-.03-.12-.05-1.46-.64-2.73,1.51-1.26,2.16.04.02.08.03.12.05a1.273,1.273,0,0,0,1.84-.75c.68-3.82-7.2-2.73-9.19-2.21a1.254,1.254,0,0,0,.65,2.42Z" fill="#292e34"/>
        </g>
      </g>
      <g id="Group_643" data-name="Group 643">
        <g id="Group_642" data-name="Group 642">
          <path id="Path_481" data-name="Path 481" d="M611.59,874.34a12.22,12.22,0,0,1,7.94.38c1.5.58,2.15-1.84.66-2.41a14.5,14.5,0,0,0-9.27-.38,1.251,1.251,0,0,0,.67,2.41Z" fill="#292e34"/>
        </g>
      </g>
      <g id="Group_645" data-name="Group 645">
        <g id="Group_644" data-name="Group 644">
          <path id="Path_482" data-name="Path 482" d="M389.89,814.48a26.409,26.409,0,0,0,2.96,3.55c.51.5,1.05.98,1.61,1.43.3.24,1.73,1.02,1.8,1.33l.57-1.41-.12.09c.32-.04.64-.08.96-.13.1.06.2.11.29.17.07.5.13,1.01.2,1.51.02-.03.05-.06.07-.09.95-1.3-1.21-2.55-2.16-1.26-.02.03-.05.06-.07.09a1.244,1.244,0,0,0,.2,1.51,1.426,1.426,0,0,0,1.89.26,1.3,1.3,0,0,0,.57-1.41c-.32-1.41-2.24-2.22-3.26-3.13a21.853,21.853,0,0,1-3.36-3.77c-.91-1.31-3.08-.07-2.15,1.26Z" fill="#292e34"/>
        </g>
      </g>
      <g id="Group_647" data-name="Group 647">
        <g id="Group_646" data-name="Group 646">
          <path id="Path_483" data-name="Path 483" d="M387.9,817.44a35.441,35.441,0,0,0,7.83,8.06c1.29.96,2.54-1.21,1.26-2.16a31.4,31.4,0,0,1-6.93-7.16c-.91-1.31-3.08-.06-2.16,1.26Z" fill="#292e34"/>
        </g>
      </g>
      <g id="Group_649" data-name="Group 649">
        <g id="Group_648" data-name="Group 648">
          <path id="Path_484" data-name="Path 484" d="M387.31,823.23a47.524,47.524,0,0,0,10.29,11.21c.5-.65,1.01-1.31,1.51-1.96-.36-.19-.73-.39-1.09-.58-1.42-.75-2.69,1.4-1.26,2.16.36.19.73.39,1.09.58,1.19.63,2.68-1.04,1.51-1.96a45.84,45.84,0,0,1-9.9-10.71c-.88-1.34-3.04-.09-2.15,1.26Z" fill="#292e34"/>
        </g>
      </g>
      <g id="Group_651" data-name="Group 651">
        <g id="Group_650" data-name="Group 650">
          <path id="Path_485" data-name="Path 485" d="M389.25,833.1a32.383,32.383,0,0,0,8.69,9.59c1.29.96,2.54-1.21,1.26-2.16a29.433,29.433,0,0,1-7.79-8.69,1.251,1.251,0,0,0-2.16,1.26Z" fill="#292e34"/>
        </g>
      </g>
      <g id="Group_653" data-name="Group 653">
        <g id="Group_652" data-name="Group 652">
          <path id="Path_486" data-name="Path 486" d="M390.64,841.83a31.824,31.824,0,0,0,7.63,7.15c1.34.9,2.59-1.27,1.26-2.16a28.565,28.565,0,0,1-6.73-6.25c-.97-1.25-3.14-.01-2.16,1.26Z" fill="#292e34"/>
        </g>
      </g>
      <g id="Group_655" data-name="Group 655">
        <g id="Group_654" data-name="Group 654">
          <path id="Path_487" data-name="Path 487" d="M392.47,850.04c1.88,1.88,3.75,3.77,5.63,5.65a1.252,1.252,0,0,0,1.77-1.77c-1.88-1.88-3.75-3.77-5.63-5.65a1.252,1.252,0,0,0-1.77,1.77Z" fill="#292e34"/>
        </g>
      </g>
      <g id="Group_657" data-name="Group 657">
        <g id="Group_656" data-name="Group 656">
          <path id="Path_488" data-name="Path 488" d="M397.76,747.16a125.185,125.185,0,0,1,21.06-23.04c1.22-1.05-.55-2.81-1.77-1.77A128.247,128.247,0,0,0,395.6,745.9c-.93,1.32,1.24,2.57,2.16,1.26Z" fill="#292e34"/>
        </g>
      </g>
      <g id="Group_659" data-name="Group 659">
        <g id="Group_658" data-name="Group 658">
          <path id="Path_489" data-name="Path 489" d="M400.81,750.81a151.06,151.06,0,0,1,18.08-23.09c1.1-1.17-.66-2.94-1.77-1.77a154.326,154.326,0,0,0-18.47,23.6c-.85,1.36,1.31,2.62,2.16,1.26Z" fill="#292e34"/>
        </g>
      </g>
      <g id="Group_661" data-name="Group 661">
        <g id="Group_660" data-name="Group 660">
          <path id="Path_490" data-name="Path 490" d="M422.58,724.41c32.56-40.32,67.26-79.9,93.07-125.06a1.251,1.251,0,0,0-2.16-1.26c-25.71,44.98-60.25,84.39-92.68,124.55-1,1.25.76,3.03,1.77,1.77Z" fill="#292e34"/>
        </g>
      </g>
      <g id="Group_663" data-name="Group 663">
        <g id="Group_662" data-name="Group 662">
          <path id="Path_491" data-name="Path 491" d="M525.3,209.85c-5.03,3.45-7.76,9.85-5.51,15.79a13.158,13.158,0,0,0,14.33,8.01,12.908,12.908,0,0,0,10.15-13.11c-.39-6.61-6.1-11.32-12.28-12.42-1.57-.28-2.25,2.13-.66,2.41,4.6.82,9,3.68,10.2,8.47a10.239,10.239,0,0,1-6.42,11.75c-11.71,4.28-18.23-12.1-8.55-18.73,1.32-.91.07-3.08-1.26-2.17Z" fill="#ff3f3f"/>
        </g>
      </g>
      <g id="Group_665" data-name="Group 665">
        <g id="Group_664" data-name="Group 664">
          <path id="Path_492" data-name="Path 492" d="M501.01,428.09c-.69,1.49-1.45,3.36-.78,4.99.86,2.12,3.32,1.19,4.31,2.75.69,1.1-.17,3.22.41,4.52.72,1.61,5,2.26,4.85,3.81.31-.4.61-.8.92-1.21-.56.21-1.12.42-1.68.64-1.49.56-.84,2.98.66,2.41.56-.21,1.12-.42,1.68-.64a1.32,1.32,0,0,0,.92-1.21,4.069,4.069,0,0,0-1.63-3.87c-1.74-1.24-3.18-.06-3.56-2.63-.19-1.31.14-2.61-.75-3.76-1.32-1.7-4.71-1.28-3.19-4.55.67-1.44-1.48-2.71-2.16-1.25Z" fill="#292e34"/>
        </g>
      </g>
      <g id="Group_667" data-name="Group 667">
        <g id="Group_666" data-name="Group 666">
          <path id="Path_493" data-name="Path 493" d="M464.79,451.39c-.75-2.15.79-3.71,2.93-3.72a12.289,12.289,0,0,0,2.35.19c1.65-.29,2.37-1.54,2.78-3.04.41-1.54.53-2.38,2.36-2.83a17.005,17.005,0,0,0,2.72-.4,3.285,3.285,0,0,0,2.33-3.16c.07-1.61-2.43-1.61-2.5,0-.05,1.16-4.88,1.13-5.95,2.21a5.158,5.158,0,0,0-1.15,2.44c-.1.37-.06,1.11-.29,1.41-.61.83-2.22.53-3,.62-3.49.36-6.29,3.22-4.98,6.94.52,1.52,2.94.87,2.4-.66Z" fill="#292e34"/>
        </g>
      </g>
      <g id="Group_669" data-name="Group 669">
        <g id="Group_668" data-name="Group 668">
          <path id="Path_494" data-name="Path 494" d="M480.57,469.25a7.02,7.02,0,0,0,1.37,4.08,7.423,7.423,0,0,1,1.29,2.37c.13,1.12-.71,1.9-.9,2.93a3.119,3.119,0,0,0,.76,2.91c.84.91,4.97,2.03,4.36,3.5s1.8,2.13,2.41.66c1.76-4.19-5.01-4.09-4.71-7.42.14-1.6.91-2.13.26-3.92s-2.38-3.08-2.33-5.11a1.256,1.256,0,0,0-2.51,0Z" fill="#292e34"/>
        </g>
      </g>
      <g id="Group_671" data-name="Group 671">
        <g id="Group_670" data-name="Group 670">
          <path id="Path_495" data-name="Path 495" d="M454.24,506.77a8.853,8.853,0,0,1-.2-2.67c.35-2.16,1.59-1.99,3.32-2.2a6.985,6.985,0,0,0,3.32-.8,3.2,3.2,0,0,0,1.5-2.27c.24-1.76-1.5-4.54,1.71-4.81,1.59-.13,1.61-2.64,0-2.5a4.878,4.878,0,0,0-4.25,2.82,4.436,4.436,0,0,0-.4,2.12c.02.36.45,1.27.38,1.6-.28,1.23-1.72,1.3-2.66,1.34-4.89.21-5.88,3.67-5.14,8.03.28,1.59,2.69.92,2.42-.66Z" fill="#292e34"/>
        </g>
      </g>
      <g id="Group_673" data-name="Group 673">
        <g id="Group_672" data-name="Group 672">
          <path id="Path_496" data-name="Path 496" d="M471.93,517.19c.76-.19.65,4.06.82,4.59a4.867,4.867,0,0,0,1.59,2.23c2.36,1.96,6.83,2.33,5.86,6.53-.36,1.57,2.05,2.23,2.41.66,1.09-4.73-2.18-6.41-5.67-8.46-2.74-1.62-1.1-3.8-2.13-6.16a2.947,2.947,0,0,0-3.56-1.81c-1.55.39-.89,2.8.68,2.42Z" fill="#292e34"/>
        </g>
      </g>
      <g id="Group_675" data-name="Group 675">
        <g id="Group_674" data-name="Group 674">
          <path id="Path_497" data-name="Path 497" d="M494.1,545.65a3.649,3.649,0,0,1,3.76-2.45c.37.02,1.49.69,1.92.76a2.664,2.664,0,0,0,2.5-.75c.35-.39.38-.91.64-1.37.98-1.72,1.76-1.97,3.6-2.19a10.376,10.376,0,0,0,4.13-1.01c1.42-.75.16-2.91-1.26-2.16-2.1,1.11-4.6.3-6.68,1.46a4.538,4.538,0,0,0-1.38,1.12c-.14.18-.83,2.11-.82,2.1-1.07.6-3.45-1.18-4.92-.77-1.85.51-2.89,2.38-3.65,3.98-.68,1.46,1.48,2.74,2.16,1.28Z" fill="#292e34"/>
        </g>
      </g>
      <g id="Group_677" data-name="Group 677">
        <g id="Group_676" data-name="Group 676">
          <path id="Path_498" data-name="Path 498" d="M505.46,515.64c-1.02-1.8,1.86-1.15,2.63-.99a3.722,3.722,0,0,0,2.24-.07c2.23-.94,1.66-3.78,4.77-3.64,1.61.07,1.61-2.43,0-2.5a5.5,5.5,0,0,0-4.24,1.55c-.67.67-1.04,2.13-2.1,2.25-.65.07-1.61-.48-2.29-.54a3.428,3.428,0,0,0-3.17,5.2,1.251,1.251,0,0,0,2.16-1.26Z" fill="#292e34"/>
        </g>
      </g>
      <g id="Group_679" data-name="Group 679">
        <g id="Group_678" data-name="Group 678">
          <path id="Path_499" data-name="Path 499" d="M454.35,542.82c-.96-2.36,4.64-2.59,5.94-3.12a4.78,4.78,0,0,0,2.09-1.47,3.847,3.847,0,0,0,.56-1.06,2.156,2.156,0,0,0,.17-.75c.16-.63-.12-1.14-.85-1.53-.55,1.51,1.87,2.17,2.41.66a1.877,1.877,0,0,0-2.34-2.3c-2.14.53-1.06,3.37-3.02,4.14s-4.01.55-5.79,1.82c-1.4,1-2.27,2.58-1.58,4.26.59,1.48,3.01.84,2.41-.65Z" fill="#292e34"/>
        </g>
      </g>
      <g id="Group_681" data-name="Group 681">
        <g id="Group_680" data-name="Group 680">
          <path id="Path_500" data-name="Path 500" d="M483.63,555.15a4.558,4.558,0,0,0,1.43,4.35c1.02,1,6.81,3.32,4.6,5.25-.88.77-.11,2.06.88,2.13a4.4,4.4,0,0,1,3.03,1.53c1.09,1.19,2.86-.58,1.77-1.77a6.781,6.781,0,0,0-4.79-2.26c.29.71.59,1.42.88,2.13a3.763,3.763,0,0,0,.64-4.76c-1.13-2.08-6.51-3.35-6.03-5.95.29-1.56-2.12-2.23-2.41-.65Z" fill="#292e34"/>
        </g>
      </g>
      <g id="Group_683" data-name="Group 683">
        <g id="Group_682" data-name="Group 682">
          <path id="Path_501" data-name="Path 501" d="M506.1,485.09c.25-.6.5-1.2.75-1.81l-.87.87c1.49-.5,3.04.38,4.52-.24,1.27-.53,1.46-2.01,2.74-2.46,1.18-.42,2.2-.11,3.25-.98a2.519,2.519,0,0,0,.9-2.95c-.57-1.49-2.98-.84-2.41.66.18.48-3.23,1.03-3.69,1.32-1.05.65-1.15,1.95-2.44,2.14-1.18.17-2.35-.48-3.53.1-1.02.51-1.2,1.67-1.62,2.68-.62,1.49,1.8,2.14,2.4.67Z" fill="#292e34"/>
        </g>
      </g>
      <g id="Group_685" data-name="Group 685">
        <g id="Group_684" data-name="Group 684">
          <path id="Path_502" data-name="Path 502" d="M449.16,454.31a2.711,2.711,0,0,0,.35,3.47c1.49,1.73,4.61.8,3.97,3.84-.35,1.64-1.35,2.39-.61,4.2a5.419,5.419,0,0,0,1.64,2.01c.39.33,5.14,3.11,3.1,3.91-1.48.58-.83,3,.66,2.41a3.168,3.168,0,0,0,2.28-3.2c-.04-2.44-2.01-3-3.54-4.43-3.21-3.01.44-4.33-.56-7.31-.36-1.08-5.04-3.82-5.13-3.66.83-1.36-1.33-2.62-2.16-1.24Z" fill="#292e34"/>
        </g>
      </g>
      <g id="Group_687" data-name="Group 687">
        <g id="Group_686" data-name="Group 686">
          <path id="Path_503" data-name="Path 503" d="M456.03,423.16a3.308,3.308,0,0,0-.18,3.69,5.383,5.383,0,0,0,1.61,1.78c.64.44,1.8.62,2.05,1.31.4,1.11-1.04,2.28-.51,3.63a2.281,2.281,0,0,0,1.22,1.24,2.8,2.8,0,0,0,.63.17,2.867,2.867,0,0,0,.92.05c.49.05.81-.22.96-.82-1.45.68-.19,2.84,1.26,2.16a1.827,1.827,0,0,0,.53-2.84,2.34,2.34,0,0,0-1.27-.91,5.1,5.1,0,0,0-1.17-.1c-.73-.07-.51.28-.61-.14s.7-1.4.8-1.91a2.849,2.849,0,0,0-.18-1.82c-.7-1.41-5.41-2.23-3.92-4.21.99-1.3-1.18-2.55-2.14-1.28Z" fill="#292e34"/>
        </g>
      </g>
      <g id="Group_689" data-name="Group 689">
        <g id="Group_688" data-name="Group 688">
          <path id="Path_504" data-name="Path 504" d="M520.94,637.84c6.12-5.88,14.67-1.59,18.95,4.19,3.91,5.26,6.19,11.8,8.52,17.85,4.34,11.26,8.31,22.68,15.38,32.59a1.269,1.269,0,0,0,1.96.25c1.8-1.48,3.6-2.97,5.39-4.45.75-.62,1.8-1.89,2.7-2.23,1.51-.09,3.02-.19,4.53-.28l1.21,1.51c3.89,3.41,7.04,8.78,10.27,12.82l19.94,24.89c1.01,1.26,2.76-.52,1.77-1.77q-13.29-16.59-26.59-33.19c-1.9-2.38-5.13-8.78-8.98-8.26-1.52.21-2.8,1.58-3.92,2.5q-4.05,3.33-8.09,6.68c.65.08,1.31.17,1.96.25-9.63-13.5-13.16-29.75-20.39-44.44-4.56-9.28-16.38-20.31-26.4-10.7-1.14,1.14.63,2.91,1.79,1.79Z" fill="#292e34"/>
        </g>
      </g>
      <g id="Group_691" data-name="Group 691">
        <g id="Group_690" data-name="Group 690">
          <path id="Path_505" data-name="Path 505" d="M481.47,627.97a222.764,222.764,0,0,0,.05,31.43c.35,4.69.84,9.36,1.5,14.02.37,2.63.52,4.94,2.86,6.52a11.858,11.858,0,0,0,3.07,1.05,9.193,9.193,0,0,1,5.89,5.19c2.15,4.28,3.14,9.44,3.98,14.12a84.375,84.375,0,0,1-.67,32.18c-.33,1.57,2.08,2.24,2.41.66a87.436,87.436,0,0,0,1.39-28.63c-.87-7.09-2-16.24-6.49-22.11-2.15-2.81-4.41-2.65-7.22-4.15-4.42-2.36-3.7-12.42-4.07-16.87a222.858,222.858,0,0,1-.21-33.39c.11-1.63-2.39-1.62-2.49-.02Z" fill="#292e34"/>
        </g>
      </g>
      <g id="Group_698" data-name="Group 698">
        <g id="Group_693" data-name="Group 693">
          <g id="Group_692" data-name="Group 692">
            <path id="Path_506" data-name="Path 506" d="M566.29,210.77c-.05,1.36-.1,2.73-.16,4.09-.06,1.61,2.44,1.61,2.5,0,.05-1.36.1-2.73.16-4.09.07-1.61-2.43-1.6-2.5,0Z" fill="#292e34"/>
          </g>
        </g>
        <g id="Group_695" data-name="Group 695">
          <g id="Group_694" data-name="Group 694">
            <path id="Path_507" data-name="Path 507" d="M576.57,214c.01.84.02,1.68.04,2.52a1.275,1.275,0,0,0,.92,1.21c2.65.39,2.58,3.93-.23,3.85-1.61-.05-1.61,2.45,0,2.5a4.4,4.4,0,0,0,.89-8.76c.31.4.61.8.92,1.21-.01-.84-.02-1.68-.04-2.52a1.251,1.251,0,0,0-2.5-.01Z" fill="#292e34"/>
          </g>
        </g>
        <g id="Group_697" data-name="Group 697">
          <g id="Group_696" data-name="Group 696">
            <path id="Path_508" data-name="Path 508" d="M585.73,212.56a19.467,19.467,0,0,1-.08,3.66,1.257,1.257,0,0,0,1.25,1.25,1.284,1.284,0,0,0,1.25-1.25,18.664,18.664,0,0,0,.08-3.66c-.11-1.59-2.62-1.6-2.5,0Z" fill="#292e34"/>
          </g>
        </g>
      </g>
      <g id="Group_700" data-name="Group 700">
        <g id="Group_699" data-name="Group 699">
          <path id="Path_509" data-name="Path 509" d="M538.23,275.86c1.01-2.42,2.43-4.65,3.01-7.24.35-1.57-2.06-2.24-2.41-.66-.57,2.57-2.01,4.82-3.01,7.24-.62,1.48,1.8,2.13,2.41.66Z" fill="#292e34"/>
        </g>
      </g>
      <g id="Group_702" data-name="Group 702">
        <g id="Group_701" data-name="Group 701">
          <path id="Path_510" data-name="Path 510" d="M547.42,270.41q.045,4.335-.01,8.67a1.251,1.251,0,0,0,2.5,0q.06-4.335.01-8.67a1.251,1.251,0,0,0-2.5,0Z" fill="#292e34"/>
        </g>
      </g>
      <g id="Group_704" data-name="Group 704">
        <g id="Group_703" data-name="Group 703">
          <path id="Path_511" data-name="Path 511" d="M556.35,270.18c.73,2.64,1.46,5.27,2.19,7.91a1.25,1.25,0,0,0,2.41-.66c-.73-2.64-1.46-5.27-2.19-7.91a1.25,1.25,0,0,0-2.41.66Z" fill="#292e34"/>
        </g>
      </g>
      <g id="Group_706" data-name="Group 706">
        <g id="Group_705" data-name="Group 705">
          <path id="Path_512" data-name="Path 512" d="M564.48,268.2a90.08,90.08,0,0,1,5.4,7.35c.88,1.34,3.05.09,2.16-1.26-1.8-2.72-3.73-5.33-5.79-7.86-1.02-1.24-2.78.53-1.77,1.77Z" fill="#292e34"/>
        </g>
      </g>
    </g>
  </g>
</svg>
