<?xml version="1.0" encoding="UTF-8" standalone="no"?>
<svg
   width="512"
   height="512"
   version="1.1"
   id="svg4"
   sodipodi:docname="grupos.svg"
   inkscape:version="1.1.2 (1:1.1+202202050950+0a00cf5339)"
   xmlns:inkscape="http://www.inkscape.org/namespaces/inkscape"
   xmlns:sodipodi="http://sodipodi.sourceforge.net/DTD/sodipodi-0.dtd"
   xmlns="http://www.w3.org/2000/svg"
   xmlns:svg="http://www.w3.org/2000/svg">
  <defs
     id="defs8" />
  <sodipodi:namedview
     id="namedview6"
     pagecolor="#ffffff"
     bordercolor="#111111"
     borderopacity="1"
     inkscape:pageshadow="0"
     inkscape:pageopacity="0"
     inkscape:pagecheckerboard="1"
     showgrid="false"
     inkscape:zoom="1.4042969"
     inkscape:cx="256"
     inkscape:cy="312.96801"
     inkscape:window-width="1848"
     inkscape:window-height="1016"
     inkscape:window-x="72"
     inkscape:window-y="27"
     inkscape:window-maximized="1"
     inkscape:current-layer="svg4" />
  <path
     style="stroke:none;fill-rule:nonzero;fill:#696c7c;fill-opacity:1"
     d="M256 117.332c41.238 0 74.668 33.43 74.668 74.668 0 41.238-33.43 74.668-74.668 74.668-41.238 0-74.668-33.43-74.668-74.668 0-41.238 33.43-74.668 74.668-74.668m-149.332 53.336c11.945 0 23.039 3.2 32.64 8.957-3.203 30.508 5.758 60.8 24.106 84.48-10.668 20.48-32 34.563-56.746 34.563-35.348 0-64-28.656-64-64 0-35.348 28.652-64 64-64m298.664 0c35.348 0 64 28.652 64 64 0 35.344-28.652 64-64 64-24.746 0-46.078-14.082-56.746-34.563 18.348-23.68 27.309-53.972 24.105-84.48 9.602-5.758 20.696-8.957 32.641-8.957m-288 218.664c0-44.16 62.082-80 138.668-80 76.586 0 138.668 35.84 138.668 80v37.336H117.332v-37.336M0 426.668v-32c0-29.656 40.32-54.613 94.934-61.867-12.586 14.508-20.266 34.558-20.266 56.531v37.336H0m512 0h-74.668v-37.336c0-21.973-7.68-42.023-20.266-56.531C471.68 340.055 512 365.01 512 394.668zm0 0"
     id="path2" />
</svg>
