<?xml version="1.0" encoding="UTF-8" standalone="no"?>
<svg
   width="512"
   height="512"
   version="1.1"
   id="svg4"
   sodipodi:docname="news.svg"
   inkscape:version="1.1.2 (1:1.1+202202050950+0a00cf5339)"
   xmlns:inkscape="http://www.inkscape.org/namespaces/inkscape"
   xmlns:sodipodi="http://sodipodi.sourceforge.net/DTD/sodipodi-0.dtd"
   xmlns="http://www.w3.org/2000/svg"
   xmlns:svg="http://www.w3.org/2000/svg">
  <defs
     id="defs8" />
  <sodipodi:namedview
     id="namedview6"
     pagecolor="#ffffff"
     bordercolor="#111111"
     borderopacity="1"
     inkscape:pageshadow="0"
     inkscape:pageopacity="0"
     inkscape:pagecheckerboard="1"
     showgrid="false"
     inkscape:zoom="1.4042969"
     inkscape:cx="256"
     inkscape:cy="256"
     inkscape:window-width="1848"
     inkscape:window-height="1016"
     inkscape:window-x="72"
     inkscape:window-y="27"
     inkscape:window-maximized="1"
     inkscape:current-layer="svg4" />
  <path
     style="stroke:none;fill-rule:nonzero;fill:#696c7c;fill-opacity:1"
     d="M42.668 64v320c0 35.094 28.906 64 64 64h298.664c35.094 0 64-28.906 64-64V149.332h-42.664V384c0 12.055-9.281 21.332-21.336 21.332-12.05 0-21.332-9.277-21.332-21.332V64zm42.664 42.668h256V384c0 8.285 5.953 14.035 8.875 21.332H106.668c-12.055 0-21.336-9.277-21.336-21.332zM128 149.332v64h170.668v-64zM128 256v42.668h170.668V256zm0 85.332V384h170.668v-42.668zm0 0"
     id="path2" />
</svg>
