<svg xmlns="http://www.w3.org/2000/svg" width="512" height="512">
    <path style="stroke:none;fill-rule:nonzero;fill:#000;fill-opacity:1" d="M42.668 64v320c0 35.094 28.906 64 64 64h298.664c35.094 0 64-28.906 64-64V149.332h-42.664V384c0 12.055-9.281 21.332-21.336 21.332-12.05 0-21.332-9.277-21.332-21.332V64zm42.664 42.668h256V384c0 8.285 5.953 14.035 8.875 21.332H106.668c-12.055 0-21.336-9.277-21.336-21.332zM128 149.332v64h170.668v-64zM128 256v42.668h170.668V256zm0 85.332V384h170.668v-42.668zm0 0"/>
</svg>
