<svg xmlns="http://www.w3.org/2000/svg" width="512" height="512">
    <path style="stroke:none;fill-rule:evenodd;fill:#000;fill-opacity:1" d="M240.215 43.863c-35.48 5.95-64.024 26.813-79.723 58.215-7.66 15.34-10.71 28.8-10.71 47.254 0 9.516.425 15.254 1.534 20.48 4.696 22.083 13.825 38.958 29.547 54.637 15.871 15.809 32.621 24.875 54.657 29.567 10.046 2.132 30.914 2.132 40.96 0 20.672-4.395 37.801-13.29 52.567-27.243a102.682 102.682 0 0 0 22.59-30.933c16.937-34.559 14.164-73.559-7.575-106.668-5.289-8.043-20.37-22.973-28.753-28.48a109.54 109.54 0 0 0-38.403-15.915c-9.086-1.918-27.945-2.367-36.691-.914m28.414 42.813c34.582 7.105 57.066 40.918 50.027 75.285-7.105 34.582-40.96 57.09-75.285 50.008-25.187-5.145-44.871-24.82-50.027-50.008-9.11-44.477 30.804-84.395 75.285-75.285m-113.75 213.226c-40 6.465-72.723 33.86-85.203 71.32-4.696 14.06-5.035 17.11-5.442 49.235-.449 34.563-.214 36.14 6.121 42.477a20.994 20.994 0 0 0 29.934.02c6.035-6.036 6.379-8.063 6.379-37.759 0-20.265.297-27.328 1.344-32.492 5.144-25.187 24.832-44.871 50.027-50.004 5.781-1.195 17.813-1.367 97.961-1.367 99.988 0 97.855-.105 110.102 5.016 14.761 6.187 28.03 19.453 34.218 34.218 4.352 10.454 5.012 16.254 5.012 44.63 0 29.695.344 31.722 6.379 37.757a20.994 20.994 0 0 0 29.934-.02c6.335-6.335 6.57-7.913 6.12-42.476-.32-24.297-.66-31.293-1.855-36.457-4.992-21.887-13.93-38.207-29.46-53.824-15.427-15.465-31.212-24.13-53.782-29.485-5.91-1.406-13.805-1.535-103.68-1.703-76.14-.152-98.773.063-104.11.914"/>
</svg>
